<svg width="96" height="96" viewBox="0 0 96 96" fill="none" xmlns="http://www.w3.org/2000/svg">
<path d="M48.0281 2.90186C48.3778 4.02013 48.9304 5.2857 49.312 6.46414C50.4928 10.03 51.3557 13.6934 51.8906 17.4114C52.0007 18.17 52.2965 20.2386 52.2717 20.9003C53.5298 17.9825 54.6136 16.0353 57.6295 14.5256C60.6196 13.0289 63.2629 13.4009 66.4096 14.0345C67.897 14.2267 69.4186 14.6071 70.9125 14.8082C71.1375 14.8385 71.6301 14.8811 71.7684 15.0539C71.6653 15.1617 70.9457 15.3551 70.7446 15.4279C70.2126 15.6203 69.7228 15.8368 69.21 16.0734C65.8579 17.6361 63.0421 20.1531 61.1142 23.3092C60.4987 24.3144 60.1945 25.082 59.6592 26.0566C67.0486 19.796 73.0322 18.5813 82.3982 18.0147C81.3918 18.6741 80.1843 19.256 79.0978 19.9572C75.2957 22.391 71.9671 25.4945 69.2732 29.1168C69.0782 29.3817 67.7437 31.2092 67.7081 31.4241C69.7279 30.6328 71.8579 30.1569 74.0231 30.0131C75.0009 29.9533 76.0195 30.0219 76.9767 29.986C80.2903 29.8615 83.5195 30.2664 86.5851 31.5967C87.705 32.0826 89.5115 33.0008 90.4739 33.8143C90.569 33.9155 91.1123 34.314 91.2825 34.4445C91.8646 34.891 92.5443 35.6096 93.1125 36.0162C90.4359 35.9859 86.9925 35.9281 84.3567 36.0844C80.9779 36.2792 77.6297 36.833 74.3681 37.7363C73.7409 37.9081 71.579 38.522 71.01 38.7772C73.537 40.2957 75.6562 41.6322 77.6432 43.8521C78.6309 44.9554 79.4943 46.0591 80.377 47.2479C82.6964 50.1082 85.8867 52.2401 89.3732 53.3998C89.7009 53.5085 91.3415 53.8535 91.4414 54.0237C91.2754 54.3232 88.7442 55.8828 88.3007 56.1059C87.9661 56.2742 87.3253 56.5179 86.9395 56.6464C84.2728 57.3795 81.4368 56.9356 79.2693 55.1946C78.3609 54.4653 77.647 53.6731 76.6668 52.9432C74.9864 51.6832 73.0889 50.7434 71.0681 50.1706C70.4611 50.0004 68.8054 49.6128 68.2364 49.6203C71.3671 52.0606 72.209 54.7779 73.5412 58.2893C73.9439 59.3623 74.3948 60.416 74.8931 61.4482C75.3886 62.4776 75.9281 63.4854 76.5093 64.4689C76.8473 65.0304 77.422 65.8798 77.7018 66.4287C78.1195 67.0751 79.0771 68.501 79.6007 69.0467C76.1146 68.0403 73.4887 66.9776 70.5042 64.8265C70.5656 65.6276 70.5272 67.0634 70.5182 67.9067C70.5079 68.8517 70.5618 70.1904 70.5032 71.0885C70.5196 71.3731 70.5229 71.5001 70.5037 71.786C70.5061 71.816 70.5117 71.8798 70.5117 71.9215C70.5201 74.0314 70.5164 76.1492 70.5182 78.2581L70.5211 82.1234C70.5215 83.5231 70.6036 85.0249 70.2384 86.3679C69.8671 87.7339 68.9667 89.3042 67.9542 90.2914C65.842 92.3501 63.8198 92.9914 60.9661 93.0125L42.3844 93.0139L37.1262 93.0143C35.7382 93.0143 33.997 93.0781 32.6697 92.8123C30.962 92.4546 29.3931 91.6137 28.1498 90.3893C26.9538 89.2015 26.1121 87.7039 25.7189 86.0642C25.4398 84.8557 25.4874 83.381 25.4881 82.1262L25.4906 78.447L25.4785 64.8715C24.8667 65.2957 23.6825 66.1175 23.0261 66.4123C22.6598 66.6664 21.9701 66.9785 21.5526 67.1867C19.8367 68.0412 18.2337 68.5184 16.4076 69.0462C16.8354 68.5578 17.261 67.9451 17.6385 67.414C19.4106 64.9432 20.8785 62.2414 22.0546 59.441C22.8267 57.6026 23.3102 55.6915 24.2802 53.9379C24.6628 53.246 25.0623 52.5579 25.5344 51.9209C25.9236 51.3959 26.3517 50.8657 26.8299 50.4195C27.1275 50.142 27.4827 49.9203 27.7712 49.625L27.7231 49.6371C27.2077 49.7623 26.6199 49.8096 26.0887 49.9207C24.4966 50.2596 22.9608 50.8235 21.5278 51.5951C20.5822 52.1121 19.8189 52.6057 18.9646 53.2657C18.2486 53.8189 17.6868 54.4456 17.0223 55.0146C15.6272 56.2245 13.8626 56.9248 12.0174 57.0012C11.2127 57.0307 10.3974 56.9974 9.6151 56.7935C9.31346 56.7228 8.35224 56.3721 8.11069 56.276C7.64495 56.0909 4.87899 54.3565 4.63386 54.0649C4.84787 53.8789 5.76362 53.681 6.11232 53.5793C8.21087 52.9685 10.3144 51.9317 12.0678 50.6365C13.3914 49.6732 14.5884 48.5468 15.6305 47.2845C16.3034 46.4582 16.9409 45.5327 17.6228 44.7278C19.6217 42.368 22.2793 40.1775 25.0741 38.8345C23.7736 38.3187 22.3947 37.919 21.0432 37.5623C18.149 36.8 15.1887 36.3161 12.2025 36.1172C9.30371 35.9305 5.87063 36.0006 2.93164 36.0114C3.47274 35.5526 3.95641 35.06 4.50651 34.6001C5.91338 33.4238 7.41113 32.5337 9.07501 31.7794L9.13923 31.7485C11.0488 30.837 13.75 30.176 15.8392 30.0214C16.9998 29.9325 18.2119 30.0355 19.3666 29.9869C22.5666 29.8522 25.2434 30.3231 28.2501 31.3854C28.2475 31.3494 28.2469 31.299 28.2273 31.2684C24.7157 25.8009 19.319 20.7643 13.4257 17.9937C13.7104 17.998 13.997 18.0292 14.2807 18.0518C17.0401 18.2712 19.8141 18.4176 22.5193 19.0485C22.979 19.1558 23.4313 19.2771 23.8944 19.3731C28.0669 20.4373 32.2891 22.6979 35.6063 25.4314C35.81 25.5993 36.0529 25.8285 36.2629 25.9716C36.1929 25.7061 35.5374 24.4279 35.3758 24.1355C33.5607 20.8006 30.7813 18.0913 27.4013 16.3619C26.6729 15.9881 25.9224 15.659 25.154 15.3766C24.9289 15.2949 24.3298 15.1674 24.2212 15.0862C24.3097 14.9697 24.5141 14.9153 24.6545 14.8915C27.2898 14.4445 29.9255 13.9704 32.5698 13.5797C33.0572 13.5076 33.5664 13.4922 34.0583 13.502C38.5531 13.358 42.3291 16.7464 43.7057 20.8638L43.7369 20.8776C43.7398 20.8723 44.0143 18.3012 44.0448 18.0301C44.5513 14.1982 45.4081 10.4208 46.6044 6.74539C46.9537 5.65255 47.5425 3.90791 48.0281 2.90186Z" fill="#3AA000"/>
<path d="M53.9976 58.9102C54.3688 59.2669 55.3124 61.0927 55.5927 61.6373C56.1431 62.7047 56.5649 63.9881 57.0923 65.0709C58.2942 67.5286 60.2952 69.5053 62.7674 70.6772C63.7804 71.1628 64.9499 71.5313 65.9953 72.0141C64.6996 69.8686 64.1174 68.6728 63.4973 66.2405C63.2343 64.8731 63.081 63.9061 63.0267 62.5031C62.9938 61.6523 63.0131 60.367 62.9057 59.5645C64.672 60.3056 67.0682 62.0648 68.5692 63.2728C68.9671 63.5934 70.1699 64.6181 70.5042 64.8267C70.5656 65.6278 70.5271 67.0636 70.5182 67.9069C70.5079 68.8519 70.5618 70.1906 70.5032 71.0888C70.5196 71.3733 70.5229 71.5003 70.5037 71.7862C70.506 71.8162 70.5117 71.88 70.5117 71.9217C70.5201 74.0316 70.5163 76.1494 70.5182 78.2583L70.521 82.1236C70.5215 83.5233 70.6035 85.0252 70.2384 86.3681C69.8671 87.7341 68.9667 89.3044 67.9542 90.2916C65.842 92.3503 63.8198 92.9916 60.966 93.0127L42.3844 93.0141L37.1262 93.0145C35.7381 93.0145 33.997 93.0783 32.6697 92.8125C30.962 92.4548 29.3931 91.6139 28.1497 90.3895C26.9538 89.2017 26.1121 87.7041 25.7189 86.0644C25.4398 84.8559 25.4874 83.3813 25.488 82.1264L25.4906 78.4472L25.4785 64.8717C27.3297 63.4092 29.099 61.8689 31.1383 60.6684C31.7683 60.2972 32.4047 59.947 33.0421 59.5894C33.155 59.7853 32.8841 64.0439 32.8241 64.4916C32.7214 65.2552 32.5693 66.0108 32.3687 66.7542C31.8218 68.7872 31.0974 70.2056 30.0305 71.9873C31.7359 71.3086 33.7691 70.6116 35.2017 69.5053C36.1924 68.887 37.1953 67.7466 37.8874 66.8189C39.0505 65.2598 39.5769 63.3689 40.4244 61.6392C40.8818 60.7059 41.4364 59.8659 41.9336 58.9608C41.9626 58.9983 41.9915 59.0353 42.0205 59.0728C42.1287 60.0595 42.1634 61.0397 42.308 62.0255C42.4497 62.9798 42.6315 63.9277 42.8527 64.867C43.9085 69.3112 45.6658 72.6187 48.0079 76.4887C48.8498 75.0169 50.4937 72.2972 51.0937 70.8192C52.9096 67.1222 53.7252 62.992 53.9976 58.9102Z" fill="#E3E3E3"/>
<path d="M66.373 65.3999C67.2534 66.0252 69.5029 68.0071 70.4362 68.3108C70.4591 68.8518 70.4212 70.708 70.5037 71.0887C70.5201 71.3732 70.5234 71.5002 70.5041 71.7862C70.4465 72.014 70.4334 72.8708 70.4249 73.1347C70.0091 72.658 69.6505 72.021 69.2868 71.503C67.7845 69.3637 67.0696 67.8965 66.373 65.3999Z" fill="#E3E3E3"/>
<path d="M9.61523 56.7939C9.78689 56.3425 10.8798 55.488 11.2994 55.1266C12.1587 54.3813 13.022 53.6411 13.8892 52.9052C15.8343 51.266 17.8028 49.6549 19.794 48.0724C23.1964 45.3439 26.3729 42.6631 30.5253 41.1636C32.9962 42.3831 35.4012 43.7973 37.8479 45.0711C38.0952 45.1998 38.4035 45.354 38.6287 45.5143C38.6264 45.5234 36.8744 46.6535 36.2884 47.8905C35.1732 50.2446 34.1013 53.2352 33.6113 55.8686C33.5286 56.3135 33.0755 59.5333 33.0422 59.5896C32.4049 59.9472 31.7685 60.2974 31.1385 60.6686C29.0992 61.8691 27.3299 63.4094 25.4787 64.8719C24.8669 65.2961 23.6827 66.1179 23.0263 66.4127C22.6599 66.6668 21.9703 66.9789 21.5527 67.1871C19.8368 68.0416 18.2338 68.5188 16.4077 69.0466C16.8355 68.5582 17.2611 67.9455 17.6386 67.4144C19.4108 64.9436 20.8786 62.2418 22.0548 59.4414C22.8268 57.603 23.3103 55.6919 24.2803 53.9383C24.663 53.2465 25.0624 52.5583 25.5345 51.9213C25.9238 51.3963 26.3519 50.8661 26.83 50.4199C27.1276 50.1424 27.4829 49.9207 27.7714 49.6254L27.7233 49.6375C27.2078 49.7627 26.62 49.81 26.0888 49.9211C24.4967 50.26 22.961 50.8239 21.5279 51.5955C20.5823 52.1125 19.8191 52.6061 18.9647 53.2661C18.2488 53.8193 17.6869 54.446 17.0225 55.015C15.6273 56.2249 13.8627 56.9252 12.0175 57.0016C11.2128 57.0311 10.3976 56.9979 9.61523 56.7939Z" fill="#84CD80"/>
<path d="M27.7719 49.6253C27.9178 49.4936 28.3282 49.3333 28.5169 49.2208C30.0324 48.3175 31.8313 47.9144 33.5884 48.0386C33.8438 48.0564 34.3452 48.0639 34.5883 48.1103C34.9131 48.1727 34.9102 48.2383 35.3172 48.2767C34.6728 48.4858 34.1426 48.6513 33.5272 48.9517C31.2037 50.087 29.7778 52.0736 28.6225 54.3123C27.905 55.7031 27.4896 57.1272 26.9283 58.5737C26.2017 60.452 25.329 62.2708 24.3185 64.0127C24.0706 64.4406 22.9684 66.0592 23.0268 66.4127C22.6604 66.6667 21.9708 66.9789 21.5532 67.187C19.8373 68.0416 18.2343 68.5187 16.4082 69.0466C16.836 68.5581 17.2616 67.9455 17.6391 67.4144C19.4113 64.9436 20.8791 62.2417 22.0553 59.4414C22.8273 57.603 23.3108 55.6919 24.2808 53.9383C24.6635 53.2464 25.0629 52.5583 25.535 51.9213C25.9242 51.3963 26.3524 50.8661 26.8305 50.4198C27.1281 50.1423 27.4834 49.9206 27.7719 49.6253Z" fill="#3AA000"/>
<path d="M48.0282 2.90186C48.3779 4.02013 48.9306 5.2857 49.3121 6.46414C50.4929 10.03 51.3559 13.6934 51.8907 17.4114C52.0009 18.17 52.2967 20.2386 52.2718 20.9003C53.5299 17.9825 54.6137 16.0353 57.6296 14.5256C60.6198 13.0289 63.2631 13.4009 66.4098 14.0345C66.3652 14.1526 66.3732 14.2066 66.2359 14.2434C65.0767 14.5538 63.9943 14.8922 62.9378 15.4838C61.0463 16.5426 59.8604 18.3597 58.2962 19.8018C57.1468 20.8606 56.0354 21.9598 54.8167 22.9424C54.0306 23.5766 53.2581 24.0741 52.4523 24.6593C52.5718 28.06 52.4031 31.4647 51.947 34.8368C51.3882 34.6415 50.851 34.4665 50.3978 34.0669C49.6168 33.3787 47.8979 29.8332 47.3565 28.7123C46.4771 26.8908 45.7629 24.9941 45.2222 23.0451C44.9692 22.0826 44.7535 21.1105 44.5757 20.1312C44.4692 19.5361 44.3676 18.8727 44.2323 18.2815C44.2091 18.18 44.1203 18.0992 44.0449 18.0301C44.5515 14.1982 45.4083 10.4208 46.6046 6.74539C46.9538 5.65255 47.5426 3.90791 48.0282 2.90186Z" fill="#84CD80"/>
<path d="M71.0112 38.7773C73.5382 40.2958 75.6574 41.6323 77.6445 43.8522C78.6321 44.9555 79.4955 46.0592 80.3782 47.248C82.6976 50.1083 85.8879 52.2402 89.3745 53.3999C89.7021 53.5087 91.3427 53.8537 91.4426 54.0238C91.2766 54.3233 88.7454 55.8829 88.302 56.106C87.9673 56.2743 87.3265 56.518 86.9407 56.6465C86.9074 56.5944 86.8413 56.4946 86.7841 56.4787C86.2085 56.3151 85.5068 56.2616 84.9227 56.136C84.3902 56.0212 83.8901 55.9138 83.3852 55.7694C82.2766 55.453 81.2149 54.9904 80.2282 54.3937C77.5929 52.7802 75.522 49.731 73.3062 47.5147C70.6052 44.8135 68.2629 43.2539 65.0098 41.3686C65.8315 41.051 67.0854 40.3586 67.9812 39.9723C68.9585 39.5511 70.1121 39.1754 71.0112 38.7773Z" fill="#84CD80"/>
<path d="M48.3229 44.9932C49.3167 45.1924 50.1937 45.4538 50.9536 46.1545C52.8347 47.8887 53.7276 53.0899 53.9175 55.6202C54 56.7195 53.947 57.8131 53.9981 58.9104C53.7258 62.9923 52.9101 67.1224 51.0942 70.8195C50.5622 70.3427 49.4831 68.0149 49.169 67.2832C46.1035 60.1413 45.5031 52.2813 48.3229 44.9932Z" fill="#84CD80"/>
<path d="M23.8953 19.3735C28.0679 20.4377 32.29 22.6983 35.6072 25.4318C35.811 25.5998 36.0538 25.8289 36.2639 25.9721C36.454 26.2572 37.429 27.132 37.7377 27.4247C38.1526 27.8245 38.5528 28.2392 38.9377 28.668C41.5764 31.5773 43.6469 34.9551 45.0421 38.6267C40.2558 37.8958 37.832 36.6497 34.5292 33.1689C33.3961 31.971 32.3085 30.7307 31.2688 29.4508C28.9435 26.5768 26.6969 23.6401 24.5314 20.6438C24.3608 20.4081 23.7613 19.6849 23.7838 19.4588L23.8953 19.3735Z" fill="#84CD80"/>
<path d="M9.07493 31.7793L9.13915 31.7485C11.0487 30.837 13.7499 30.176 15.8391 30.0213C16.9998 29.9325 18.2118 30.0354 19.3666 29.9868C22.5665 29.8522 25.2433 30.3231 28.25 31.3854C28.3871 31.5042 29.7541 32.0873 30.0233 32.2126C30.4359 32.4092 30.8426 32.6177 31.2431 32.8378C34.6275 34.6999 37.6135 37.6901 39.5465 41.0256C36.9121 40.8972 33.3646 40.0131 31.2459 38.4575C29.1971 36.9531 27.9531 35.7332 25.4194 34.8955C23.8669 34.3893 22.2497 34.1095 20.6174 34.065C17.0685 33.9553 13.6989 34.9518 10.5026 32.9725C10.0575 32.6969 9.50885 32.4524 9.1407 32.0652C9.05149 31.9714 9.0664 31.924 9.07493 31.7793Z" fill="#84CD80"/>
<path d="M53.2109 45.273C54.2286 44.899 54.6453 45.0953 55.6147 45.2062C58.5397 45.5411 59.4659 47.1429 60.4906 49.6648C61.3264 51.6677 61.9597 53.7495 62.3802 55.8785C62.6314 57.1634 62.7472 58.271 62.9066 59.5643C63.0139 60.3668 62.9947 61.6521 63.0275 62.5029C63.0819 63.9059 63.2352 64.8729 63.4981 66.2402C62.3581 65.3515 60.7798 63.6429 59.8798 62.5202C57.6008 59.6796 55.9114 56.4124 54.9111 52.9104C54.5909 51.7924 54.3608 50.6515 54.117 49.5148L53.2109 45.273Z" fill="#84CD80"/>
<path d="M62.1133 48.054C63.8041 47.9823 65.1283 48.106 66.7075 48.8007C67.0577 48.9549 67.9427 49.5348 68.2361 49.6206C71.3669 52.0609 72.2088 54.7782 73.5409 58.2896C73.9436 59.3626 74.3945 60.4164 74.8928 61.4485C75.3883 62.4779 75.9278 63.4857 76.5091 64.4692C76.847 65.0307 77.4217 65.8801 77.7016 66.429L77.642 66.4848C77.2075 66.5195 73.3844 64.3412 72.7853 63.9503C67.0675 60.2237 63.5181 54.6826 62.1133 48.054Z" fill="#84CD80"/>
<path d="M67.7093 31.4244C69.7291 30.6331 71.8591 30.1571 74.0243 30.0133C75.0021 29.9535 76.0207 30.0221 76.9779 29.9862C80.2915 29.8617 83.5207 30.2666 86.5863 31.5969C87.7062 32.0828 89.5127 33.001 90.4751 33.8146C90.3307 33.9664 89.8727 34.1589 89.6595 34.2159C87.2946 34.836 84.4554 35.1009 82.0399 34.6565C77.6065 33.8408 73.8377 32.0427 69.2566 33.5311C66.6157 34.389 64.4932 35.7868 62.2938 37.4882C61.6995 37.9482 61.016 38.4513 60.3593 38.8254C59.3473 39.3303 58.902 39.425 58.1191 38.5864C59.5479 36.4379 62.8662 33.8077 65.1532 32.6237C65.9927 32.1891 66.873 31.8387 67.7093 31.4244Z" fill="#84CD80"/>
<path d="M34.0582 13.502C38.5529 13.358 42.329 16.7464 43.7055 20.8638C43.6989 20.8942 43.656 22.115 43.6458 22.2652C43.4596 25.0091 43.4537 27.7704 43.623 30.515C43.6573 31.0711 43.7018 32.1588 43.8052 32.6719C39.4378 30.2278 39.8016 27.6511 38.7709 23.2867C38.4766 22.0212 38.0656 20.7857 37.5434 19.5961C36.8367 18.0424 35.9532 16.5753 34.9107 15.2238C34.5888 14.8139 33.8132 14.0037 33.5801 13.6382L33.6073 13.5951C33.7566 13.5593 33.9069 13.5283 34.0582 13.502Z" fill="#84CD80"/>
<path d="M41.8521 45.0371C43.0288 45.3171 44.0435 45.7526 45.1249 46.0195C44.8148 46.3434 44.3252 46.8959 44.1277 47.3164C42.8634 50.0066 42.2463 53.1312 42.0431 56.083C41.9993 56.7195 42.0575 58.5617 41.935 58.9606C41.4378 59.8658 40.8832 60.7058 40.4258 61.6391C39.5783 63.3687 39.0519 65.2597 37.8888 66.8187C37.1967 67.7464 36.1938 68.8869 35.2031 69.5052C35.2121 69.2534 35.8618 68.0417 36.0107 67.7098C36.5016 66.6162 36.799 65.5911 37.0708 64.437C37.5506 62.3994 37.4501 60.5009 37.5853 58.437C37.8133 55.0395 38.581 51.6997 39.8595 48.5436C40.3808 47.2461 40.8173 46.0118 41.8521 45.0371Z" fill="#84CD80"/>
</svg>
