<svg width="96" height="96" viewBox="0 0 96 96" fill="none" xmlns="http://www.w3.org/2000/svg">
<path d="M30.5602 42.5903C31.774 42.9536 32.7762 43.3366 33.845 44.0395C33.9784 44.1265 34.2948 44.3516 34.4257 44.3887C35.3134 44.3977 38.3792 45.3102 38.948 45.1616L39.1111 45.3281C39.3355 45.6716 40.4441 47.6798 40.5938 47.818C40.5657 48.0822 40.8013 48.6485 41.0383 48.7599L41.9252 48.787L42.211 48.7287L42.2336 48.6837C44.5421 44.1632 49.7613 45.0918 52.4882 48.7199L52.6679 48.778C53.3998 48.7761 54.0236 48.7969 54.7546 48.8396C54.5246 48.0429 54.6168 46.95 55.0539 46.2319C55.6956 46.752 57.2145 46.322 58.1958 46.427C57.883 46.8219 57.063 48.2308 57.7273 48.5892C58.4523 48.9803 59.687 48.7358 60.5176 48.7773C61.3462 48.7675 63.6985 48.6615 64.3936 48.8986C65.5632 50.2064 66.1747 51.8779 66.7434 53.5146C67.6771 57.0631 67.9118 59.6914 68.1718 63.3377C68.5731 66.8807 68.8784 70.4304 70.4092 73.7072C70.4834 73.8661 70.8707 74.7523 70.8338 74.8762C68.1284 78.1478 63.2351 81.9602 59.1774 83.1965C58.5198 83.539 57.8295 84.3346 57.187 84.7736C54.9632 86.2932 52.1133 86.8312 49.5097 86.0972C49.4441 86.0786 49.3788 86.0594 49.3137 86.0395C48.1017 86.7462 47.2357 86.6697 46.6495 85.302C45.4221 85.422 42.9934 85.396 41.7273 85.3828C39.1882 85.3562 34.3301 85.5235 31.9538 84.7938C31.9163 85.4328 34.5615 87.027 32.898 88.3466C29.4574 91.076 23.5398 90.6356 20.7449 87.1989C20.6745 87.114 20.6077 87.0261 20.5447 86.9356C19.6464 87.3612 17.0979 88.7719 16.4814 87.2987C15.7349 85.5149 18.1783 84.9085 19.3042 84.2892C19.9554 83.9312 23.1642 82.3447 23.3904 81.8281L23.2359 81.6285C21.9116 80.9408 20.6519 80.1353 19.4722 79.2217C13.4462 74.5332 9.13074 67.4608 8.18564 59.8281C7.9547 57.963 7.59242 51.3864 8.06451 49.7293C8.17988 49.3243 8.48489 48.9756 8.74017 48.6485C9.94743 49.0714 11.3188 48.6735 12.2341 48.8543C13.2009 48.7071 16.7872 48.7657 17.822 48.8372L20.6088 48.8519C22.6114 48.7325 25.346 48.7531 27.3686 48.7825C27.6589 48.4775 27.8722 45.1482 30.1286 43.0254L30.5602 42.5903ZM35.0768 48.8388C35.7978 48.7278 36.9524 48.7575 37.6771 48.778L37.7206 48.6731C37.5842 48.1557 36.2034 46.0276 35.7375 45.7176C35.6965 46.929 35.5368 47.6992 35.0768 48.8388Z" fill="#E3E3E3"/>
<path d="M30.5602 42.5903C31.774 42.9536 32.7762 43.3366 33.845 44.0395C33.9784 44.1265 34.2948 44.3516 34.4257 44.3887C35.3134 44.3977 38.3792 45.3102 38.948 45.1616L39.1111 45.3281C39.3355 45.6716 40.4441 47.6798 40.5938 47.818C40.5657 48.0822 40.8013 48.6485 41.0383 48.7599C41.0187 48.8163 40.999 48.8726 40.9793 48.929C41.3728 50.2784 41.8458 52.1085 41.9903 53.4962C42.2421 55.9145 41.9455 59.0784 41.2804 61.4265C40.5404 64.0718 39.5864 66.459 38.2959 68.8822C38.1658 69.1266 37.9964 69.4445 37.8915 69.6976L36.1124 72.6396C34.4062 75.1221 33.2236 76.644 31.2383 78.8856C29.9753 80.1638 28.6604 81.3898 27.297 82.5603C27.5745 82.8285 28.3791 82.9316 28.8739 83.0971C29.5325 83.3173 31.5412 84.7215 31.9538 84.7938C31.9163 85.4328 34.5615 87.027 32.898 88.3466C29.4574 91.076 23.5398 90.6356 20.7449 87.1989C20.6745 87.114 20.6077 87.0261 20.5447 86.9356C19.6464 87.3612 17.0979 88.7719 16.4814 87.2987C15.7349 85.5149 18.1783 84.9085 19.3042 84.2892C19.9554 83.9312 23.1642 82.3447 23.3904 81.8281L23.2359 81.6285C21.9116 80.9408 20.6519 80.1353 19.4722 79.2217C13.4462 74.5332 9.13074 67.4608 8.18564 59.8281C7.9547 57.963 7.59242 51.3864 8.06451 49.7293C8.17988 49.3243 8.48489 48.9756 8.74017 48.6485C9.94743 49.0714 11.3188 48.6735 12.2341 48.8543C13.2009 48.7071 16.7872 48.7657 17.822 48.8372L20.6088 48.8519C22.6114 48.7325 25.346 48.7531 27.3686 48.7825C27.6589 48.4775 27.8722 45.1482 30.1286 43.0254L30.5602 42.5903ZM35.0768 48.8388C35.7978 48.7278 36.9524 48.7575 37.6771 48.778L37.7206 48.6731C37.5842 48.1557 36.2034 46.0276 35.7375 45.7176C35.6965 46.929 35.5368 47.6992 35.0768 48.8388Z" fill="#E3E3E3"/>
<path d="M34.4254 44.3887C35.3131 44.3977 38.3789 45.3101 38.9477 45.1615L39.1108 45.328C39.3352 45.6715 40.4438 47.6798 40.5935 47.818C40.5654 48.0821 40.801 48.6484 41.038 48.7599C41.0184 48.8162 40.9987 48.8725 40.979 48.9289C41.3725 50.2783 41.8455 52.1084 41.99 53.4961C42.2418 55.9144 41.9452 59.0784 41.2801 61.4264C40.5401 64.0718 39.5861 66.4589 38.2956 68.8822C38.1655 69.1265 37.9961 69.4445 37.8912 69.6975L36.1121 72.6395C34.4058 75.1221 33.2233 76.6439 31.238 78.8856C29.975 80.1638 28.6601 81.3897 27.2967 82.5602C27.5742 82.8284 28.3788 82.9315 28.8736 83.097C29.5322 83.3172 31.5408 84.7214 31.9535 84.7937C31.916 85.4327 34.5612 87.0269 32.8977 88.3465C29.4571 91.0759 23.5395 90.6356 20.7446 87.1989C20.6742 87.1139 20.6073 87.0261 20.5443 86.9355C19.6461 87.3611 17.0976 88.7718 16.4811 87.2986C15.7346 85.5148 18.178 84.9085 19.3039 84.2891C19.9551 83.9311 23.1639 82.3447 23.3901 81.828C24.482 81.4936 27.6956 78.4511 28.6206 77.5364C30.4085 75.8111 32.6056 72.8927 33.9225 70.8047C34.4014 70.3237 36.485 66.4027 36.7145 65.6534C37.4166 64.4109 37.9944 62.6585 38.4064 61.2843C39.4855 57.8588 39.5492 54.1941 38.5896 50.7332C38.45 50.2292 38.103 49.0419 37.6768 48.778L37.7203 48.673C37.5839 48.1556 36.2031 46.0275 35.7372 45.7176C35.2696 45.1916 34.9445 44.8646 34.4254 44.3887Z" fill="#276B00"/>
<path d="M27.2973 82.5601C27.5748 82.8283 28.3793 82.9314 28.8741 83.0969C29.5327 83.3171 31.5414 84.7213 31.9541 84.7936C31.9166 85.4326 34.5618 87.0268 32.8983 88.3464C29.4576 91.0757 23.54 90.6354 20.7452 87.1987C20.6748 87.1138 20.6079 87.0259 20.5449 86.9354C22.8754 85.8107 25.2416 84.1091 27.2973 82.5601Z" fill="#84CD80"/>
<path d="M33.9231 70.8049C33.7161 70.5967 31.6504 70.076 31.1504 69.8523C30.3238 69.4812 29.5632 68.9779 28.8983 68.3624C27.654 67.2132 26.7352 65.7211 26.2451 64.1141C25.5873 61.957 26.8873 61.3754 28.7907 61.3986C31.394 61.4305 33.6436 62.2745 35.4872 64.1411C35.9531 64.6126 36.2537 65.2051 36.7152 65.6536C36.4857 66.4029 34.4021 70.3239 33.9231 70.8049Z" fill="#84CD80"/>
<path d="M30.5607 42.5903C31.7745 42.9536 32.7767 43.3366 33.8455 44.0395C33.9789 44.1265 34.2953 44.3516 34.4263 44.3887C34.9454 44.8647 35.2704 45.1917 35.738 45.7176C35.697 46.929 35.5373 47.6992 35.0774 48.8388C33.993 50.9767 32.7786 52.4663 30.6383 53.5948C28.1054 54.9302 27.6855 51.9181 27.5143 50.1493C27.4786 49.7808 27.5397 49.0737 27.3691 48.7825C27.6594 48.4775 27.8727 45.1482 30.1291 43.0254L30.5607 42.5903Z" fill="#84CD80"/>
<path d="M30.5604 42.5903C31.7743 42.9536 32.7765 43.3366 33.8452 44.0395C33.4372 44.3042 30.5685 43.3876 30.1289 43.0254L30.5604 42.5903Z" fill="#84CD80"/>
<path d="M23.2356 81.6286C22.7797 80.8234 22.0476 79.6943 21.5252 78.892C19.7798 76.2118 20.4312 66.1846 25.4476 71.117C27.477 73.1125 28.019 74.6908 28.5988 77.4876C28.6061 77.5039 28.6133 77.5203 28.6206 77.5366C27.6956 78.4513 24.4821 81.4938 23.3901 81.8282L23.2356 81.6286Z" fill="#84CD80"/>
<path d="M38.5903 50.7334C39.5498 54.1943 39.4862 57.859 38.4071 61.2845L38.3596 61.2238C37.918 61.0628 34.0518 64.1526 33.3272 61.6992C32.05 57.3749 34.3198 52.356 38.5903 50.7334Z" fill="#84CD80"/>
<path d="M41.2803 61.4268L41.4031 61.5513C42.0483 61.5043 42.7011 61.2516 43.3232 61.2165C46.5475 61.0346 49.4058 60.8182 47.5217 64.9261C49.28 64.1597 50.4198 64.065 52.3299 64.1172C52.2878 65.5288 51.9213 70.2127 51.5288 71.4124C50.8065 74.792 50.028 77.4854 48.6862 80.6968C48.1855 81.8954 46.8824 84.2393 46.6494 85.3023C45.4219 85.4223 42.9933 85.3963 41.7272 85.3831C39.1881 85.3565 34.33 85.5238 31.9537 84.794C31.541 84.7218 29.5323 83.3176 28.8738 83.0974C28.3789 82.9319 27.5744 82.8288 27.2969 82.5606C28.6603 81.3901 29.9752 80.1641 31.2382 78.8859C33.2235 76.6443 34.406 75.1224 36.1123 72.6398L37.8914 69.6979C37.9963 69.4448 38.1657 69.1268 38.2958 68.8825C39.5863 66.4593 40.5403 64.0721 41.2803 61.4268Z" fill="#E3E3E3"/>
<path d="M41.2795 61.4268L41.4023 61.5513C42.0475 61.5043 42.7004 61.2516 43.3224 61.2165C46.5468 61.0346 49.405 60.8182 47.5209 64.9261C49.2793 64.1597 50.4191 64.065 52.3292 64.1172C52.2871 65.5288 51.9205 70.2127 51.5281 71.4124C51.1689 71.3481 50.9431 71.5387 50.5344 71.7447C48.4919 72.7802 45.8162 73.1845 43.5948 72.5228C41.8537 72.0041 42.8254 70.0222 43.2444 68.9886C41.5937 69.6978 39.6756 70.126 37.8906 69.6979C37.9955 69.4448 38.1649 69.1268 38.2951 68.8825C39.5855 66.4593 40.5395 64.0721 41.2795 61.4268Z" fill="#84CD80"/>
<path d="M31.2383 78.8855C33.2235 76.6438 34.4061 75.122 36.1123 72.6394C37.1248 72.6304 38.3676 72.4903 39.3467 72.7377C41.855 73.3715 45.2729 74.5329 42.3934 77.4222C40.6522 79.1816 38.2811 80.1737 35.8058 80.1787C34.4083 80.1777 32.3428 79.7806 31.2383 78.8855Z" fill="#84CD80"/>
<path d="M55.0537 46.2319C55.6953 46.7521 57.2143 46.322 58.1955 46.427C57.8828 46.822 57.0628 48.2309 57.7271 48.5893C58.452 48.9804 59.6867 48.7359 60.5174 48.7773C61.3459 48.7676 63.6983 48.6616 64.3934 48.8987C65.563 50.2065 66.1745 51.8779 66.7432 53.5146C67.6769 57.0632 67.9116 59.6914 68.1716 63.3377C67.1184 64.3262 63.7643 67.4915 62.6685 64.9749C62.0236 63.4939 61.9041 61.5118 62.1629 59.9328C62.2633 59.3203 62.4267 58.8225 62.638 58.2367C60.8113 59.8318 59.2526 60.6084 56.864 60.867C56.3781 60.9196 55.5074 60.8149 55.1382 60.9289C55.0591 58.9301 54.8742 56.9368 54.5842 54.9575C54.3398 52.8194 53.6059 50.8163 52.5996 48.9328L52.6677 48.7781C53.3996 48.7761 54.0234 48.7969 54.7544 48.8397C54.5244 48.043 54.6165 46.9501 55.0537 46.2319Z" fill="#84CD80"/>
<path d="M55.0537 46.2319C55.6953 46.7521 57.2143 46.322 58.1955 46.427C57.8828 46.822 57.0628 48.2309 57.7271 48.5893C58.452 48.9804 59.6867 48.7359 60.5174 48.7773C61.3459 48.7676 63.6983 48.6616 64.3934 48.8987C65.563 50.2065 66.1745 51.8779 66.7432 53.5146C66.1275 53.9082 65.5245 54.3213 64.935 54.7534C65.1491 52.7076 64.2754 52.3046 62.3461 52.1369C60.1542 51.9464 58.0153 52.4141 56.2119 53.6941C55.6055 54.116 55.1348 54.554 54.5842 54.9575C54.3398 52.8194 53.6059 50.8163 52.5996 48.9328L52.6677 48.7781C53.3996 48.7761 54.0234 48.7969 54.7544 48.8397C54.5244 48.043 54.6165 46.9501 55.0537 46.2319Z" fill="#E3E3E3"/>
<path d="M55.0543 46.2319C55.6959 46.7521 57.2148 46.322 58.1961 46.427C57.8834 46.822 57.0633 48.2309 57.7276 48.5893C58.4526 48.9804 59.6873 48.7359 60.5179 48.7773C59.0907 48.934 56.2966 48.8495 54.7549 48.8397C54.525 48.043 54.6171 46.9501 55.0543 46.2319Z" fill="#276B00"/>
<path d="M45.4768 48.824C46.6489 48.4938 47.4038 48.2933 48.5563 48.9273C49.8837 49.6575 51.0816 51.5839 51.3116 53.0704C52.0755 55.8357 52.5475 61.2348 52.3292 64.1169C50.4191 64.0647 49.2793 64.1594 47.521 64.9258C49.405 60.8179 46.5468 61.0343 43.3225 61.2162C42.7004 61.2513 42.0475 61.504 41.4024 61.551L41.2795 61.4265C41.9447 59.0784 42.2413 55.9144 41.9895 53.4962C41.845 52.1085 41.372 50.2784 40.9785 48.9289C40.9982 48.8726 41.0179 48.8163 41.0375 48.7599L41.9244 48.787C42.5366 48.9088 44.7644 48.84 45.4768 48.824Z" fill="#E3E3E3"/>
<path d="M45.478 48.824C46.65 48.4938 47.4049 48.2933 48.5575 48.9273C49.8849 49.6575 51.0827 51.5839 51.3128 53.0704C51.1386 53.1778 50.7879 53.8307 50.7279 54.044C50.062 56.4087 43.504 62.278 42.9333 56.8904C42.5652 53.4164 43.4108 51.5507 45.478 48.824Z" fill="#84CD80"/>
<path d="M41.9258 48.7869L42.2116 48.7285L42.2342 48.6835C44.5427 44.163 49.7619 45.0916 52.4888 48.7197L52.6685 48.7779L52.6004 48.9325C53.6067 50.8161 54.3406 52.8191 54.585 54.9573C54.875 56.9365 55.06 58.9299 55.139 60.9287C55.1817 63.3514 55.1412 65.39 54.9008 67.8123C54.8419 68.1009 54.8159 68.3772 54.7844 68.6688C54.5348 70.9815 54.0096 73.1673 53.4852 75.426C53.1551 76.5461 52.8024 77.6596 52.4274 78.7655C51.843 80.4596 51.156 82.1166 50.3701 83.7271C50.203 84.0673 49.2512 85.818 49.3143 86.0394C48.1023 86.746 47.2362 86.6695 46.6501 85.3018C46.8831 84.2389 48.1862 81.8949 48.6869 80.6964C50.0287 77.4849 50.8072 74.7915 51.5295 71.4119C51.922 70.2123 52.2885 65.5284 52.3306 64.1168C52.5489 61.2346 52.0769 55.8355 51.3131 53.0703C51.083 51.5838 49.8852 49.6573 48.5577 48.9271C47.4052 48.2932 46.6503 48.4937 45.4782 48.8239C44.7658 48.8398 42.5381 48.9086 41.9258 48.7869Z" fill="#276B00"/>
<path d="M54.9 67.8127L55.003 68.0071C55.6338 67.9257 56.4422 67.329 57.2058 67.1035C58.7105 66.6996 63.0818 66.1747 63.5557 68.2292C63.7526 69.0832 62.3528 71.4386 61.7486 72.1962C59.8613 74.5631 56.5026 75.8801 53.4844 75.4264C54.0088 73.1677 54.534 70.9819 54.7837 68.6692C54.8152 68.3776 54.8411 68.1013 54.9 67.8127Z" fill="#84CD80"/>
<path d="M52.4266 78.7656L52.4935 78.7631C53.1603 78.7322 53.8656 78.4898 54.5525 78.4122C56.0551 78.2424 60.1442 78.343 60.3284 80.3614C60.4126 81.284 59.3339 82.3236 59.1773 83.1965C58.5196 83.5389 57.8293 84.3345 57.1869 84.7735C54.963 86.2931 52.1131 86.8312 49.5096 86.0971C49.444 86.0785 49.3786 86.0593 49.3135 86.0394C49.2505 85.8181 50.2022 84.0674 50.3694 83.7272C51.1553 82.1167 51.8423 80.4597 52.4266 78.7656Z" fill="#84CD80"/>
<path d="M65.3643 45.6118C66.4174 46.7303 67.0374 47.4758 67.8029 48.8217C68.3889 48.737 73.0096 48.7192 73.5124 48.8351C74.3264 48.8425 76.5156 48.9306 77.135 48.6175C77.2558 48.8018 77.8518 49.6996 77.8571 49.8299C77.9306 51.6426 78.2867 56.5747 77.782 58.1461C78.4218 58.4108 78.8915 58.5895 79.1835 59.2868C79.6554 60.414 79.0719 62.3616 78.6406 63.4498C77.8895 65.345 76.7874 66.273 75.4279 67.6161C74.8769 68.9882 73.8385 71.0922 72.835 72.1976C73.3045 73.5241 74.788 75.8183 75.8666 76.7677C77.4397 78.2184 80.4713 79.5069 82.5725 78.7038C84.5319 78.7604 85.9033 75.8412 87.5552 76.9872C88.2969 77.5017 88.1879 78.9655 87.3805 79.4195C87.1017 79.6087 86.0244 80.4433 85.9248 80.7145L85.7856 80.6544C83.1332 81.7314 82.7242 81.7358 79.7482 81.6689C79.6931 81.6481 79.0089 81.5027 78.8628 81.4633C77.8003 81.1768 77.0231 80.9371 76.0474 80.419C74.5845 79.7519 72.8101 77.6804 71.8136 76.4269C71.4592 75.8458 71.2824 75.4162 70.8338 74.8763C70.8706 74.7523 70.4833 73.8661 70.4091 73.7072C68.8783 70.4304 68.573 66.8807 68.1717 63.3377C67.9118 59.6914 67.677 57.0631 66.7434 53.5146C66.1747 51.8779 65.5631 50.2064 64.3935 48.8986C63.9352 48.0764 62.3407 46.6595 61.4863 46.3598C62.6584 46.0758 64.5452 45.8714 65.3643 45.6118Z" fill="#276B00"/>
<path d="M73.5122 48.8353C74.3262 48.8427 76.5154 48.9307 77.1348 48.6177C77.2556 48.8019 77.8516 49.6997 77.857 49.8301C77.9305 51.6427 78.2865 56.5748 77.7819 58.1462C77.6492 58.2482 75.0689 58.7695 74.4305 59.0063C72.7229 59.6398 72.1459 60.7261 70.8714 61.6161C70.7235 60.7598 70.6154 59.1129 70.5055 58.1663C70.0868 54.5605 69.3889 52.0653 67.8027 48.8219C68.3887 48.7371 73.0094 48.7193 73.5122 48.8353Z" fill="#E3E3E3"/>
<path d="M70.8711 61.6159C72.1456 60.7258 72.7227 59.6395 74.4302 59.0061C75.0687 58.7692 77.6489 58.248 77.7816 58.146C78.4213 58.4107 78.891 58.5894 79.1831 59.2867C79.655 60.4139 79.0715 62.3615 78.6402 63.4497C77.889 65.3449 76.7869 66.2729 75.4274 67.616C74.8765 68.9881 73.838 71.0921 72.8346 72.1975C72.3737 71.2399 72.0525 70.052 71.7738 69.021C71.3746 66.8242 70.9483 63.8541 70.8711 61.6159Z" fill="#84CD80"/>
<path d="M71.7734 69.0212C73.3565 68.6962 74.187 68.0317 75.4271 67.6162C74.8761 68.9883 73.8376 71.0924 72.8342 72.1978C72.3733 71.2401 72.0522 70.0522 71.7734 69.0212Z" fill="#E3E3E3"/>
<path d="M16.8418 38.0904C17.9938 36.4679 19.3967 34.6832 20.6032 33.0788C23.455 29.2637 26.3291 25.4655 29.2257 21.6844C30.6447 19.8074 41.3661 5.17849 42.3062 4.62297C42.6145 4.44081 42.9296 4.43148 43.2693 4.51913C43.7644 4.64686 44.1202 4.9988 44.4415 5.37709C45.8655 7.05387 47.1232 8.93399 48.4486 10.6945L56.1843 20.9275L61.9157 28.5286C62.6465 29.4979 65.5625 33.3291 66.1328 34.2724C65.3256 34.7233 64.7275 34.9571 63.5347 35.6146C59.2448 30.0115 53.3454 22.0661 49.1165 16.417L45.0812 11.0799C44.5733 10.4084 43.3536 8.87151 42.9721 8.20163C42.49 9.08096 41.0694 10.8805 40.4014 11.7674L35.6562 18.0598C30.3372 25.1074 24.9662 32.347 19.5764 39.3197C19.3292 39.2389 17.0978 38.2305 16.8418 38.0904Z" fill="#636363"/>
<path d="M62.678 43.7487C61.0116 43.0303 59.5748 42.9838 57.8417 43.4092L57.7006 43.3233C57.2585 42.1665 57.3213 40.024 57.6541 38.8446C58.3944 36.2215 59.7807 33.8766 61.8442 33.229C62.2958 33.5028 62.6693 34.0642 62.9621 34.7929C64.0687 37.5472 64.0222 42.6929 62.678 43.7487Z" fill="#84CD80"/>
<path d="M25.3363 39.6656C25.0555 38.6165 25.0612 37.1326 25.2238 36.0572C25.633 33.3509 27.3544 30.9864 29.6892 29.5973C31.5337 28.4998 32.7207 29.0484 33.1627 31.1349C33.7946 34.1175 33.2093 37.3939 31.034 39.6386C30.7305 39.7322 27.6979 39.3636 27.0417 39.5151C26.7562 39.581 25.6137 39.7762 25.3363 39.6656Z" fill="#84CD80"/>
<path d="M71.8131 76.4268C72.8096 77.6803 74.584 79.7518 76.0469 80.4189C76.1994 82.7015 74.6593 85.4313 72.9305 86.8565C72.2283 87.4648 69.4694 89.3936 68.7587 88.0244C66.5029 83.6781 68.1928 79.2142 71.8131 76.4268Z" fill="#84CD80"/>
<path d="M79.7482 81.6688C82.7242 81.7357 83.1332 81.7313 85.7856 80.6543L85.9248 80.7144C86.5698 83.0365 86.245 85.521 85.0248 87.5992C84.0214 89.3415 82.267 90.9095 80.3409 91.5409C78.7102 92.0755 78.4043 90.1642 78.1213 89.0758C77.4756 86.592 78.1408 83.6639 79.7482 81.6688Z" fill="#84CD80"/>
<path d="M75.8672 76.7676C76.1688 74.8425 77.7987 72.6257 79.3713 71.5212C80.9458 70.4151 83.9813 69.1023 85.7575 70.3211C86.7681 73.0871 84.8268 77.0258 82.573 78.7037C80.4718 79.5069 77.4402 78.2184 75.8672 76.7676Z" fill="#84CD80"/>
<path d="M36.6758 42.4667C37.328 39.7814 38.6233 37.7481 41.011 36.2598C41.6703 35.8601 42.4183 35.5022 43.2047 35.6994C43.5881 35.7956 43.8707 36.0508 44.0458 36.3993C45.5985 39.4903 44.9029 43.2739 42.8142 45.8894C41.9903 46.7652 41.6075 47.2121 40.5935 47.8178C40.4438 47.6796 39.3352 45.6714 39.1108 45.3279L38.9476 45.1614C38.4463 44.2235 36.8034 42.939 36.6758 42.4667Z" fill="#84CD80"/>
<path d="M39.1113 45.3281C40.0203 45.3814 41.9607 45.6456 42.8147 45.8896C41.9909 46.7654 41.6081 47.2123 40.5941 47.818C40.4444 47.6798 39.3358 45.6716 39.1113 45.3281Z" fill="#84CD80"/>
<path d="M25.3365 39.6656C25.6139 39.7761 26.7564 39.5809 27.0419 39.515C27.6981 39.3635 30.7307 39.7322 31.0342 39.6386C31.2503 39.8122 33.0755 40.4334 33.5751 40.654C35.0067 41.2858 35.3341 41.5835 36.5385 42.5024C36.5802 42.4945 36.657 42.4897 36.6761 42.4669C36.8037 42.9392 38.4467 44.2236 38.948 45.1616C38.3792 45.3102 35.3134 44.3977 34.4257 44.3887C34.2948 44.3516 33.9784 44.1265 33.845 44.0395C32.7762 43.3366 31.774 42.9536 30.5601 42.5903C29.1668 42.2204 28.3965 42.273 26.9744 42.4054C26.396 41.8972 23.9349 41.4212 23.0059 40.8154C23.59 40.4571 25.1105 39.9636 25.3365 39.6656Z" fill="#276B00"/>
<path d="M8.74023 48.6486C11.3977 45.0914 14.0762 41.5497 16.7753 38.0239C17.0314 38.1641 19.2636 39.1725 19.5108 39.2533C17.158 42.465 14.6374 45.6705 12.2342 48.8545C11.3189 48.6736 9.9475 49.0715 8.74023 48.6486Z" fill="#B0B0B0"/>
<path d="M73.3789 43.6719C70.7214 40.1146 68.5462 37.3636 65.847 33.8379C65.5909 33.978 63.3587 34.9864 63.1115 35.0672C65.4643 38.2789 68.2659 41.7067 70.6692 44.8906C71.5845 44.7098 73.1133 44.6992 73.3789 43.6719Z" fill="#B0B0B0"/>
<path d="M23.0065 40.8154C23.9356 41.4212 26.3967 41.8973 26.975 42.4054C23.8202 43.0396 21.0619 45.5897 20.6094 48.852L17.8226 48.8372C17.6207 45.6985 20.4883 42.3772 23.0065 40.8154Z" fill="#276B00"/>
<path d="M57.7013 43.3234L57.8424 43.4092C59.5755 42.9838 61.0123 43.0303 62.6787 43.7487C63.9478 44.4514 64.2923 44.6674 65.3651 45.612C64.546 45.8716 62.6592 46.076 61.4872 46.3599C60.4213 45.9803 59.6208 45.7447 58.5291 46.2627C58.4174 46.316 58.3066 46.3707 58.1965 46.4271C57.2153 46.3221 55.6963 46.7522 55.0547 46.232C55.5253 45.0346 55.9673 44.5861 57.0179 43.8269C57.2774 43.6394 57.5059 43.5858 57.7013 43.3234Z" fill="#276B00"/>
<path d="M73.3527 43.6328C73.7408 44.2458 76.6859 48.1696 77.1345 48.6173C76.5151 48.9303 74.3259 48.8423 73.5119 48.8349C73.5142 48.5493 70.9984 45.438 70.6289 44.8379C71.6235 44.2252 72.735 44.5973 73.3527 43.6328Z" fill="#B0B0B0"/>
</svg>
