<svg width="24" height="24" viewBox="0 0 24 24" fill="none" xmlns="http://www.w3.org/2000/svg">
<path d="M11.9957 4.37061C7.57809 4.37061 4 7.16911 4 10.5973C4 12.7961 5.46921 14.7251 7.67803 15.8145L6.73853 19.2426C6.72328 19.3008 6.72587 19.3622 6.74597 19.4189C6.76607 19.4756 6.80275 19.5249 6.85125 19.5605C6.89975 19.5961 6.95783 19.6162 7.01793 19.6184C7.07804 19.6205 7.1374 19.6045 7.18829 19.5725L11.2561 16.8939C11.496 16.9139 11.7459 16.9239 11.9957 16.9239C16.4134 16.9239 19.9914 14.1254 19.9914 10.5973C19.9914 7.06916 16.4134 4.37061 11.9957 4.37061Z" fill="#3C1E1E"/>
</svg>
