<svg width="249" height="184" viewBox="0 0 249 184" fill="none" xmlns="http://www.w3.org/2000/svg">
<path fill-rule="evenodd" clip-rule="evenodd" d="M190.6363 57.8746C193.9197 57.39 205.6709 58.8979 204.8815 64.6134C204.7951 65.2334 204.0452 65.9851 203.4901 66.2846C200.4961 67.9015 197.9165 66.5014 195.0639 65.4803C191.2061 64.1992 185.9556 65.7306 182.5505 67.8501C173.7812 73.3083 166.3897 84.6238 163.7282 94.5525C163.0961 96.9095 162.0986 101.585 163.4632 103.7655C163.7892 104.3711 164.8145 105.3211 165.5683 105.3527C175.8997 105.7887 187.4475 88.8328 191.6166 81.8599C192.6951 80.0729 193.6743 78.2283 194.5512 76.3345C195.2959 74.7235 195.9688 73.1436 196.8312 71.6027C198.5339 68.5618 206.2619 68.2803 205.7864 72.9786C205.5769 75.0411 205.1661 77.2211 204.7833 79.2662C203.2807 86.8855 201.4565 94.4373 199.3129 101.9015C198.5193 104.6547 197.4939 107.7652 196.5652 110.4786C204.9066 107.3612 212.6503 100.0294 217.1046 92.3782C218.2095 91.0481 220.6142 84.7024 222.0095 84.2439C226.3323 82.8232 223.2173 90.0877 222.8332 90.9528C217.2143 103.5629 207.062 112.6277 194.3802 117.7669C193.6186 118.9871 192.7124 121.3415 192.1123 122.7509C191.1451 125.0469 190.0917 127.3073 188.9548 129.525C180.9449 145.0539 171.9874 158.7226 157.8498 169.4925C147.3674 177.4775 133.0586 184 119.5884 182.2868C115.6068 181.676 110.9781 179.7034 108.6659 176.2482C100.1865 163.5746 112.6667 148.8788 122.517 141.665C137.4081 131.1043 151.8096 125.8049 168.7611 119.8642C172.1078 118.6996 175.4627 117.5549 178.8251 116.4326C180.6891 115.8074 183.7826 114.8402 185.4586 114.0319C186.8657 109.6997 188.0819 105.1938 189.3115 100.8058C189.9925 98.3786 190.4562 95.4003 191.3331 93.0818C189.3287 94.5098 187.0461 97.6114 185.329 99.5194C179.8122 105.5541 173.2287 113.281 164.6436 114.3513C156.0969 115.4152 152.2521 110.2018 151.3829 102.3362C149.4579 104.1431 147.391 106.6221 145.3759 108.3232C141.6438 111.4764 135.8594 115.4775 131.3379 117.3734C128.1561 118.709 124.7984 119.5833 121.3684 119.9674C109.5703 121.3333 98.7595 116.7586 97.5698 103.8956C96.5565 92.9401 100.9662 82.5433 107.6974 74.1095C115.5981 64.2099 131.9351 54.2836 143.9359 62.9366C147.3978 65.8492 149.2193 70.6648 149.5799 75.0903C150.6317 88.0564 142.9925 101.0574 133.3846 109.2307C131.7125 110.6522 129.9954 111.6498 128.5831 113.3616C136.1417 112.0645 146.9765 104.6652 151.452 97.8023C152.1621 96.0761 152.2626 94.0754 152.8193 92.2604C157.1143 78.2498 168.2367 65.9972 181.6005 60.0586C184.1259 58.9356 187.703 58.2422 190.6363 57.8746ZM181.9467 122.0384C181.7385 121.8779 181.8645 121.923 181.5584 121.9534C165.9051 126.7826 150.0027 131.0727 135.7657 139.4246C127.2834 144.4007 118.9862 150.4793 114.2377 159.3164C111.7641 163.9202 110.196 170.1339 114.8414 173.948C118.4576 176.4522 122.5524 176.525 126.749 175.6677C144.4977 172.0401 160.6334 158.0177 170.5672 143.5052C174.5578 137.6226 178.0263 131.401 180.9305 124.9131C181.2882 124.0917 181.9836 122.9219 181.9467 122.0384ZM139.9859 75.9549C140.0945 70.8848 137.5747 65.2996 131.4803 66.3498C118.6712 68.0203 107.4078 92.4541 109.0416 104.4602C109.752 109.68 111.9498 111.8794 117.3283 111.3243C130.0347 107.9312 139.7209 88.4133 139.9859 75.9549Z" fill="#9FC423"/>
<path d="M104.6701 0C105.9109 0.9711 108.1802 15.0367 108.5355 17.6697C111.0054 35.8023 109.5928 55.9813 99.9548 71.9169C91.8372 85.524 79.45 95.3393 66.549 104.1219C65.381 105.1765 63.8236 106.5001 62.7988 107.6699C54.3564 117.3098 44.6283 126.4938 31.3875 128.4122C29.8474 128.6361 22.9348 129.5609 22.6677 127.1947C22.7806 126.7535 22.957 126.6768 23.2927 126.4079C24.084 126.0222 26.9699 125.3373 27.9612 125.0883C30.1069 124.5489 31.2621 124.1341 33.2865 123.2478C39.7449 120.4538 45.5703 116.3811 50.4113 111.2738C51.6276 109.99 53.2446 108.1549 53.8937 106.4909C53.2158 104.8361 52.3641 103.1801 51.666 101.5132C49.818 97.1891 48.3895 92.6963 47.4003 88.0986C43.6566 70.0909 46.4624 52.2094 56.7974 36.8705C62.4713 28.4493 69.8164 21.3432 78.5359 16.1309C81.2846 14.4565 84.1124 12.9151 87.0088 11.5114C93.6247 8.3469 100.5586 6.2774 104.6701 0ZM97.9243 14.8728C91.6987 18.6081 82.0927 32.4377 78.2966 38.7227C78.5666 34.3763 80.2373 28.7938 81.4234 24.5341C81.5263 24.1649 81.574 23.9023 81.4428 23.5666C80.3195 24.0207 78.3605 27.8855 77.8622 28.9923C75.744 33.6945 75.5144 38.5504 74.8449 43.5231C74.7622 44.1387 73.026 47.1443 72.5924 47.9355C71.3728 50.1145 70.1984 52.3186 69.0705 54.5465C68.5806 55.5187 66.6072 59.9389 66.145 60.4188L65.968 60.3471C65.1572 57.8432 66.9743 39.288 66.2608 38.7934C65.1878 39.6027 63.3578 48.8983 63.0112 50.9303C62.094 56.3084 63.246 62.6088 62.5797 67.8724C62.2011 70.8615 60.2078 75.0856 59.3579 78.155C57.0524 72.6469 55.234 66.9845 54.3022 61.0648C54.238 60.3641 54.056 58.2189 53.7209 57.762C53.2802 58.4444 53.3051 63.361 53.4803 64.2452C53.586 68.262 54.642 72.9352 55.6833 76.8231C56.2093 78.7871 57.1195 81.4028 57.385 83.3466C57.5271 85.2933 56.9574 87.5006 56.7422 89.38C56.5144 91.3644 55.6841 99.0594 57.1634 100.2729C58.2584 99.7749 60.0156 92.7767 60.5133 91.2136C60.7888 90.3469 61.121 89.5004 61.5075 88.6772C65.8274 79.5867 78.981 71.9321 85.5059 63.5396L85.3658 63.5917L85.1333 63.6818C82.3173 64.7576 80.3211 66.2485 77.8219 67.7658C72.3088 71.1133 68.3494 74.8127 63.8302 79.3063C64.778 75.1327 66.9722 67.6195 69.3813 64.1628C73.0668 58.8751 86.2332 54.1435 92.2357 50.27C94.4605 48.8344 96.4193 47.1225 98.1953 45.1627C95.1156 46.3132 91.7854 47.9897 88.6717 49.1991C85.1791 50.5554 81.5643 51.813 78.2278 53.5094C76.0726 54.6049 74.1194 56.1075 72.0027 57.3261C73.5428 53.8262 75.0415 50.6504 76.9778 47.3498C77.5789 46.3253 78.4893 44.4663 79.2499 43.6268C80.8872 41.8205 83.5974 40.0971 85.6224 38.7445C90.2492 35.6541 95.3769 32.8842 99.4225 29.0384C93.957 30.5845 89.8504 31.9028 85.2289 35.415C84.9291 35.1616 84.779 35.0081 84.5101 34.7303C87.4052 30.0742 90.9873 25.5374 94.0157 20.9329C95.2539 19.05 96.9154 16.8645 97.9243 14.8728Z" fill="#9FC423"/>
<path d="M53.4803 64.2452C53.3051 63.3613 53.2805 58.4441 53.7209 57.7618C54.056 58.2187 54.238 60.3639 54.3022 61.0648C53.9126 60.5615 54.033 60.7296 53.9523 60.0078C53.2967 61.0187 53.6311 62.9984 53.4803 64.2452Z" fill="#9FC423"/>
<path d="M83.2321 36.8766C83.667 36.0366 83.9888 35.5239 84.5112 34.7303C84.7801 35.0081 84.9299 35.1616 85.2296 35.415C84.4719 36.0725 84.0834 36.332 83.2321 36.8766Z" fill="#9FC423"/>
<path d="M64.7372 109.0676C65.414 109.5737 66.1058 110.2055 66.7656 110.7582C75.1261 117.7719 86.3131 120.6628 97.0759 119.2557C98.9569 119.0093 100.7701 118.6807 102.6587 118.5019C103.9459 119.0942 105.1026 119.8003 106.4563 120.3554C108.641 121.2524 110.7998 121.6486 113.0963 122.1254C110.9493 123.2701 108.5263 124.2043 106.2353 125.0071C91.5191 129.835 75.2188 128.8175 63.2303 118.1071C61.8874 116.9068 60.451 115.7686 59.4382 114.2492C61.1833 112.5002 62.9499 110.7726 64.7372 109.0676Z" fill="#9FC423"/>
</svg>
