<svg width="249" height="184" viewBox="0 0 249 184" fill="none" xmlns="http://www.w3.org/2000/svg">
<path d="M183.736 57.2655C186.195 57.0545 188.572 57.1563 190.977 57.7664C193.542 58.4175 197.403 59.8241 198.773 62.3338C199.114 62.9619 199.263 63.6845 199.031 64.3787C198.743 65.24 197.975 65.9579 197.195 66.368C193.785 68.1582 190.974 65.9809 187.74 65.0877C184.003 64.0567 179.707 65.4463 176.455 67.3201C167.171 72.6745 159.499 84.374 156.744 94.6522C156.11 97.018 155.333 100.716 156.733 102.961C157.28 103.839 158.162 104.391 159.172 104.545C160.725 104.78 162.335 104.134 163.72 103.497C172.026 99.6749 179.771 89.6693 184.507 82.0584C185.78 80.0127 187.131 77.9147 188.217 75.7596C189.044 74.1195 189.662 72.2959 190.638 70.742C190.89 70.3394 191.138 70.062 191.531 69.7967C193.047 68.7777 195.502 68.5738 197.237 69.0096C198.078 69.2205 198.963 69.6361 199.396 70.4344C201.498 74.2953 192.264 104.168 190.53 109.633C209.525 103.126 225.587 99.9664 242.964 89.5526C244.46 88.6557 247.064 87.5271 248.388 88.9481L248.323 89.5526C239.642 102.599 202.688 113.383 187.466 117.725C176.565 142.353 160.933 164.185 136.734 177.033C125.62 182.935 104.141 189.608 96.8781 174.592C94.9409 170.586 95.4456 165.75 96.7853 161.647C107.796 134.991 153.421 121.141 178.571 113.336C180.525 108.541 184.006 97.5528 184.406 92.7039C176.844 101.495 163.161 119.64 149.228 112.232C145.926 110.477 144.618 105.708 143.903 102.286C133.218 113.256 120.764 121.492 104.763 119.36C91.9511 117.535 87.6628 107.275 89.3781 95.243C92.0008 76.846 110.495 57.0969 129.949 59.4569C140.676 60.7584 144.204 72.8582 142.269 82.4559C139.585 95.7601 131.823 105.177 120.945 112.758C130.271 109.959 137.693 105.13 144.149 97.7274C144.618 94.7554 145.218 91.8893 146.301 89.0789C152.196 73.7681 167.544 59.7521 183.736 57.2655ZM174.948 121.507C154.663 127.709 133.816 134.674 116.812 147.882C110.581 152.721 97.2287 165.275 106.098 173.138C110.786 175.88 116.686 175.361 121.726 173.85C142.586 167.604 160.339 149.282 170.844 130.591C171.554 129.331 175.349 122.432 175.141 121.534L174.948 121.507ZM109.76 110.533C129.58 104.075 141.175 64.2283 123.686 66.0086C104.769 70.3431 91.7586 113.483 109.76 110.533Z" fill="#9FC423"/>
<path d="M96.4766 0C97.9993 1.56313 99.6812 6.26461 100.112 8.70703C103.632 28.6469 99.3994 51.0604 89.0889 67.7979C80.2701 81.9305 69.5451 94.4216 57.9707 105.793C46.5186 117.089 32.3059 128.986 16.1904 128.182C14.5873 128.102 12.9039 128.089 12.6172 126.012C14.389 124.728 19.3265 123.77 21.6123 122.975C26.1293 121.399 30.4541 119.208 34.4883 116.452C36.6655 114.961 47.4032 106.972 46.0967 103.73C43.8271 98.1017 41.7997 93.1691 40.5576 87.0605C38.4754 77.0619 38.4809 66.6648 40.5732 56.6689C45.0216 35.9439 58.2032 21.7804 75.0449 12.9248C79.983 10.3282 84.9453 8.40125 89.791 5.73828C92.3767 4.31729 95.2684 1.18298 96.4766 0ZM89.6426 15.1367C82.221 20.293 74.8986 30.6392 69.9746 38.6602C70.8838 32.586 71.7142 28.7389 73.3193 22.915C69.0209 27.8952 67.6033 34.3235 66.8809 41.0254C66.8034 41.7442 66.7885 42.6447 66.5332 43.333C65.1299 46.4251 63.2591 49.2622 61.6895 52.2539C60.1379 54.96 58.6847 58.431 57.2158 60.9551C57.2322 57.1341 57.2341 53.3231 57.3457 49.5039C57.4523 45.851 57.7897 42.0898 57.6875 38.4473C54.4031 46.1897 53.8213 55.2229 54.3066 63.6553C54.5262 67.4725 53.1192 71.1822 51.7959 74.6787C50.3903 78.3927 46.3034 97.2774 49.3252 99.6172C49.9948 99.5495 49.7089 99.6905 50.2021 99.1494C50.9003 96.7315 50.5557 93.1204 51.915 89.9277C56.2259 79.8037 67.2693 74.2962 74.4941 66.082L76.5332 63.502C69.8219 66.6484 59.8058 73.6358 54.8975 79.5996C55.6429 76.5902 56.519 73.6223 57.5215 70.707C59.0619 66.2045 59.8662 63.8415 63.6475 61.043C71.8685 54.9585 82.137 53.1958 89.4785 45.4697C82.1856 48.0935 68.87 52.8979 63.0371 57.4502C64.7762 53.899 68.853 45.4904 71.3672 42.9453C73.8296 40.4527 80.1166 36.9139 83.2285 34.8545C85.6341 33.2627 88.4629 31.7277 90.7305 29.7646C85.3081 30.2959 79.3084 33.0818 74.9141 36.6094C76.8439 33.5804 89.5659 15.6117 89.6426 15.1367Z" fill="#9FC423"/>
<path d="M56.5227 107.393C68.8883 118.132 79.3735 119.9 95.0038 117.428C98.6249 119.799 102.516 120.784 106.709 121.135C104.016 122.53 101.372 123.516 98.5478 124.567C87.2907 127.997 75.9308 128.645 64.7964 124.192C60.0773 122.305 53.249 118.297 50.1211 114.063C51.8965 111.786 54.6886 109.952 56.5227 107.393Z" fill="#9FC423"/>
</svg>
