<svg width="24" height="24" viewBox="0 0 24 24" fill="none" xmlns="http://www.w3.org/2000/svg">
<path d="M12.5625 14.4942V4.50049C12.5625 4.3513 12.5032 4.20823 12.3977 4.10274C12.2923 3.99725 12.1492 3.93799 12 3.93799C11.8508 3.93799 11.7077 3.99725 11.6023 4.10274C11.4968 4.20823 11.4375 4.3513 11.4375 4.50049V14.4942C10.7546 14.6336 10.1478 15.0216 9.7347 15.583C9.32162 16.1444 9.13169 16.8391 9.20174 17.5326C9.2718 18.226 9.59684 18.8688 10.1139 19.3362C10.6309 19.8036 11.303 20.0624 12 20.0624C12.697 20.0624 13.3691 19.8036 13.8861 19.3362C14.4032 18.8688 14.7282 18.226 14.7983 17.5326C14.8683 16.8391 14.6784 16.1444 14.2653 15.583C13.8522 15.0216 13.2454 14.6336 12.5625 14.4942ZM12 18.938C11.6662 18.938 11.34 18.839 11.0625 18.6536C10.785 18.4682 10.5687 18.2046 10.441 17.8963C10.3132 17.5879 10.2798 17.2486 10.3449 16.9213C10.41 16.5939 10.5708 16.2932 10.8068 16.0572C11.0428 15.8212 11.3434 15.6605 11.6708 15.5954C11.9981 15.5303 12.3374 15.5637 12.6458 15.6914C12.9541 15.8192 13.2177 16.0355 13.4031 16.313C13.5885 16.5905 13.6875 16.9167 13.6875 17.2505C13.6875 17.698 13.5097 18.1273 13.1932 18.4437C12.8768 18.7602 12.4476 18.938 12 18.938ZM15.5625 12.6567V4.50049C15.5625 3.55565 15.1872 2.64952 14.5191 1.98142C13.851 1.31332 12.9448 0.937988 12 0.937988C11.0552 0.937988 10.149 1.31332 9.48093 1.98142C8.81283 2.64952 8.4375 3.55565 8.4375 4.50049V12.6567C7.47992 13.3995 6.77845 14.423 6.43121 15.5841C6.08397 16.7452 6.10833 17.9857 6.50087 19.1323C6.89342 20.2788 7.63453 21.274 8.62053 21.9786C9.60653 22.6832 10.7881 23.062 12 23.062C13.2119 23.062 14.3935 22.6832 15.3795 21.9786C16.3655 21.274 17.1066 20.2788 17.4991 19.1323C17.8917 17.9857 17.916 16.7452 17.5688 15.5841C17.2216 14.423 16.5201 13.3995 15.5625 12.6567ZM12 21.938C11.0029 21.937 10.0321 21.6181 9.22862 21.0277C8.42516 20.4372 7.83092 19.6059 7.53225 18.6546C7.23357 17.7033 7.24604 16.6815 7.56782 15.7377C7.8896 14.794 8.50394 13.9774 9.32156 13.4067C9.39695 13.3542 9.45833 13.284 9.50033 13.2023C9.54233 13.1206 9.56368 13.0299 9.5625 12.938V4.50049C9.5625 3.85402 9.81931 3.23404 10.2764 2.77692C10.7335 2.3198 11.3535 2.06299 12 2.06299C12.6465 2.06299 13.2665 2.3198 13.7236 2.77692C14.1807 3.23404 14.4375 3.85402 14.4375 4.50049V12.938C14.4375 13.0286 14.4595 13.1178 14.5014 13.1982C14.5434 13.2785 14.6041 13.3474 14.6784 13.3992C15.4993 13.9688 16.1168 14.7858 16.4406 15.731C16.7645 16.6762 16.7779 17.7001 16.4789 18.6535C16.1798 19.6068 15.584 20.4397 14.7783 21.0305C13.9726 21.6214 12.9991 21.9393 12 21.938Z" fill="black"/>
</svg>
