<svg width="96" height="96" viewBox="0 0 96 96" fill="none" xmlns="http://www.w3.org/2000/svg">
<path d="M52.2278 59.9978L52.3469 59.9903C53.0566 60.04 53.9121 59.9865 54.6396 60.0081C55.1608 60.0095 55.7205 60.0011 56.238 60.0147L56.5361 60.0086C57.5275 60.0156 58.5185 60.0151 59.5099 60.0072L61.2564 60.0029C62.1607 60.002 63.4192 59.9626 64.2953 60.0048C65.7367 60.0334 67.0296 59.7784 68.1035 60.9151C68.71 61.5569 68.9899 62.245 68.9636 63.1333C68.9439 63.9137 68.6111 64.6534 68.0397 65.1859C67.4327 65.7508 66.7577 65.897 65.9678 66.0179C65.8956 66.9634 65.7724 68.1034 65.6444 69.0479C65.2549 73.1434 64.751 77.3331 64.2911 81.429L63.9053 84.9179C63.731 86.6059 63.6532 88.5789 62.5797 89.9748C62.3903 90.2378 62.2188 90.4661 62.005 90.7108C60.8542 92.0322 59.2211 92.8356 57.4722 92.9406C56.4105 93.0086 54.8214 92.9626 53.7189 92.9631L46.6734 92.964L41.4329 92.9636C40.2178 92.9636 38.6572 93.0479 37.4953 92.7995C35.1402 92.2965 33.0493 90.2706 32.52 87.9147C32.2784 86.8384 32.204 85.6501 32.0852 84.5514L31.4829 79.1209L30.4999 70.2784C30.3592 69.0109 30.0974 67.2283 30.0333 66.0086C29.1618 65.8825 28.5336 65.7362 27.8821 65.0823C27.324 64.5301 27.0129 63.7759 27.0196 62.9908C27.0224 62.1822 27.3531 61.4092 27.9361 60.8486C28.8362 59.9683 29.7682 60.0029 30.9247 60.017L31.7218 60.002L36.2552 60.0034L40.5929 60.0029L41.0819 60.0015L41.3626 60.0245C42.1643 60.009 42.966 60.0015 43.7678 60.002L46.9249 60.0067C47.1424 60.0053 47.6542 59.9903 47.8446 60.0311C48.2491 60.0006 48.8491 60.0151 49.2682 60.0123L49.6174 60.0208C50.4311 60.0189 51.4286 60.0433 52.2278 59.9978Z" fill="#E3E3E3"/>
<path d="M52.2278 59.9978L52.3469 59.9903C53.0566 60.04 53.9121 59.9865 54.6396 60.0081C55.1608 60.0095 55.7205 60.0011 56.238 60.0147L56.5361 60.0086C57.5275 60.0156 58.5185 60.0151 59.5099 60.0072L61.2564 60.0029C62.1607 60.002 63.4192 59.9626 64.2953 60.0048C65.7367 60.0334 67.0296 59.7784 68.1035 60.9151C68.71 61.5569 68.9899 62.245 68.9636 63.1333C68.9439 63.9137 68.6111 64.6534 68.0397 65.1859C67.4327 65.7508 66.7577 65.897 65.9678 66.0179C65.8956 66.9634 65.7724 68.1034 65.6444 69.0479C65.1227 68.9294 63.4614 68.9983 62.8291 69.0025L58.1861 69.002L48.3133 68.9978H45.2281C43.1228 69.0015 41.6021 69.0887 39.7354 70.2714C37.8632 71.44 36.544 73.3169 36.0783 75.474C35.9311 76.1476 35.8693 76.8372 35.8942 77.5262C35.9199 78.2265 36.0437 78.947 36.156 79.6394C36.4227 81.2823 36.6541 82.9314 36.9295 84.5725C37.0738 85.4322 37.4182 86.2112 37.8924 86.9392C38.8455 88.4289 40.3578 89.4728 42.0888 89.8356C43.2642 90.0826 45.18 90.0034 46.4412 90.0025L52.8822 90.0015L59.3374 89.9983C60.2017 89.9968 61.7589 90.054 62.5797 89.9748C62.3903 90.2378 62.2188 90.4661 62.005 90.7108C60.8542 92.0322 59.2211 92.8356 57.4722 92.9406C56.4105 93.0086 54.8214 92.9626 53.7189 92.9631L46.6734 92.964L41.4329 92.9636C40.2178 92.9636 38.6572 93.0479 37.4953 92.7995C35.1402 92.2965 33.0493 90.2706 32.52 87.9147C32.2784 86.8384 32.204 85.6501 32.0852 84.5514L31.4829 79.1209L30.4999 70.2784C30.3592 69.0109 30.0974 67.2283 30.0333 66.0086C29.1618 65.8825 28.5336 65.7362 27.8821 65.0823C27.324 64.5301 27.0129 63.7759 27.0196 62.9908C27.0224 62.1822 27.3531 61.4092 27.9361 60.8486C28.8362 59.9683 29.7682 60.0029 30.9247 60.017L31.7218 60.002L36.2552 60.0034L40.5929 60.0029L41.0819 60.0015L41.3626 60.0245C42.1643 60.009 42.966 60.0015 43.7678 60.002L46.9249 60.0067C47.1424 60.0053 47.6542 59.9903 47.8446 60.0311C48.2491 60.0006 48.8491 60.0151 49.2682 60.0123L49.6174 60.0208C50.4311 60.0189 51.4286 60.0433 52.2278 59.9978Z" fill="#B0B0B0"/>
<path d="M52.2278 59.9978L52.3469 59.9903C53.0566 60.04 53.9121 59.9865 54.6396 60.0081C55.1608 60.0095 55.7205 60.0011 56.238 60.0147L56.5361 60.0086C57.5275 60.0156 58.5185 60.0151 59.5099 60.0072L61.2564 60.0029C62.1607 60.002 63.4192 59.9626 64.2953 60.0048C65.7367 60.0334 67.0296 59.7784 68.1035 60.9151C68.71 61.5569 68.9899 62.245 68.9636 63.1333C68.9439 63.9137 68.6111 64.6534 68.0397 65.1859C67.4327 65.7508 66.7577 65.897 65.9678 66.0179C61.1219 65.9528 56.1878 66.0011 51.3335 66.0006L30.0333 66.0086C29.1618 65.8825 28.5336 65.7362 27.8821 65.0823C27.324 64.5301 27.0129 63.7759 27.0196 62.9908C27.0224 62.1822 27.3531 61.4092 27.9361 60.8486C28.8362 59.9683 29.7682 60.0029 30.9247 60.017L31.7218 60.002L36.2552 60.0034L40.5929 60.0029L41.0819 60.0015L41.3626 60.0245C42.1643 60.009 42.966 60.0015 43.7678 60.002L46.9249 60.0067C47.1424 60.0053 47.6542 59.9903 47.8446 60.0311C48.2491 60.0006 48.8491 60.0151 49.2682 60.0123L49.6174 60.0208C50.4311 60.0189 51.4286 60.0433 52.2278 59.9978Z" fill="#B0B0B0"/>
<path d="M31.7217 60.0019L36.2552 60.0033L40.5928 60.0029L41.0818 60.0015L41.3626 60.0244C42.1642 60.009 42.966 60.0015 43.7678 60.0019L46.9248 60.0066C47.1423 60.0052 47.6542 59.9902 47.8445 60.031C48.8387 60.9943 49.9684 62.0879 50.994 62.9968L38.4447 62.9977L34.8772 62.9991C34.1469 63.0005 33.429 63.0188 32.7008 62.9522C31.3481 62.8285 30.1748 61.7269 30.0342 60.3572L30.002 60.0647C30.2144 60.0638 30.7879 60.1004 30.9246 60.0169L31.7217 60.0019Z" fill="#E3E3E3"/>
<path d="M51.6297 33.9789C51.7928 33.6737 52.1463 30.7857 52.2236 30.2727L53.6889 20.1461C54.0264 17.9365 55.5963 6.34852 57.3213 5.71599C57.4319 5.6754 57.5425 5.67619 57.6475 5.73657C58.0628 5.97554 58.1791 7.33702 58.2325 7.80047C58.3647 8.94586 58.3657 10.1019 58.3643 11.2531C58.3619 13.3722 58.2555 15.4825 58.1561 17.5986C57.955 21.9751 57.7183 26.3498 57.4455 30.7224C57.34 32.2904 57.2435 33.859 57.1558 35.4281C57.1352 35.7856 57.0358 37.177 57.0832 37.4241C57.0283 37.5524 56.8675 38.4426 56.8164 38.6697L55.9788 42.396L53.6449 53.2815C53.3589 54.6094 53.0833 55.9393 52.8175 57.271C52.6375 58.1715 52.4369 59.0766 52.3474 59.9902L52.2283 59.9977C51.4291 60.0432 50.4316 60.0188 49.6178 60.0207L49.2686 60.0122C48.8496 60.0151 48.2496 60.0005 47.845 60.031C47.6547 59.9902 47.1428 60.0052 46.9253 60.0066L43.7683 60.0019C43.736 59.7826 43.7205 59.6147 43.7059 59.393C43.4716 57.8972 42.999 55.943 42.6304 54.4552C42.4685 53.6672 42.1725 52.0482 41.9326 51.3408C41.821 51.0526 41.7447 50.6687 41.6672 50.3626C41.0873 48.0708 40.673 45.7377 40.113 43.4414C40.0801 43.252 39.8221 41.8511 39.7649 41.7375C39.7581 40.4708 39.6351 38.9983 39.5746 37.7117L39.0174 25.1233C38.8815 21.8641 38.1028 8.49938 39.1075 6.25941C39.2118 6.02701 39.306 5.82099 39.5551 5.72733C39.6493 5.73066 39.702 5.73811 39.7857 5.78668C41.6514 6.86888 43.4249 23.3624 43.7842 26.3925L44.1365 29.271C44.2014 29.8387 44.2397 30.6235 44.3884 31.1478L44.408 31.2157L44.4965 30.8124C45.0402 30.976 45.575 31.1391 46.1326 31.2523L46.1799 31.255C48.1914 31.5802 49.5236 31.4747 51.5088 30.8426C51.528 31.7729 51.5172 33.0829 51.6297 33.9789Z" fill="#276B00"/>
<path d="M51.6309 33.9789C51.794 33.6737 52.1474 30.7857 52.2248 30.2727L53.6901 20.1461C54.0276 17.9365 55.5974 6.34852 57.3224 5.71599C57.433 5.6754 57.5437 5.67619 57.6487 5.73657C58.064 5.97554 58.1802 7.33702 58.2337 7.80047C58.3659 8.94586 58.3668 10.1019 58.3654 11.2531C58.363 13.3722 58.2566 15.4825 58.1573 17.5986C57.9562 21.9751 57.7195 26.3498 57.4466 30.7224C57.3412 32.2904 57.2446 33.859 57.157 35.4281C57.1363 35.7856 57.037 37.177 57.0843 37.4241C57.0295 37.5524 56.8687 38.4426 56.8176 38.6697L55.9799 42.396L53.646 53.2815C53.3601 54.6094 53.0845 55.9393 52.8187 57.271C52.6387 58.1715 52.438 59.0766 52.3485 59.9902L52.2295 59.9977C52.2196 57.9066 52.183 55.8155 52.1193 53.7258C52.079 52.658 52.0921 51.6127 52.0799 50.5454C52.0804 49.5943 52.0237 48.5733 52.0016 47.6147L51.8901 42.3585C51.2601 42.6231 50.7056 42.8408 50.0245 42.9178C50.0235 42.3209 49.9785 40.4562 49.8965 39.9116C50.684 39.7131 51.0496 39.5877 51.7738 39.2578C51.6899 38.0258 51.7588 36.5993 51.6754 35.3423C51.6529 35.0005 51.6941 34.279 51.6309 33.9789Z" fill="#276B00"/>
<path d="M46.1807 31.2552C48.1923 31.5804 49.5244 31.4749 51.5096 30.8428C51.5288 31.7731 51.518 33.0831 51.6305 33.9791C51.6938 34.2792 51.6526 35.0007 51.6751 35.3425C51.7585 36.5995 51.6896 38.0259 51.7735 39.258C51.0493 39.5879 50.6837 39.7133 49.8962 39.9118C49.9782 40.4564 50.0232 42.3211 50.0241 42.918C50.7052 42.8409 51.2598 42.6233 51.8898 42.3587L52.0013 47.6149C52.0233 48.5735 52.0801 49.5945 52.0796 50.5456C52.0918 51.6129 52.0787 52.6582 52.119 53.726C52.1827 55.8157 52.2193 57.9068 52.2291 59.9979C51.4299 60.0434 50.4324 60.019 49.6187 60.0209L49.2694 60.0124C49.2718 58.3507 49.1982 56.1504 49.1204 54.4713C49.0909 53.4898 49.1504 52.391 49.0913 51.4423C48.1984 51.5252 47.3734 51.4699 46.4875 51.364L46.4584 51.3485C46.4109 48.581 46.2529 45.7659 46.2055 42.9736L46.1625 42.9601C46.2611 42.5199 46.1665 40.5095 46.1789 39.9268L46.1718 39.9034C46.167 37.0595 46.1345 34.0941 46.1807 31.2552Z" fill="#276B00"/>
<path d="M46.1807 31.2552C48.1923 31.5804 49.5244 31.4749 51.5096 30.8428C51.5288 31.7731 51.518 33.0831 51.6305 33.9791C51.6938 34.2792 51.6526 35.0007 51.6751 35.3425C51.7585 36.5995 51.6896 38.0259 51.7735 39.258C51.0493 39.5879 50.6837 39.7133 49.8962 39.9118C49.8076 38.5101 49.6983 37.1097 49.569 35.7112C49.4991 34.9019 49.4166 33.7309 49.2324 32.9462L49.2048 32.9395C49.2202 34.5643 49.1991 36.1527 49.1434 37.7772C49.1176 38.5297 49.1359 39.3198 49.0932 40.0666C48.0184 40.2092 47.2229 40.0956 46.1789 39.9268L46.1718 39.9034C46.167 37.0595 46.1345 34.0941 46.1807 31.2552Z" fill="#3AA000"/>
<path d="M46.2051 42.9731C47.0528 43.1276 48.1932 43.1719 49.0675 43.1015C49.1387 45.8226 49.021 48.6959 49.0909 51.4418C48.1979 51.5248 47.3729 51.4695 46.487 51.3635L46.458 51.3481C46.4104 48.5806 46.2525 45.7655 46.2051 42.9731Z" fill="#3AA000"/>
<path d="M50.0238 42.9177C50.7049 42.8406 51.2594 42.623 51.8894 42.3584L52.001 47.6146C52.023 48.5732 52.0797 49.5942 52.0792 50.5453C51.7535 50.6662 50.3749 51.2967 50.1232 51.1809C50.0758 51.0051 50.0852 50.9559 50.0913 50.7782C50.1175 48.6314 50.1227 46.4873 50.0388 44.3418C50.02 43.8683 50.0149 43.3914 50.0238 42.9177Z" fill="#3AA000"/>
<path d="M49.9697 54.3495C50.7342 54.2093 51.39 53.9951 52.1175 53.7256C52.1812 55.8153 52.2178 57.9064 52.2277 59.9975C51.4284 60.0429 50.4309 60.0186 49.6172 60.0204C49.7667 58.1323 49.8844 56.2414 49.9697 54.3495Z" fill="#3AA000"/>
<path d="M46.1786 39.9268C47.2225 40.0956 48.018 40.2092 49.0928 40.0665C49.0595 40.7586 49.0066 42.4479 49.0675 43.1019C48.1933 43.1723 47.0528 43.128 46.2051 42.9735L46.1621 42.96C46.2607 42.5199 46.1661 40.5095 46.1786 39.9268Z" fill="#276B00"/>
<path d="M52.0791 50.5454C52.0913 51.6128 52.0782 52.6581 52.1185 53.7259C51.391 53.9954 50.7352 54.2096 49.9707 54.3498C50.0518 53.8838 50.0209 50.8899 50.0912 50.7784C50.0851 50.956 50.0757 51.0053 50.123 51.181C50.3748 51.2968 51.7534 50.6663 52.0791 50.5454Z" fill="#276B00"/>
<path d="M43.875 53.7061C44.792 54.089 45.5344 54.2793 46.5132 54.4021C46.6238 54.4148 46.6604 54.4171 46.7661 54.449C47.631 54.524 48.2577 54.5043 49.1207 54.4711C49.1985 56.1501 49.2721 58.3504 49.2697 60.0121C48.8507 60.015 48.2507 60.0004 47.8461 60.0309C47.6558 59.9901 47.144 60.0051 46.9265 60.0065L43.7694 60.0018C43.7371 59.7825 43.7216 59.6147 43.707 59.3929C43.8327 59.19 43.8029 58.0157 43.8101 57.7036C43.8471 56.3714 43.8688 55.0387 43.875 53.7061Z" fill="#84CD80"/>
<path d="M46.7651 54.4492C47.63 54.5242 48.2567 54.5045 49.1197 54.4713C49.1975 56.1503 49.2711 58.3506 49.2687 60.0123C48.8497 60.0152 48.2497 60.0006 47.8452 60.0311C47.6548 59.9903 47.143 60.0053 46.9255 60.0067C46.846 58.7514 46.7727 57.4956 46.7059 56.2394C46.6908 55.9614 46.6111 54.7145 46.6524 54.4998L46.7651 54.4492Z" fill="#3AA000"/>
<path d="M44.1534 42.3213C44.6946 42.6231 45.5497 42.8677 46.1614 42.96L46.2045 42.9735C46.2519 45.7659 46.4098 48.5809 46.4574 51.3484C45.6241 51.2031 44.6961 50.8726 43.9258 50.5328C43.9918 49.9876 43.967 49.0272 43.9842 48.4473C44.0285 46.9534 44.0016 45.438 44.0979 43.9437C44.1268 43.4943 44.0809 42.7157 44.1534 42.3213Z" fill="#84CD80"/>
<path d="M44.4977 30.8125C45.0414 30.9761 45.5762 31.1392 46.1338 31.2524L46.1811 31.2551C46.135 34.094 46.1675 37.0594 46.1722 39.9033C45.4699 39.7374 44.9481 39.5215 44.2929 39.2409L44.2264 39.2174C44.1163 38.8247 44.3758 34.5049 44.3809 33.7966C44.3827 33.5367 44.3892 31.4197 44.4092 31.2158L44.4977 30.8125Z" fill="#84CD80"/>
<path d="M46.4863 51.3638C47.3722 51.4697 48.1972 51.525 49.0902 51.4421C49.1493 52.3908 49.0897 53.4896 49.1193 54.4711C48.2563 54.5044 47.6296 54.5241 46.7647 54.4491C46.659 54.4172 46.6224 54.4149 46.5118 54.4022L46.5835 54.3445C46.6246 54.022 46.5613 53.4117 46.5408 53.0625C46.5061 52.4972 46.4879 51.9305 46.4863 51.3638Z" fill="#276B00"/>
<path d="M44.2923 39.2407C44.9476 39.5214 45.4693 39.7372 46.1717 39.9031L46.1788 39.9266C46.1664 40.5093 46.261 42.5197 46.1623 42.9598C45.5506 42.8675 44.6955 42.6229 44.1543 42.3211C44.1678 41.7938 44.1893 39.609 44.2923 39.2407Z" fill="#276B00"/>
<path d="M57.0834 37.4241C57.2616 36.9781 57.4683 35.867 57.5906 35.3373L58.508 31.4521C59.2809 28.1836 63.682 9.72389 66.4486 9.14893C67.1737 9.44339 67.1691 10.4967 67.1916 11.1712C67.2703 13.5287 66.8466 15.9492 66.4852 18.2655L65.6128 23.7931C64.6908 29.5866 63.7341 35.3746 62.7431 41.1567L61.7175 46.9688C61.6116 47.6016 61.3641 48.6755 61.3734 49.2643C61.5783 48.9568 62.1558 46.8018 62.2819 46.3665C62.5458 45.4576 62.8162 44.5503 63.0923 43.645C63.3909 44.0631 64.4747 44.5674 64.9706 44.754C65.7023 45.0328 66.2217 45.1688 67.0158 45.2204C67.2572 45.2361 67.6964 45.2387 67.9055 45.2675L67.2534 47.9761C66.7411 50.1094 66.2236 52.5071 65.6573 54.6085C65.4403 55.493 65.2008 56.4113 65.0025 57.2977C64.7775 58.2024 64.5417 59.1047 64.2961 60.0047C63.42 59.9625 62.1614 60.0019 61.2572 60.0029L59.5106 60.0071C58.5192 60.015 57.5283 60.0155 56.5369 60.0085L56.2388 60.0146C55.7213 60.001 55.1616 60.0094 54.6403 60.008C53.9128 59.9865 53.0573 60.0399 52.3477 59.9902C52.4372 59.0766 52.6378 58.1715 52.8178 57.271C53.0836 55.9393 53.3592 54.6094 53.6452 53.2815L55.9791 42.396L56.8167 38.6697C56.8678 38.4426 57.0286 37.5524 57.0834 37.4241Z" fill="#3AA000"/>
<path d="M57.0834 37.4241C57.2616 36.9781 57.4683 35.867 57.5906 35.3373L58.508 31.4521C59.2809 28.1836 63.682 9.72389 66.4486 9.14893C66.4252 9.54732 65.5294 11.8937 65.3545 12.3799C65.0808 13.1568 64.8211 13.9387 64.5759 14.7252C63.9037 16.8248 63.3403 18.8905 62.7417 21.009C59.9081 31.3795 57.593 41.8849 55.8047 52.486C55.5103 54.2236 55.2323 55.9646 54.9712 57.7079C54.8887 58.245 54.66 59.5088 54.6403 60.008C53.9128 59.9865 53.0573 60.0399 52.3477 59.9902C52.4372 59.0766 52.6378 58.1715 52.8178 57.271C53.0836 55.9393 53.3592 54.6094 53.6452 53.2815L55.9791 42.396L56.8167 38.6697C56.8678 38.4426 57.0286 37.5524 57.0834 37.4241Z" fill="#84CD80"/>
<path d="M63.0915 43.645C63.3901 44.0631 64.4738 44.5674 64.9698 44.754C65.7015 45.0328 66.2209 45.1688 67.0149 45.2204C67.2563 45.2361 67.6955 45.2388 67.9046 45.2675L67.2526 47.9762C66.7402 50.1095 66.2227 52.5071 65.6565 54.6085C65.4394 55.493 65.1999 56.4113 65.0016 57.2977C64.7766 58.2024 64.5409 59.1048 64.2952 60.0048C63.4191 59.9626 62.1605 60.002 61.2563 60.0029L59.5098 60.0071C59.7591 58.6979 59.9663 57.2841 60.2045 55.9548C60.3577 55.0182 60.5176 54.083 60.684 53.1488C60.7515 52.7405 61.3801 49.2948 61.3726 49.2643C61.5774 48.9568 62.1549 46.8018 62.281 46.3666C62.5449 45.4576 62.8154 44.5504 63.0915 43.645Z" fill="#276B00"/>
<path d="M64.2615 47.3779C65.4549 47.7529 66.0282 47.8218 67.2535 47.9761C66.7412 50.1093 66.2237 52.507 65.6574 54.6084C64.4471 54.6145 63.7421 54.4889 62.5918 54.1762C63.092 51.9089 63.7374 49.6429 64.2615 47.3779Z" fill="#276B00"/>
<path d="M61.9614 56.771C62.5164 56.9271 63.1281 57.1043 63.6953 57.191C64.0928 57.2519 64.6169 57.199 65.0031 57.2979C64.7781 58.2026 64.5423 59.1049 64.2967 60.0049C63.4206 59.9627 62.162 60.0021 61.2578 60.003C61.2677 59.6238 61.8475 57.2641 61.9614 56.771Z" fill="#276B00"/>
<path d="M63.0917 43.645C63.3903 44.0631 64.4741 44.5674 64.97 44.754C64.8059 45.4581 64.4994 46.6645 64.2791 47.3443C63.3237 47.0851 63.0716 46.7869 62.2812 46.3666C62.5452 45.4576 62.8156 44.5504 63.0917 43.645Z" fill="#276B00"/>
<path d="M60.6846 53.1489C61.3723 53.5966 61.8509 53.8225 62.5929 54.1652C62.4002 55.0413 62.1724 55.8911 61.9746 56.7597C61.4899 56.606 60.6049 56.2563 60.2051 55.9549C60.3584 55.0183 60.5182 54.0831 60.6846 53.1489Z" fill="#276B00"/>
<path d="M64.8178 17.6484L58.6425 48.9198L57.2639 56.1662C57.038 57.3502 56.7084 58.8371 56.5364 60.0085L56.2383 60.0146C57.5367 48.3915 59.6325 36.8711 62.5106 25.5353C62.9639 23.7669 63.4514 22.0075 63.9727 20.2582C64.1906 19.5244 64.5258 18.3101 64.8178 17.6484Z" fill="#276B00"/>
<path d="M36.8674 29.4741C37.0509 30.4719 37.3546 31.5152 37.5655 32.5182L39.3798 40.4154C39.4808 40.8566 39.5672 41.333 39.7649 41.7375C39.8222 41.851 40.0802 43.252 40.1131 43.4414C40.6731 45.7377 41.0874 48.0708 41.6672 50.3625C41.7447 50.6686 41.821 51.0525 41.9327 51.3408C42.1726 52.0481 42.4685 53.6672 42.6304 54.4552C42.9991 55.943 43.4717 57.8972 43.706 59.393C43.7206 59.6147 43.7361 59.7825 43.7684 60.0019C42.9666 60.0014 42.1648 60.0089 41.3632 60.0244L41.0824 60.0014L40.5934 60.0028L36.2558 60.0033L31.7223 60.0019C31.4898 59.1099 31.2628 58.2164 31.0413 57.3216L30.3789 54.608C32.3054 54.5381 33.4283 54.3867 35.134 53.3367C35.1025 53.168 35.0467 52.9922 35.1087 52.8403C35.0329 52.7278 34.1577 47.7169 34.1703 47.6752C34.2048 47.2144 33.8614 45.4772 33.7705 44.8923C33.6385 44.5127 33.3345 42.3444 33.2509 41.7931C33.0922 41.0382 32.9686 40.1384 32.842 39.3694L32.2359 35.6934C32.1329 35.0415 32.035 34.2774 31.9034 33.6392L31.432 30.5924C31.7624 30.6661 32.1644 30.6939 32.5053 30.7134L33.3254 30.7087C34.6897 30.5844 35.7326 30.3034 36.8674 29.4741Z" fill="#276B00"/>
<path d="M35.1087 52.8403C36.3256 53.1666 37.3013 53.1567 38.534 52.9617C38.7516 53.8622 39.1264 55.0453 39.2619 55.9083L39.3707 55.8961C39.5837 56.7094 39.8181 57.5166 40.0735 58.3172C40.2324 58.8061 40.4928 59.5186 40.5934 60.0028L36.2558 60.0033L31.7223 60.0019C31.4898 59.1099 31.2628 58.2164 31.0413 57.3216L30.3789 54.608C32.3054 54.5381 33.4283 54.3867 35.134 53.3367C35.1025 53.168 35.0467 52.9922 35.1087 52.8403Z" fill="#276B00"/>
<path d="M39.2627 55.9082L39.3716 55.896C39.5845 56.7093 39.8189 57.5165 40.0744 58.3171C40.2332 58.806 40.4937 59.5185 40.5942 60.0027L36.2566 60.0032C36.2361 59.6146 36.076 58.7549 36.0035 58.3424C35.8737 57.6022 35.757 56.7266 35.5918 56.008L35.6162 55.971C35.7307 55.9237 36.4515 56.091 36.718 56.1037C37.6178 56.1463 38.3848 56.0638 39.2627 55.9082Z" fill="#84CD80"/>
<path d="M35.5907 56.0083C35.7559 56.7269 35.8727 57.6025 36.0025 58.3427C36.0749 58.7552 36.2351 59.6149 36.2555 60.0035L31.7221 60.0021C31.4896 59.11 31.2626 58.2166 31.041 57.3217C31.2902 57.1858 32.3921 57.2013 32.7817 57.0958C33.3204 56.95 35.3744 56.5544 35.5907 56.0083Z" fill="#276B00"/>
<path d="M36.4144 44.8308L36.5622 44.8276L36.4835 44.907C36.4868 45.2716 38.364 52.6237 38.5418 52.9157L38.5859 52.9434L38.5351 52.9617C37.3023 53.1567 36.3266 53.1665 35.1097 52.8403C35.0339 52.7278 34.1587 47.7168 34.1713 47.6751C34.2059 47.2143 33.8625 45.4771 33.7715 44.8922C33.9024 44.86 34.3237 44.9017 34.4798 44.9112C35.1504 44.9519 35.7525 44.991 36.4144 44.8308Z" fill="#84CD80"/>
<path d="M31.9043 33.6392C32.6551 33.8051 33.2092 33.7886 33.973 33.7331L34.0148 33.7376C34.0842 34.471 35.7084 41.7934 35.8042 41.8849L35.7409 41.9009C34.8122 41.9875 34.1834 41.9368 33.2518 41.7931C33.0931 41.0382 32.9695 40.1384 32.8429 39.3694L32.2368 35.6934C32.1338 35.0415 32.036 34.2774 31.9043 33.6392Z" fill="#84CD80"/>
<path d="M36.867 29.4741C37.0505 30.4719 37.3542 31.5152 37.5651 32.5182C37.132 32.7883 36.6794 33.0258 36.2112 33.229C35.8758 32.5486 35.9464 31.5382 35.3025 30.6767C35.4768 31.5538 35.7371 32.477 35.8754 33.3345C35.2241 33.5324 34.689 33.6449 34.0135 33.7376L33.9717 33.7331C33.2079 33.7886 32.6538 33.8051 31.903 33.6392L31.4316 30.5924C31.762 30.6661 32.164 30.6939 32.505 30.7134L33.325 30.7087C34.6893 30.5844 35.7323 30.3034 36.867 29.4741Z" fill="#276B00"/>
<path d="M31.4316 30.5923C31.762 30.666 32.164 30.6938 32.505 30.7133C32.7961 30.7743 33.0515 30.7551 33.3482 30.7484C33.4503 31.3944 33.7992 33.1144 33.9717 33.733C33.2079 33.7885 32.6538 33.805 31.903 33.639L31.4316 30.5923Z" fill="#276B00"/>
<path d="M34.0137 33.7376C34.6892 33.6449 35.2243 33.5324 35.8755 33.3345C36.0608 34.0849 36.1532 34.8742 36.3122 35.6258C36.7167 37.5374 37.0173 39.5475 37.4464 41.4444C37.2254 41.6923 36.1399 41.8467 35.8031 41.8849C35.7073 41.7934 34.083 34.471 34.0137 33.7376Z" fill="#3AA000"/>
<path d="M38.0379 44.502C38.1994 45.0186 38.3105 45.7641 38.4074 46.308C38.7823 48.4113 39.2671 50.5103 39.6376 52.6122C39.4199 52.7819 38.8691 52.8808 38.5848 52.9436L38.5407 52.916C38.3629 52.6239 36.4857 45.2719 36.4824 44.9073L36.5611 44.8279C37.1136 44.7524 37.505 44.6597 38.0379 44.502Z" fill="#3AA000"/>
<path d="M40.1139 43.4414C40.6739 45.7377 41.0882 48.0708 41.6681 50.3625C41.7456 50.6686 41.8219 51.0525 41.9335 51.3408C41.6921 51.5593 40.7972 52.2235 40.5124 52.2347C40.3896 51.8368 40.2058 50.3972 40.11 49.8647C39.7775 47.9536 39.4094 46.0487 39.0059 44.1513C39.4033 43.8762 39.6925 43.8198 40.1139 43.4414Z" fill="#3AA000"/>
<path d="M42.6304 54.4551C42.999 55.9429 43.4716 57.8971 43.7059 59.3929C43.7205 59.6146 43.736 59.7824 43.7683 60.0018C42.9665 60.0013 42.1648 60.0088 41.3631 60.0243C41.3146 58.6977 41.0932 56.7454 40.918 55.4184C41.6505 55.1048 42.018 54.952 42.6304 54.4551Z" fill="#3AA000"/>
<path d="M37.5648 32.5181L39.3792 40.4153C39.1421 40.6494 38.664 40.9808 38.3542 41.1036C38.2839 40.9143 38.2141 40.6141 38.1679 40.4132C37.6926 38.3504 37.145 36.3083 36.5543 34.2756C36.4563 33.938 36.3442 33.5521 36.2109 33.2288C36.6792 33.0257 37.1317 32.7881 37.5648 32.5181Z" fill="#3AA000"/>
<path d="M33.252 41.793C34.1835 41.9367 34.8123 41.9874 35.741 41.9008C35.9523 42.8709 36.1567 43.8744 36.4144 44.8308C35.7525 44.991 35.1504 44.9518 34.4798 44.9111C34.3237 44.9016 33.9024 44.8599 33.7715 44.8922C33.6395 44.5125 33.3356 42.3443 33.252 41.793Z" fill="#276B00"/>
<path d="M41.9329 51.3408C42.1728 52.0482 42.4687 53.6672 42.6306 54.4552C42.0183 54.9521 41.6507 55.1049 40.9182 55.4185C40.7859 54.3619 40.6355 53.2894 40.5117 52.2347C40.7965 52.2235 41.6915 51.5593 41.9329 51.3408Z" fill="#276B00"/>
<path d="M37.4469 41.4443C37.6322 42.4657 37.8293 43.4849 38.0383 44.5017C37.5054 44.6594 37.114 44.7521 36.5615 44.8276L36.4136 44.8308C36.1559 43.8745 35.9515 42.8709 35.7402 41.9009L35.8036 41.8849C36.1404 41.8467 37.2259 41.6922 37.4469 41.4443Z" fill="#276B00"/>
<path d="M38.3555 41.1039C38.6653 40.981 39.1434 40.6496 39.3804 40.4155C39.4814 40.8567 39.5679 41.3331 39.7656 41.7375C39.8228 41.8511 40.0808 43.252 40.1137 43.4415C39.6923 43.8198 39.4031 43.8762 39.0057 44.1513C38.8856 43.3857 38.5817 41.8565 38.3555 41.1039Z" fill="#276B00"/>
<path d="M39.6388 52.6118L39.6583 52.654C39.7555 53.3023 40.0577 55.0526 40.2334 55.647C39.9139 55.759 39.7022 55.8162 39.3719 55.8959L39.263 55.9081C39.1275 55.0451 38.7528 53.862 38.5352 52.9615L38.586 52.9432C38.8703 52.8804 39.4211 52.7815 39.6388 52.6118Z" fill="#276B00"/>
<path d="M39.3711 55.8959C39.7015 55.8162 39.9132 55.759 40.2327 55.647C40.5119 56.8076 40.9208 58.826 41.0827 60.0012L40.5937 60.0026C40.4932 59.5184 40.2327 58.8059 40.0739 58.317C39.8184 57.5163 39.584 56.7092 39.3711 55.8959Z" fill="#3AA000"/>
<path d="M69.133 25.0832C69.6627 23.745 71.767 18.0991 73.0321 17.7139C73.2234 17.7388 73.1366 17.7044 73.2951 17.8384C73.9312 19.2777 72.667 24.2528 72.359 26.0183C72.1846 26.9205 71.998 27.8203 71.7984 28.7173C71.2176 31.0665 70.7399 33.6459 70.0982 35.9571C69.9135 36.781 69.5976 37.9009 69.4579 38.6869L67.9049 45.2675C67.6959 45.2387 67.2566 45.2361 67.0152 45.2204C66.2212 45.1688 65.7018 45.0328 64.9701 44.7539C64.4741 44.5674 63.3904 44.0631 63.0918 43.645C63.6759 41.5536 64.379 39.4962 64.9987 37.4134C65.3085 36.4937 65.6137 35.5724 65.9132 34.6493C66.6524 32.2851 67.4287 29.9329 68.2424 27.5934C68.5495 26.7933 68.8551 25.8925 69.133 25.0832Z" fill="#276B00"/>
<path d="M66.7852 38.1138C67.2512 38.2692 67.628 38.38 68.1118 38.4616C68.5407 38.5339 69.0507 38.5645 69.4585 38.687L67.9055 45.2676C67.6965 45.2389 67.2573 45.2362 67.0159 45.2205C66.2218 45.1689 65.7024 45.0329 64.9707 44.7541C65.1123 44.3721 65.2979 43.4731 65.4324 43.026C65.912 41.4288 66.286 39.6937 66.7852 38.1138Z" fill="#276B00"/>
<path d="M69.591 28.2271C70.423 28.4445 70.9443 28.572 71.7998 28.7173C71.219 31.0665 70.7413 33.6459 70.0996 35.9571C68.9854 35.888 68.5799 35.8186 67.5332 35.4769C67.8651 34.4878 68.1398 33.2949 68.4421 32.274C68.8391 30.9322 69.247 29.5814 69.591 28.2271Z" fill="#276B00"/>
<path d="M70.3965 25.6041C70.8095 24.3641 72.533 18.4641 73.2948 17.8384C73.9309 19.2777 72.6666 24.2528 72.3587 26.0183C71.8749 26.0328 70.8563 25.7934 70.3965 25.6041Z" fill="#276B00"/>
<path d="M65.9145 34.6494C66.3402 35.0204 67.0156 35.2865 67.5383 35.4785C67.2894 36.303 67.0728 37.3101 66.7714 38.1052C66.3167 37.9358 65.322 37.4219 65 37.4135C65.3098 36.4938 65.615 35.5725 65.9145 34.6494Z" fill="#276B00"/>
<path d="M69.1328 25.083C69.5538 25.2784 69.9878 25.4579 70.3989 25.6485C70.1289 26.4624 69.8786 27.4275 69.5805 28.2069C69.018 28.004 68.7428 27.9123 68.2422 27.5932C68.5492 26.7931 68.8548 25.8923 69.1328 25.083Z" fill="#276B00"/>
<path d="M45.3512 14.5552C45.8065 14.6607 46.2626 14.7631 46.7194 14.8621C48.17 15.0891 49.2762 14.9411 50.6754 14.5951C50.7134 15.5339 50.8653 16.7576 50.8629 17.636C51.0856 21.0084 51.2543 24.384 51.3701 27.7617C51.425 28.5636 51.5286 30.0671 51.5084 30.8426C49.5233 31.4748 48.1911 31.5803 46.1795 31.255L46.1322 31.2524C45.5746 31.1392 45.0398 30.9761 44.4961 30.8125C44.566 29.8096 44.5337 28.7408 44.6092 27.7135C44.6407 27.4245 44.6491 26.8092 44.6659 26.4902C44.7199 25.5255 44.7667 24.5604 44.8062 23.5949C44.9042 21.6166 45.0139 19.6389 45.1352 17.6618C45.1951 16.6255 45.2671 15.5898 45.3512 14.5552Z" fill="#3AA000"/>
<path d="M44.6092 27.7134C45.1729 27.9044 45.6629 28.0494 46.2224 28.2243C48.0729 28.7377 49.6339 28.3326 51.3701 27.7615C51.425 28.5634 51.5286 30.067 51.5084 30.8425C49.5233 31.4746 48.1911 31.5801 46.1795 31.2549L46.1322 31.2522C45.5746 31.139 45.0398 30.9759 44.4961 30.8123C44.566 29.8094 44.5337 28.7406 44.6092 27.7134Z" fill="#276B00"/>
<path d="M44.6092 27.7134C45.1729 27.9044 45.6629 28.0494 46.2224 28.2243C46.2047 28.6568 46.2115 31.0083 46.1322 31.2522C45.5746 31.139 45.0398 30.9759 44.4961 30.8123C44.566 29.8094 44.5337 28.7406 44.6092 27.7134Z" fill="#276B00"/>
<path d="M45.3527 14.5552C45.808 14.6607 46.2641 14.7631 46.7209 14.8621C48.1715 15.0891 49.2777 14.9411 50.6769 14.5951C50.7149 15.5339 50.8668 16.7576 50.8644 17.636C49.3654 17.9793 48.2436 18.1254 46.6774 17.9312L46.5548 17.8937C46.065 17.8661 45.6314 17.718 45.1367 17.6618C45.1966 16.6255 45.2686 15.5898 45.3527 14.5552Z" fill="#276B00"/>
<path d="M45.3527 14.5552C45.808 14.6607 46.2641 14.7631 46.7209 14.8621C46.6633 15.7202 46.5476 17.0607 46.5548 17.8937C46.065 17.8661 45.6314 17.718 45.1367 17.6618C45.1966 16.6255 45.2686 15.5898 45.3527 14.5552Z" fill="#276B00"/>
<path d="M45.1355 17.6616C45.6301 17.7178 46.0637 17.8659 46.5536 17.8935L46.6761 17.931L46.5772 17.9943C46.5264 18.2381 46.5414 18.6994 46.5282 18.9824C46.4798 19.9033 46.4445 20.825 46.4221 21.747C46.3632 23.9124 46.247 26.056 46.2226 28.2243C45.6631 28.0494 45.1731 27.9044 44.6094 27.7134C44.6409 27.4243 44.6494 26.809 44.6661 26.49C44.7201 25.5253 44.7669 24.5602 44.8064 23.5947C44.9044 21.6164 45.0141 19.6387 45.1355 17.6616Z" fill="#84CD80"/>
<path d="M32.9384 43.6919C33.1735 44.5678 33.4805 45.4506 33.7251 46.3256C33.8108 46.6459 34.0098 47.4288 34.1712 47.6753C34.1586 47.7171 35.0338 52.728 35.1096 52.8405C35.0476 52.9924 35.1034 53.1681 35.1348 53.3369C33.4292 54.3869 32.3063 54.5383 30.3798 54.6081C29.8221 52.5325 29.2877 50.1414 28.7978 48.0353C28.5486 47.1531 28.3155 46.122 28.0996 45.2251C29.8274 45.2479 31.6031 44.8603 32.9384 43.6919Z" fill="#276B00"/>
<path d="M32.9384 43.6919C33.1735 44.5678 33.4805 45.4506 33.7251 46.3256C32.616 47.3275 30.4313 47.8511 28.9783 47.8774C28.8367 47.8797 28.8336 47.9341 28.7978 48.0353C28.5486 47.1531 28.3155 46.122 28.0996 45.2251C29.8274 45.2479 31.6031 44.8603 32.9384 43.6919Z" fill="#276B00"/>
<path d="M29.7619 18.7543C29.3548 16.1379 29.0053 13.2465 28.9866 10.5967C28.9828 10.0475 29.0015 8.33588 29.794 8.35514C31.7101 9.2767 33.5756 15.7505 34.0552 17.8561L34.7926 20.9248C33.7786 21.3736 32.8386 21.7288 31.7113 21.8067L31.6715 21.8028C31.328 21.8723 30.5368 21.8483 30.1595 21.8454C30.0046 20.818 29.872 19.7874 29.7619 18.7543Z" fill="#3AA000"/>
<path d="M34.0551 17.856L34.7924 20.9246C33.7784 21.3735 32.8385 21.7286 31.7112 21.8065L31.6714 21.8027C31.3278 21.8722 30.5367 21.8481 30.1593 21.8453C30.0044 20.8179 29.8719 19.7873 29.7617 18.7541C30.1711 18.8035 30.6909 18.8079 31.1046 18.7831L31.1578 18.7711C32.2315 18.6602 33.1267 18.4425 34.0551 17.856Z" fill="#276B00"/>
<path d="M29.7617 18.7544C30.1711 18.8038 30.6909 18.8082 31.1046 18.7834C31.1833 19.2438 31.5543 21.4648 31.6714 21.803C31.3278 21.8724 30.5367 21.8484 30.1593 21.8456C30.0044 20.8182 29.8719 19.7875 29.7617 18.7544Z" fill="#276B00"/>
<path d="M29.7619 18.7543C29.3548 16.1379 29.0053 13.2465 28.9866 10.5967C28.9828 10.0475 29.0015 8.33588 29.794 8.35514C29.8841 9.18694 29.9417 10.7741 30.0336 11.5196C30.1295 12.2985 30.9429 18.5903 31.158 18.7712L31.1047 18.7832C30.691 18.8081 30.1712 18.8037 29.7619 18.7543Z" fill="#84CD80"/>
<path d="M34.7933 20.9248L36.1147 26.3276C36.3358 27.2613 36.6028 28.5776 36.8676 29.4741C35.7329 30.3033 34.6899 30.5843 33.3256 30.7086L32.5056 30.7134C32.1646 30.6939 31.7626 30.666 31.4323 30.5924C31.2466 29.6669 31.0932 28.4227 30.9495 27.4661C30.6575 25.5967 30.3943 23.723 30.1602 21.8455C30.5375 21.8483 31.3287 21.8723 31.6722 21.8029L31.712 21.8067C32.8393 21.7288 33.7793 21.3737 34.7933 20.9248Z" fill="#3AA000"/>
<path d="M31.6722 21.8027L31.712 21.8066C31.6048 22.4176 33.1191 29.5753 33.3256 30.7085L32.5056 30.7132C32.1646 30.6937 31.7626 30.6659 31.4323 30.5922C31.2466 29.6668 31.0932 28.4226 30.9495 27.466C30.6575 25.5966 30.3943 23.7229 30.1602 21.8453C30.5375 21.8482 31.3287 21.8722 31.6722 21.8027Z" fill="#84CD80"/>
<path d="M30.1009 34.6724C30.3671 35.5426 30.6461 36.409 30.938 37.271L32.2632 41.4933C32.4457 42.0882 32.7275 43.1377 32.9384 43.6916C31.6031 44.86 29.8274 45.2476 28.0996 45.2248C27.9914 44.6465 27.7772 43.8544 27.6367 43.2651C27.2623 41.7485 26.8987 40.2293 26.546 38.7075C26.3238 37.7738 26.1072 36.8386 25.8965 35.9022C26.9967 36.0494 29.2627 35.4016 30.1009 34.6724Z" fill="#276B00"/>
<path d="M30.1009 34.6724C30.3671 35.5426 30.6461 36.409 30.938 37.271C29.9495 37.8658 29.4051 38.1113 28.2453 38.3944C27.8997 38.4787 26.6875 38.599 26.546 38.7075C26.3238 37.7738 26.1072 36.8386 25.8965 35.9022C26.9967 36.0494 29.2627 35.4016 30.1009 34.6724Z" fill="#276B00"/>
<path d="M45.3516 14.5551C45.6306 12.5682 45.9382 3.82137 47.9861 3.01221C49.9919 3.92784 50.2394 11.0685 50.5356 13.1536C50.598 13.5933 50.5844 14.1439 50.6758 14.595C49.2765 14.941 48.1703 15.089 46.7197 14.862C46.263 14.763 45.8069 14.6607 45.3516 14.5551Z" fill="#3AA000"/>
<path d="M45.3516 14.5551C45.6306 12.5682 45.9382 3.82137 47.9861 3.01221C47.9251 3.79276 47.733 4.60372 47.6195 5.38247C47.4737 6.38339 47.3453 7.40213 47.244 8.40844C47.1109 9.75755 46.9994 11.1087 46.9098 12.4614C46.8651 13.1077 46.8205 14.2547 46.7197 14.862C46.263 14.763 45.8069 14.6607 45.3516 14.5551Z" fill="#84CD80"/>
<path d="M26.8225 25.0444C27.0995 25.7342 27.502 27.0799 27.7509 27.6203C28.5657 29.9667 29.2951 32.3487 30.0997 34.6726C29.2615 35.4018 26.9955 36.0496 25.8953 35.9024C25.7063 35.3728 25.4282 34.0339 25.2958 33.4523L24.2492 28.8195C24.039 27.9608 23.8477 26.9518 23.6602 26.0779C24.7893 25.7951 25.7488 25.8081 26.8225 25.0444Z" fill="#276B00"/>
<path d="M26.8225 25.0444C27.0995 25.7342 27.502 27.0799 27.7509 27.6203C27.0809 27.9737 26.4233 28.2144 25.7067 28.4524C25.3484 28.5715 24.4236 28.6078 24.2492 28.8195C24.039 27.9608 23.8477 26.9518 23.6602 26.0779C24.7893 25.7951 25.7488 25.8081 26.8225 25.0444Z" fill="#276B00"/>
<path d="M23.661 26.0777C23.4233 24.7549 21.9623 18.622 22.7748 17.7604C23.9698 17.2945 26.4964 24.1623 26.8233 25.0443C25.7496 25.8079 24.7901 25.795 23.661 26.0777Z" fill="#276B00"/>
</svg>
