<svg width="96" height="96" viewBox="0 0 96 96" fill="none" xmlns="http://www.w3.org/2000/svg">
<path d="M46.4449 58.6506C47.1109 57.6326 47.5582 56.8013 47.9834 55.6646C48.2284 56.2571 49.1415 58.3865 49.6234 58.6977C49.4076 59.1045 49.5997 67.6746 49.5356 68.9319L58.5458 68.921C59.3593 68.92 62.1658 68.8716 62.8352 68.9862C66.9624 69.2775 66.0758 73.3114 65.9536 76.3093C65.8048 79.9553 64.2833 83.9368 62.7349 87.1536C62.1145 88.1791 61.5004 89.2366 60.7953 90.2039C60.0353 91.2979 58.8742 92.8994 57.4421 92.9624C54.6758 93.0843 51.8828 93.0274 49.1104 93.0305L42.8811 93.0359C41.7591 93.0363 38.7217 93.1102 37.7968 92.8081C36.2844 92.314 34.1094 88.5186 33.3125 87.1036C30.9667 82.3629 29.8378 77.8983 29.9762 72.582C30.0401 70.1293 30.8684 69.1619 33.3354 68.9918C34.1761 68.8247 36.0052 68.9412 36.9381 68.9153C39.9482 68.8316 43.5144 69.0904 46.4713 68.8639C46.411 68.1477 46.4957 67.2016 46.468 66.4648C46.378 64.0685 46.6238 60.9814 46.4449 58.6506Z" fill="#E3E3E3"/>
<path d="M33.3354 68.9917L34.5186 69.0034C34.2185 73.8853 35.4186 79.234 37.5837 83.5805C38.0872 84.591 39.2058 86.1724 39.5306 86.9772C37.533 87.0591 35.2698 86.9201 33.3125 87.1035C30.9667 82.3628 29.8378 77.8982 29.9762 72.582C30.0401 70.1293 30.8684 69.1619 33.3354 68.9917Z" fill="#B0B0B0"/>
<path d="M39.5307 86.9771L39.7662 87.034C40.1918 87.9547 41.2597 89.3775 42.2318 89.7468C43.6129 90.2712 54.1886 89.9968 56.6282 89.9955C57.9446 89.9948 59.5202 89.8483 60.7953 90.2037C60.0354 91.2977 58.8743 92.8992 57.4422 92.9622C54.6759 93.0841 51.8829 93.0272 49.1104 93.0303L42.8811 93.0357C41.7591 93.0361 38.7217 93.11 37.7968 92.8079C36.2845 92.3139 34.1095 88.5184 33.3125 87.1034C35.2698 86.92 37.533 87.059 39.5307 86.9771Z" fill="#B0B0B0"/>
<path d="M46.4454 58.6506C47.1114 57.6326 47.5587 56.8013 47.9839 55.6646C48.2289 56.2571 49.142 58.3865 49.6239 58.6977C49.4081 59.1045 49.6003 67.6746 49.5361 68.9319L58.5463 68.921C59.3598 68.92 62.1663 68.8716 62.8357 68.9862C60.1237 69.1405 56.0005 69.012 53.1912 69.0109L34.5191 69.0035L33.3359 68.9918C34.1766 68.8247 36.0057 68.9412 36.9386 68.9153C39.9487 68.8316 43.5149 69.0904 46.4718 68.8639C46.4115 68.1477 46.4962 67.2016 46.4685 66.4648C46.3785 64.0685 46.6243 60.9814 46.4454 58.6506Z" fill="#193F2F"/>
<path d="M28.5117 3.03087C34.2905 2.85774 38.7478 2.91803 43.2916 7.2127C45.375 9.19211 46.8523 11.7235 47.5508 14.511C47.6504 14.8955 47.9613 16.6017 48.0434 16.7534C48.2788 15.8795 48.2428 15.1723 48.5063 14.2597C49.6137 10.4253 52.0654 7.1205 55.5037 5.07471C59.142 2.91002 63.3999 2.79274 67.5342 3.02684C61.9029 6.7962 57.5624 10.5702 53.535 16.0924C52.1027 18.0563 50.4305 20.5644 49.4279 22.7746C49.0804 23.0713 48.2633 24.8813 48.0718 25.3702C47.8787 25.224 47.8251 24.7757 47.4937 24.36L47.3039 24.3936C46.9006 24.0184 46.8436 23.4641 46.4668 23.1467L46.6228 22.7279C42.4021 14.6985 36.1595 7.90925 28.5117 3.03087Z" fill="#84CD80"/>
<path d="M46.6228 22.728C46.8868 23.2917 47.1899 23.8174 47.4936 24.3601L47.3039 24.3937C46.9006 24.0185 46.8436 23.4642 46.4668 23.1468L46.6228 22.728Z" fill="#294E28"/>
<path d="M46.6179 55.1522C47.0372 55.0939 47.4786 55.2676 47.9035 55.3067L48.1241 55.2879C48.4973 55.2682 48.9201 55.158 49.3888 55.1343C49.4562 55.1932 49.5381 55.2648 49.6345 55.3491C50.938 55.5578 53.1248 55.4761 54.3781 55.494C61.1196 55.5903 67.3218 58.7075 71.4041 64.0728C72.2995 65.2496 72.9295 66.3826 73.6638 67.6744C72.3413 66.8973 70.9063 66.2199 69.5345 65.5269C67.2927 64.3944 65.174 63.302 62.7609 62.5602C61.3475 62.1345 59.8958 61.8478 58.4266 61.7045C55.1059 61.3976 52.0579 61.7123 49.625 58.6976C49.1431 58.3864 48.23 56.2569 47.985 55.6644C47.5598 56.8012 47.1125 57.6325 46.4465 58.6505C43.7648 61.6188 41.5758 61.4197 37.8787 61.6847C32.5282 62.0682 27.0937 65.1563 22.3809 67.6218C23.6092 65.4155 24.4482 64.0604 26.221 62.1735C29.8841 58.3341 34.8355 55.9816 40.126 55.5671C41.983 55.4053 44.0062 55.5053 45.8815 55.4245C46.3108 55.406 46.3668 55.4218 46.6179 55.1522Z" fill="#143800"/>
<path d="M46.6176 35.6522C47.0398 35.5932 47.4773 35.7679 47.9032 35.8053L48.1252 35.7873C48.4918 35.7686 48.9255 35.658 49.3887 35.6343C49.4562 35.6931 49.5382 35.7647 49.6351 35.8491C50.8232 36.0519 52.9052 35.9846 54.0403 35.9867C60.8558 35.9989 67.1312 39.0459 71.303 44.4438C72.2519 45.6714 72.8895 46.8259 73.6727 48.1739C72.3124 47.3866 70.8725 46.7038 69.469 45.9943C67.2869 44.8912 65.2338 43.8354 62.8901 43.0983C61.4141 42.6434 59.8949 42.3427 58.3568 42.2012C55.0709 41.8937 52.0464 42.2028 49.6259 39.1984C49.1381 38.8811 48.2328 36.7628 47.985 36.1643C47.5599 37.3013 47.1124 38.1322 46.4464 39.1503C43.687 42.2055 41.5611 41.8597 37.8786 42.1846C36.2117 42.3349 34.5656 42.6638 32.9688 43.1658C30.0125 44.1252 25.2392 46.6081 22.3633 48.1339C23.6425 45.8948 24.3678 44.6594 26.178 42.7206C29.8579 38.8374 34.852 36.464 40.1868 36.0626C42.0367 35.9055 44.0384 36.0096 45.9045 35.9271C46.3234 35.9086 46.3748 35.9138 46.6176 35.6522Z" fill="#143800"/>
<path d="M49.4264 22.7745L49.5989 23.0417C49.6523 23.0273 49.7057 23.0129 49.7591 22.9986C50.4742 21.9749 51.2218 21.2263 52.1887 20.4301C57.7406 15.8745 65.5248 15.2082 71.7701 18.7542C75.7896 21.0537 77.0776 23.7369 79.6796 27.1522C78.7976 26.7488 77.8894 26.4064 76.9794 26.0715C74.5071 25.1619 72.0667 24.1428 69.507 23.4972C63.161 21.9288 56.4897 22.308 50.3623 24.5855C50.1369 24.6693 49.6808 24.8218 49.5113 24.9437C48.9672 25.1635 48.6688 25.2813 48.0703 25.3701C48.2618 24.8812 49.0789 23.0712 49.4264 22.7745Z" fill="#276B00"/>
<path d="M16.3164 27.1341C17.7776 25.3567 18.9533 23.1928 20.6269 21.5169C23.8331 18.3066 28.1526 16.5281 32.6724 16.4998C36.9095 16.4391 41.0172 17.9603 44.1927 20.7663C45.2388 21.6994 45.6261 22.3299 46.414 23.0963L46.4661 23.1465C46.8429 23.4639 46.8999 24.0182 47.3032 24.3934L47.493 24.3598C47.8244 24.7755 47.878 25.2238 48.0711 25.37C47.9025 25.4391 46.7404 25.0355 46.4895 24.9527C46.4007 24.8991 46.3593 24.875 46.2617 24.8348C40.1667 22.3903 33.4667 21.8823 27.0727 23.3797C24.3487 24.0175 19.0254 25.9978 16.3164 27.1341Z" fill="#276B00"/>
<path d="M49.5979 33.3642C52.6487 29.5893 55.8039 27.6767 60.7109 27.0791C68.3146 26.1531 72.4593 30.7181 78.1862 34.5829C75.5114 34.1336 72.7683 33.8922 70.0791 33.5214C63.2399 32.5781 55.8733 32.9688 49.4413 35.5952C49.4237 35.6082 49.4061 35.6212 49.3885 35.6342C48.9252 35.6579 48.4916 35.7686 48.125 35.7872C48.3696 35.335 49.2771 33.634 49.5979 33.3642Z" fill="#276B00"/>
<path d="M17.7578 34.586C23.7666 30.777 27.1381 26.2492 35.3455 27.0845C40.0002 27.5583 43.5342 29.7816 46.4527 33.3695C46.8784 34.0623 47.5313 35.093 47.9033 35.8054C47.4774 35.768 47.0399 35.5933 46.6177 35.6523C45.5252 34.9996 43.5933 34.5136 42.3164 34.193C35.8036 32.5578 30.6112 32.9564 24.1019 33.7615C21.9838 34.0094 19.869 34.2843 17.7578 34.586Z" fill="#276B00"/>
<path d="M17.7539 54.086C23.7794 50.2984 27.1301 45.7236 35.3744 46.589C40.0246 47.0772 43.537 49.2855 46.4516 52.8691C46.8728 53.5552 47.536 54.6018 47.9019 55.3066C47.4771 55.2675 47.0357 55.0938 46.6163 55.1521C45.5601 54.5173 43.6652 54.0345 42.4274 53.7201C35.8626 52.0527 30.6315 52.4514 24.0708 53.2643C21.9618 53.5118 19.8561 53.7858 17.7539 54.086Z" fill="#276B00"/>
<path d="M49.5623 52.8697C50.2862 52.099 50.9503 51.1548 51.7599 50.4629C54.7292 47.9251 57.9887 46.6809 61.8275 46.5063C68.8301 46.1878 72.816 50.3895 78.1824 54.0824C75.4901 53.6299 73.2749 53.4714 70.0409 53.0162C63.3842 52.0795 55.7386 52.4815 49.4406 55.0952C49.423 55.1083 49.4054 55.1212 49.3877 55.1342C48.919 55.1579 48.4962 55.2681 48.123 55.2879C48.5043 54.5846 49.0885 53.5011 49.5623 52.8697Z" fill="#276B00"/>
<path d="M46.4453 39.1505C47.1113 38.1324 47.5588 37.3016 47.9838 36.1646C48.2317 36.7631 49.137 38.8813 49.6247 39.1986C49.4265 39.5686 49.5728 51.4772 49.5622 52.87C49.0884 53.5014 48.5042 54.5848 48.123 55.2881L47.9023 55.3069C47.5364 54.6021 46.8732 53.5556 46.452 52.8694C46.5534 51.9716 46.5085 47.8923 46.4797 46.7941C46.4223 44.6 46.6101 41.2055 46.4453 39.1505Z" fill="#193F2F"/>
<path d="M48.0721 25.3702C48.6706 25.2814 48.969 25.1636 49.5131 24.9438C49.5416 26.7637 49.5496 28.5838 49.5369 30.4038C49.5367 30.9808 49.5176 32.843 49.5986 33.3646C49.2778 33.6343 48.3703 35.3353 48.1257 35.7875L47.9037 35.8055C47.5317 35.0932 46.8788 34.0624 46.4531 33.3696C46.6025 30.9819 46.4746 27.472 46.4904 24.9529C46.7414 25.0358 47.9034 25.4394 48.0721 25.3702Z" fill="#193F2F"/>
</svg>
