<svg width="96" height="96" viewBox="0 0 96 96" fill="none" xmlns="http://www.w3.org/2000/svg">
<path d="M24.2575 57.747C26.3177 54.3419 29.8304 52.941 33.6014 54.9014C34.419 55.3265 35.3731 56.3427 36.0173 57.011C35.5073 58.0359 33.9671 61.2459 33.7628 62.3252C35.5497 63.2031 39.9145 63.0856 41.9655 62.9904C43.4637 63.0128 44.9622 63.0174 46.4605 63.004C47.5988 63.0227 48.7371 63.025 49.8754 63.0109C50.7676 63.0165 51.6598 63.0064 52.5517 62.9809C55.4329 63.0561 58.6142 63.0059 61.5106 62.9869L70.3306 62.9703C71.4074 62.97 73.8107 62.9052 74.7853 63.0005C75.9688 63.865 76.6768 65.1767 77.4786 66.3729C77.5642 66.5006 77.9822 67.2027 78.0442 67.2681L78.0401 74.7425C78.0405 76.2508 78.0933 78.2442 77.9483 79.7002C77.5949 83.0947 76.0756 86.2616 73.6492 88.6614C73.0642 89.2415 72.0069 90.1154 71.2782 90.5242C69.0875 92.1573 65.7402 92.9944 63.0438 93.0088C56.9574 93.0414 50.8689 93.0304 44.7822 93.0305L36.9653 93.0297C34.5965 93.0291 31.6781 93.1497 29.3987 92.5978C23.7787 91.3323 18.5023 85.7692 18.112 79.8954C17.7485 74.422 18.0998 68.5358 17.9679 62.9832C19.7692 63.0118 22.412 63.0441 24.1768 62.9483C24.0531 61.5481 23.7709 58.995 24.2575 57.747Z" fill="#E3E3E3"/>
<path d="M24.2575 57.747C26.3177 54.3419 29.8304 52.941 33.6014 54.9014C34.419 55.3265 35.3731 56.3427 36.0173 57.011C35.5073 58.0359 33.9671 61.2459 33.7628 62.3252C33.4708 62.7849 33.2814 63.4268 33.0996 63.9444C31.1627 69.4565 30.2222 75.1791 30.04 81.007L30.1617 80.9631C33.5645 84.2541 36.4431 86.4014 40.9156 88.1436C45.8472 90.0649 49.7508 89.9949 54.8783 89.9964L65.6277 89.999C67.1768 90.0021 68.7722 89.9752 70.3192 90.0854C70.6623 90.1098 71.1544 90.1481 71.2782 90.5242C69.0875 92.1573 65.7402 92.9944 63.0438 93.0088C56.9574 93.0414 50.8689 93.0304 44.7822 93.0305L36.9653 93.0297C34.5965 93.0291 31.6781 93.1497 29.3987 92.5978C23.7787 91.3323 18.5023 85.7692 18.112 79.8954C17.7485 74.422 18.0998 68.5358 17.9679 62.9832C19.7692 63.0118 22.412 63.0441 24.1768 62.9483C24.0531 61.5481 23.7709 58.995 24.2575 57.747Z" fill="#B0B0B0"/>
<path d="M24.2575 57.747C26.3176 54.3419 29.8304 52.941 33.6014 54.9014C34.4189 55.3265 35.373 56.3427 36.0173 57.011C35.5073 58.0359 33.9671 61.2459 33.7628 62.3252C33.4708 62.7849 33.2814 63.4268 33.0995 63.9444C31.1626 69.4565 30.2221 75.1791 30.04 81.007C30.0063 81.5217 30.0661 83.3845 29.8707 83.6869C29.6334 83.3974 28.9537 81.7588 28.7694 81.3348C26.6576 76.5821 25.2283 71.5549 24.5238 66.4021C24.3861 65.4033 24.1822 63.933 24.1768 62.9483C24.053 61.5481 23.7708 58.995 24.2575 57.747Z" fill="#84CD80"/>
<path d="M40.4355 47.7426L40.4452 47.6745C40.5457 46.9315 40.4757 44.6576 40.4815 43.783C40.4964 41.5151 40.4716 39.1712 40.693 36.8938C41.6396 27.1529 46.0879 14.3855 53.9684 8.13532C58.3222 4.68221 63.5424 3.09488 68.9858 2.98975C68.088 4.46568 66.9143 6.02114 65.949 7.49815C64.426 9.86633 62.9973 12.2938 61.6664 14.775C56.2982 24.8747 52.7621 35.8456 51.222 47.1791C51.0534 48.4085 50.5629 52.1669 50.579 53.2905C50.2682 55.8062 50.1834 58.3856 49.9772 60.9142C49.9223 61.5879 49.8612 62.3406 49.8749 63.011C48.7365 63.0251 47.5982 63.0228 46.46 63.0041C46.1168 61.7934 44.5976 58.1677 44.0594 56.8953C42.7987 53.9149 41.6684 50.6844 40.4355 47.7426Z" fill="#3AA000"/>
<path d="M50.5792 53.2906C51.3674 51.678 52.3776 48.9857 53.1163 47.2574C57.6442 36.6637 61.0371 26.5601 69.1157 17.9377C71.1341 15.7834 72.459 14.1702 75.2267 12.999C78.1987 11.7414 81.952 11.6284 84.934 12.8837C89.8739 14.9633 91.2231 18.1673 93.1399 22.6756C91.7295 21.7379 88.4092 19.6697 86.9481 18.9701C84.6528 17.8832 82.0215 17.7457 79.6255 18.5876C78.3407 19.0401 77.1693 19.7657 76.1919 20.7144C75.101 21.7763 73.1977 24.528 72.2753 25.8481C67.3856 32.8292 63.0701 40.1953 59.3713 47.8741C57.0043 52.6027 54.5302 58.0771 52.5513 62.9811C51.6594 63.0067 50.7672 63.0167 49.875 63.0111C49.8613 62.3407 49.9224 61.588 49.9774 60.9143C50.1835 58.3857 50.2684 55.8063 50.5792 53.2906Z" fill="#84CD80"/>
<path d="M59.3708 47.874C59.6032 47.8396 65.1668 43.396 66.2842 42.7857C72.0373 39.5746 79.079 39.7345 84.6805 43.2035C87.9825 45.2557 90.5243 48.3297 91.9199 51.9583C92.3868 53.175 92.6648 54.3882 93.0965 55.5958C88.1796 51.0496 85.4707 46.269 77.8737 46.5729C74.2938 46.7171 70.9239 48.3009 68.5283 50.9649C68.2058 51.3175 67.3192 52.3915 67.1826 52.8066C66.5547 53.694 64.4053 57.4738 63.9937 58.4934C63.1478 59.9928 62.4117 61.5145 61.5097 62.987C58.6133 63.006 55.432 63.0562 52.5508 62.9809C54.5298 58.077 57.0038 52.6026 59.3708 47.874Z" fill="#276B00"/>
<path d="M2.86133 34.3706C4.46 35.1725 6.61214 36.0116 8.28754 36.7239C11.1443 37.9331 13.9947 39.1575 16.8385 40.3971C18.6228 41.1611 21.2113 42.2133 22.8658 43.197C25.6273 44.6838 28.1639 46.5535 30.6045 48.498C30.6182 48.5089 30.9791 48.5273 31.0321 48.5237C31.3198 49.0309 33.0526 50.9139 33.5071 51.0434L33.6261 51.0067C33.9646 51.8445 35.5244 53.2963 36.1923 54.1139C37.8401 56.1312 41.0795 60.617 41.9643 62.9906C39.9133 63.0858 35.5485 63.2033 33.7616 62.3254C33.9659 61.2461 35.5061 58.0361 36.0161 57.0111C35.3719 56.3429 34.4178 55.3266 33.6002 54.9016C29.8292 52.9412 26.3165 54.3421 24.2563 57.7472C24.1893 57.6277 21.5638 55.8358 21.1995 55.5704C13.5027 49.9624 8.60737 41.8839 2.86133 34.3706Z" fill="#3AA000"/>
<path d="M33.6273 51.0065C33.3012 50.2083 32.9009 46.8791 32.7351 45.8318C32.2593 42.8257 31.7144 39.8623 31.539 36.8286C31.0811 28.9126 33.3163 21.2682 38.0545 14.9018C39.0762 13.529 40.1057 12.4066 41.2667 11.1313C41.1357 12.7063 40.4903 15.6362 40.209 17.2607C38.1609 29.0888 35.399 36.0104 40.436 47.7425C41.6688 50.6843 42.7992 53.9147 44.0598 56.8951C44.5981 58.1676 46.1173 61.7933 46.4605 63.004C44.9622 63.0174 43.4637 63.0128 41.9655 62.9904C41.0807 60.6168 37.8413 56.131 36.1935 54.1137C35.5256 53.2961 33.9658 51.8443 33.6273 51.0065Z" fill="#84CD80"/>
<path d="M15.0658 3.05371C15.5286 4.58016 16.1519 6.16012 16.6989 7.66794L18.8195 13.6676L26.8746 36.5345L29.616 44.2675C29.9791 45.2901 30.8531 47.5759 31.0326 48.5239C30.9797 48.5275 30.6187 48.509 30.605 48.4982C28.1644 46.5537 25.6278 44.684 22.8663 43.1972C22.8181 42.8689 22.5081 42.4116 22.3286 42.0975C21.1559 40.0747 20.1138 37.979 19.2089 35.8231C15.5717 27.0938 14.0417 17.7072 14.6929 8.30925C14.7931 6.86282 14.8004 4.42011 15.0658 3.05371Z" fill="#276B00"/>
<path d="M67.183 52.8067C69.5493 52.009 73.0996 52.7083 75.3114 53.8085C77.2844 54.7882 78.9598 56.2773 80.1643 58.1217C81.1617 59.6558 82.156 62.2915 82.8745 64.036L86.1707 71.9579L90.8221 83.1458C91.4382 84.628 92.577 87.1476 93.0664 88.5491C91.9357 87.2082 90.198 84.564 89.1222 83.0378L81.1324 71.6334C80.6745 70.9803 78.3751 67.564 78.0437 67.2683C77.9817 67.2028 77.5637 66.5007 77.4781 66.373C76.6764 65.1768 75.9684 63.8651 74.7849 63.0007C74.7654 62.8542 74.735 62.7924 74.627 62.6885C71.4333 59.6148 68.303 58.6953 63.9941 58.4935C64.4057 57.4738 66.5551 53.694 67.183 52.8067Z" fill="#84CD80"/>
</svg>
