<svg width="24" height="24" viewBox="0 0 24 24" fill="none" xmlns="http://www.w3.org/2000/svg">
<path d="M20.1003 12.0994C20.1003 11.5374 20.0507 10.9754 19.9598 10.4299H12.166V13.6037H16.6291C16.5369 14.1111 16.343 14.5946 16.0589 15.025C15.7748 15.4554 15.4064 15.8238 14.9761 16.1079V18.1907H17.6539C19.1498 16.7608 20.1003 14.612 20.1003 12.0994Z" fill="#4285F4"/>
<path d="M12.1653 20.2651C14.3968 20.2651 16.2646 19.5213 17.6366 18.265L14.9588 16.1823C14.2149 16.6782 13.2727 16.9757 12.1653 16.9757C10.0164 16.9757 8.1981 15.5211 7.55344 13.5706H4.79297V15.7194C5.4803 17.0855 6.53352 18.2339 7.83523 19.0365C9.13694 19.8392 10.636 20.2645 12.1653 20.2651Z" fill="#34A853"/>
<path d="M7.55347 13.5705C7.38129 13.0648 7.29198 12.5345 7.289 12.0002C7.289 11.4547 7.38817 10.9258 7.55347 10.4299V8.28101H4.793C4.20846 9.43378 3.90272 10.7077 3.90039 12.0002C3.90039 13.3391 4.22272 14.6036 4.793 15.7194L7.55347 13.5705Z" fill="#FBBC05"/>
<path d="M12.1653 7.008C13.3802 7.008 14.4629 7.42125 15.3224 8.24774L17.6862 5.88398C16.2646 4.55333 14.3968 3.73511 12.1653 3.73511C10.636 3.73574 9.13694 4.16107 7.83523 4.9637C6.53352 5.76632 5.4803 6.9147 4.79297 8.2808L7.55344 10.4297C8.1981 8.46263 10.0164 7.008 12.1653 7.008Z" fill="#EA4335"/>
</svg>
