<svg width="32" height="32" viewBox="0 0 32 32" fill="none" xmlns="http://www.w3.org/2000/svg">
<rect width="32" height="32" rx="16" fill="#8AB300" fill-opacity="0.2"/>
<path d="M22.4285 10.6254C22.057 10.2537 21.616 9.95892 21.1305 9.75779C20.6451 9.55665 20.1248 9.45312 19.5994 9.45312C19.0739 9.45312 18.5536 9.55665 18.0682 9.75779C17.5828 9.95892 17.1417 10.2537 16.7703 10.6254L15.9994 11.3963L15.2285 10.6254C14.4781 9.87504 13.4605 9.45351 12.3994 9.45351C11.3383 9.45351 10.3206 9.87504 9.57029 10.6254C8.81996 11.3757 8.39844 12.3933 8.39844 13.4545C8.39844 14.5156 8.81996 15.5332 9.57029 16.2835L10.3412 17.0545L15.9994 22.7126L21.6576 17.0545L22.4285 16.2835C22.8001 15.9121 23.0949 15.471 23.296 14.9856C23.4972 14.5002 23.6007 13.9799 23.6007 13.4545C23.6007 12.929 23.4972 12.4087 23.296 11.9233C23.0949 11.4379 22.8001 10.9968 22.4285 10.6254Z" stroke="#586C13" stroke-linecap="round" stroke-linejoin="round"/>
</svg>
