<svg width="24" height="24" viewBox="0 0 24 24" fill="none" xmlns="http://www.w3.org/2000/svg">
<path d="M8.36914 18.3635V20.1817" stroke="black" stroke-width="1.36365" stroke-linecap="round" stroke-linejoin="round"/>
<path d="M8.36914 12.9089V14.7271" stroke="black" stroke-width="1.36365" stroke-linecap="round" stroke-linejoin="round"/>
<path d="M15.6426 18.3635V20.1817" stroke="black" stroke-width="1.36365" stroke-linecap="round" stroke-linejoin="round"/>
<path d="M15.6426 12.9089V14.7271" stroke="black" stroke-width="1.36365" stroke-linecap="round" stroke-linejoin="round"/>
<path d="M12.0059 20.1819V22.0001" stroke="black" stroke-width="1.36365" stroke-linecap="round" stroke-linejoin="round"/>
<path d="M12.0059 14.7273V16.5455" stroke="black" stroke-width="1.36365" stroke-linecap="round" stroke-linejoin="round"/>
<path d="M19.2783 16.1635C20.234 15.745 21.0166 15.0104 21.4947 14.0831C21.9729 13.1558 22.1175 12.0922 21.9043 11.0709C21.6911 10.0496 21.133 9.13274 20.3238 8.47421C19.5145 7.81567 18.5034 7.45557 17.4601 7.45434H16.3146C16.0264 6.33844 15.4772 5.307 14.7121 4.44504C13.9471 3.58308 12.9881 2.91527 11.9143 2.49667C10.8405 2.07807 9.68263 1.92066 8.53605 2.03742C7.38947 2.15417 6.28705 2.54174 5.31966 3.16819C4.35227 3.79464 3.54761 4.64203 2.97201 5.6405C2.3964 6.63898 2.06633 7.75996 2.009 8.91104C1.95168 10.0621 2.16873 11.2104 2.64228 12.2611C3.11582 13.3118 3.8323 14.235 4.73266 14.9544" stroke="black" stroke-width="1.36365" stroke-linecap="round" stroke-linejoin="round"/>
</svg>
