<svg width="96" height="96" viewBox="0 0 96 96" fill="none" xmlns="http://www.w3.org/2000/svg">
<path d="M68.2941 36.8296C68.4011 36.8296 68.508 36.8296 68.6182 36.8296C68.6182 36.9365 68.6182 37.0435 68.6182 37.1537C68.7987 37.1523 68.9791 37.1508 69.165 37.1493C70.8719 37.1362 72.5788 37.1265 74.2858 37.1201C75.1632 37.1167 76.0405 37.1122 76.9179 37.1048C77.7659 37.0977 78.6138 37.0939 79.4618 37.0922C79.784 37.091 80.1063 37.0887 80.4285 37.0852C83.0159 37.058 85.0954 37.2745 87.0924 39.0983C88.9501 41.1805 89.0615 43.5649 89.0606 46.2245C89.0611 46.4502 89.0616 46.6758 89.0623 46.9014C89.0637 47.5105 89.0641 48.1195 89.0642 48.7286C89.0643 49.1101 89.0646 49.4915 89.0651 49.8729C89.0666 51.2063 89.0672 52.5396 89.0671 53.873C89.067 55.1117 89.0687 56.3505 89.0713 57.5892C89.0734 58.6564 89.0743 59.7236 89.0742 60.7908C89.0741 61.4266 89.0746 62.0624 89.0763 62.6982C89.0779 63.2965 89.0779 63.8948 89.0767 64.4931C89.0764 64.8145 89.0778 65.136 89.0792 65.4575C89.0695 68.2335 88.418 70.4616 86.4847 72.5119C85.0986 73.8348 83.5123 74.5252 81.6123 74.6813C81.4543 74.6946 81.2962 74.7079 81.1334 74.7216C81.0142 74.7311 80.8951 74.7405 80.7723 74.7503C80.77 75.0029 80.77 75.0029 80.7677 75.2607C80.7612 75.8865 80.7506 76.5122 80.7387 77.138C80.7341 77.4086 80.7307 77.6793 80.7284 77.95C80.7249 78.3395 80.7174 78.7287 80.709 79.1181C80.7088 79.2389 80.7086 79.3596 80.7084 79.484C80.6926 80.0438 80.6508 80.3673 80.314 80.823C79.7933 81.189 79.4508 81.1521 78.8277 81.0704C78.3345 80.8311 78.3345 80.8311 77.8249 80.4829C77.7296 80.4188 77.6343 80.3546 77.5361 80.2884C77.2081 80.066 76.8834 79.8393 76.5589 79.6119C76.4365 79.5268 76.3141 79.4418 76.1879 79.3541C75.5108 78.8835 74.8356 78.4102 74.1616 77.935C73.1898 77.2511 72.2086 76.5811 71.2259 75.913C71.1057 75.8312 70.9855 75.7493 70.8617 75.665C70.7567 75.5937 70.6517 75.5225 70.5436 75.449C70.2388 75.2364 70.2388 75.2364 69.9607 74.9837C69.4673 74.6726 69.1304 74.6909 68.549 74.6929C68.3926 74.6925 68.3926 74.6925 68.233 74.692C67.8839 74.6916 67.5348 74.6946 67.1857 74.6977C66.9351 74.6981 66.6846 74.6982 66.434 74.6982C65.8941 74.6987 65.3542 74.7007 64.8143 74.7038C63.9577 74.7089 63.1011 74.7105 62.2445 74.7118C60.8863 74.7141 59.528 74.7188 58.1698 74.7244C55.7468 74.7344 53.3239 74.7406 50.9009 74.7458C50.0524 74.7477 49.204 74.7506 48.3556 74.7544C43.6189 74.7749 43.6189 74.7749 41.8258 74.6858C41.6547 74.6775 41.6547 74.6775 41.4801 74.6691C38.5864 74.4887 36.3467 73.0305 34.3944 70.9737C33.4907 69.9296 32.9135 68.7645 32.4801 67.4578C32.4182 67.286 32.4182 67.286 32.3551 67.1107C31.8011 65.3013 31.9238 63.4116 31.9294 61.5391C31.9291 61.1512 31.9286 60.7634 31.928 60.3756C31.9273 59.5652 31.9283 58.7547 31.9306 57.9443C31.9334 56.9109 31.9318 55.8775 31.9289 54.8441C31.9271 54.0439 31.9277 53.2436 31.9289 52.4433C31.9292 52.0626 31.9289 51.6818 31.9277 51.301C31.9163 46.4081 31.9163 46.4081 33.0575 44.274C33.1136 44.1665 33.1698 44.0591 33.2277 43.9485C34.8924 40.8694 37.4735 38.7744 40.7791 37.6202C42.1706 37.2218 43.5074 37.1286 44.9473 37.1204C45.1225 37.1188 45.2977 37.1172 45.4782 37.1156C46.058 37.1104 46.6378 37.1064 47.2176 37.1024C47.6263 37.0991 48.035 37.0957 48.4437 37.0922C49.3037 37.0851 50.1638 37.0784 51.0238 37.0722C52.1069 37.0644 53.1901 37.0557 54.2733 37.0466C58.947 37.0078 63.6203 36.9788 68.2941 36.9916C68.2941 36.9382 68.2941 36.8847 68.2941 36.8296Z" fill="#C8E467"/>
<path d="M20.8032 24.8246C21.2553 24.8254 21.7074 24.8261 22.1594 24.8267C23.1834 24.8283 24.2074 24.8306 25.2314 24.8332C26.46 24.8363 27.6885 24.8384 28.9171 24.8399C29.0847 24.8402 29.2523 24.8404 29.425 24.8406C29.68 24.8409 29.68 24.8409 29.9402 24.8412C33.6432 24.846 37.3463 24.8545 41.0493 24.867C42.9989 24.8735 44.9485 24.8788 46.8981 24.8811C48.6307 24.8832 50.3632 24.8876 52.0958 24.8947C53.0038 24.8983 53.9118 24.9009 54.8198 24.9007C55.6658 24.9006 56.5117 24.9035 57.3577 24.9087C57.666 24.9101 57.9743 24.9104 58.2827 24.9095C60.9828 24.9025 63.0575 25.324 65.0877 27.2275C66.9136 29.1514 67.4314 31.4384 67.3647 34.0218C67.326 34.5605 67.326 34.5605 67.164 34.7225C66.8584 34.7398 66.5521 34.7456 66.246 34.7471C65.9468 34.7491 65.9468 34.7491 65.6416 34.7512C65.4185 34.7519 65.1953 34.7526 64.9722 34.7532C64.7388 34.7545 64.5054 34.7559 64.2719 34.7573C63.7678 34.7602 63.2637 34.7627 62.7596 34.7647C61.9613 34.768 61.163 34.7725 60.3646 34.7771C58.6675 34.7869 56.9704 34.7953 55.2733 34.8035C53.4467 34.8125 51.6201 34.8217 49.7936 34.8323C49.0014 34.8369 48.2092 34.8407 47.417 34.844C46.9215 34.8462 46.426 34.849 45.9306 34.852C45.7024 34.8532 45.4742 34.8542 45.246 34.8549C43.3117 34.8249 43.3117 34.8249 41.3974 35.0466C41.3439 35.1536 41.2904 35.2605 41.2353 35.3707C40.9391 35.4448 40.9391 35.4448 40.5466 35.5024C38.1935 35.936 36.2492 37.11 34.429 38.6118C34.3108 38.7044 34.1926 38.7969 34.0707 38.8923C31.6347 40.8967 30.0913 44.0035 29.7621 47.1197C29.7079 47.7925 29.7097 48.4628 29.7136 49.1374C29.7139 49.2915 29.7141 49.4456 29.7143 49.6043C29.715 49.9364 29.716 50.2685 29.7173 50.6006C29.7194 51.1274 29.7204 51.6542 29.7212 52.1809C29.7233 53.4889 29.7273 54.7969 29.7311 56.1048C29.7343 57.2117 29.7369 58.3185 29.7385 59.4254C29.7396 59.9422 29.7416 60.4591 29.7437 60.9759C29.7443 61.2955 29.7448 61.6151 29.7453 61.9346C29.7461 62.0765 29.747 62.2184 29.7478 62.3646C29.7479 63.3148 29.6782 64.2452 29.5674 65.1887C29.4474 65.2111 29.3273 65.2335 29.2036 65.2566C27.8992 65.5358 26.9584 66.0108 25.8705 66.7687C25.5458 66.9876 25.2211 67.2064 24.8963 67.4252C24.7316 67.5375 24.5669 67.6498 24.3973 67.7655C23.582 68.3183 22.7564 68.8551 21.9306 69.392C21.6967 69.5441 21.6967 69.5441 21.4582 69.6993C21.1618 69.8918 20.8654 70.0842 20.5688 70.2764C20.3187 70.4388 20.0689 70.6018 19.8196 70.7656C19.5319 70.9545 19.2427 71.1409 18.9529 71.3265C18.8041 71.423 18.6554 71.5195 18.5021 71.619C17.8723 71.9249 17.2385 72.0791 16.5524 71.8937C16.1713 71.5832 16.1005 71.3324 15.9548 70.8606C15.928 70.403 15.917 69.9623 15.9232 69.5053C15.9237 69.377 15.9241 69.2486 15.9246 69.1164C15.9264 68.7086 15.9305 68.3008 15.9346 67.893C15.9362 67.6156 15.9377 67.3383 15.939 67.0609C15.9426 66.3828 15.9482 65.7047 15.9548 65.0267C15.8203 65.0305 15.8203 65.0305 15.683 65.0344C13.0283 65.0998 10.9296 64.942 8.8751 63.0618C6.99877 61.0479 6.64356 58.7699 6.65228 56.1277C6.65135 55.8722 6.65022 55.6167 6.64891 55.3612C6.64602 54.6721 6.64619 53.9831 6.64712 53.294C6.64762 52.7165 6.64663 52.1391 6.64565 51.5616C6.64338 50.1982 6.64362 48.8348 6.64547 47.4714C6.64733 46.0697 6.64505 44.668 6.64071 43.2663C6.63711 42.0583 6.63605 40.8504 6.63699 39.6423C6.63754 38.9229 6.63717 38.2034 6.63436 37.4839C6.63184 36.8068 6.63252 36.1298 6.63555 35.4528C6.63614 35.2059 6.63565 34.9591 6.63394 34.7122C6.62149 32.7643 6.89176 30.9686 7.94329 29.2937C8.08399 29.0656 8.08399 29.0656 8.22752 28.8329C8.31756 28.6908 8.40759 28.5488 8.50035 28.4024C8.58308 28.2568 8.6658 28.1112 8.75103 27.9612C9.07019 27.461 9.45621 27.2569 9.95884 26.9439C10.1623 26.7864 10.3648 26.6276 10.5665 26.4679C11.8256 25.5121 13.0859 24.9876 14.6592 24.9089C14.7949 24.9021 14.9306 24.8952 15.0703 24.8882C16.9804 24.802 18.8916 24.8188 20.8032 24.8246Z" fill="#C8E467"/>
<path d="M84.3155 15.9771C84.5876 16.0778 84.5876 16.0778 84.8761 16.2574C84.9676 16.542 84.9676 16.542 85.0075 16.888C85.1485 17.7551 85.4561 18.6593 86.0899 19.2931C86.1519 19.3551 86.2138 19.417 86.2777 19.4809C86.2777 19.5734 86.2777 19.6659 86.2777 19.7612C86.3788 19.8017 86.48 19.8421 86.5843 19.8838C87.4164 20.2167 88.2486 20.5496 89.0807 20.8824C89.0807 21.0674 89.0807 21.2524 89.0807 21.443C88.9404 21.494 88.8 21.5449 88.6553 21.5974C87.1565 22.1569 86.1553 22.6215 85.4537 24.1328C85.2259 24.7034 85.045 25.2857 84.875 25.8759C84.8292 25.9856 84.7833 26.0953 84.736 26.2082C84.5972 26.2545 84.4585 26.3007 84.3155 26.3484C84.2629 26.2096 84.2104 26.0709 84.1562 25.9279C83.3709 23.823 83.3709 23.823 81.7928 22.284C81.4052 22.1175 81.0163 21.9784 80.6157 21.8465C80.1871 21.7017 79.8073 21.5176 79.4102 21.3029C79.4564 21.1641 79.5027 21.0254 79.5503 20.8824C79.876 20.7437 80.1864 20.6289 80.5226 20.5233C81.2157 20.3186 81.2157 20.3186 81.7928 19.9013C81.92 19.8291 82.0471 19.7568 82.1782 19.6824C83.2367 18.975 83.6009 17.8158 83.9148 16.6389C84.0352 16.2574 84.0352 16.2574 84.3155 15.9771Z" fill="#C8E467"/>
<path d="M17.4239 5.74585C17.6834 5.75461 17.6834 5.75461 17.9845 5.886C18.1228 6.21855 18.2238 6.52213 18.3174 6.86708C18.7446 8.26232 19.2399 9.19787 20.5615 9.91979C21.0905 10.1665 21.6267 10.3562 22.1891 10.5111C22.1891 10.6961 22.1891 10.8811 22.1891 11.0717C22.0706 11.1125 21.9521 11.1533 21.83 11.1954C20.4564 11.6918 19.4833 12.0859 18.7816 13.4105C18.4204 14.1969 18.1738 14.9936 17.9845 15.8369C17.707 15.9063 17.707 15.9063 17.4239 15.977C17.3729 15.8298 17.322 15.6826 17.2695 15.5309C16.4848 13.3066 16.4848 13.3066 14.7254 11.8124C14.0988 11.5192 13.4567 11.2843 12.7988 11.0717C12.8147 10.8133 12.8147 10.8133 12.939 10.5111C13.3217 10.3227 13.3217 10.3227 13.8062 10.1607C15.0445 9.71456 15.966 9.14672 16.6054 7.96914C16.936 7.24899 17.188 6.50161 17.4239 5.74585Z" fill="#C8E467"/>
<path d="M72.3795 52.1534C73.1429 52.5794 73.7409 53.2251 74.1318 54.0069C74.2172 55.0127 74.2553 55.9161 73.6456 56.7619C72.9245 57.5176 72.2401 58.0287 71.1635 58.0741C70.0774 58.0327 69.389 57.6873 68.6219 56.9239C67.9894 56.067 67.8672 55.2239 67.9737 54.169C68.2824 53.2236 68.9714 52.6367 69.7563 52.0623C70.6436 51.7665 71.519 51.7662 72.3795 52.1534Z" fill="#FDFDFD"/>
<path d="M61.7053 52.2552C62.424 52.7399 62.9364 53.3651 63.2752 54.1695C63.4412 55.1971 63.3006 55.9647 62.6979 56.8124C62.1748 57.4278 61.6581 57.8628 60.8482 57.9467C59.7185 57.9866 58.8783 58.0102 58.0173 57.2213C57.32 56.3996 56.999 55.6071 57.0551 54.5208C57.2412 53.467 57.8954 52.8264 58.7377 52.2248C59.6463 51.6695 60.7514 51.9133 61.7053 52.2552Z" fill="#FDFDFD"/>
<path d="M50.8006 52.1941C51.5451 52.6449 52.1406 53.3467 52.4148 54.1691C52.5419 55.226 52.3792 56.0469 51.7666 56.924C51.0383 57.6336 50.372 57.911 49.3661 57.9571C48.3512 57.9285 47.6455 57.677 46.9328 56.943C46.3087 56.1294 46.1206 55.4352 46.1833 54.4141C46.3893 53.2723 47.2834 52.6402 48.1811 52.0117C49.0613 51.727 49.9593 51.8482 50.8006 52.1941Z" fill="#FDFDFD"/>
<path d="M88.3939 87.1754C88.9351 87.5 89.1578 87.6903 89.3663 88.2895C89.3663 88.9229 89.2305 89.2426 88.8801 89.7682C88.3911 90.1893 88.1515 90.2544 87.5026 90.2544C86.8235 90.0603 86.5547 89.8379 86.1252 89.2821C85.9022 88.7385 85.945 88.5252 86.1353 87.9654C86.718 87.1007 87.4039 86.8594 88.3939 87.1754Z" fill="#C8E467"/>
<path d="M29.4058 61.2993C29.4592 61.2993 29.5127 61.2993 29.5678 61.2993C29.833 64.1303 29.833 64.1303 29.5678 65.1886C29.0469 65.4491 28.5248 65.36 27.9473 65.3507C28.4704 65.0019 28.6415 64.994 29.2437 65.0266C29.2429 64.9194 29.242 64.8123 29.2411 64.7019C29.2378 64.2193 29.2357 63.7367 29.2336 63.2541C29.2322 63.0854 29.2309 62.9167 29.2295 62.7429C29.2289 62.5826 29.2284 62.4223 29.2279 62.2571C29.227 62.1086 29.2262 61.9601 29.2253 61.807C29.2437 61.4614 29.2437 61.4614 29.4058 61.2993Z" fill="#C8E467"/>
<path d="M74.1307 54.0068C74.5524 54.4285 74.5032 54.6265 74.5055 55.2121C74.5096 55.4474 74.5096 55.4474 74.5137 55.6875C74.4473 56.1682 74.3447 56.307 73.9687 56.5997C73.9152 56.4927 73.8617 56.3858 73.8066 56.2756C73.8601 56.1152 73.9136 55.9547 73.9687 55.7894C74.0046 55.4828 74.0345 55.1754 74.0599 54.8677C74.0734 54.7067 74.087 54.5456 74.101 54.3797C74.1108 54.2566 74.1206 54.1336 74.1307 54.0068Z" fill="#C8E467"/>
<path d="M62.7866 56.5996C62.8401 56.76 62.8936 56.9205 62.9487 57.0858C62.3206 57.671 62.3206 57.671 61.9763 57.896C61.5915 57.8657 61.5915 57.8657 61.3281 57.734C61.4785 57.6371 61.6289 57.5401 61.7839 57.4403C62.1712 57.1745 62.4762 56.9445 62.7866 56.5996Z" fill="#C8E467"/>
<path d="M9.75781 57.0942C9.80711 57.0942 9.8564 57.0942 9.90719 57.0942C9.90719 57.3407 9.90719 57.5872 9.90719 57.8411C9.8579 57.8411 9.8086 57.8411 9.75781 57.8411C9.75781 57.5947 9.75781 57.3482 9.75781 57.0942Z" fill="#C8E467"/>
<path d="M89.2051 60.0029C89.3671 60.6511 89.3671 60.6511 89.3671 60.6511L89.2051 60.0029Z" fill="#C8E467"/>
<path d="M89.2051 56.2759C89.3671 56.9241 89.3671 56.9241 89.3671 56.9241L89.2051 56.2759Z" fill="#C8E467"/>
<path d="M89.2051 53.5205C89.3671 54.1687 89.3671 54.1687 89.3671 54.1687L89.2051 53.5205Z" fill="#C8E467"/>
<path d="M55.0098 36.8296C55.658 36.9916 55.658 36.9916 55.658 36.9916L55.0098 36.8296Z" fill="#C8E467"/>
<path d="M44.3145 36.8296C44.9627 36.9916 44.9627 36.9916 44.9627 36.9916L44.3145 36.8296Z" fill="#C8E467"/>
<path d="M67.6523 36.8296C68.1385 36.9916 68.1385 36.9916 68.1385 36.9916L67.6523 36.8296Z" fill="#C8E467"/>
<path d="M59.0625 36.8296C59.5487 36.9916 59.5487 36.9916 59.5487 36.9916L59.0625 36.8296Z" fill="#C8E467"/>
<path d="M44.1523 34.8843C44.6385 35.0463 44.6385 35.0463 44.6385 35.0463L44.1523 34.8843Z" fill="#C8E467"/>
<path d="M61.6562 24.999C62.1424 25.1611 62.1424 25.1611 62.1424 25.1611L61.6562 24.999Z" fill="#C8E467"/>
<path d="M77.6973 80.584C78.0214 80.746 78.0214 80.746 78.0214 80.746L77.6973 80.584Z" fill="#C8E467"/>
<path d="M22.7617 68.9155C23.0858 69.0776 23.0858 69.0776 23.0858 69.0776L22.7617 68.9155Z" fill="#C8E467"/>
<path d="M41.5586 37.1533C41.8827 37.3154 41.8827 37.3154 41.8827 37.3154L41.5586 37.1533Z" fill="#C8E467"/>
<path d="M80.9395 36.8296C81.2636 36.9916 81.2636 36.9916 81.2636 36.9916L80.9395 36.8296Z" fill="#C8E467"/>
<path d="M72.8359 36.8296C73.16 36.9916 73.16 36.9916 73.16 36.9916L72.8359 36.8296Z" fill="#C8E467"/>
<path d="M57.6016 36.8296C57.9257 36.9916 57.9257 36.9916 57.9257 36.9916L57.6016 36.8296Z" fill="#C8E467"/>
<path d="M48.5273 36.8296C48.8515 36.9916 48.8515 36.9916 48.8515 36.9916L48.5273 36.8296Z" fill="#C8E467"/>
<path d="M60.8457 34.8843C61.1698 35.0463 61.1698 35.0463 61.1698 35.0463L60.8457 34.8843Z" fill="#C8E467"/>
</svg>
