<svg width="96" height="96" viewBox="0 0 96 96" fill="none" xmlns="http://www.w3.org/2000/svg">
<path d="M47.608 17.0579C48.8303 17.8384 49.6658 18.8407 50.1742 20.1963C50.2497 20.5808 50.2982 20.9496 50.3354 21.3389C50.3468 21.4564 50.3581 21.5738 50.3698 21.6949C50.3824 21.8288 50.3824 21.8288 50.3953 21.9654C50.5246 21.988 50.5246 21.988 50.6565 22.011C54.1769 22.6377 57.4341 23.7121 60.2237 26.0278C60.2971 26.0883 60.3704 26.1487 60.446 26.211C62.0025 27.4959 62.0025 27.4959 62.4515 27.9935C62.4515 28.08 62.4515 28.1665 62.4515 28.2556C62.538 28.2556 62.6245 28.2556 62.7136 28.2556C67.1055 32.7474 67.7398 39.2466 67.6923 45.1913C67.6908 45.3931 67.6908 45.3931 67.6892 45.599C67.6845 46.1481 67.6789 46.6972 67.6709 47.2462C67.6179 51.0995 68.1902 54.6204 70.9664 57.4758C71.3238 57.8359 71.6875 58.1894 72.0506 58.5436C74.254 60.7364 74.9086 62.9884 75.0319 65.9968C74.9454 65.9968 74.8589 65.9968 74.7698 65.9968C74.7644 66.1157 74.759 66.2347 74.7534 66.3572C74.5391 67.7722 73.6373 68.9327 72.542 69.7972C68.7833 72.3331 63.223 72.5132 58.8534 72.6182C58.6874 72.6229 58.5214 72.6276 58.3503 72.6325C57.6738 72.6515 56.9977 72.6704 56.3209 72.6772C54.3947 72.5744 54.3947 72.5744 52.712 73.279C52.4467 73.6825 52.2718 74.0654 52.0989 74.5148C51.8634 74.8352 51.5955 75.1123 51.3126 75.3912C51.2417 75.4613 51.1708 75.5315 51.0977 75.6038C49.3578 77.2473 47.2601 77.9195 44.8914 77.922C42.5888 77.7676 40.5634 76.5443 38.9943 74.9079C38.5852 74.3945 38.1831 73.8737 37.9466 73.2578C37.6436 72.8939 37.5857 72.8906 37.1358 72.848C36.9031 72.8388 36.6702 72.8331 36.4374 72.8301C36.3126 72.826 36.1878 72.8218 36.0593 72.8175C35.7921 72.8089 35.5249 72.8017 35.2576 72.7959C34.7022 72.7835 34.1471 72.7643 33.5919 72.7453C33.3185 72.736 33.0452 72.7271 32.7718 72.7185C31.3455 72.6734 29.9296 72.5708 28.5106 72.4181C28.3858 72.4051 28.2609 72.3921 28.1323 72.3788C19.8311 71.4981 19.8311 71.4981 17.5028 68.8798C16.2687 67.1416 15.9503 65.3379 16.1923 63.2449C16.6123 61.2329 17.8655 59.6461 19.2625 58.2028C22.2063 55.1602 23.1361 51.8307 23.1679 47.6517C23.1701 47.3723 23.1731 47.093 23.1764 46.8136C23.1855 46.0204 23.1935 45.2271 23.2002 44.4338C23.2477 39.0387 23.2477 39.0387 23.8094 36.6507C23.837 36.532 23.8647 36.4132 23.8932 36.2909C24.6948 33.0358 26.3469 30.2902 28.6417 27.8625C28.7395 27.7562 28.8373 27.65 28.9381 27.5405C32.0318 24.2934 36.248 22.7489 40.5669 21.9654C40.5861 21.8308 40.6054 21.6962 40.6252 21.5574C40.879 19.9315 41.3095 18.6783 42.6226 17.5959C44.0067 16.6046 46.0323 16.2928 47.608 17.0579ZM52.6231 25.5037C52.4092 25.9314 52.4201 26.2118 52.492 26.6831C52.8999 27.0145 53.2983 27.2206 53.7684 27.4492C57.3568 29.1958 60.0657 31.6287 61.4031 35.4631C61.5654 35.9989 61.6958 36.5394 61.8193 37.0854C61.9857 38.1017 61.9857 38.1017 62.5826 38.8703C63.0137 39.0292 63.1755 39.0297 63.5982 38.8376C63.9279 38.6249 63.9279 38.6249 64.0241 38.2151C64.098 34.7342 62.0139 31.4658 59.6996 29.0419C59.6293 28.9634 59.559 28.8848 59.4866 28.8039C58.4544 27.6916 57.1212 26.8771 55.7927 26.1671C55.7036 26.1192 55.6144 26.0713 55.5225 26.022C54.1012 25.2506 54.1012 25.2506 52.6231 25.5037ZM62.5613 41.6804C62.2032 42.1786 62.2452 42.624 62.2509 43.2235C62.2504 43.3408 62.2498 43.4581 62.2493 43.5789C62.249 43.8265 62.2499 44.0741 62.2521 44.3217C62.2549 44.7006 62.2522 45.0791 62.2488 45.4579C62.2491 45.6987 62.2498 45.9395 62.2509 46.1802C62.2498 46.2934 62.2487 46.4066 62.2476 46.5232C62.2559 47.1656 62.2559 47.1656 62.5623 47.7182C62.9293 47.9708 63.1861 48.0343 63.6309 48.0435C63.9434 47.9048 63.9434 47.9048 64.1551 47.6504C64.3231 47.1208 64.3097 46.588 64.3128 46.0374C64.3135 45.9321 64.3143 45.8268 64.315 45.7182C64.3163 45.4959 64.3171 45.2735 64.3176 45.0511C64.3189 44.7117 64.323 44.3724 64.3271 44.0331C64.328 43.8166 64.3287 43.6002 64.3292 43.3837C64.3316 43.2322 64.3316 43.2322 64.3341 43.0776C64.3316 42.4817 64.2654 42.0946 63.893 41.6223C63.423 41.3873 63.0003 41.3874 62.5613 41.6804ZM43.0216 63.5157C36.044 63.7259 28.3445 64.0982 21.7208 66.4637C21.6221 66.4989 21.5233 66.5341 21.4216 66.5704C20.7971 66.8113 20.3404 67.0981 19.8616 67.5694C19.776 67.974 19.776 67.974 19.9927 68.3556C23.5637 71.7649 32.4448 71.0011 37.0286 71.1076C37.0269 70.9901 37.0252 70.8727 37.0234 70.7517C37.0221 70.5978 37.0208 70.444 37.0194 70.2855C37.0177 70.1329 37.016 69.9803 37.0142 69.8231C37.0316 69.317 37.1063 69.0174 37.4218 68.6177C38.1276 68.1521 38.7662 68.1687 39.5819 68.1737C39.7186 68.173 39.8553 68.1724 39.9961 68.1716C40.4469 68.1699 40.8977 68.1711 41.3485 68.1724C41.6625 68.1721 41.9765 68.1717 42.2905 68.1712C42.9483 68.1707 43.606 68.1715 44.2638 68.1733C45.106 68.1756 45.9482 68.1743 46.7904 68.1719C47.4388 68.1705 48.0871 68.171 48.7354 68.172C49.046 68.1723 49.3565 68.1719 49.667 68.171C50.1014 68.17 50.5357 68.1715 50.9701 68.1737C51.0979 68.1729 51.2257 68.1721 51.3574 68.1713C52.1959 68.1791 52.8783 68.264 53.5307 68.8409C53.7338 69.2752 53.7133 69.6891 53.696 70.1575C53.6942 70.2489 53.6925 70.3403 53.6906 70.4345C53.686 70.6589 53.679 70.8833 53.6714 71.1076C62.6133 71.3333 62.6133 71.3333 70.7811 68.5604C71.1205 68.2572 71.1205 68.2572 71.1906 67.8888C71.0626 67.4349 70.8275 67.3152 70.4453 67.0452C67.2011 65.4655 63.4157 65.017 59.8797 64.5062C59.7276 64.4842 59.5755 64.4622 59.4188 64.4396C58.626 64.329 58.626 64.329 57.8274 64.296C57.4718 64.2932 57.4718 64.2932 57.3407 64.1622C56.7268 64.0741 56.1074 64.0281 55.4897 63.9738C55.3451 63.961 55.3451 63.961 55.1977 63.9479C51.162 63.5953 47.0717 63.3971 43.0216 63.5157Z" fill="#C8E467"/>
<path d="M19.2321 17.1167C20.1924 17.6072 20.077 19.465 20.8796 20.2564C21.3774 20.7472 23.8033 21.4232 23.9238 21.9435C23.2798 22.4423 21.7577 22.5973 21.268 22.9234C20.1793 23.6483 20.112 25.5987 19.2422 26.9025C18.977 26.4186 19.0358 26.2035 18.8857 25.6905C18.5357 24.494 18.2129 23.8788 17.4886 22.8853C16.3973 22.5254 15.0529 22.2114 13.9336 21.9388C15.4498 21.3186 16.1404 21.1368 17.6953 20.3907C18.6594 19.0976 18.5627 18.1598 19.2321 17.1167Z" fill="#C8E467"/>
<path d="M75.5817 23.637C76.1609 24.1972 76.1121 25.3925 76.4579 26.1378C77.142 27.616 79.1839 28.2723 80.5786 28.8456C79.6375 29.211 77.5483 29.4242 76.879 30.125C76.3352 30.695 76.2348 32.426 75.7753 33.2083L75.4916 33.2581C73.426 29.3807 74.5711 30.0551 70.1445 28.798C73.7009 28.0384 74.2209 26.6772 75.5817 23.637Z" fill="#C8E467"/>
<path d="M75.1653 76.2186C75.6103 76.5519 75.7988 76.9288 75.9515 77.4635C75.9515 78.123 75.7158 78.4844 75.3455 79.0115C74.8768 79.3445 74.4228 79.3884 73.8548 79.3637C73.2431 79.1559 72.8636 78.8801 72.5444 78.3153C72.4337 77.7046 72.4883 77.257 72.7491 76.6936C73.4626 75.9253 74.2286 75.8046 75.1653 76.2186Z" fill="#C8E467"/>
<path d="M67.04 71.6318C66.5733 71.9106 66.1336 71.9668 65.598 72.0341C65.5091 72.0454 65.4202 72.0567 65.3285 72.0683C65.1404 72.0919 64.9521 72.115 64.7638 72.1376C64.4804 72.1719 64.1973 72.2081 63.9141 72.2445C62.9007 72.3714 61.9039 72.4549 60.8809 72.4181C60.8809 72.3748 60.8809 72.3316 60.8809 72.287C61.0268 72.2681 61.1728 72.2492 61.3231 72.2297C61.7748 72.1843 61.7748 72.1843 62.0603 72.0249C62.2518 72.0206 62.4436 72.023 62.6351 72.029C63.4091 72.0368 64.154 71.9388 64.9187 71.8284C65.1816 71.7911 65.4445 71.7542 65.7075 71.7178C65.822 71.7013 65.9365 71.6848 66.0545 71.6679C66.3859 71.6317 66.707 71.6255 67.04 71.6318Z" fill="#C8E467"/>
<path d="M45.4653 16.6907C45.5642 16.6897 45.6632 16.6887 45.7652 16.6876C46.3193 16.6895 46.7451 16.7317 47.2508 16.9855C46.8576 17.1166 46.8576 17.1166 46.4645 16.9855C46.1509 16.956 45.8369 16.932 45.5226 16.9118C45.3559 16.9008 45.1891 16.8899 45.0173 16.8785C44.8895 16.8706 44.7616 16.8627 44.6298 16.8545C44.6298 16.941 44.6298 17.0275 44.6298 17.1166C44.4136 17.0733 44.1974 17.0301 43.9746 16.9855C44.4755 16.6516 44.8854 16.6848 45.4653 16.6907Z" fill="#C8E467"/>
<path d="M73.069 76.3494C73.3393 76.4067 73.3393 76.4067 73.5932 76.4804C73.4715 76.5737 73.4715 76.5737 73.3475 76.6688C72.9627 77.1328 72.9018 77.5993 72.8069 78.184C72.7636 78.184 72.7204 78.184 72.6758 78.184C72.6506 77.5529 72.7003 77.0676 72.9379 76.4804C72.9812 76.4372 73.0244 76.3939 73.069 76.3494Z" fill="#C8E467"/>
<path d="M17.6341 22.3585C17.5476 22.445 17.4611 22.5315 17.372 22.6206C17.2423 22.8152 17.2423 22.8152 17.1099 23.0138C16.9802 22.9705 16.8505 22.9273 16.7168 22.8827C16.7577 22.6288 16.7577 22.6288 16.8478 22.3585C17.241 22.2275 17.241 22.2275 17.6341 22.3585Z" fill="#C8E467"/>
<path d="M36.1113 72.9421C36.6355 73.0732 36.6355 73.0732 36.6355 73.0732L36.1113 72.9421Z" fill="#C8E467"/>
<path d="M70.8398 67.7004C70.9709 68.2246 70.9709 68.2246 70.9709 68.2246L70.8398 67.7004Z" fill="#C8E467"/>
<path d="M37.291 72.9421C37.6842 73.0732 37.6842 73.0732 37.6842 73.0732L37.291 72.9421Z" fill="#C8E467"/>
<path d="M63.5 70.1902C63.8931 70.3212 63.8931 70.3212 63.8931 70.3212L63.5 70.1902Z" fill="#C8E467"/>
<path d="M68.7422 69.1421C69.1353 69.2731 69.1353 69.2731 69.1353 69.2731L68.7422 69.1421Z" fill="#C8E467"/>
<path d="M24.3184 65.8657C24.7115 65.9968 24.7115 65.9968 24.7115 65.9968L24.3184 65.8657Z" fill="#C8E467"/>
<path d="M62.9785 41.6223C63.3717 41.7534 63.3717 41.7534 63.3717 41.7534L62.9785 41.6223Z" fill="#C8E467"/>
<path d="M43.582 16.7234C43.9752 16.8544 43.9752 16.8544 43.9752 16.8544L43.582 16.7234Z" fill="#C8E467"/>
<path d="M35.1953 72.9421C35.4574 73.0732 35.4574 73.0732 35.4574 73.0732L35.1953 72.9421Z" fill="#C8E467"/>
<path d="M24.7109 72.0249C24.973 72.1559 24.973 72.1559 24.973 72.1559L24.7109 72.0249Z" fill="#C8E467"/>
<path d="M33.623 70.7144C33.8851 70.8454 33.8851 70.8454 33.8851 70.8454L33.623 70.7144Z" fill="#C8E467"/>
<path d="M28.6426 70.3213C28.9047 70.4523 28.9047 70.4523 28.9047 70.4523L28.6426 70.3213Z" fill="#C8E467"/>
<path d="M63.1074 70.1902C63.3695 70.3212 63.3695 70.3212 63.3695 70.3212L63.1074 70.1902Z" fill="#C8E467"/>
<path d="M25.1055 65.7349C25.3676 65.8659 25.3676 65.8659 25.3676 65.8659L25.1055 65.7349Z" fill="#C8E467"/>
<path d="M59.7012 64.6863C59.9633 64.8173 59.9633 64.8173 59.9633 64.8173L59.7012 64.6863Z" fill="#C8E467"/>
<path d="M59.3086 64.6863C59.5707 64.8173 59.5707 64.8173 59.5707 64.8173L59.3086 64.6863Z" fill="#C8E467"/>
<path d="M31.002 64.6863C31.264 64.8173 31.264 64.8173 31.264 64.8173L31.002 64.6863Z" fill="#C8E467"/>
<path d="M58.6523 64.5552C58.9144 64.6862 58.9144 64.6862 58.9144 64.6862L58.6523 64.5552Z" fill="#C8E467"/>
<path d="M49.3477 63.769C49.6097 63.9001 49.6097 63.9001 49.6097 63.9001L49.3477 63.769Z" fill="#C8E467"/>
<path d="M48.6934 63.769C48.9555 63.9001 48.9555 63.9001 48.9555 63.9001L48.6934 63.769Z" fill="#C8E467"/>
<path d="M46.334 63.769C46.5961 63.9001 46.5961 63.9001 46.5961 63.9001L46.334 63.769Z" fill="#C8E467"/>
<path d="M78.9648 29.1731C79.2269 29.3041 79.2269 29.3041 79.2269 29.3041L78.9648 29.1731Z" fill="#C8E467"/>
<path d="M71.8867 29.1731C72.1488 29.3041 72.1488 29.3041 72.1488 29.3041L71.8867 29.1731Z" fill="#C8E467"/>
<path d="M55.6387 23.1448C55.9008 23.2758 55.9008 23.2758 55.9008 23.2758L55.6387 23.1448Z" fill="#C8E467"/>
<path d="M39.6504 21.9653C39.9125 22.0964 39.9125 22.0964 39.9125 22.0964L39.6504 21.9653Z" fill="#C8E467"/>
</svg>
