<svg width="96" height="96" viewBox="0 0 96 96" fill="none" xmlns="http://www.w3.org/2000/svg">
<path d="M69.9645 30.0491C70.6395 29.9661 71.3504 29.9768 72.0329 29.9717C72.0047 31.5954 71.9578 32.5179 71.68 34.1329C72.8769 33.8985 75.3829 33.7442 76.6839 33.6349C79.1143 33.4306 81.6644 33.1402 84.0844 32.9896C82.0273 38.1024 81.4225 43.3372 78.0401 47.972C72.3337 55.7911 62.2524 58.9624 53.0945 55.8007C51.9525 55.4064 50.7432 55.0199 49.6169 54.5625C49.5772 54.5465 49.5376 54.5301 49.4983 54.5136C48.1508 53.5497 47.6137 54.3202 46.4317 54.593C44.747 55.1985 42.7126 55.9572 40.999 56.3802C36.5974 57.4495 31.9739 57.1444 27.7511 55.5056C21.8007 53.1914 17.1594 48.3913 15.0466 42.3664C14.3177 40.2982 13.6851 38.1559 12.9829 36.0783C12.6498 35.0928 12.3257 33.9079 11.9121 32.9662C12.9338 33.0887 14.1914 33.155 15.2319 33.2336C16.615 33.4279 18.0215 33.4364 19.4093 33.5907C21.7686 33.8529 24.2169 33.9439 26.5631 34.2692C33.0912 35.1523 38.988 38.6289 42.9211 43.9135C44.4663 45.9577 45.4139 48.0018 46.4044 50.3272L46.3817 50.426C46.5572 50.6874 47.6832 53.3448 47.7988 53.7012L47.9085 53.7614L47.9807 53.7201C48.0194 52.6907 48.1023 51.6633 48.2295 50.6409C48.3348 49.4717 49.1036 46.4231 49.5737 45.2593C49.7748 44.9758 50.172 43.9856 50.3325 43.627C53.7758 35.9333 61.5856 30.6646 69.9645 30.0491Z" fill="#276B00"/>
<path d="M15.2324 33.2339C16.6155 33.4281 18.0221 33.4367 19.4098 33.591C21.7691 33.8532 24.2174 33.9441 26.5636 34.2694C33.0917 35.1526 38.9885 38.6292 42.9217 43.9138C44.4669 45.958 45.4144 48.002 46.405 50.3275L46.3823 50.4262C46.12 50.8266 43.8728 51.4493 43.3157 51.6115C41.3386 52.1871 39.2318 52.4904 37.1721 52.4823C31.355 52.463 25.7854 50.1266 21.6955 45.9901C18.7137 42.9746 17.1476 39.7782 15.9056 35.7934C15.7037 35.1456 15.2299 33.8643 15.2324 33.2339Z" fill="#468945"/>
<path d="M49.5728 45.2595C49.7739 44.976 50.171 43.9858 50.3315 43.6272C53.7749 35.9335 61.5847 30.6648 69.9636 30.0493L70.1831 30.166C70.2652 30.5598 70.0674 31.483 69.9783 31.8882C69.3594 34.8152 68.2049 37.6026 66.5728 40.1099C62.9888 45.5813 57.3188 49.3894 50.9253 50.5398C50.3379 50.6455 48.8595 51.0027 48.318 50.8029L48.2285 50.6411C48.3339 49.4719 49.1026 46.4233 49.5728 45.2595Z" fill="#84CD80"/>
<path d="M69.9643 30.0491C70.6392 29.9661 71.3502 29.9768 72.0326 29.9717C72.0045 31.5954 71.9575 32.5179 71.6797 34.1329C71.5562 35.1808 71.1485 36.4861 70.814 37.5036C69.3388 41.9922 66.6047 45.9056 62.8844 48.8395C59.3436 51.6587 55.0672 53.4004 50.5644 53.8573C50.0183 53.9156 48.4658 54.1701 48.0151 53.9155L47.9805 53.7201C48.0191 52.6907 48.1021 51.6633 48.2292 50.6409L48.3186 50.8027C48.8601 51.0025 50.3386 50.6453 50.926 50.5396C57.3195 49.3892 62.9895 45.5811 66.5734 40.1097C68.2055 37.6024 69.3601 34.815 69.979 31.888C70.0681 31.4828 70.2659 30.5596 70.1838 30.1658L69.9643 30.0491Z" fill="#6DBE69"/>
<path d="M46.4308 54.5932C47.6128 54.3203 48.1499 53.5499 49.4973 54.5138C49.6827 58.5908 49.4397 62.8116 49.5367 66.9027C49.5517 67.5347 49.5684 68.3082 49.5356 68.9319L58.5439 68.922C59.362 68.921 62.1635 68.8729 62.827 68.9866C66.8386 69.2477 66.1126 73.0473 65.9772 76.0216C65.7991 79.9336 64.4136 83.655 62.7348 87.1537C62.1145 88.1791 61.5003 89.2367 60.7953 90.204C60.0342 91.2981 58.8753 92.8994 57.4421 92.9625C54.6759 93.0844 51.8828 93.0275 49.1103 93.0306L42.881 93.0361C41.7589 93.0365 38.7219 93.1103 37.7968 92.8082C36.2845 92.3142 34.1095 88.5186 33.3123 87.1037C30.9669 82.3624 29.8375 77.8989 29.9762 72.5821C30.0404 70.1256 30.8706 69.1625 33.3395 68.992C34.1244 68.8277 36.0174 68.9426 36.9039 68.9166C39.9169 68.828 43.5021 69.0914 46.4713 68.8644C46.3448 64.1863 46.5688 59.3309 46.4308 54.5932Z" fill="#E3E3E3"/>
<path d="M33.3395 68.9922L34.5187 69.0037C34.2004 73.824 35.435 79.2895 37.5836 83.5803C38.0741 84.5598 39.2283 86.2187 39.531 86.9771C37.5315 87.0603 35.2724 86.9202 33.3123 87.1038C30.9669 82.3625 29.8375 77.899 29.9762 72.5823C30.0404 70.1257 30.8706 69.1626 33.3395 68.9922Z" fill="#B0B0B0"/>
<path d="M39.5311 86.9771L39.7663 87.0345C40.1913 87.9537 41.2604 89.3796 42.2318 89.7472C43.6252 90.2744 54.1799 89.9973 56.6206 89.9959C57.9384 89.995 59.519 89.8481 60.7955 90.2041C60.0343 91.2982 58.8755 92.8995 57.4422 92.9626C54.6761 93.0845 51.883 93.0276 49.1105 93.0307L42.8812 93.0362C41.7591 93.0366 38.7221 93.1104 37.7969 92.8083C36.2847 92.3143 34.1097 88.5187 33.3125 87.1038C35.2725 86.9201 37.5316 87.0603 39.5311 86.9771Z" fill="#B0B0B0"/>
<path d="M46.4311 54.5932C47.6131 54.3203 48.1502 53.5499 49.4977 54.5138C49.683 58.5908 49.44 62.8116 49.537 66.9027C49.552 67.5347 49.5687 68.3082 49.5359 68.9319L58.5442 68.922C59.3623 68.921 62.1638 68.8729 62.8273 68.9866C60.0098 69.1359 55.9609 69.0128 53.0586 69.011L34.519 69.0036L33.3398 68.992C34.1247 68.8277 36.0177 68.9426 36.9042 68.9166C39.9173 68.828 43.5024 69.0914 46.4716 68.8644C46.3451 64.1863 46.5691 59.3309 46.4311 54.5932Z" fill="#143800"/>
<path d="M60.1059 3.7645C61.1362 3.48966 62.108 3.23441 63.1217 2.89795C62.3987 5.04367 61.8517 7.44291 61.1891 9.63791L61.31 9.69097C63.9941 7.8325 69.3033 6.62854 72.588 6.3294C73.4155 6.19378 74.245 6.07042 75.0761 5.95935C74.4803 8.45912 74.0341 11.313 73.3156 13.7326C71.9969 18.1619 69.0951 21.9515 65.1629 24.3795C60.3071 27.3587 54.8435 27.679 49.5076 25.864C48.977 25.7518 48.4488 25.6284 47.9235 25.494C47.1546 25.7249 46.3503 25.9911 45.558 26.0965C45.0666 25.6785 44.192 24.6427 43.5156 24.0379C44.1053 23.6337 46.1993 23.5234 46.7582 23.0822L46.4393 22.2462C46.5567 20.9438 46.3689 19.7555 46.4861 18.4577C46.4836 17.5745 46.4659 16.7105 46.5558 15.8306C46.7411 14.0809 47.1856 12.5104 48.0774 10.9877C51.0866 5.84956 54.91 5.21484 60.1059 3.7645ZM49.6458 22.1638C50.1558 21.0833 50.5699 20.2715 51.2125 19.2644C50.6013 19.3794 50.1603 19.4521 49.5419 19.5094C49.526 20.4044 49.5036 21.2751 49.6458 22.1638Z" fill="#468945"/>
<path d="M60.1053 3.7645C61.1356 3.48966 62.1074 3.23441 63.1211 2.89795C62.3981 5.04367 61.8511 7.44291 61.1885 9.63791C60.04 13.3658 58.1242 16.1633 54.6168 18.0644C54.0699 18.3609 51.7523 19.3099 51.2119 19.2644C50.6007 19.3794 50.1597 19.4521 49.5413 19.5094C48.7105 19.4694 47.407 19.5129 46.5464 19.5174L46.4855 18.4577C46.4829 17.5745 46.4653 16.7105 46.5551 15.8306C46.7405 14.0809 47.1849 12.5104 48.0768 10.9877C51.086 5.84956 54.9094 5.21484 60.1053 3.7645Z" fill="#84CD80"/>
<path d="M60.1053 3.7645C61.1356 3.48966 62.1074 3.23441 63.1211 2.89795C62.3981 5.04367 61.8511 7.44291 61.1885 9.63791C60.04 13.3658 58.1242 16.1633 54.6168 18.0644C54.0699 18.3609 51.7523 19.3099 51.2119 19.2644C50.6007 19.3794 50.1597 19.4521 49.5413 19.5094C48.7105 19.4694 47.407 19.5129 46.5464 19.5174L46.4855 18.4577C46.4829 17.5745 46.4653 16.7105 46.5551 15.8306L46.6096 16.2299C47.3448 17.2303 51.9875 15.6144 52.9688 15.127C57.3958 12.9278 59.4663 8.71375 60.2394 4.03098C60.2394 4.03098 60.1172 3.78813 60.1053 3.7645Z" fill="#6DBE69"/>
<path d="M72.588 6.32903C73.4155 6.19342 74.245 6.07006 75.0761 5.95898C74.4803 8.45875 74.0341 11.3127 73.3156 13.7323C71.9969 18.1616 69.0951 21.9511 65.1629 24.3792C60.3071 27.3584 54.8435 27.6786 49.5076 25.8636C48.977 25.7514 48.4488 25.628 47.9235 25.4937C47.1546 25.7246 46.3503 25.9907 45.558 26.0961C45.0666 25.6782 44.192 24.6423 43.5156 24.0375C44.1053 23.6333 46.1993 23.523 46.7582 23.0819L46.4393 22.2458C46.5567 20.9434 46.3689 19.7551 46.4861 18.4574L46.547 19.517C47.4077 19.5125 48.7112 19.469 49.5419 19.509C49.526 20.4041 49.5036 21.2747 49.6458 22.1635C49.4563 22.401 49.3382 22.772 49.227 23.0639C51.1235 24.2428 55.9457 24.0276 58.0905 23.5726C62.8095 22.5419 66.9228 19.6724 69.5196 15.5995C71.2099 12.9762 71.8964 10.7023 72.4723 7.71583C72.5565 7.27966 72.8503 6.74314 72.785 6.44204L72.588 6.32903Z" fill="#276B00"/>
<path d="M46.4843 18.4575L46.5452 19.5172C47.4058 19.5127 48.7093 19.4692 49.5401 19.5092C49.5242 20.4042 49.5018 21.2749 49.644 22.1636C49.4545 22.4012 49.3363 22.7722 49.2252 23.064C49.139 23.4673 48.2349 25.0581 47.9944 25.4676C47.5237 24.6356 47.1382 23.965 46.7563 23.082L46.4375 22.246C46.5549 20.9436 46.3671 19.7553 46.4843 18.4575Z" fill="#143800"/>
<path d="M20.9492 5.93604C21.7079 6.10334 22.8625 6.21967 23.6583 6.32348C31.75 7.30326 37.8316 10.2651 43.0778 16.7242C44.1491 18.0433 45.7994 20.6771 46.4376 22.246L46.7564 23.082C46.1976 23.5232 44.1036 23.6335 43.5139 24.0377C44.1903 24.6425 45.0649 25.6784 45.5563 26.0963C45.8418 26.652 46.159 27.0437 46.4361 27.5645C47.3516 29.2845 47.8064 30.821 47.9475 32.7467C48.0557 33.432 48.0135 35.2293 48.0022 36.0021C47.3293 36 46.2839 35.9649 45.641 36.0112C41.1135 36.1066 36.2648 33.0924 34.3882 28.99C33.878 27.8745 33.5441 26.7391 33.1422 25.5863C32.1663 25.1322 31.2218 24.6134 30.315 24.0331C28.876 23.0868 27.5779 21.9418 26.4596 20.6318C22.5801 16.1312 22.1519 11.4982 20.9492 5.93604Z" fill="#276B00"/>
<path d="M31.502 19.4995L34.0606 20.2149C37.7209 21.2379 40.4623 21.6775 43.5154 24.0378C44.1918 24.6425 45.0664 25.6784 45.5577 26.0963C45.8433 26.6521 46.1604 27.0438 46.4375 27.5645C47.353 29.2846 47.8079 30.821 47.949 32.7468C48.0572 33.4321 48.015 35.2294 48.0036 36.0021C47.3308 36 46.2854 35.9649 45.6425 36.0112C41.115 36.1067 36.2662 33.0924 34.3896 28.99C33.8795 27.8746 33.5455 26.7392 33.1437 25.5863C33.0541 24.6598 32.14 21.7618 31.828 20.7889C31.7623 20.4298 31.5976 19.8689 31.502 19.4995Z" fill="#84CD80"/>
<path d="M31.502 19.4995L34.0606 20.2149C34.229 21.0599 34.5248 21.8284 34.7534 22.6579C35.372 24.9033 36.1542 26.8128 37.6936 28.6065C40.1105 31.4226 43.5421 32.9146 47.228 33.0105C47.4629 33.0167 47.661 33.0315 47.876 32.9232L47.949 32.7468C48.0572 33.4321 48.015 35.2294 48.0036 36.0021C47.3308 36 46.2854 35.9649 45.6425 36.0112C41.115 36.1067 36.2662 33.0924 34.3896 28.99C33.8795 27.8746 33.5455 26.7392 33.1437 25.5863C33.0541 24.6598 32.14 21.7618 31.828 20.7889C31.7623 20.4298 31.5976 19.8689 31.502 19.4995Z" fill="#6DBE69"/>
<path d="M20.9492 5.93604C21.7079 6.10334 22.8625 6.21967 23.6583 6.32348L23.3292 6.43828C22.9822 7.60774 25.089 13.1141 25.7436 14.3227C26.582 15.8708 30.0973 20.6435 31.8266 20.7889C32.1386 21.7618 33.0526 24.6598 33.1422 25.5863C32.1663 25.1322 31.2218 24.6134 30.315 24.0331C28.876 23.0868 27.5779 21.9418 26.4596 20.6318C22.5801 16.1312 22.1519 11.4982 20.9492 5.93604Z" fill="#276B00"/>
<path d="M47.9221 25.4941C48.4475 25.6285 48.9757 25.7519 49.5062 25.8641C49.543 30.1007 49.5548 34.3376 49.5419 38.5744C49.5417 40.6992 49.6317 43.188 49.5736 45.2596C49.1035 46.4235 48.3347 49.472 48.2294 50.6413C48.1022 51.6636 48.0193 52.691 47.9806 53.7205L47.9084 53.7617L47.7987 53.7015C47.6831 53.3451 46.5571 50.6878 46.3816 50.4263L46.4043 50.3276C46.5184 49.8312 46.5105 45.2118 46.4805 44.327C46.3965 41.8385 46.6125 38.6233 46.455 36.2306C46.2922 36.0614 45.9023 36.0485 45.6414 36.0115C46.2843 35.9652 47.3297 36.0002 48.0026 36.0024C48.0139 35.2296 48.0561 33.4323 47.9479 32.747C47.8068 30.8213 47.352 29.2848 46.4365 27.5648C46.1594 27.044 45.8422 26.6523 45.5566 26.0966C46.3489 25.9912 47.1533 25.725 47.9221 25.4941Z" fill="#143800"/>
</svg>
