<svg width="24" height="24" viewBox="0 0 24 24" fill="none" xmlns="http://www.w3.org/2000/svg">
<path d="M17.3665 12.6594C17.3425 10.1634 19.4065 8.96336 19.5025 8.90336C18.3025 7.19936 16.5025 6.95936 15.8785 6.93536C14.3425 6.77936 12.8545 7.84736 12.0745 7.84736C11.2825 7.84736 10.0705 6.95936 8.7745 6.98336C7.92893 7.01093 7.10502 7.25769 6.38349 7.69944C5.66196 8.14119 5.06755 8.7628 4.6585 9.50336C2.8825 12.5634 4.2025 17.0634 5.9185 19.5354C6.7705 20.7474 7.7785 22.1034 9.0985 22.0554C10.3825 22.0074 10.8625 21.2274 12.4105 21.2274C13.9465 21.2274 14.3905 22.0554 15.7225 22.0314C17.0905 22.0074 17.9545 20.8074 18.7825 19.5834C19.7665 18.1794 20.1625 16.8114 20.1865 16.7394C20.1505 16.7274 17.5105 15.7194 17.4865 12.6594H17.3665ZM14.8225 5.17136C15.5065 4.30736 15.9865 3.13136 15.8545 1.94336C14.8585 1.97936 13.6225 2.62736 12.9145 3.46736C12.2785 4.21136 11.7145 5.42336 11.8585 6.57536C12.9745 6.65936 14.1265 6.01136 14.8225 5.17136Z" fill="#FCFCFC"/>
</svg>
