<svg width="96" height="96" viewBox="0 0 96 96" fill="none" xmlns="http://www.w3.org/2000/svg">
<path d="M47.9108 3.00439H48.1199C53.6614 9.26159 57.0586 14.9925 59.7035 23.0277C60.0489 22.381 60.6709 21.6249 61.1371 21.0435C64.0145 17.4375 67.6153 14.4742 71.7077 12.3445C72.4415 11.9615 73.6757 11.3449 74.4438 11.1179C74.8151 11.0473 74.7128 11.0076 74.972 11.1757C75.2707 11.8483 75.6463 13.6416 75.7884 14.4035C76.6539 19.0457 76.459 23.7137 75.4983 28.3222C75.3513 29.0268 74.3585 32.2308 74.348 32.4477C77.1613 30.6811 80.0519 29.0406 83.0113 27.5311L83.2556 27.4979C83.4522 27.6919 83.4609 27.8856 83.468 28.1613C83.5752 32.359 83.5226 36.5373 82.8214 40.69C82.3194 43.6635 81.6592 46.9346 80.4158 49.6933C79.3728 52.026 77.9176 54.1515 76.1199 55.9673C74.7479 57.3345 73.1959 58.5081 71.5065 59.4555C71.1689 59.645 69.6263 60.4329 69.4698 60.5484L66.6399 60.599C62.0645 60.639 56.9476 60.683 52.3942 60.5764C51.4428 60.6697 49.4791 60.6077 48.498 60.5994L48.2484 60.6606C48.1153 60.6317 47.6899 60.6131 47.5312 60.6029C46.143 60.6089 44.7764 60.6374 43.3898 60.5599C42.6444 60.5989 41.8441 60.6054 41.0975 60.5971C36.2525 60.5433 31.3396 60.7279 26.5027 60.5423C26.4962 60.5096 26.4249 60.4304 26.3993 60.3981C22.3788 58.8921 17.9538 54.6622 16.1218 50.8561C12.8278 44.0122 12.2491 35.4796 12.5601 28.0307C12.5639 27.7699 12.5134 27.6665 12.653 27.515C14.1578 27.7031 21.0811 32.3364 21.6753 32.3342C21.2827 31.4179 20.936 30.1083 20.6865 29.127C19.2812 23.5994 19.1608 16.7081 20.9752 11.2531L21.0991 11.0528C21.881 10.8991 26.4453 13.5738 27.4129 14.2372C30.3039 16.2196 32.9696 18.707 35.1601 21.4522C35.4625 21.8311 36.0717 22.5613 36.2886 22.961C38.6013 15.9055 42.4739 8.77649 47.5782 3.35391L47.9108 3.00439Z" fill="#3AA000"/>
<path d="M47.5782 3.354C47.6646 3.376 47.805 3.38279 47.8502 3.46059C48.1295 3.94191 47.9668 12.0273 47.9664 13.2838L47.9694 59.6854C47.9669 60.2945 47.7914 60.4284 48.2484 60.6607C48.1153 60.6318 47.6899 60.6132 47.5312 60.603C46.143 60.609 44.7764 60.6375 43.3898 60.5599C42.6444 60.599 41.8441 60.6055 41.0975 60.5972C36.2525 60.5434 31.3396 60.728 26.5027 60.5424C26.4962 60.5097 26.4249 60.4305 26.3993 60.3982C22.3788 58.8922 17.9538 54.6623 16.1218 50.8562C12.8278 44.0123 12.2491 35.4796 12.5601 28.0308C12.5639 27.77 12.5134 27.6666 12.653 27.5151C14.1578 27.7032 21.0811 32.3365 21.6753 32.3343C21.2827 31.418 20.936 30.1084 20.6865 29.1271C19.2812 23.5995 19.1608 16.7082 20.9752 11.2532L21.0991 11.0529C21.8809 10.8992 26.4453 13.5739 27.4129 14.2373C30.3039 16.2197 32.9696 18.707 35.1601 21.4523C35.4625 21.8312 36.0717 22.5614 36.2886 22.9611C38.6013 15.9056 42.4738 8.77658 47.5782 3.354Z" fill="#84CD80"/>
<path d="M12.5601 28.0308C12.5639 27.77 12.5134 27.6666 12.653 27.5151C14.1578 27.7032 21.0811 32.3365 21.6753 32.3343C22.0379 32.7489 27.3382 35.8989 28.2447 36.4894C30.3303 37.848 32.464 39.0459 34.5223 40.6351C39.6299 44.579 43.1881 49.8058 45.6892 55.7091C46.4068 57.403 46.9073 58.901 47.5312 60.603C46.143 60.609 44.7764 60.6375 43.3898 60.5599C42.6444 60.599 41.8441 60.6055 41.0975 60.5972C36.2525 60.5434 31.3396 60.728 26.5027 60.5424C26.4962 60.5097 26.4249 60.4305 26.3993 60.3982C22.3788 58.8922 17.9538 54.6623 16.1218 50.8562C12.8278 44.0123 12.2491 35.4797 12.5601 28.0308Z" fill="#3AA000"/>
<path d="M12.5601 28.0312C12.7233 28.0429 12.7949 28.0153 12.8918 28.1806C19.8427 40.0307 28.346 51.8883 40.4133 58.9503C40.8959 59.2328 43.0569 60.5115 43.3898 60.5604C42.6444 60.5994 41.8441 60.6059 41.0975 60.5976C36.2525 60.5439 31.3396 60.7284 26.5027 60.5428C26.4962 60.5101 26.4249 60.4309 26.3993 60.3986C22.3788 58.8927 17.9538 54.6627 16.1218 50.8566C12.8278 44.0127 12.2491 35.4801 12.5601 28.0312Z" fill="#84CD80"/>
<path d="M20.9766 11.253L21.1004 11.0527C21.8823 10.8991 26.4467 13.5738 27.4142 14.2372C30.3053 16.2195 32.9709 18.7069 35.1614 21.4522C35.4638 21.8311 36.073 22.5613 36.2899 22.961C34.9592 27.2446 34.0579 31.65 33.5993 36.112C32.9792 34.5807 31.8689 32.4426 31.1347 30.9271C29.5056 27.5374 27.8382 24.1663 26.1328 20.8144L23.0377 14.7745C22.6583 14.0413 21.4988 11.5731 20.9766 11.253Z" fill="#3AA000"/>
<path d="M83.0113 27.5308L83.2556 27.4976C83.4522 27.6916 83.461 27.8852 83.468 28.161C83.5752 32.3586 83.5226 36.537 82.8214 40.6897C82.3194 43.6632 81.6592 46.9343 80.4158 49.693C79.3728 52.0257 77.9176 54.1511 76.12 55.967C74.748 57.3342 73.1959 58.5077 71.5065 59.4552C71.1689 59.6447 69.6263 60.4325 69.4698 60.5481L66.6399 60.5987C62.0645 60.6387 56.9476 60.6826 52.3942 60.576C51.4428 60.6694 49.4791 60.6074 48.498 60.5991C48.6974 59.5481 49.6532 57.1773 50.0712 56.1616C52.55 50.1386 56.2551 44.5913 61.4744 40.6078C63.4316 39.1139 65.907 37.6317 68.0191 36.3039C69.4651 35.3891 70.9184 34.4858 72.3786 33.594C72.831 33.3186 73.9211 32.6233 74.348 32.4474C77.1614 30.6808 80.052 29.0402 83.0113 27.5308Z" fill="#84CD80"/>
<path d="M83.0136 27.5308L83.2579 27.4976C83.4545 27.6916 83.4633 27.8852 83.4703 28.161C83.5775 32.3586 83.5249 36.537 82.8238 40.6897C82.3217 43.6632 81.6615 46.9343 80.4181 49.693C79.3751 52.0257 77.9199 54.1511 76.1223 55.967C74.7503 57.3342 73.1982 58.5077 71.5088 59.4552C71.1712 59.6447 69.6286 60.4325 69.4721 60.5481L66.6422 60.5987C62.0668 60.6387 56.9499 60.6826 52.3965 60.576C52.8294 60.4338 53.3515 60.1438 53.7637 59.925C65.9718 53.4461 74.8833 41.8335 81.8213 30.1723C82.222 29.4988 82.5559 28.7832 82.9497 28.1374C83.1322 28.1013 83.1477 28.105 83.2898 27.9925C83.2357 27.772 83.1568 27.7051 83.0136 27.5308Z" fill="#3AA000"/>
<path d="M59.7043 23.0275C60.0496 22.3808 60.6716 21.6247 61.1379 21.0433C64.0153 17.4373 67.616 14.4741 71.7084 12.3443C72.4422 11.9613 73.6764 11.3447 74.4445 11.1177C74.5282 11.2516 74.6044 11.3249 74.5344 11.5078C74.2476 12.2579 73.8475 13.0734 73.5033 13.7941L71.0849 18.7986L62.4151 36.7493C62.077 33.4272 61.6141 30.2334 60.7668 26.9957C60.6125 26.4061 59.666 23.3647 59.7043 23.0275Z" fill="#84CD80"/>
<path d="M66.6399 60.5993L69.4698 60.5486C71.4993 60.6924 73.6704 60.1048 75.2027 61.9054C76.4969 63.4263 76.2285 65.7264 74.6868 66.9746C73.5668 67.8815 72.0124 68.0233 70.6277 67.8084C70.5938 68.6722 70.3329 69.8999 70.1726 70.7736L69.3351 75.3108L68.172 81.5886C67.9113 82.9847 67.5677 85.0583 67.0775 86.3422C66.5045 87.8333 65.6015 89.1753 64.4361 90.2678C63.1765 91.4265 61.952 92.0443 60.3544 92.6014C60.0852 92.6955 59.362 92.88 59.1896 92.9952H50.0535H36.9108C36.7936 92.9248 35.9053 92.6621 35.6948 92.5874C34.021 91.9889 32.7561 91.4098 31.4543 90.157C30.3079 89.0635 29.4276 87.7217 28.8812 86.2346C28.3888 84.9251 28.0457 82.808 27.7782 81.3748L26.5157 74.5877C26.2378 73.089 25.3892 69.0407 25.3669 67.8601C23.9701 67.66 22.6582 68.1756 21.1907 66.8914C20.4668 66.2548 20.0274 65.3553 19.97 64.393C19.9196 63.4704 20.2407 62.4627 20.8683 61.7791C22.38 60.1322 24.5195 60.6609 26.5027 60.5425C31.3396 60.7281 36.2525 60.5435 41.0976 60.5973C41.8441 60.6056 42.6444 60.5991 43.3899 60.5601C44.7764 60.6376 46.143 60.6091 47.5312 60.6031C47.6899 60.6133 48.1153 60.6319 48.2485 60.6608L48.498 60.5996C49.4791 60.608 51.4428 60.6699 52.3942 60.5766C56.9476 60.6832 62.0645 60.6392 66.6399 60.5993Z" fill="#E3E3E3"/>
<path d="M29.3542 60.5993L26.5243 60.5486C24.4948 60.6924 22.3237 60.1048 20.7914 61.9054C19.4973 63.4263 19.7656 65.7264 21.3074 66.9746C22.4273 67.8815 23.9818 68.0233 25.3664 67.8084C25.4003 68.6722 25.6613 69.8999 25.8216 70.7736L26.6591 75.3108L27.8222 81.5886C28.0828 82.9847 28.4264 85.0583 28.9166 86.3422C29.4896 87.8333 30.3926 89.1753 31.558 90.2678C32.8176 91.4265 34.0422 92.0443 35.6398 92.6014C35.9089 92.6955 36.6321 92.88 36.8045 92.9952H45.9406C45.779 92.8792 44.874 92.5601 44.6156 92.4644C43.5782 92.0768 42.7561 91.7393 41.8374 91.0987C40.3272 90.0387 39.13 88.5917 38.3715 86.9095C37.5472 85.0726 36.8978 80.7803 36.5007 78.6376L34.4933 67.8022C41.3883 67.6672 48.6284 67.7755 55.5454 67.7762L64.4315 67.7785C66.4745 67.7794 68.594 67.7474 70.6273 67.8601C72.0241 67.66 73.336 68.1756 74.8035 66.8914C75.5274 66.2548 75.9668 65.3553 76.0242 64.393C76.0745 63.4704 75.7534 62.4627 75.1258 61.7791C73.6141 60.1322 71.4746 60.6609 69.4914 60.5425C64.6545 60.7281 59.7417 60.5435 54.8966 60.5973C54.15 60.6056 53.3497 60.5991 52.6043 60.5601C51.2177 60.6376 49.8511 60.6091 48.463 60.6031C48.3043 60.6133 47.8788 60.6319 47.7457 60.6608L47.4961 60.5996C46.5151 60.608 44.5514 60.6699 43.6 60.5766C39.0466 60.6832 33.9297 60.6392 29.3542 60.5993Z" fill="#B0B0B0"/>
<path d="M66.6394 60.599L69.4693 60.5483C71.4988 60.6921 73.6699 60.1045 75.2022 61.9051C76.4964 63.426 76.228 65.7261 74.6863 66.9743C73.5663 67.8812 72.0119 68.023 70.6272 67.8081C69.2872 67.778 67.9468 67.7732 66.6066 67.7936L66.5813 63.1072C66.5796 62.557 66.5531 61.0834 66.6394 60.599Z" fill="#B0B0B0"/>
</svg>
