<svg width="96" height="96" viewBox="0 0 96 96" fill="none" xmlns="http://www.w3.org/2000/svg">
<path d="M30.0527 60.0134C32.4814 59.9944 34.9102 59.9905 37.3389 60.0017C38.2172 60.0029 40.2939 60.0588 41.0773 59.9395C41.739 60.0145 42.0144 60.0301 42.6791 59.9988L44.498 60.0145C44.781 60.0114 45.2454 60.0203 45.5121 59.9956C45.8183 59.9968 46.3853 59.9821 46.6703 60.012L47.2471 60.0049C47.4556 60.0157 47.9613 60.053 48.1429 60.0341L48.1749 60.0715C49.0919 60.0266 50.0093 59.9919 50.9272 59.9671L51.346 60.0612L51.9903 60.0189L53.595 60.0367L53.6614 60.0409C54.4182 60.0855 55.745 60.0201 56.5712 60.0151L62.9365 59.9831C65.6945 59.9693 68.9162 59.5256 69.066 63.3581C69.0739 63.5597 68.8211 64.0599 68.7332 64.246C68.1685 65.441 67.1829 65.8505 65.9505 66.0781C65.8807 66.676 65.7797 68.6411 65.6543 69.0047C65.5012 72.2072 64.9246 75.9498 64.5795 79.1925L64.0213 84.428C63.7797 86.6409 63.7685 88.2771 62.4867 90.1788C62.319 90.3781 62.147 90.5737 61.9707 90.7654C60.5928 92.2491 58.8308 92.983 56.8064 92.9893C51.0275 93.0073 45.2463 92.9992 39.4673 92.9812C37.9875 92.9766 36.6352 92.6979 35.3608 91.924C31.7898 89.7554 32.1779 85.2613 31.7533 81.6084C31.3211 78.0495 30.9116 74.488 30.5248 70.924C30.3673 69.3896 30.1404 67.5481 30.0866 66.0244C28.5188 65.7565 27.2042 65.1148 27.0201 63.3372C26.9321 62.5501 27.1669 61.7609 27.6707 61.1499C28.3398 60.3436 29.0698 60.1079 30.0527 60.0134Z" fill="#E3E3E3"/>
<path d="M30.0527 60.0134C32.4814 59.9944 34.9102 59.9905 37.3389 60.0017C38.2172 60.0029 40.2939 60.0588 41.0773 59.9395C41.739 60.0145 42.0144 60.0301 42.6791 59.9988L44.498 60.0145C44.781 60.0114 45.2454 60.0203 45.5121 59.9956C45.8183 59.9968 46.3853 59.9821 46.6703 60.012L47.2471 60.0049C47.4556 60.0157 47.9613 60.053 48.1429 60.0341L48.1749 60.0715C49.0919 60.0266 50.0093 59.9919 50.9272 59.9671L51.346 60.0612L51.9903 60.0189L53.595 60.0367L53.6614 60.0409C54.4182 60.0855 55.745 60.0201 56.5712 60.0151L62.9365 59.9831C65.6945 59.9693 68.9162 59.5256 69.066 63.3581C69.0739 63.5597 68.8211 64.0599 68.7332 64.246C68.1685 65.441 67.1829 65.8505 65.9505 66.0781C65.8807 66.676 65.7797 68.6411 65.6543 69.0047C64.8322 68.8487 61.9053 69.079 60.7968 69.0791L49.3591 69.0774C46.1545 69.0748 42.2001 68.5949 39.5118 70.457C35.998 72.8908 35.4601 76.4941 36.2733 80.434C36.7315 82.6542 36.7058 85.1733 38.0526 87.124C40.4225 90.7864 45.0826 90.0363 48.9578 90.0205C52.0433 90.0079 55.1288 90.0195 58.2141 90.0553C58.9593 90.062 61.8722 90.0532 62.4867 90.1788C62.319 90.3781 62.147 90.5737 61.9707 90.7654C60.5928 92.2491 58.8308 92.983 56.8064 92.9893C51.0275 93.0073 45.2463 92.9992 39.4673 92.9812C37.9875 92.9766 36.6352 92.6979 35.3608 91.924C31.7898 89.7554 32.1779 85.2613 31.7533 81.6084C31.3211 78.0495 30.9116 74.488 30.5248 70.924C30.3673 69.3896 30.1404 67.5481 30.0866 66.0244C28.5188 65.7565 27.2042 65.1148 27.0201 63.3372C26.9321 62.5501 27.1669 61.7609 27.6707 61.1499C28.3398 60.3436 29.0698 60.1079 30.0527 60.0134Z" fill="#B0B0B0"/>
<path d="M30.0527 60.0134C32.4814 59.9944 34.9102 59.9905 37.3389 60.0017C38.2172 60.0029 40.2939 60.0588 41.0773 59.9395C41.739 60.0145 42.0144 60.0301 42.6791 59.9988L44.498 60.0145C44.781 60.0114 45.2454 60.0203 45.5121 59.9956C45.8183 59.9968 46.3853 59.9821 46.6703 60.012L47.2471 60.0049C47.4556 60.0157 47.9613 60.053 48.1429 60.0341L48.1749 60.0715C49.0919 60.0266 50.0093 59.9919 50.9272 59.9671L51.346 60.0612L51.9903 60.0189L53.595 60.0367L53.6614 60.0409C54.4182 60.0855 55.745 60.0201 56.5712 60.0151L62.9365 59.9831C65.6945 59.9693 68.9162 59.5256 69.066 63.3581C69.0739 63.5597 68.8211 64.0599 68.7332 64.246C68.1685 65.441 67.1829 65.8505 65.9505 66.0781C53.9963 65.962 42.0413 65.9441 30.0866 66.0244C28.5188 65.7565 27.2042 65.1148 27.0201 63.3372C26.9321 62.5501 27.1669 61.7609 27.6707 61.1499C28.3398 60.3436 29.0698 60.1079 30.0527 60.0134Z" fill="#B0B0B0"/>
<path d="M30.0527 60.0134C32.4814 59.9944 34.9102 59.9905 37.339 60.0017C38.2172 60.0029 40.294 60.0588 41.0774 59.9395C41.739 60.0145 42.0145 60.0301 42.6792 59.9988L44.498 60.0145C44.781 60.0114 45.2455 60.0203 45.5121 59.9956C45.8184 59.9968 46.3854 59.9821 46.6704 60.012L47.2471 60.0049C47.4556 60.0157 47.9613 60.053 48.1429 60.0341L48.175 60.0715C48.4509 61.017 50.2514 62.4264 51.0511 62.9817C49.437 62.9125 47.8003 63.0288 46.1887 62.9782C41.7724 62.8393 37.3515 63.0693 32.9409 62.9455C31.2532 62.898 30.2029 61.6604 30.0527 60.0134Z" fill="#E3E3E3"/>
<path d="M36.1759 18.1143L36.3945 18.2784C38.8508 18.0319 40.6039 18.3046 41.8896 20.6776C42.249 22.4413 41.9727 23.1573 41.3751 24.8185L41.427 24.8509C41.736 24.7774 42.1196 24.1931 42.2866 23.9079C43.977 21.0199 48.0571 20.412 50.3993 22.9553L50.4097 23.0031C51.1403 26.2108 51.7869 27.3864 49.8623 30.5414C47.8962 33.7642 44.7194 35.3655 41.3449 36.7228C39.8969 37.3052 33.4902 38.7394 33.2412 40.2449C33.1821 40.2949 33.0548 40.414 32.993 40.4384C32.6931 40.698 32.4542 40.8869 32.1339 41.121C33.0327 43.6041 32.3658 43.5631 32.1772 45.8026C33.1871 44.6508 33.6989 43.8544 34.9901 42.9597C35.1959 42.8839 35.6719 42.6199 35.8888 42.5065L35.9593 42.4955C36.4056 42.4231 36.824 42.193 37.2175 42.1401C40.6718 41.676 42.6238 44.0715 43.821 46.8968C44.25 47.9184 44.5045 49.9744 45.1903 50.3813C45.2249 51.3467 45.8414 55.0244 46.1185 56.0815C46.2399 57.2655 46.4409 58.8584 46.6705 60.0121C46.3855 59.9822 45.8185 59.9969 45.5123 59.9957C45.3287 58.6814 45.1219 55.6745 44.8735 54.6497C44.5646 55.2606 44.5336 59.0731 44.4982 60.0146L42.6793 59.9988C42.0146 60.0302 41.7392 60.0146 41.0775 59.9395C40.8366 59.3128 40.5234 57.9422 40.3264 57.2358C39.8322 55.4793 39.3026 53.7329 38.738 51.9977C35.6165 56.1787 30.293 57.306 26.0025 59.8481C25.2301 60.3058 24.6039 60.7839 24.0459 61.4906C23.02 56.1551 21.4759 50.1621 23.8551 44.9204C22.7925 45.1826 21.6795 45.5984 20.5656 45.7891C17.4908 46.3153 15.0002 46.4077 12.0753 47.7186C12.0993 47.5158 12.1602 47.2699 12.2044 47.0665L12.0768 46.926C11.7584 46.9293 11.7032 46.9714 11.4375 47.121C12.4064 40.1424 14.9272 31.3709 21.3688 27.6518C23.3137 26.529 26.6733 25.9702 27.9299 28.3506C28.9961 30.3704 27.1029 32.2087 26.5553 34.0351L26.9542 34.0028C27.6278 33.6109 28.1974 33.1781 28.9103 32.8505C29.0009 32.6119 28.7756 31.7268 28.7508 31.3944C28.5247 28.3733 28.9631 24.6575 30.8445 22.2274C30.9134 22.0558 31.2892 21.6038 31.4099 21.4335C32.435 19.9868 34.0468 19.2967 35.5739 18.5236C35.8278 18.3951 35.9847 18.3345 36.1759 18.1143ZM39.5817 50.7742C40.5055 53.4305 41.5774 56.0017 42.2297 58.7549C42.2861 58.9929 42.4845 59.7814 42.6367 59.9353C42.639 56.8226 43.0207 51.9554 43.5534 48.877L43.5204 48.8167C42.9996 47.855 42.7131 46.7313 42.115 45.7337C40.6166 43.2334 38.9155 42.343 36.1019 43.3533C37.5612 43.7483 38.9543 43.9774 39.7834 45.4294C40.4826 46.6542 40.2909 48.4127 39.9163 49.7172C39.8127 50.072 39.7012 50.4244 39.5817 50.7742ZM40.2683 23.2407L40.6547 23.1968C40.4922 22.2764 40.3084 21.942 39.8333 21.1794L39.7263 21.1408C39.7769 21.9062 40.1382 22.5097 40.2683 23.2407ZM26.0994 56.5019L27.1433 54.4353C27.3984 54.0586 27.7878 53.2866 28.0187 52.8568L28.25 53.1393C28.4246 53.7365 28.4783 54.7812 28.4608 55.4137C28.4494 55.8285 28.1281 57.1202 28.2057 57.347C28.9965 56.494 28.6533 54.0197 28.4197 52.979L28.2933 52.7378C28.312 52.1753 29.8722 49.7364 30.4988 49.674C30.934 49.9519 30.9981 50.5448 31.1501 51.0028C31.7199 52.7193 31.7515 54.0015 31.5475 55.7795C32.3103 54.0867 32.11 52.2745 31.3709 50.6233C30.5525 48.7951 30.6291 48.7557 31.9001 47.2293C33.8665 48.6832 34.9109 49.4786 35.3411 51.99L35.3619 53.1341C35.3467 53.3007 35.3675 53.3691 35.3971 53.5297L35.4968 53.4196C35.5941 52.9599 35.7378 51.9157 35.5575 51.4937C35.194 49.3141 34.0471 48.1296 32.2093 47.0089C32.7122 46.8038 33.2237 46.6206 33.7425 46.46C35.1687 46.0209 36.3963 45.7976 37.764 46.5228C38.1173 46.821 38.5167 47.0897 38.896 47.3565C38.6095 46.9413 38.3712 46.6864 38.0355 46.3178C35.156 44.5892 33.4366 46.8048 32.0445 46.2266C31.0023 45.2372 32.0452 42.7587 28.527 41.1402C31.2176 43.4503 30.5393 43.3032 31.5247 46.6184C29.9734 45.4305 28.532 44.3239 26.4421 44.6232C25.9806 44.6892 25.2781 44.8689 24.9126 45.1486L24.937 45.248C25.5077 45.1764 25.8547 44.9823 26.551 44.9158C28.2814 44.7503 29.9968 45.9848 31.3803 46.9668C31.0618 47.3444 30.5998 47.9225 30.2646 48.2512C28.8658 48.4 27.8456 48.4919 26.5709 49.0787L26.4898 49.1928C26.7422 49.2125 29.3942 48.783 30.0962 48.7263C29.3595 49.6894 28.812 50.8629 28.1826 51.9083C28.0127 52.1903 27.6623 52.5169 27.6138 52.6005L27.5099 52.4458L27.3973 52.6108L27.4532 52.7749C27.5301 53.1856 27.1901 53.6958 26.9688 54.0889C26.6875 54.6593 26.0702 55.8761 25.9023 56.4598C25.3861 57.5269 24.665 59.0158 24.4797 60.181C25.1071 58.9618 25.5401 57.7326 26.0994 56.5019ZM44.8096 25.7795C45.3742 25.7432 45.5437 25.7336 46.1113 25.8205L46.3067 25.5318C45.8335 25.4761 45.0989 25.4568 44.6061 25.4288L44.8096 25.7795Z" fill="#477E35"/>
<path d="M40.2686 23.2405C40.1385 22.5096 39.7772 21.906 39.7266 21.1406L39.8336 21.1792C40.3087 21.9418 40.4925 22.2762 40.655 23.1967L40.2686 23.2405Z" fill="#E3F8E0" fill-opacity="0.988235"/>
<path d="M11.4375 47.121C12.4064 40.1424 14.9272 31.3709 21.3688 27.6519C23.3137 26.529 26.6733 25.9703 27.9299 28.3507C28.9961 30.3704 27.1029 32.2088 26.5553 34.0351L26.9542 34.0029C27.6278 33.611 28.1974 33.1781 28.9102 32.8506C28.9854 33.1903 29.1882 33.814 29.058 34.0972C29.1929 34.1816 29.2538 34.2047 29.3396 34.3416C29.5631 34.8488 29.8199 35.9277 29.8687 36.4766C30.0543 36.7871 30.2048 36.9641 30.1554 37.3183C30.5273 38.2463 30.9507 39.3465 31.1207 40.32C29.9153 39.9398 28.6083 40.0528 27.4861 40.6344C26.1614 41.3351 24.2734 43.4988 23.8551 44.9204C22.7925 45.1826 21.6795 45.5984 20.5656 45.7891C17.4907 46.3153 15.0002 46.4078 12.0753 47.7187C12.0993 47.5158 12.1602 47.27 12.2044 47.0665L12.0768 46.926C11.7584 46.9294 11.7032 46.9715 11.4375 47.121Z" fill="#305C2C"/>
<path d="M25.8495 35.2179L25.9365 34.9762C26.7029 34.7655 29.5178 36.6617 30.1563 37.318C30.5281 38.2459 30.9516 39.3462 31.1216 40.3197C29.9162 39.9394 28.6092 40.0525 27.487 40.6341C26.1623 41.3348 24.2743 43.4985 23.856 44.9201C22.7934 45.1823 21.6804 45.5981 20.5665 45.7888C17.4916 46.315 15.0011 46.4074 12.0762 47.7183C12.1002 47.5155 12.1611 47.2697 12.2053 47.0662L12.0777 46.9257C12.7332 45.6584 16.5661 41.9493 17.7108 40.8977C15.729 41.0574 14.9589 41.2565 13.3184 42.3839C14.0819 40.9363 16.2594 40.6228 17.7346 40.5227L17.8073 40.7105C18.0593 40.7218 18.2317 40.7206 18.4805 40.7783L18.6264 40.7118C18.968 40.3373 21.188 38.4424 21.6174 38.3171L21.7128 38.5078C21.6677 38.7922 21.669 40.1264 21.6624 40.5114C21.6349 42.1208 21.0503 43.1549 20.4262 44.6068C22.2119 42.3691 22.1252 40.9046 21.9993 38.161L21.9735 38.0569C22.098 37.798 24.9275 35.7638 25.4071 35.3731C25.4225 35.4079 25.4374 35.443 25.452 35.4782C26.1555 37.1913 25.9958 39.8654 25.2404 41.5367C25.0534 41.9503 24.7826 42.2578 24.5994 42.6812L24.715 42.6663C26.6505 40.6737 26.3758 37.7002 25.8495 35.2179Z" fill="#305C2C"/>
<path d="M13.3169 42.3841C14.0804 40.9365 16.2579 40.623 17.7331 40.5229L17.8058 40.7107C18.0578 40.722 18.2302 40.7208 18.479 40.7785L18.6249 40.712C18.789 41.654 18.074 43.9316 17.4579 44.7194C17.1765 45.0792 16.9908 45.2302 16.6348 45.5141C17.7876 43.6864 17.9489 43.1892 18.2954 41.0621C17.0268 41.926 13.1927 45.7416 12.2038 47.0664L12.0762 46.9259C12.7317 45.6586 16.5646 41.9495 17.7093 40.8979C15.7275 41.0576 14.9574 41.2567 13.3169 42.3841Z" fill="#FDFDFD"/>
<path d="M19.2089 30.576C22.8908 30.103 23.7345 31.421 25.6549 34.1764C25.8018 33.9763 25.7563 33.6685 25.7539 33.3982L25.9435 33.3892C26.2014 33.1519 26.2044 32.6208 26.2477 32.2477C26.2393 32.7343 26.1931 33.4354 26.313 33.8875C26.4165 33.9702 26.4332 34.0049 26.555 34.0352L26.9538 34.003C27.6275 33.6111 28.197 33.1783 28.9099 32.8507C28.9851 33.1905 29.1879 33.8142 29.0577 34.0973C29.1926 34.1818 29.2535 34.2048 29.3393 34.3417C29.5628 34.849 29.8196 35.9279 29.8684 36.4768C30.054 36.7873 30.2044 36.9643 30.1551 37.3185C29.5166 36.6621 26.7016 34.7659 25.9352 34.9767L25.8483 35.2184C26.3745 37.7007 26.6492 40.6741 24.7138 42.6668L24.5982 42.6816C24.7814 42.2582 25.0522 41.9507 25.2391 41.5372C25.9946 39.8658 26.1543 37.1918 25.4508 35.4786C25.4362 35.4435 25.4213 35.4084 25.4059 35.3735C24.9263 35.7643 22.0968 37.7985 21.9722 38.0574L21.9981 38.1615C22.124 40.905 22.2106 42.3695 20.425 44.6072C21.0491 43.1553 21.6337 42.1213 21.6612 40.5119C21.6678 40.1268 21.6665 38.7927 21.7116 38.5082L21.6162 38.3175C21.1868 38.4429 18.9668 40.3378 18.6252 40.7123L18.4793 40.7788C18.2305 40.721 18.0581 40.7222 17.8061 40.711L17.7334 40.5232C18.4992 40.4168 20.0168 38.6874 20.797 38.0859C21.0342 38.0015 21.0599 37.986 21.227 37.7982C22.1171 36.9997 23.238 36.1454 24.1845 35.3877C20.0455 34.2074 19.0718 34.2824 15.2871 35.7508C18.292 33.4102 21.2348 34.1181 24.5572 35.1345C24.8633 34.983 25.2778 34.8371 25.362 34.5035C23.6598 31.6771 22.5025 30.7722 19.2089 30.576Z" fill="#FDFDFD"/>
<path d="M27.7838 34.5934C28.2184 34.6159 28.931 34.4944 29.3397 34.3413C29.5632 34.8486 29.82 35.9275 29.8688 36.4764C28.8804 35.5444 27.7367 35.3153 27.0586 34.7514C27.1911 34.6377 27.5718 34.6237 27.7838 34.5934Z" fill="#305C2C"/>
<path d="M26.9551 34.0029C27.6288 33.611 28.1983 33.1781 28.9112 32.8506C28.9864 33.1903 29.1891 33.8141 29.0589 34.0972C28.6705 34.1254 27.9978 34.1542 27.6364 34.2214L26.9551 34.0029Z" fill="#305C2C"/>
<path d="M14.0645 39.1268C15.548 37.9243 19.5561 36.9385 21.228 37.798C21.0608 37.9859 21.0351 38.0014 20.798 38.0858C20.5366 37.941 20.0722 37.9795 19.7678 37.9506C17.7037 37.7548 15.968 38.4266 14.0645 39.1268Z" fill="#FDFDFD"/>
<path d="M25.7554 33.3977C25.7862 32.2758 26.1557 30.6625 25.7173 29.5485C25.6588 29.4001 24.9756 28.4698 24.8418 28.2868L24.9135 28.1685C26.3438 28.7626 26.342 30.9733 26.2492 32.2472C26.2059 32.6204 26.2029 33.1515 25.945 33.3887L25.7554 33.3977Z" fill="#FDFDFD"/>
<path d="M41.3755 24.8184L41.4274 24.8507C41.7364 24.7772 42.1201 24.193 42.287 23.9078C43.9774 21.0198 48.0575 20.4118 50.3998 22.9552L50.4102 23.003C51.1408 26.2107 51.7874 27.3863 49.8627 30.5413C47.8967 33.7641 44.7198 35.3653 41.3453 36.7227C39.8973 37.305 33.4907 38.7392 33.2417 40.2448C33.1825 40.2948 33.0553 40.4139 32.9934 40.4383C31.8807 40.4901 32.7623 40.5618 32.1783 39.9527C32.2224 39.7414 32.8521 38.1861 32.9836 37.8401L32.741 37.751C33.3061 36.1881 34.8455 33.0821 35.8404 31.7434C34.4047 32.374 32.8471 32.972 31.8168 34.2111C31.6085 34.4616 31.4422 34.7204 31.1684 34.9054L31.1559 34.7663C32.4328 32.7779 33.7592 32.1423 35.979 31.4225C36.1864 31.1688 36.4196 30.8338 36.6019 30.5604C37.5632 29.1192 38.631 27.9035 39.8316 26.6608C34.8423 26.7642 33.2988 27.4466 30.3086 31.1735C31.6445 27.7098 35.3361 26.2112 38.8512 26.271C39.5272 26.4116 40.2158 26.4828 40.9063 26.4837C40.9861 26.4836 40.96 26.4839 41.0557 26.5039L41.121 26.4886C41.2407 26.359 41.237 26.347 41.4075 26.2802L42.0595 26.2015C41.4856 25.8346 41.896 25.7337 41.2476 25.5851C41.33 25.5463 41.5128 25.426 41.5994 25.3722C41.5462 25.1185 41.5599 25.1959 41.3328 24.9822L41.3755 24.8184ZM44.81 25.7794C45.3747 25.743 45.5441 25.7335 46.1117 25.8204L46.3071 25.5316C45.834 25.4759 45.0993 25.4566 44.6065 25.4287L44.81 25.7794Z" fill="#488134"/>
<path d="M44.6055 25.4287C45.0983 25.4566 45.8329 25.476 46.3061 25.5317L46.1107 25.8204C45.5431 25.7335 45.3737 25.7431 44.809 25.7794L44.6055 25.4287Z" fill="#E3F8E0" fill-opacity="0.4"/>
<path d="M41.0557 26.5041L41.121 26.4888C41.2407 26.3592 41.237 26.3472 41.4075 26.2804C41.6881 26.5442 42.1982 26.7081 42.5433 26.863C43.8619 27.4546 45.0048 28.1254 45.4714 29.5908C45.9972 31.0177 45.7922 32.4498 44.9496 33.7335C44.9192 33.7787 44.8596 33.8034 44.8118 33.8266C44.7547 33.6376 45.1113 32.9328 45.2056 32.6175C45.8778 30.3678 44.9514 28.5111 42.9374 27.4291C42.3407 27.1084 41.7064 27.0538 41.1246 26.6333C40.6678 27.5399 43.0155 31.7168 39.9512 35.6037L39.7084 35.5091C41.6601 32.6228 41.3466 29.9407 40.5483 26.729C39.3335 27.9093 37.1092 30.4151 36.3386 31.8932C36.969 33.1892 36.7994 36.377 35.82 37.4199L35.7409 37.3868C36.4737 35.2865 36.5398 34.3363 36.267 32.05C35.1591 33.4153 33.6779 36.1874 32.9836 37.8403L32.741 37.7512C33.3061 36.1883 34.8455 33.0823 35.8404 31.7436C34.4047 32.3742 32.8471 32.9722 31.8168 34.2113C31.6085 34.4618 31.4422 34.7207 31.1684 34.9056L31.1559 34.7665C32.4328 32.7782 33.7592 32.1425 35.979 31.4227C36.1864 31.169 36.4196 30.834 36.6019 30.5606C37.5632 29.1194 38.631 27.9037 39.8316 26.661C34.8423 26.7644 33.2988 27.4468 30.3086 31.1737C31.6445 27.71 35.3361 26.2114 38.8512 26.2713C39.5272 26.4118 40.2158 26.483 40.9063 26.4839C40.9861 26.4838 40.96 26.4842 41.0557 26.5041Z" fill="#FDFDFD"/>
<path d="M41.5998 25.3724C43.0391 24.6436 44.1389 23.2813 45.7998 22.962C47.0113 22.7292 48.1058 22.9358 49.096 23.6712C45.0385 22.3525 44.4846 24.2719 41.3031 25.9034C42.6544 25.6068 43.225 25.5075 44.6069 25.429L44.8105 25.7797C44.2144 25.8614 42.4408 25.9852 42.0599 26.2018C41.486 25.8349 41.8964 25.7339 41.248 25.5854C41.3305 25.5466 41.5133 25.4263 41.5998 25.3724Z" fill="#FDFDFD"/>
<path d="M46.3067 25.5317C47.0269 25.649 47.4535 25.7557 48.0395 26.22C49.1181 27.0747 50.067 29.0291 48.9937 30.2251L48.9248 30.1665C49.172 29.0982 49.5192 28.8582 48.7214 27.5116C48.1115 26.482 47.1913 26.1242 46.1113 25.8205L46.3067 25.5317Z" fill="#FDFDFD"/>
<path d="M39.7082 35.5088L39.951 35.6034C39.7122 35.9834 39.0607 36.5055 38.7031 36.8053C39.0802 36.232 39.2424 36.0111 39.7082 35.5088Z" fill="#FDFDFD"/>
<path d="M43.5537 48.877C44.1597 50.2779 44.4058 53.1266 44.8717 54.6305C44.8724 54.6369 44.8731 54.6432 44.8738 54.6496C44.5649 55.2606 44.5339 59.073 44.4985 60.0145L42.6796 59.9988C42.0149 60.0301 41.7395 60.0145 41.0778 59.9395C40.8369 59.3127 40.5237 57.9422 40.3267 57.2357C39.8325 55.4792 39.3029 53.7328 38.7383 51.9976C39.0321 51.525 39.2258 51.2087 39.582 50.7742C40.5058 53.4305 41.5777 56.0017 42.23 58.7548C42.2864 58.9929 42.4848 59.7814 42.637 59.9352C42.6393 56.8225 43.021 51.9553 43.5537 48.877Z" fill="#305C2C"/>
<path d="M40.6546 23.1968C40.7041 23.8217 40.7361 24.9258 40.9468 25.4667C41.1267 25.5954 41.0299 25.5582 41.2471 25.5852C41.8955 25.7337 41.485 25.8347 42.059 26.2016L41.4069 26.2803C41.2365 26.3471 41.2402 26.3591 41.1204 26.4887L41.0552 26.504C40.9595 26.484 40.9855 26.4837 40.9058 26.4837C40.2153 26.4829 39.5267 26.4117 38.8507 26.2711L40.1527 26.1523C39.5415 25.5982 37.217 24.2853 36.3111 24.13C33.999 23.7334 33.0775 24.0774 31.207 25.2477C33.8958 22.155 37.8429 23.8535 40.5493 25.8792C40.4373 25.0259 40.372 24.1124 40.2683 23.2407L40.6546 23.1968Z" fill="#FDFDFD"/>
<path d="M32.1782 39.9527L32.0567 40.0471L31.9961 39.8779C32.0937 39.3389 32.4858 38.235 32.7408 37.751L32.9834 37.84C32.8519 38.1861 32.2222 39.7414 32.1782 39.9527Z" fill="#FDFDFD"/>
<path d="M28.5265 41.1401C32.0448 42.7586 31.0018 45.2371 32.044 46.2265C33.4361 46.8048 35.1555 44.5891 38.035 46.3178L37.7635 46.5227C36.3958 45.7975 35.1683 46.0209 33.742 46.46C33.2232 46.6206 32.7117 46.8038 32.2089 47.0089C34.0466 48.1296 35.1936 49.314 35.557 51.4936C35.5367 51.7758 35.4976 52.1037 35.5428 52.3787L35.3407 51.9899C34.9105 49.4785 33.8661 48.6832 31.8997 47.2293C30.6286 48.7556 30.552 48.795 31.3705 50.6232C32.1096 52.2745 32.3098 54.0866 31.5471 55.7795C31.7511 54.0014 31.7195 52.7192 31.1497 51.0027C30.9976 50.5448 30.9336 49.9519 30.4983 49.6739C29.8718 49.7364 28.3116 52.1753 28.2928 52.7378L28.4192 52.979L28.2495 53.1393L28.0182 52.8567L27.6133 52.6004C27.6619 52.5169 28.0122 52.1903 28.1821 51.9083C28.8115 50.8629 29.359 49.6894 30.0957 48.7263C29.3937 48.7829 26.7417 49.2125 26.4894 49.1927L26.5705 49.0786C27.8452 48.4918 28.8654 48.4 30.2641 48.2512C30.5994 47.9225 31.0614 47.3443 31.3798 46.9668C29.9964 45.9848 28.2809 44.7503 26.5506 44.9157C25.8542 44.9823 25.5072 45.1764 24.9366 45.248L24.9121 45.1485C25.2776 44.8689 25.9801 44.6891 26.4416 44.6231C28.5315 44.3239 29.9729 45.4304 31.5243 46.6183C30.5389 43.3031 31.2172 43.4502 28.5265 41.1401Z" fill="#488134" fill-opacity="0.0117647"/>
<path d="M36.5332 19.4424C37.583 19.5268 39.2634 19.6893 39.4786 20.952C38.3125 20.1385 38.1528 19.9156 36.6244 19.6171L36.5332 19.4424Z" fill="#FDFDFD"/>
<path d="M28.4194 52.979C28.653 54.0196 28.9962 56.494 28.2054 57.347C28.1278 57.1201 28.4491 55.8284 28.4605 55.4137C28.4781 54.7812 28.4243 53.7365 28.2497 53.1393L28.4194 52.979Z" fill="#8AB578" fill-opacity="0.117647"/>
<path d="M24.748 54.3148C24.7918 54.2416 24.837 54.1692 24.8836 54.0978C25.3624 53.3679 26.686 52.6191 27.5112 52.4458L27.3986 52.6108L27.4545 52.775C26.3524 53.2835 25.7546 53.6555 24.748 54.3148Z" fill="#FDFDFD"/>
<path d="M25.903 56.46L26.1002 56.5021C25.5409 57.7328 25.1078 58.962 24.4805 60.1812C24.6657 59.016 25.3868 57.5271 25.903 56.46Z" fill="#34632D" fill-opacity="0.145098"/>
<path d="M26.9688 54.0889L27.1434 54.4352L26.0995 56.5018L25.9023 56.4597C26.0703 55.876 26.6876 54.6592 26.9688 54.0889Z" fill="#E3F8E0" fill-opacity="0.478431"/>
<path d="M27.4532 52.775L27.3973 52.6108L27.5099 52.4458L27.6137 52.6005L28.0187 52.8568C27.7877 53.2866 27.3984 54.0586 27.1433 54.4353L26.9688 54.089C27.1901 53.6958 27.53 53.1856 27.4532 52.775Z" fill="#D4EFCE" fill-opacity="0.85098"/>
<path d="M35.5581 51.4937C35.7384 51.9157 35.5947 52.9599 35.4974 53.4196L35.3977 53.5297C35.3681 53.3691 35.3473 53.3007 35.3626 53.1341C35.5405 52.8712 35.5252 52.6962 35.5439 52.3787C35.4987 52.1038 35.5378 51.7758 35.5581 51.4937Z" fill="#488134" fill-opacity="0.596078"/>
<path d="M38.0352 46.3179C38.3709 46.6865 38.6092 46.9414 38.8957 47.3565C38.5164 47.0897 38.1169 46.821 37.7637 46.5228L38.0352 46.3179Z" fill="#488134" fill-opacity="0.0705882"/>
<path d="M35.3418 51.9897L35.5439 52.3785C35.5253 52.696 35.5405 52.871 35.3626 53.1339L35.3418 51.9897Z" fill="#488134" fill-opacity="0.439216"/>
<path d="M61.5977 41.1331C63.5639 38.4385 66.4075 38.5462 68.7954 40.5529C69.2944 40.9723 71.2636 43.1908 71.6948 43.1962C71.9109 42.5814 70.8514 39.5335 70.849 38.59C70.8448 37.0153 71.3791 35.7545 72.8781 35.0216C77.2199 33.2363 81.2688 38.0043 82.7734 41.3902C86.0006 48.6525 84.2873 56.264 83.0767 63.6813C82.0809 62.8481 80.9207 61.8551 79.793 61.246C74.8148 58.5572 69.0585 57.2487 64.7971 53.2811C64.0574 52.5925 63.1086 51.3388 62.4475 50.497C62.6724 50.179 62.7641 48.9841 62.8419 48.5819C63.3757 45.8231 62.7753 43.6306 61.5977 41.1331ZM74.3748 47.3311C73.9828 49.1898 73.137 50.1744 72.8712 52.4746C72.6871 53.8333 72.8428 54.7931 73.3163 56.0871C73.3884 56.374 73.4167 56.5925 73.6265 56.8052L73.7061 56.7092C73.6596 56.4151 73.6423 56.3283 73.545 56.0427C73.1842 54.9012 73.1701 53.9308 73.267 52.7564C73.4876 51.3284 74.1038 49.195 74.8013 47.9547C75.3981 48.9827 77.1359 51.2676 77.4856 52.2015C76.6238 54.8493 76.8015 56.7164 77.9769 59.2051C77.2281 55.917 77.1933 55.8375 77.7321 52.4585C78.8962 54.795 81.352 58.9403 82.0759 61.4207L82.3768 62.2264C82.4631 62.4795 82.5086 62.6848 82.701 62.874C82.7788 62.5506 82.6433 62.2556 82.5332 61.9398L82.3577 61.5581C81.2569 58.2956 80.0648 55.8259 78.4844 52.7621C81.0124 53.4558 81.6154 54.4706 83.2982 56.1331C82.4303 54.46 81.3707 53.3452 79.5704 52.7098C77.4514 51.962 76.9401 49.8489 75.7332 48.063C76.4875 48.3349 77.5747 48.5366 78.3761 48.7092C80.6982 49.2093 81.6089 50.0422 83.352 51.4542C80.5466 47.2986 76.3272 48.5837 74.9715 47.0382C74.6287 46.4711 73.9803 45.4092 73.5073 44.9939L73.5391 44.8115C73.8322 44.6258 73.8834 44.7016 74.2326 44.7009C77.0455 44.6953 80.2 44.9304 82.4252 46.8561C82.6563 47.056 83.0344 47.5436 83.3057 47.5918C83.301 47.5562 83.2964 47.5206 83.2917 47.4849C81.8875 45.2234 78.4429 44.2361 76.0323 44.1719C74.1913 44.1229 73.5404 44.5042 72.3626 43.8084C74.1841 42.3624 75.1609 41.1328 77.3354 40.3265C77.4166 40.3479 77.4135 40.3562 77.489 40.3449C79.0986 40.1053 79.7842 40.3523 81.2521 40.8744C80.5758 40.3225 79.7611 39.9669 78.8967 39.8461C78.4138 39.7774 77.6833 39.773 77.2754 40.0819C76.1104 40.4355 76.1493 40.4974 75.2199 41.0424C74.4025 41.5219 72.203 43.7676 71.3922 43.4244C70.6426 43.1072 69.1947 42.2565 68.2724 41.8684C66.7509 41.2255 65.9974 40.9893 64.33 41.3421C63.6774 41.5375 63.3179 41.7519 62.721 42.0746C63.3279 41.9524 63.8347 41.8205 64.4322 41.6568C66.0408 41.4879 66.8387 41.7818 68.3509 42.3159C68.7952 42.5476 70.5631 43.325 70.719 43.514C70.5435 43.8909 69.8821 43.7954 69.4831 43.8855C69.0851 43.8743 68.4336 43.9164 68.0865 44.1092C64.8961 45.1304 64.2302 46.5102 63.8939 49.685C64.7003 47.6794 64.5486 45.9057 67.1358 44.7572C67.4737 44.6072 67.9704 44.4406 68.3305 44.3949C68.8252 44.4324 69.9102 44.1868 70.4493 44.0785C70.83 43.9849 71.7332 43.7119 72.0686 43.841C72.069 44.0124 71.968 44.0979 71.8572 44.2379C70.1472 46.2801 68.1777 49.0515 68.4167 51.8559C68.4633 52.4022 68.6659 53.8415 68.9823 54.259L69.0968 54.2668C69.0155 53.7763 68.8504 53.1269 68.8022 52.6821C68.5383 50.2464 69.3792 48.4087 70.8127 46.4929C71.1374 46.0589 71.9671 44.9664 72.1485 44.5125C72.6035 44.7102 72.6845 45.0541 72.8757 45.1995C73.0464 45.4505 73.9407 46.7876 74.0841 46.9081C74.1374 46.9869 74.3251 47.2776 74.3748 47.3311ZM73.7418 37.8789C73.8797 37.6724 74.1011 37.4344 74.2675 37.2424L74.094 37.006C73.9266 37.2022 73.6327 37.5256 73.5126 37.736C73.3164 37.9436 73.1305 38.2194 73.0808 38.5052C72.4313 40.0396 72.466 41.3236 72.0469 42.8821C72.6495 42.5941 73.0798 39.392 73.3609 38.5345C73.5431 38.3264 73.6216 38.1269 73.7418 37.8789Z" fill="#34632D"/>
<path d="M74.084 46.9082C74.488 47.0667 74.5413 47.0824 74.9713 47.0383C76.327 48.5838 80.5465 47.2987 83.3518 51.4543C81.6087 50.0423 80.698 49.2094 78.376 48.7093C77.5746 48.5367 76.4874 48.335 75.733 48.0631C76.94 49.849 77.4513 51.9621 79.5702 52.7099C81.3705 53.3453 82.4302 54.4601 83.298 56.1332C81.6153 54.4707 81.0123 53.4559 78.4842 52.7622C80.0647 55.826 81.2568 58.2957 82.3576 61.5582L82.0758 61.4208C81.3519 58.9404 78.8961 54.7951 77.732 52.4586C77.1932 55.8376 77.228 55.9171 77.9768 59.2052C76.8013 56.7165 76.6237 54.8494 77.4854 52.2016C77.1357 51.2677 75.398 48.9828 74.8012 47.9548L74.681 47.9482L74.8137 47.8994C74.686 47.6865 74.5344 47.5207 74.3747 47.3312C74.3249 47.2777 74.1372 46.987 74.084 46.9082Z" fill="#305C2C" fill-opacity="0.0235294"/>
<path d="M77.2764 40.082L77.3364 40.3266C75.162 41.133 74.1851 42.3625 72.3637 43.8085C73.5414 44.5043 74.1923 44.123 76.0334 44.1721C78.444 44.2363 81.8886 45.2236 83.2927 47.4851C83.2974 47.5207 83.302 47.5563 83.3067 47.592C83.0355 47.5438 82.6574 47.0562 82.4263 46.8562C80.2011 44.9305 77.0466 44.6955 74.2337 44.7011C73.8845 44.7018 73.8333 44.6259 73.5401 44.8116L73.5083 44.9941L73.3506 45.2091L73.0904 45.0981L72.8767 45.1997C72.6856 45.0543 72.6046 44.7104 72.1495 44.5127C71.9826 44.4468 71.9603 44.3849 71.8583 44.2381C71.9691 44.0981 72.07 44.0125 72.0697 43.8411C71.7342 43.712 70.831 43.985 70.4504 44.0787C70.1076 44.0938 69.9006 44.1187 69.5651 44.0373L69.4841 43.8857C69.8831 43.7956 70.5445 43.891 70.72 43.5141C70.5641 43.3251 68.7963 42.5478 68.352 42.316L68.2734 41.8685C69.1957 42.2567 70.6436 43.1073 71.3933 43.4246C72.2041 43.7677 74.4036 41.522 75.221 41.0426C76.1504 40.4975 76.1115 40.4357 77.2764 40.082Z" fill="#8AB578" fill-opacity="0.0196078"/>
<path d="M72.148 44.5124C71.9666 44.9663 71.1369 46.0588 70.8123 46.4928C69.3787 48.4085 68.5379 50.2463 68.8018 52.6819C68.85 53.1268 69.0151 53.7762 69.0964 54.2667L68.9819 54.2588C68.6655 53.8414 68.4629 52.4021 68.4163 51.8558C68.1772 49.0514 70.1467 46.2799 71.8567 44.2378C71.9587 44.3846 71.9811 44.4465 72.148 44.5124Z" fill="#33602F" fill-opacity="0.0156863"/>
<path d="M68.0871 44.1094L68.3839 44.173C68.3726 44.3122 68.3959 44.2923 68.3312 44.395C67.9711 44.4408 67.4744 44.6074 67.1365 44.7574C64.5493 45.9059 64.701 47.6796 63.8945 49.6852C64.2308 46.5104 64.8967 45.1306 68.0871 44.1094Z" fill="#E3F8E0" fill-opacity="0.0235294"/>
<path d="M77.2754 40.082C77.6833 39.7731 78.4138 39.7775 78.8967 39.8462C79.7611 39.9669 80.5759 40.3226 81.2521 40.8745C79.7842 40.3523 79.0986 40.1054 77.4891 40.345C77.4135 40.3563 77.4166 40.3479 77.3354 40.3266L77.2754 40.082Z" fill="#D4EFCE" fill-opacity="0.945098"/>
<path d="M72.8721 52.4746C73.1104 52.5874 73.1386 52.5547 73.2679 52.7564C73.171 53.9308 73.1852 54.9012 73.5459 56.0427L73.3173 56.0871C72.8437 54.7931 72.688 53.8333 72.8721 52.4746Z" fill="#34632D" fill-opacity="0.0313725"/>
<path d="M68.0859 44.1092C68.4331 43.9164 69.0846 43.8742 69.4825 43.8855L69.5635 44.0371C69.899 44.1185 70.106 44.0936 70.4488 44.0785C69.9097 44.1868 68.8247 44.4323 68.33 44.3948C68.3947 44.2921 68.3714 44.3119 68.3827 44.1728L68.0859 44.1092Z" fill="#F9FAF9" fill-opacity="0.478431"/>
<path d="M74.0938 37.006C74.6955 36.4216 75.0525 36.324 75.8237 36.0347C75.3084 36.4355 74.7875 36.8496 74.2673 37.2424L74.0938 37.006Z" fill="#FDFDFD"/>
<path d="M62.7207 42.0748C63.3176 41.7522 63.6771 41.5378 64.3297 41.3423L64.4319 41.657C63.8345 41.8207 63.3276 41.9526 62.7207 42.0748Z" fill="#FDFDFD" fill-opacity="0.0509804"/>
<path d="M73.0801 38.5051C73.1298 38.2192 73.3157 37.9435 73.5119 37.7358L73.7411 37.8788C73.6208 38.1268 73.5424 38.3263 73.3602 38.5344L73.0801 38.5051Z" fill="#E3F8E0" fill-opacity="0.694118"/>
<path d="M74.095 37.0063L74.2685 37.2427C74.1021 37.4347 73.8808 37.6727 73.7429 37.8793L73.5137 37.7363C73.6338 37.5259 73.9277 37.2025 74.095 37.0063Z" fill="#E3F8E0" fill-opacity="0.439216"/>
<path d="M82.5334 61.9399C82.6435 62.2558 82.779 62.5507 82.7011 62.8742C82.5088 62.685 82.4633 62.4797 82.377 62.2265L82.5334 61.9399Z" fill="#305C2C" fill-opacity="0.72549"/>
<path d="M73.3164 56.0873L73.5451 56.043C73.6424 56.3285 73.6597 56.4153 73.7062 56.7094L73.6266 56.8054C73.4168 56.5927 73.3885 56.3742 73.3164 56.0873Z" fill="#34632D" fill-opacity="0.317647"/>
<path d="M82.0762 61.4209L82.358 61.5583L82.5335 61.94L82.377 62.2266L82.0762 61.4209Z" fill="#305C2C" fill-opacity="0.454902"/>
<path d="M63.9233 23.9428C63.1213 22.6845 62.1224 21.3306 62.5159 19.7786C63.1097 17.4366 66.0969 17.0328 68.0951 17.566C69.3215 17.8933 70.2552 18.3176 71.258 19.0972C72.5082 20.0279 73.4076 21.2696 74.4785 22.401C75.7911 23.7876 77.3624 25.0218 78.35 26.6629C79.6601 28.8401 80.0739 31.4001 80.5749 33.8481C76.8209 32.4271 75.7483 32.73 71.7854 33.4825C71.1715 33.5991 69.7224 33.8591 69.1283 33.8584C68.0424 34.0169 65.8723 34.0339 64.8352 33.8068C66.1382 35.8138 66.3582 36.9073 67.3511 38.6439C64.4345 37.8645 62.4921 38.6801 59.7248 39.5292C59.141 39.4447 58.5549 39.3763 57.9673 39.324L57.8947 39.1244C58.1753 38.5282 58.8901 38.7611 59.1266 38.4799C58.9777 38.24 58.934 38.2878 58.6158 38.1705C58.6875 37.6373 59.5692 35.5278 59.9263 35.1513C59.9068 35.1231 59.8722 35.0043 59.8596 34.9658L60.0699 34.8541C60.317 34.3609 60.4396 33.8037 60.7747 33.1293L59.8735 32.5186C59.6697 33.0012 59.1914 34.3758 58.8285 34.5717L58.7655 34.7524L58.5205 34.8607L58.7122 34.9519C58.6689 35.2619 57.714 37.1289 57.5177 37.5649L57.3205 37.6855L57.2401 37.8511C57.3335 38.3009 56.2702 39.8914 56.2277 40.3081C55.8399 40.2243 55.5167 40.2791 55.1248 40.2407C54.4631 40.1758 53.7998 40.097 53.1405 40.0097C52.8621 40.5109 52.6788 40.7856 52.3471 41.249C51.7961 41.3629 51.1037 41.6705 50.6384 41.6262C51.0397 40.894 51.3884 40.2671 51.8439 39.5624C50.7914 39.1396 49.6915 38.266 49.2016 37.2332C48.8299 36.4463 48.7876 35.5436 49.084 34.7254C49.8668 32.5801 52.0978 32.6113 53.9018 33.2981C51.1836 30.9604 51.4995 28.6858 55.1789 28.023C54.7723 26.5526 54.7778 26.1237 55.0494 24.6241C56.5032 21.6183 59.8881 20.7687 62.5883 22.8271C63.043 23.1738 63.4697 23.5806 63.9233 23.9428Z" fill="#488134"/>
<path d="M55.1789 28.0229C54.7723 26.5526 54.7778 26.1236 55.0494 24.624L55.1052 24.6894C55.6252 25.311 55.6433 26.889 56.0386 27.7382C57.4764 30.8272 61.2904 32.9006 64.5761 33.2861C65.8086 33.4307 67.3422 33.4692 68.5369 33.5268C68.2426 33.7056 66.4643 33.5463 65.8526 33.6426C66.7477 34.1629 68.128 33.4666 69.1283 33.8584C68.0424 34.0168 65.8723 34.0339 64.8352 33.8067C66.1382 35.8137 66.3582 36.9072 67.3511 38.6439C64.4345 37.8644 62.4921 38.6801 59.7248 39.5291C59.141 39.4447 58.5549 39.3762 57.9673 39.3239L57.8947 39.1243C58.1753 38.5282 58.8901 38.7611 59.1266 38.4799C58.9777 38.2399 58.934 38.2877 58.6158 38.1704C58.6875 37.6373 59.5692 35.5277 59.9263 35.1512C59.9068 35.1231 59.8722 35.0042 59.8596 34.9658L60.0699 34.854C60.317 34.3608 60.4396 33.8036 60.7747 33.1292L59.8735 32.5185C59.6697 33.0011 59.1914 34.3757 58.8285 34.5716L58.7655 34.7524L58.5205 34.8607L58.7122 34.9519C58.6689 35.2618 57.714 37.1289 57.5177 37.5648L57.3205 37.6855L57.2401 37.851C57.3335 38.3008 56.2702 39.8913 56.2277 40.308C55.8399 40.2242 55.5167 40.2791 55.1248 40.2406C54.4631 40.1757 53.7998 40.097 53.1405 40.0096C52.8621 40.5108 52.6788 40.7856 52.3471 41.249C51.7961 41.3628 51.1037 41.6704 50.6384 41.6262C51.0397 40.894 51.3884 40.2671 51.8439 39.5623C50.7914 39.1395 49.6915 38.266 49.2016 37.2331C48.8299 36.4463 48.7876 35.5436 49.084 34.7254C49.8668 32.58 52.0978 32.6112 53.9018 33.2981C51.1836 30.9604 51.4995 28.6857 55.1789 28.0229Z" fill="#34632D"/>
<path d="M55.0946 33.7923C54.9271 33.0866 54.4155 29.512 55.7419 29.7207C54.8351 31.6408 55.0067 31.6414 55.4352 33.7578C55.2358 33.8015 55.1157 33.7893 55.002 33.9185L55.3726 34.0541L55.4307 34.3181L55.5297 34.2966C56.1156 34.3944 58.024 34.6877 58.5193 34.8606L58.7109 34.9518C58.6677 35.2618 57.7127 37.1288 57.5164 37.5648L57.3192 37.6854L57.2388 37.851C55.8968 37.061 55.5154 35.5284 55.1123 34.1536C52.9892 35.8156 52.6378 35.8252 53.0032 38.5439C52.4677 38.2443 52.4675 37.1775 52.5617 36.6487C52.7651 35.5082 53.7848 34.7397 54.6841 34.1211C53.6978 34.1454 52.7653 34.0935 51.7981 34.2495C51.1182 34.3592 50.6544 35.0845 50.2314 35.1131L50.1875 35.029C51.1362 33.5354 53.564 33.7802 55.0946 33.7923Z" fill="#FDFDFD"/>
<path d="M55.5293 34.2969C56.1152 34.3947 58.0236 34.6879 58.5189 34.8609L58.7105 34.9521C58.6673 35.262 57.7124 37.1291 57.516 37.565L57.3189 37.6857C56.0475 35.9814 56.1825 36.6855 55.5293 34.2969Z" fill="#34632D"/>
<path d="M60.0698 34.854C61.9457 35.3614 65.0063 36.4517 66.3737 37.8245C64.4851 36.8639 62.6852 35.98 60.6374 35.4059C60.4 35.3393 60.1508 35.2514 59.9261 35.1512C59.9066 35.1231 59.872 35.0042 59.8594 34.9658L60.0698 34.854Z" fill="#FDFDFD"/>
<path d="M55.5296 34.2967L55.4306 34.3182L55.3725 34.0542L55.002 33.9186C55.1156 33.7893 55.2358 33.8016 55.4351 33.7578C56.1427 33.9292 58.318 34.3448 58.8271 34.5717L58.7641 34.7524L58.5192 34.8607C58.0239 34.6877 56.1155 34.3945 55.5296 34.2967Z" fill="#FDFDFD"/>
<path d="M64.8738 19.437L65.2622 19.6235C64.4951 20.7909 64.3431 23.1197 65.1222 24.2934C65.2376 23.0093 66.059 21.6369 67.0121 20.7736C67.6043 20.2371 69.7347 19.3009 70.3635 19.9248L70.258 20.0211C69.6649 19.8229 68.5242 20.2466 68.0132 20.5332C66.6477 21.2992 65.559 23.3941 65.2479 24.8999L65.4635 25.0068L65.291 25.3125C65.3327 25.4417 65.3097 25.4625 65.3848 25.5065L65.1118 25.7277L64.8412 25.5845L64.505 25.5141C64.2017 25.4534 64.3081 25.5143 64.1027 25.2869L63.6808 25.0944C63.4996 24.8304 63.5515 24.6854 63.6348 24.4184C64.843 24.7253 64.3594 24.3203 64.3041 23.1981C64.2342 21.7788 64.0252 20.6919 64.8738 19.437Z" fill="#FDFDFD"/>
<path d="M65.4635 25.0068C67.1164 23.1589 71.8849 21.4124 74.0042 23.2625C71.5189 22.4495 69.8712 22.8914 67.5045 23.99C67.1443 24.1573 66.069 24.8286 65.8147 25.0902C65.8575 25.4585 65.7993 25.5633 66.0156 25.7744L66.1017 25.7911L66.0465 25.9527C66.489 27.7464 68.7087 30.3415 70.3897 31.1401C70.7278 31.3006 72.1023 31.9981 72.2518 32.1687L72.1551 32.2017C69.1844 31.178 67.971 30.1613 66.315 27.352C66.0057 26.8272 65.6813 25.9798 65.4194 25.561L65.3848 25.5064C65.3097 25.4625 65.3326 25.4417 65.291 25.3125L65.4635 25.0068Z" fill="#FDFDFD"/>
<path d="M57.5841 23.5119C59.5841 22.3317 61.8714 23.1915 63.6353 24.4183C63.552 24.6853 63.5001 24.8303 63.6813 25.0942C62.7323 25.3142 60.3284 24.8185 59.1682 25.6051C57.8809 26.4779 57.8887 26.7281 57.5449 28.0302L57.4427 28.0149C57.4087 27.9398 57.3788 27.8769 57.3858 27.7911C57.657 24.4468 61.2024 24.7459 63.6007 24.683C61.0573 23.5105 60.4714 22.9272 57.5841 23.5119Z" fill="#FDFDFD"/>
<path d="M67.0561 25.0893C70.162 24.5216 75.1959 24.6215 77.457 27.2045C76.652 26.7324 75.7375 26.1955 74.8553 25.906C72.667 25.1878 69.2568 24.9363 67.0277 25.543C66.9862 25.5017 66.9107 25.3859 66.873 25.3321L67.0561 25.0893Z" fill="#FDFDFD"/>
<path d="M66.1014 25.791L66.0154 25.7743C65.7991 25.5632 65.8573 25.4585 65.8145 25.0901C66.1164 25.2433 66.6988 25.135 67.0566 25.0894L66.8735 25.3322C66.9112 25.386 66.9867 25.5018 67.0282 25.5431L66.9187 25.6396C67.2193 25.8222 68.0252 26.0786 68.4148 26.2345C69.571 26.6972 71.2931 27.6498 72.4049 28.0572L72.6104 28.3796L72.5338 28.4605L72.2615 28.4268C71.4043 28.0735 66.5997 26.2034 66.1014 25.791Z" fill="#FDFDFD"/>
<path d="M72.4052 28.0571C73.5597 28.215 78.5046 31.5719 79.5251 32.6322C78.4613 32.1063 77.2814 31.1649 76.2349 30.5378C75.0266 29.8136 73.786 29.1925 72.5306 28.5573C72.7252 28.9888 74.0288 31.2272 74.056 31.3543C72.7931 30.7271 72.7532 29.3324 72.2617 28.4267L72.5341 28.4604L72.6107 28.3795L72.4052 28.0571Z" fill="#FDFDFD"/>
<path d="M64.1018 25.2866C64.3072 25.514 64.2008 25.4531 64.5041 25.5138C64.4527 25.5682 64.4244 25.5963 64.3521 25.6238C61.6552 26.6512 60.1791 27.9622 61.2826 31.0402L61.1803 31.0785C59.4462 28.2186 61.4617 26.2595 64.1018 25.2866Z" fill="#FDFDFD"/>
<path d="M64.8403 25.5845L65.1108 25.7277C63.5751 28.8292 64.5857 30.5948 66.7268 32.8211C64.8592 31.6786 63.7771 30.0524 64.0686 27.7493C64.1547 27.0696 64.4337 26.1443 64.8403 25.5845Z" fill="#FDFDFD"/>
<path d="M74.2285 27.7907C75.7541 27.7264 76.494 28.046 77.7312 28.856C77.3203 28.7504 76.8619 28.5705 76.4582 28.4241C75.3751 28.0935 73.7517 28.171 73.2305 27.9604C73.4131 27.8004 73.9511 27.8092 74.2285 27.7907Z" fill="#FDFDFD"/>
<path d="M64.873 19.4368C65.5576 18.7685 65.9472 18.5114 66.907 18.3921L66.9376 18.4838C66.0567 19.0035 66.0015 18.8934 65.2614 19.6233L64.873 19.4368Z" fill="#FDFDFD"/>
<path d="M53.3258 10.6202C52.5369 9.70526 51.6514 8.95899 51.235 7.78359C50.6423 6.11049 52.0641 4.99524 53.5221 4.54357C56.8441 3.51442 60.6658 5.02561 63.6083 6.56729C66.6537 8.16284 71.706 11.1393 72.7953 14.5009L72.9831 14.6641V14.7973C72.6654 14.9221 70.9379 14.4136 70.0907 14.3665C69.2175 14.3151 68.3415 14.3959 67.4923 14.6058C65.2012 15.1617 63.1295 16.5934 60.9514 17.479C58.8685 18.3259 56.1406 18.671 53.9228 18.2361C53.6939 18.9257 52.16 22.5687 51.8128 23.1813C51.6825 23.5963 51.5429 24.0084 51.3942 24.4173C52.3647 28.4573 51.274 31.023 48.2989 33.8922C47.8647 34.311 47.527 36.9384 47.2828 37.6429C47.2827 37.6355 46.4853 35.3809 46.4083 35.1589L45.2846 35.9815C44.865 36.0956 43.8126 36.5936 43.3903 36.8126C40.447 38.3395 37.183 38.4914 34.2071 39.8536C34.6875 40.3819 35.6506 41.8332 35.8898 42.5062C35.6728 42.6197 35.1969 42.8837 34.9911 42.9594C34.2954 42.1442 33.9855 40.9569 33.2422 40.2446C33.4912 38.7391 39.8979 37.3049 41.3458 36.7225C44.7204 35.3652 47.8972 33.7639 49.8632 30.5411C51.7879 27.3861 51.1413 26.2105 50.4107 23.0029L50.4003 22.955C51.1387 21.3003 51.8145 19.7337 52.5841 18.0786C49.9256 17.4932 46.7 16.4268 45.7617 13.6628C44.5438 10.0759 48.5234 8.61405 51.3043 9.66363C52.0349 9.93935 52.6627 10.2781 53.3258 10.6202Z" fill="#457F34"/>
<path d="M56.3244 12.8418C58.1215 12.8172 64.9426 12.6189 66.3317 13.2013C65.8173 14.0958 63.3951 15.4843 62.4111 15.9118C61.5992 16.6813 59.1278 17.4814 58.0595 17.5648C57.6871 17.4515 57.73 17.5218 57.4943 17.2652C57.4393 16.8819 56.5561 16.4998 56.1991 16.1068C55.3877 15.2139 55.504 14.0525 55.5036 12.9369L55.6857 12.8633L56.0172 13.0421L56.3244 12.8418Z" fill="#5B8F4C"/>
<path d="M56.0172 13.042L56.3244 12.8418C57.5933 13.97 58.7049 14.7783 60.4114 15.1289C60.7667 15.202 61.4057 15.2665 61.533 15.5788L61.4826 15.6928C61.7114 15.8256 62.143 15.887 62.4111 15.9118C61.5992 16.6813 59.1278 17.4814 58.0595 17.5648C57.6871 17.4515 57.73 17.5218 57.4943 17.2652C57.4393 16.8819 56.5561 16.4998 56.1991 16.1068C55.3877 15.2139 55.504 14.0525 55.5036 12.9369L55.6857 12.8633L56.0172 13.042Z" fill="#488134"/>
<path d="M56.0176 13.042L56.3248 12.8418C57.5937 13.97 58.7053 14.7783 60.4118 15.1289C60.7671 15.202 61.4061 15.2665 61.5334 15.5788L61.483 15.6928C58.8671 15.1218 58.0603 14.9766 56.0176 13.042Z" fill="#FDFDFD"/>
<path d="M67.1603 13.0359C68.8649 12.7188 69.8376 12.585 71.3764 13.6121C71.3749 13.6111 72.9746 14.5434 72.7938 14.501L72.9816 14.6641V14.7973C72.6639 14.9221 70.9364 14.4136 70.0893 14.3665C69.2161 14.3152 68.3401 14.3959 67.4909 14.6058C65.1997 15.1617 63.128 16.5935 60.9499 17.479C58.867 18.3259 56.1392 18.6711 53.9213 18.2362C53.6925 18.9257 52.1585 22.5687 51.8114 23.1813C51.765 22.2366 53.683 18.9598 53.6981 18.3423L53.5479 18.2247L53.6254 18.0313C54.3945 17.9724 55.2443 18.1602 55.9965 18.1912C57.1745 18.2395 60.5961 18.0885 61.097 16.901C60.4581 16.9003 58.7917 17.8679 58.0592 17.5647C59.1274 17.4813 61.5989 16.6812 62.4108 15.9117C63.3948 15.4841 65.817 14.0957 66.3314 13.2011C66.737 13.2129 66.7868 13.1974 67.1603 13.0359Z" fill="#34632D"/>
<path d="M55.1227 12.2401C53.8368 9.93109 51.9544 7.25026 54.5575 5.0874C54.1224 5.89059 53.7823 6.32319 53.6623 7.26521C53.5049 8.50073 54.32 10.3589 55.0589 11.3023C55.5331 8.4722 56.0372 6.32362 59.2151 5.48299C58.9993 5.61379 58.7848 5.74686 58.5718 5.88219C56.8942 6.95116 55.8508 8.27708 55.721 10.3575C55.6926 10.8133 55.4765 11.7433 55.7063 12.101L55.5988 12.1825C55.509 12.0133 55.4757 11.9499 55.3599 11.7984C55.0348 12.0078 54.9703 12.2729 54.8422 12.6559C54.8773 12.7572 54.9073 12.8735 54.9653 12.9582C53.6658 13.4102 52.5253 13.8004 52.0918 15.2675C52.0478 15.5123 52.0358 15.7433 51.8865 15.9314C51.7206 15.0373 51.9595 14.3288 52.6066 13.6789C53.0623 13.2212 53.5296 13.1627 54.0873 12.9242L54.1367 12.7715C53.2688 11.9161 49.799 12.2427 48.8133 13.041L48.7664 13.0795C48.2754 13.4768 48.3787 14.077 48.0513 14.4821C48.0084 14.3373 48.0521 14.1678 48.0682 14.0164C48.3474 11.3876 52.1365 11.7977 53.9899 12.0886C52.1971 11.0794 50.6556 10.4078 48.5704 10.8118C48.2807 10.8678 47.9693 10.9077 47.6751 10.9206L47.5977 10.9236C47.8014 10.8182 48.0076 10.7177 48.2162 10.6225C50.7772 9.4809 52.8554 11.3652 55.1227 12.2401Z" fill="#FDFDFD"/>
<path d="M55.9453 11.7611C57.8995 9.1461 60.5496 6.90029 64.0213 7.72437C60.4347 7.91898 59.1561 8.68564 56.7278 11.4409C56.5687 11.6213 56.3511 11.7294 56.2881 11.9721C56.5973 12.0549 57.4365 11.635 57.735 11.5031C60.7962 10.1511 64.2044 9.15233 67.4828 10.3361C67.666 10.4022 67.6683 10.3989 67.8251 10.5347C67.3678 10.6238 65.96 10.183 65.1654 10.1601C64.3176 10.1394 63.4699 10.2071 62.6361 10.362C61.8136 10.5098 57.5296 11.712 56.9868 12.2692L56.8829 12.3264C56.5409 12.2777 56.2073 12.2583 56.1383 11.8683L55.9453 11.7611Z" fill="#FDFDFD"/>
<path d="M54.9649 12.9582C54.9069 12.8736 54.877 12.7572 54.8418 12.656C54.9699 12.2729 55.0345 12.0079 55.3595 11.7984C55.4754 11.9499 55.5086 12.0133 55.5985 12.1825L55.7059 12.1011L55.9442 11.7612L56.1372 11.8684C56.2062 12.2584 56.5398 12.2778 56.8818 12.3265L56.9857 12.2693C58.9215 12.4601 65.9721 12.2321 67.1609 13.036C66.7874 13.1976 66.7376 13.213 66.332 13.2013C64.9429 12.6189 58.1217 12.8172 56.3246 12.8419L56.0174 13.0421L55.6859 12.8634L55.5039 12.9369C55.2834 12.8754 55.3535 12.8936 55.0993 12.9722L54.9649 12.9582Z" fill="#E3F5DB"/>
<path d="M55.0996 12.972C55.3538 12.8934 55.2836 12.8751 55.5041 12.9367C55.5045 14.0524 55.3883 15.2137 56.1996 16.1067C56.5567 16.4997 57.4398 16.8817 57.4948 17.2651C55.1958 16.143 55.1182 15.4324 55.0996 12.972Z" fill="#FDFDFD"/>
<path d="M51.8867 15.9314C52.036 15.7434 52.048 15.5124 52.092 15.2676L52.0998 15.3625C52.1543 15.9835 52.3899 16.2147 52.382 16.6414C52.1664 16.5076 51.9862 16.1639 51.8867 15.9314Z" fill="#FDFDFD"/>
<path d="M64.983 11.0547L65.0793 11.1262C64.8403 11.2581 64.6776 11.3514 64.4499 11.5066C64.6061 11.7782 64.5292 11.683 64.8444 11.8651C65.677 11.4949 67.5574 12.3057 68.161 11.7952L68.1259 11.65L67.7707 11.4372L67.777 11.3574L68.0923 11.4786C68.2816 11.7316 68.2856 11.655 68.2861 11.911L68.1164 12.037C67.2755 12.0013 64.6378 12.1473 64.1855 11.8014L64.2015 11.592C64.3694 11.3003 64.6723 11.2025 64.983 11.0547Z" fill="#5B8F4C"/>
<path d="M59.872 32.5186L60.7731 33.1292C60.4381 33.8037 60.3155 34.3608 60.0684 34.8541L59.858 34.9658C59.8707 35.0042 59.9053 35.1231 59.9248 35.1512C59.5677 35.5277 58.686 37.6373 58.6143 38.1705C58.9325 38.2877 58.9762 38.2399 59.1251 38.4799C58.8886 38.7611 58.1737 38.5282 57.8931 39.1244L57.9658 39.324C58.5534 39.3763 59.1395 39.4447 59.7233 39.5292C60.5207 40.0883 60.9365 40.4023 61.5971 41.1331C62.7748 43.6306 63.3752 45.8231 62.8414 48.5819C62.7635 48.9841 62.6719 50.179 62.447 50.497C62.1997 51.5497 60.6704 56.5256 60.1508 57.241C59.8745 57.1914 59.1835 56.3486 58.9006 56.0474C57.9875 55.0753 56.423 54.2184 55.5221 53.3821C54.8198 55.4111 53.9825 57.9154 53.5948 60.0365L51.9901 60.0187L51.3458 60.0611L50.927 59.967C50.0091 59.9917 49.0917 60.0265 48.1747 60.0714L48.1427 60.034C48.0773 58.7694 48.0706 57.0413 47.879 55.8426C47.7173 56.4286 47.252 59.3917 47.2469 60.0047L46.6701 60.0119C46.4405 58.8582 46.2395 57.2653 46.1181 56.0813C46.2785 55.6907 47.0429 51.5357 47.1845 50.8055C47.5648 49.28 46.7759 43.6138 46.3886 41.9785C46.3772 41.0286 46.001 39.0229 45.5319 38.1289C45.622 37.5629 45.3926 36.5851 45.2832 35.9816L46.4069 35.1589C46.484 35.3809 47.2813 37.6356 47.2814 37.6429C47.1291 38.8637 48.3589 42.6958 48.388 44.1781C48.3911 44.3311 48.5987 45.5425 48.653 45.7091C48.8359 45.3909 49.0286 44.8187 49.1591 44.4579C49.5442 43.1414 49.8426 42.7438 50.6369 41.6262C51.1022 41.6704 51.7946 41.3628 52.3456 41.249C53.5824 41.5243 54.3392 41.9812 55.1339 42.9475C55.382 42.2338 55.8956 40.9569 56.2262 40.3081C56.2686 39.8913 57.332 38.3009 57.2386 37.8511L57.319 37.6855L57.5162 37.5648C57.7125 37.1289 58.6674 35.2619 58.7106 34.9519L58.519 34.8607L58.764 34.7524L58.827 34.5717C59.1899 34.3757 59.6682 33.0012 59.872 32.5186ZM49.4024 47.9604C48.995 49.8807 49.3197 51.2021 49.4928 53.1496C49.6141 54.5272 49.7179 55.9063 49.8041 57.2867C50.0941 56.8727 50.8842 51.5977 51.365 50.2945C51.1651 49.7364 49.9721 48.0719 49.5606 47.3368L49.4024 47.9604ZM54.4391 52.6106C54.0363 52.3759 53.656 52.1003 53.2736 51.833C53.0656 52.6303 52.9377 55.3222 53.011 56.1563C53.4314 54.9534 53.8545 53.7453 54.4391 52.6106ZM55.76 44.7322C55.3404 44.9738 54.1349 45.595 53.9691 46.0154L53.9933 46.0915C52.6885 46.5482 52.2961 48.42 52.1305 49.6223C52.5846 48.4272 52.9404 47.0317 53.9952 46.2384C54.6742 45.8219 55.3614 45.3575 56.0283 44.9172C56.4683 45.1801 57.886 49.0295 58.1202 49.7758C57.6736 50.6086 57.544 50.9263 57.4332 51.8761C57.3502 52.2119 57.2387 52.5408 57.3649 52.8391C57.5912 52.5766 57.6111 52.2197 57.6574 51.8512C57.7853 51.1885 57.9324 50.2622 58.7003 50.1066C59.6144 50.2114 60.407 51.4884 61.0938 52.1853C60.1232 50.1369 59.6764 50.6707 58.4303 49.1892C58.1536 48.8602 57.5249 47.0701 57.0062 46.2329C58.4358 46.8219 60.3252 47.1174 61.2307 48.5277C61.4066 48.8017 61.5254 48.8614 61.7949 48.9053C61.4328 47.2577 58.5311 46.3675 57.122 45.9622L57.1456 46.0276C56.8687 45.6489 56.5007 45.2251 56.524 44.7457C56.5769 43.6587 57.5515 42.0662 58.2848 41.3015C58.5293 41.0465 59.0219 40.7079 59.3582 40.3801C57.1905 41.3343 57.0193 42.4306 56.1676 44.5441C54.6711 43.6896 52.6516 42.3716 50.9537 43.5957L50.9482 43.7329C53.1887 43.258 53.7891 43.4825 55.76 44.7322ZM59.7461 54.6313C59.5614 53.9403 58.9572 50.7427 58.7029 50.3428L58.5622 50.3664C58.4266 50.8223 59.3673 53.8724 59.5471 54.6618C59.5929 54.978 59.6233 55.4791 59.8234 55.6999C60.0121 55.4513 59.8745 54.8968 59.7461 54.6313ZM54.987 51.0173C55.3046 49.7611 55.5761 48.6988 56.3592 47.6596C56.5125 47.4563 56.6524 47.2764 56.6551 47.0151L56.5923 46.9692C55.926 47.5986 54.4552 50.2212 54.987 51.0173ZM62.1125 44.1622C61.1904 43.6195 60.6412 43.2083 59.5478 43.3274C58.9564 43.4485 57.5931 43.853 57.1182 44.1653L57.003 44.3482C57.3676 44.4137 58.6301 43.8583 59.117 43.7092C60.8017 43.5071 60.7587 43.8932 62.1125 44.1622Z" fill="#488134"/>
<path d="M46.4069 35.1592C46.484 35.3812 47.2813 37.6359 47.2814 37.6432C47.1291 38.864 48.3589 42.696 48.388 44.1783C48.3911 44.3314 48.5987 45.5427 48.653 45.7093L48.7935 45.8051C48.8927 46.5209 48.9099 47.4992 49.4024 47.9606C48.995 49.8809 49.3197 51.2023 49.4928 53.1498C49.6141 54.5275 49.7179 55.9065 49.8041 57.2869C49.8349 57.7342 49.9142 59.5076 50.0644 59.8499C50.3912 59.9128 50.5951 59.9396 50.927 59.9672C50.0091 59.992 49.0917 60.0267 48.1747 60.0716L48.1427 60.0342C48.0773 58.7696 48.0706 57.0416 47.879 55.8429C47.7173 56.4288 47.252 59.392 47.2469 60.005L46.6701 60.0121C46.4405 58.8584 46.2395 57.2655 46.1181 56.0816C46.2785 55.6909 47.0429 51.536 47.1845 50.8058C47.5648 49.2803 46.7759 43.614 46.3886 41.9787C46.3772 41.0289 46.001 39.0232 45.5319 38.1292C45.622 37.5631 45.3926 36.5853 45.2832 35.9818L46.4069 35.1592Z" fill="#488134"/>
<path d="M47.1855 50.8057C47.2905 51.2199 47.521 51.2801 47.5605 51.8798C47.6234 52.8354 48.049 54.9762 47.88 55.8428C47.7183 56.4287 47.253 59.3919 47.2479 60.0049L46.6711 60.012C46.4415 58.8583 46.2405 57.2654 46.1191 56.0814C46.2795 55.6908 47.0439 51.5359 47.1855 50.8057Z" fill="#305C2C"/>
<path d="M51.3656 50.2944C51.7607 50.6129 52.1479 50.9409 52.5269 51.2782C52.7152 51.4442 53.0617 51.8003 53.2742 51.833C53.0662 52.6302 52.9383 55.3222 53.0116 56.1562C52.7735 56.5867 52.2188 58.5061 51.985 59.1181C51.9394 59.2375 51.9751 59.8421 51.9907 60.0187L51.3464 60.061L50.9275 59.9669C50.5957 59.9392 50.3918 59.9125 50.0649 59.8496C49.9148 59.5072 49.8355 57.7339 49.8047 57.2866C50.0947 56.8727 50.8848 51.5977 51.3656 50.2944Z" fill="#34632D"/>
<path d="M51.347 60.0611C51.2738 58.8188 51.9867 52.065 52.5275 51.2783C52.7158 51.4443 53.0624 51.8004 53.2748 51.833C53.0668 52.6303 52.9389 55.3222 53.0122 56.1563C52.7741 56.5867 52.2194 58.5062 51.9856 59.1182C51.94 59.2376 51.9757 59.8422 51.9913 60.0187L51.347 60.0611Z" fill="#305C2C"/>
<path d="M48.6543 45.7092C48.8372 45.391 49.03 44.8189 49.1605 44.458C49.4307 45.2995 49.1659 46.8376 49.562 47.3369L49.4037 47.9605C48.9113 47.4991 48.894 46.5208 48.7948 45.805L48.6543 45.7092Z" fill="#305C2C"/>
<path d="M59.3592 40.3804C59.0229 40.7082 58.5303 41.0468 58.2858 41.3018C57.5525 42.0666 56.5779 43.659 56.525 44.746C56.5017 45.2255 56.8697 45.6492 57.1466 46.028L57.1229 45.9625C58.5321 46.3678 61.4338 47.2581 61.7959 48.9056C61.5264 48.8617 61.4076 48.802 61.2317 48.528C60.3262 47.1177 58.4367 46.8222 57.0072 46.2332C57.5259 47.0705 58.1546 48.8605 58.4313 49.1895C59.6773 50.671 60.1242 50.1372 61.0947 52.1857C60.4079 51.4887 59.6154 50.2117 58.7013 50.1069C57.9334 50.2626 57.7863 51.1888 57.6583 51.8515L57.5152 52.0265L57.4342 51.8764C57.545 50.9266 57.6746 50.609 58.1212 49.7761C57.887 49.0298 56.4693 45.1804 56.0293 44.9175L55.7609 44.7325C53.7901 43.4828 53.1897 43.2583 50.9492 43.7332L50.9547 43.596C52.6526 42.3719 54.6721 43.6899 56.1686 44.5444C57.0203 42.4309 57.1915 41.3347 59.3592 40.3804Z" fill="#5B8F4C" fill-opacity="0.0313725"/>
<path d="M59.5488 43.3273C60.6422 43.2082 61.1913 43.6194 62.1134 44.1621C60.7596 43.8932 60.8027 43.507 59.1179 43.7091C58.631 43.8582 57.3685 44.4137 57.0039 44.3481L57.1191 44.1652C57.5941 43.8529 58.9573 43.4484 59.5488 43.3273Z" fill="#5B8F4C" fill-opacity="0.0392157"/>
<path d="M59.547 54.6618C59.3672 53.8724 58.4265 50.8223 58.5622 50.3664L58.7028 50.3428C58.9571 50.7427 59.5613 53.9403 59.746 54.6313C59.6584 54.6886 59.6862 54.6625 59.547 54.6618Z" fill="#488134" fill-opacity="0.0627451"/>
<path d="M52.1309 49.6226C52.2964 48.4203 52.6889 46.5485 53.9937 46.0918L53.9955 46.2387C52.9408 47.032 52.585 48.4275 52.1309 49.6226Z" fill="#D4EFCE" fill-opacity="0.160784"/>
<path d="M55.7615 44.7324L56.0298 44.9174C55.363 45.3577 54.6758 45.8221 53.9968 46.2386L53.9949 46.0917L53.9707 46.0156C54.1365 45.5952 55.342 44.974 55.7615 44.7324Z" fill="#D4EFCE" fill-opacity="0.988235"/>
<path d="M59.7459 54.6313C59.8743 54.8968 60.0119 55.4514 59.8232 55.7C59.6231 55.4792 59.5927 54.978 59.5469 54.6619C59.6861 54.6626 59.6582 54.6887 59.7459 54.6313Z" fill="#34632D" fill-opacity="0.603922"/>
<path d="M57.4338 51.8764L57.5148 52.0265L57.6579 51.8516C57.6117 52.2201 57.5917 52.5769 57.3654 52.8394C57.2392 52.5412 57.3508 52.2122 57.4338 51.8764Z" fill="#488134" fill-opacity="0.529412"/>
<path d="M19.7793 21.3899C20.3692 20.0604 21.1792 18.1939 22.0436 17.0145C24.8584 13.3069 28.9555 9.47091 33.6488 8.48448C35.432 8.10969 38.3142 8.50853 38.7083 10.6721C38.952 12.0109 37.5768 13.5585 36.7902 14.588C36.8835 14.5264 36.9773 14.4656 37.0716 14.4057C39.223 13.041 42.4517 12.3437 44.0099 14.9465C44.4824 15.7446 44.6137 16.6993 44.374 17.5954C44.0239 18.9521 43.0589 19.9718 41.8908 20.6774C40.6051 18.3044 38.8521 18.0318 36.3957 18.2783L36.1771 18.1141C35.986 18.3343 35.829 18.395 35.5751 18.5234C34.048 19.2966 32.4362 19.9867 31.4111 21.4333C31.2904 21.6037 30.9146 22.0556 30.8457 22.2272C30.5759 22.0958 29.0381 21.6582 28.6788 21.5331C25.6893 20.4921 22.7592 19.8405 19.7793 21.3899Z" fill="#34632D"/>
<path d="M33.8867 15.7227L34.1101 15.767C34.186 15.8548 34.287 15.9951 34.3802 16.0419L34.8269 15.8864C35.1352 16.1005 34.886 16.0697 35.0967 16.336L34.8041 16.3978C34.5811 16.4806 34.5608 16.4735 34.3181 16.4698C33.4835 16.7363 32.5336 16.8091 31.6684 16.9763C29.4918 17.3335 27.4307 17.7557 25.3087 18.3453C23.5456 18.8353 22.4089 19.6373 20.7891 20.3465C23.764 17.5066 29.755 17.0968 33.5785 16.0826C33.6802 15.9617 33.783 15.8418 33.8867 15.7227Z" fill="#FDFDFD"/>
<path d="M23.8379 16.079C26.7793 14.6381 29.0267 14.505 32.24 15.2637C32.8349 15.4042 33.3245 15.4309 33.8854 15.7226C33.7817 15.8418 33.6789 15.9617 33.5772 16.0825C33.3353 15.8864 32.3793 15.6539 32.0402 15.5803C30.1227 15.1639 28.085 15.0499 26.1624 15.4989C25.3773 15.6823 24.6361 15.9511 23.8379 16.079Z" fill="#FDFDFD"/>
<path d="M34.1103 15.7672L34.1555 15.5581C32.8042 13.8135 29.4721 12.3979 27.25 12.8852L27.311 12.7938C29.8334 11.5214 33.0791 13.9858 34.7942 15.6275C34.5383 15.764 34.5067 15.7829 34.3804 16.0421C34.2872 15.9953 34.1863 15.855 34.1103 15.7672Z" fill="#FDFDFD"/>
<path d="M36.8731 15.6519C38.4442 15.6397 40.4279 15.4661 41.6355 16.6538C42.0389 17.0504 42.3491 17.5002 42.2832 18.0835L42.1803 18.1536C42.011 17.8899 42.0035 17.6538 41.9607 17.3432C40.4457 15.7182 38.677 15.9985 36.6465 16.1283C36.7229 16.024 36.7245 15.8529 36.8731 15.6519Z" fill="#FDFDFD"/>
<path d="M34.3169 16.47C34.5595 16.4737 34.5799 16.4808 34.8029 16.3979C34.0945 17.7368 32.7643 18.9316 31.3836 19.5584C30.95 19.7553 29.3831 20.2214 28.9668 20.1649C29.1919 19.9483 29.7609 19.7956 30.0954 19.6734C31.951 18.9952 33.3243 18.2246 34.3169 16.47Z" fill="#FDFDFD"/>
<path d="M34.9999 15.1829C34.5355 12.7624 33.9453 11.1689 31.409 10.3565L31.3691 10.3441L31.587 10.2666C34.1664 10.5424 34.8266 12.9397 35.3204 15.0169C35.1413 15.1606 35.191 15.1658 34.9999 15.1829Z" fill="#FDFDFD"/>
<path d="M35.5402 15.3767C35.948 13.8401 36.9703 11.7616 36.1251 10.294C35.8877 9.88178 35.608 9.79122 35.4277 9.50622C36.3746 9.25164 36.6808 10.7294 36.7155 11.3865C36.7811 12.6284 36.3885 14.4844 35.5992 15.4689L35.5402 15.3767Z" fill="#FDFDFD"/>
<path d="M36.7738 15.3754C36.9594 15.0474 38.071 14.5488 38.4562 14.4384C40.1104 13.9642 41.2921 14.029 42.6946 15.0347C39.294 13.8331 39.3973 14.8363 36.7578 15.4815L36.7738 15.3754Z" fill="#FDFDFD"/>
<path d="M35.3214 15.0171C35.3918 15.1507 35.4411 15.263 35.5417 15.3765L35.6006 15.4687L35.7803 15.6421C36.1281 15.6609 36.4485 15.5037 36.7753 15.3752L36.7593 15.4812L36.8736 15.6517C36.725 15.8528 36.7234 16.0239 36.647 16.1281L35.678 16.232C35.3534 16.4032 35.4996 16.3661 35.0974 16.3359C34.8866 16.0696 35.1358 16.1004 34.8276 15.8863L34.3809 16.0418C34.5071 15.7827 34.5387 15.7637 34.7947 15.6272C34.8781 15.6224 34.9756 15.5957 35.0593 15.5773L35.0008 15.183C35.1919 15.166 35.1422 15.1608 35.3214 15.0171Z" fill="#FDFDFD"/>
<path d="M35.0957 16.3358C35.4979 16.366 35.3517 16.4031 35.6763 16.2319C36.1078 17.0382 36.349 17.3578 36.3941 18.2782L36.1755 18.1141C35.9661 17.5084 35.6986 16.6336 35.0957 16.3358Z" fill="#FDFDFD"/>
<path d="M45.5336 38.1289C46.0026 39.0229 46.3788 41.0286 46.3903 41.9785C45.9589 42.9186 45.3097 49.1158 45.1916 50.3811C44.5058 49.9742 44.2513 47.9182 43.8223 46.8966C43.9858 46.3948 44.1235 45.1482 44.2309 44.5693C44.58 42.6898 44.9156 39.9178 45.5336 38.1289Z" fill="#305C2C"/>
<path d="M12.0765 46.9258L12.2041 47.0663C12.1599 47.2697 12.099 47.5156 12.075 47.7184C11.7372 47.8961 11.7577 47.9516 11.4278 47.9361C11.3043 47.7033 11.3945 47.4029 11.4372 47.1208C11.7029 46.9712 11.7581 46.9292 12.0765 46.9258Z" fill="#34632D"/>
</svg>
