<svg width="96" height="96" viewBox="0 0 96 96" fill="none" xmlns="http://www.w3.org/2000/svg">
<path d="M44.3887 51.5965C44.4764 51.2215 44.5793 50.6123 44.7891 50.3164L44.8476 50.3271C44.9255 50.7445 44.9125 50.9573 44.9029 51.3855C44.8304 51.6405 44.8222 51.8596 44.6487 51.9929C44.4904 51.8685 44.4746 51.7866 44.3887 51.5965Z" fill="#1C7147" fill-opacity="0.0156863"/>
<path d="M47.2586 45.0693C47.521 45.9559 47.5739 47.0377 47.6625 47.966C48.0209 51.7196 47.8493 55.5146 47.8856 59.2806C47.8887 59.6103 47.8409 60.023 47.8582 60.3279C46.9089 60.3351 45.9257 60.3583 44.9806 60.3032C44.7973 57.3948 45.0974 54.124 44.9025 51.3854C44.912 50.9572 44.925 50.7444 44.8471 50.327L44.7887 50.3163C44.5788 50.6121 44.4759 51.2214 44.3882 51.5964C43.8689 53.4523 43.599 55.4611 43.0096 57.3304C42.8852 57.725 42.2712 60.0318 42.286 60.3038C41.4637 60.335 40.0521 60.3787 39.2539 60.2855C39.3947 59.3545 40.6424 54.1153 40.9308 53.4219C41.752 52.5411 42.9727 51.6765 43.9202 50.6406C45.6581 48.7402 46.0638 47.1592 47.2586 45.0693Z" fill="#276B00"/>
<path d="M31.5417 28.834C33.8875 29.1965 34.1526 29.0824 35.9468 31.0285C37.3324 34.0267 35.993 35.3609 34.4759 37.7201C35.2871 38.8576 36.3961 39.8446 36.4732 41.1717C36.502 41.3279 36.4646 41.2662 36.5848 41.365C37.0174 41.1944 38.7364 39.0072 39.2603 38.52C40.592 37.2816 41.1711 36.7835 42.8192 36.0249C44.4424 36.099 45.4825 36.0073 46.7446 37.3431C47.265 37.8939 47.4914 38.388 47.8804 38.8522C48.0079 40.3674 47.9956 41.5147 47.6998 43.0165C47.5883 43.5827 47.3278 44.5454 47.2593 45.0695C46.0645 47.1594 45.6587 48.7404 43.9209 50.6408C42.9734 51.6767 41.7527 52.5412 40.9315 53.4221C39.6317 54.0611 39.0023 54.5762 37.5364 55.1017C33.5928 56.5156 30.3769 56.2563 26.3141 55.5884C25.0084 55.3738 23.678 55.0354 22.3515 54.8098C21.4936 54.6638 20.1887 54.8236 19.3782 54.5177C19.3115 54.4925 19.3031 54.3857 19.2754 54.2938C21.2191 51.2837 20.248 46.7509 20.9281 43.3144C21.4465 40.695 21.7752 38.612 23.1655 36.2007C21.7918 35.3099 20.3075 34.3676 20.69 32.4073C20.8521 31.5764 21.4416 31.086 22.1225 30.6569C23.1879 30.1222 24.0624 30.2609 25.1483 30.6223C25.5448 30.7573 25.9388 30.8993 26.3302 31.0483C26.6912 30.9219 27.0419 30.5628 27.4288 30.3199C28.7871 29.4673 29.9532 29.025 31.5417 28.834Z" fill="#DC0A15"/>
<path d="M31.5417 28.834C33.8875 29.1965 34.1526 29.0824 35.9468 31.0285C37.3324 34.0267 35.993 35.3609 34.4759 37.7201C35.2871 38.8576 36.3961 39.8446 36.4732 41.1717L36.4272 41.5457C36.1148 42.7444 35.313 44.0272 34.0606 44.4205C30.4061 45.568 29.6423 41.9768 27.8313 39.8019C26.5612 38.2714 24.9678 37.0415 23.1655 36.2007C21.7918 35.3099 20.3075 34.3676 20.69 32.4073C20.8521 31.5764 21.4416 31.086 22.1225 30.6569C23.1879 30.1222 24.0624 30.2609 25.1483 30.6223C25.5448 30.7573 25.9388 30.8993 26.3302 31.0483C26.6912 30.9219 27.042 30.5628 27.4288 30.3199C28.7871 29.4673 29.9532 29.025 31.5417 28.834Z" fill="#FECE33"/>
<path d="M23.1655 36.2005C21.7918 35.3097 20.3075 34.3674 20.69 32.4071C20.8521 31.5762 21.4416 31.0859 22.1225 30.6567C22.6372 32.5621 24.9373 33.3226 26.4677 34.4293C27.6096 35.2549 28.1769 35.7024 29.1442 36.7751C30.4451 38.2175 31.0014 40.2875 32.595 41.3216C33.9797 42.2203 35.4566 41.3398 36.4272 41.5455C36.1148 42.7443 35.313 44.027 34.0606 44.4203C30.4061 45.5678 29.6423 41.9766 27.8313 39.8017C26.5612 38.2712 24.9678 37.0413 23.1655 36.2005Z" fill="#FEA72F"/>
<path d="M31.5396 28.834C33.8855 29.1965 34.1506 29.0824 35.9447 31.0285C37.3304 34.0267 35.991 35.3609 34.4738 37.7201C33.5632 36.9251 32.6153 35.8748 31.6579 35.0189C29.9114 33.4579 28.2447 32.3601 26.3281 31.0483C26.6891 30.9219 27.0399 30.5628 27.4267 30.3199C28.785 29.4673 29.9511 29.025 31.5396 28.834Z" fill="#DC0A15"/>
<path d="M64.3442 16.7264C64.1737 16.2818 62.7921 14.5708 62.3637 13.6831C61.9613 12.8688 61.9054 11.9263 62.2089 11.0701C63.4074 7.7899 67.4261 8.90894 69.8266 9.7948C71.1286 8.78876 71.9704 8.66597 73.4732 9.29333C75.1711 10.3035 75.4816 12.1627 74.4984 13.8098C76.7187 17.485 78.605 23.2619 77.7248 27.6249C77.441 29.0315 76.7379 29.9478 76.5684 31.9073C76.5365 33.4084 77.0213 35.0828 74.9548 34.74C74.4228 34.6518 73.6466 34.7258 73.0914 34.6761C72.4443 34.4632 63.47 34.647 62.0704 34.5614C61.7945 34.4186 60.0579 34.1129 59.5691 33.9619C56.6103 33.0479 55.3168 31.8693 53.1363 29.9004C52.6101 29.052 52.0024 28.257 51.3217 27.5267C51.0231 26.6429 50.7008 26.3969 50.3989 25.6976C49.8323 24.3856 49.3028 22.5425 49.2109 21.1328C49.2786 20.8473 49.2579 19.8622 49.271 19.4988C49.3201 18.1464 49.9239 17.2196 50.5731 16.1004C51.7406 15.3612 52.2403 14.8392 53.7463 14.6081C59.171 14.5108 60.0437 20.1895 63.4445 20.4208C63.4801 19.1994 63.8375 17.8335 64.3442 16.7264Z" fill="#DC0A15"/>
<path d="M50.5731 16.1002C51.7406 15.361 52.2403 14.839 53.7463 14.6079C53.232 18.9323 54.0596 22.6245 56.8018 26.1055C59.2502 29.2032 62.8327 31.197 66.7557 31.6453C68.9114 31.8932 71.3605 31.7172 73.5384 31.7652C74.3951 31.7841 75.7705 31.6916 76.5684 31.9071C76.5365 33.4082 77.0213 35.0827 74.9548 34.7398C74.4228 34.6516 73.6466 34.7257 73.0914 34.6759C72.4443 34.463 63.47 34.6469 62.0704 34.5612C61.7945 34.4184 60.0579 34.1127 59.5691 33.9617C56.6103 33.0478 55.3168 31.8691 53.1363 29.9003C52.6101 29.0518 52.0024 28.2568 51.3217 27.5266C51.0231 26.6427 50.7008 26.3967 50.3989 25.6974C49.8323 24.3854 49.3028 22.5423 49.2109 21.1326C49.2786 20.8472 49.2579 19.862 49.271 19.4986C49.3201 18.1462 49.9239 17.2194 50.5731 16.1002Z" fill="#C60811"/>
<path d="M64.3441 16.7264C64.1736 16.2818 62.792 14.5708 62.3636 13.6831C61.9612 12.8688 61.9053 11.9263 62.2088 11.0701C63.4073 7.7899 67.426 8.90894 69.8265 9.7948C71.1285 8.78876 71.9703 8.66597 73.4732 9.29333C75.171 10.3035 75.4815 12.1627 74.4983 13.8098C73.8252 14.2378 70.4658 17.7209 69.8508 18.5094C69.6522 18.764 69.4191 19.501 69.3414 19.8404C69.2381 20.2919 69.1982 20.8003 69.1061 21.2542C69.0623 21.3589 69.0153 21.4622 68.9651 21.5639C68.6184 22.261 67.993 22.8307 67.2482 23.0707C66.5376 23.3004 65.7643 23.233 65.1043 22.8839C64.0466 22.3249 63.7676 21.496 63.4444 20.4208C63.48 19.1994 63.8374 17.8335 64.3441 16.7264Z" fill="#FEA72F"/>
<path d="M64.3441 16.7264C64.1736 16.2818 62.792 14.5708 62.3636 13.6831C61.9612 12.8688 61.9053 11.9263 62.2088 11.0701C63.4073 7.7899 67.426 8.90894 69.8265 9.7948C69.0311 11.0682 64.5437 16.0139 64.3441 16.7264Z" fill="#DC0A15"/>
<path d="M73.4718 9.29297C75.1697 10.3032 75.4802 12.1623 74.497 13.8095C73.8239 14.2375 70.4645 17.7205 69.8495 18.5091C69.6509 18.7636 69.4178 19.5006 69.3401 19.8401C69.2367 20.2915 69.1968 20.7999 69.1047 21.2539C68.3873 20.6908 67.836 19.7506 67.8247 18.8289C67.7906 16.0214 69.5077 13.9217 71.2492 11.9136C71.989 11.0605 72.6903 10.1271 73.4718 9.29297Z" fill="#FECE33"/>
<path d="M23.8042 10.2231C24.4944 9.9164 26.109 9.56042 26.8809 9.40685C32.4649 8.29589 39.001 9.04242 44.2594 11.2042C46.5153 12.1317 49.2992 13.2042 50.3388 15.5374C50.4213 15.7232 50.4996 15.9109 50.5735 16.1002C49.9243 17.2194 49.3206 18.1462 49.2715 19.4986C49.2584 19.862 49.2791 20.8472 49.2114 21.1326C47.48 22.7647 46.13 22.5379 43.9333 22.9801C43.3514 23.075 42.7717 23.1832 42.1946 23.3045C43.7312 24.5443 44.9842 25.6353 45.0101 27.7647C44.9851 28.2293 44.9869 28.508 44.8437 28.9583C44.6929 29.3333 44.5257 29.7825 44.3475 30.1387C43.4325 30.9181 42.8767 31.3882 41.7063 31.7414C40.2306 31.9011 37.2826 31.6177 35.9468 31.0283C34.1526 29.0822 33.8875 29.1963 31.5417 28.8338C31.3623 28.6195 30.8177 28.3035 30.5636 28.1282C28.3765 26.5983 26.9773 24.1852 25.4584 22.041C23.3032 18.9986 20.7998 16.3935 18.2664 13.6822C18.1072 13.5118 18.0301 13.3861 18.0617 13.1637C18.968 11.9838 22.3129 10.8559 23.8042 10.2231Z" fill="#5D9D4E"/>
<path d="M23.8047 10.2231C24.4949 9.9164 26.1095 9.56042 26.8814 9.40685C32.4653 8.29589 39.0015 9.04242 44.2599 11.2042C46.5158 12.1317 49.2997 13.2042 50.3393 15.5374C50.4218 15.7232 50.5001 15.9109 50.574 16.1002C49.9248 17.2194 49.3211 18.1462 49.272 19.4986C49.2588 19.862 49.2796 20.8472 49.2119 21.1326C47.4804 22.7647 46.1304 22.5379 43.9338 22.9801C38.4582 17.397 34.1707 15.3817 26.8391 13.2441C26.5084 14.2491 26.3852 14.7792 26.2477 15.8249C25.5801 14.7731 24.0633 11.435 23.8047 10.2231Z" fill="#84CD80"/>
<path d="M26.2949 15.9839C27.2974 16.4331 28.8496 16.8179 29.9514 17.2062C33.0266 18.2736 35.8998 19.8523 38.4496 21.8758C40.5911 23.5443 42.328 25.6652 44.3463 27.4703C44.5244 27.6295 44.7817 27.7054 45.0088 27.7649C44.9837 28.2296 44.9856 28.5083 44.8424 28.9585C43.689 28.6913 42.377 28.4051 41.2472 28.075C35.2159 26.3129 29.3111 21.4954 26.2949 15.9839Z" fill="#84CD80"/>
<path d="M62.0694 34.561C63.469 34.6467 72.4433 34.4629 73.0904 34.6758C74.459 36.9113 75.3985 40.2327 75.8704 42.7896C77.0972 49.438 76.4695 56.8379 74.1256 63.1626C73.7538 64.3105 72.7369 67.8302 72.0968 68.6428L71.9083 68.7235C71.7343 68.5429 70.0776 65.4829 70.0105 65.1709C70.2627 64.4326 70.5887 64.2682 70.7019 63.2323C70.6842 61.8053 70.058 60.9975 68.724 60.5355C68.0745 60.3106 67.7385 60.3955 67.1127 60.267L67.0448 60.2527C66.9103 59.9166 66.2466 58.9852 66.0311 58.5929C63.4766 53.9423 60.5733 51.1779 56.0963 48.3675C55.3263 47.7685 54.5906 47.0696 53.886 46.3937C53.4889 45.8432 53.1455 45.2558 52.8607 44.6396C51.9187 42.582 51.8544 40.8765 52.6372 38.7895C53.5948 38.0118 53.8215 37.8894 54.9902 37.4881C57.4456 37.3622 58.1598 38.7003 60.0607 38.9302C61.0969 38.5655 61.4707 37.9952 62.0005 37.1257C62.0389 36.4207 62.0449 35.6499 62.0648 34.9389L62.0694 34.561Z" fill="#5D9D4E"/>
<path d="M62.071 34.561C63.4706 34.6467 72.4449 34.4629 73.092 34.6758C74.4606 36.9113 75.4001 40.2327 75.872 42.7896C77.0988 49.438 76.4711 56.8379 74.1272 63.1626C73.8506 63.1279 73.5167 63.1218 73.3338 62.9024C72.0512 61.3638 71.0274 59.273 70.0119 57.5526C70.6647 57.4741 71.4208 57.4282 72.0836 57.372C71.4412 51.2132 68.7388 44.9449 64.9431 40.0844C64.1777 39.1042 63.0299 37.7076 62.0888 36.9353C62.1398 36.43 62.1657 35.4222 62.0664 34.9389L62.071 34.561Z" fill="#84CD80"/>
<path d="M54.9919 37.4883C57.4472 37.3624 58.1614 38.7005 60.0623 38.9304C64.9695 43.9807 67.5128 48.9048 68.9841 55.7735C67.0453 52.5574 64.5631 49.0655 61.3712 47.019C57.624 44.6164 54.7402 42.5401 54.9919 37.4883Z" fill="#84CD80"/>
<path d="M51.321 27.5269C52.0017 28.2571 52.6094 29.0521 53.1355 29.9006C51.333 32.4731 49.6241 34.7057 48.4286 37.6698C48.2833 38.03 48.0642 38.5095 47.8792 38.8524C47.4902 38.3881 47.2638 37.894 46.7433 37.3432C45.4813 36.0074 44.4412 36.0992 42.818 36.025C42.4672 34.6498 42.1102 33.0867 41.7051 31.7417C42.8755 31.3885 43.4313 30.9184 44.3463 30.139C44.4012 30.4523 45.8055 35.7523 45.8109 35.7611C46.24 35.6181 46.5017 34.765 46.7471 34.2624C48.0368 31.6208 49.4855 29.7673 51.321 27.5269Z" fill="#276B00"/>
<path d="M53.8862 46.394C54.5907 47.0699 55.3265 47.7688 56.0965 48.3678C55.9696 48.7381 55.77 49.0733 55.5984 49.4236C54.8281 50.9964 54.0907 52.5949 53.5626 54.2668C53.1847 55.4724 52.8744 56.6981 52.6333 57.9381C52.5415 58.3983 52.2758 59.9389 52.142 60.3007C51.6531 60.3692 49.7601 60.3339 49.2639 60.3172C49.2382 59.629 49.445 58.6449 49.5635 57.9493C50.2114 54.1489 51.7405 49.6053 53.8862 46.394Z" fill="#276B00"/>
<path d="M47.2831 60L47.3242 60.1673C47.5335 60.2887 48.8246 60.2344 49.1719 60.233C49.4344 60.2611 49.6955 60.2377 49.9604 60.225L49.9772 60.1983C50.4258 60.2869 51.3999 60.2142 51.8996 60.2283C52.5704 60.2358 53.2407 60.2344 53.9115 60.2241L55.0477 60.2273C57.4477 60.2644 59.858 60.1945 62.2604 60.2259C64.3308 60.2536 66.4697 60.1392 68.5304 60.3023C69.0357 60.3427 69.6835 60.7467 70.0299 61.1053C71.2032 62.2898 71.2177 64.2127 70.0121 65.3827C69.5827 65.7942 69.0413 66.0698 68.4558 66.1748C68.2177 66.2189 67.9993 66.188 67.9074 66.3525C67.8113 67.3064 67.7091 68.2598 67.6004 69.2123L66.3005 81.172L65.8622 85.14C65.7169 86.4684 65.4816 89.3405 64.456 90.2864C64.3824 90.4012 64.3036 90.5133 64.2202 90.6211C63.1318 92.0409 61.5132 92.9578 59.7357 93.1617C58.8268 93.2653 57.2757 93.2231 56.3021 93.2231L50.393 93.2245L43.961 93.2241C41.3088 93.2236 38.9721 93.5405 36.751 91.7555C35.7353 90.9544 34.9785 89.8716 34.5753 88.6425C34.2591 87.6675 34.1986 86.7262 34.0852 85.7175L33.6564 81.6652L31.9508 66.307C31.8667 66.2062 30.532 66.0366 30.0563 65.5683C29.3895 64.912 29.0651 64.522 28.9579 63.5527C28.8723 62.7361 29.1224 61.9195 29.6506 61.2909C30.2396 60.5775 30.9037 60.3375 31.7875 60.247C32.0844 60.2119 32.8358 60.2288 33.1698 60.2288L35.8069 60.2297L44.5307 60.233C45.1581 60.2423 45.7901 60.2297 46.4128 60.2409C46.6724 60.2269 47.0573 60.2995 47.2561 60.1702L47.2831 60Z" fill="#E3E3E3"/>
<path d="M47.2832 60L47.3242 60.1673C47.5335 60.2887 48.8246 60.2344 49.1719 60.233C49.4344 60.2611 49.6955 60.2377 49.9604 60.225L49.9772 60.1983C50.4258 60.2869 51.3999 60.2142 51.8996 60.2283C52.5704 60.2358 53.2407 60.2344 53.9115 60.2241L55.0477 60.2273C57.4477 60.2644 59.858 60.1945 62.2604 60.2259C64.3308 60.2536 66.4697 60.1392 68.5304 60.3023C69.0357 60.3427 69.6835 60.7467 70.0299 61.1053C71.2032 62.2898 71.2177 64.2127 70.0121 65.3827C69.5827 65.7942 69.0413 66.0698 68.4558 66.1748C68.2177 66.2189 67.9993 66.188 67.9074 66.3525C67.8113 67.3064 67.7091 68.2598 67.6004 69.2123L52.0388 69.2283L48.4911 69.2222C45.1404 69.2011 42.7241 69.1355 40.1467 71.737C38.6366 73.2703 37.7985 75.3417 37.817 77.4937C37.8293 78.5156 38.1677 80.4155 38.3431 81.5002C38.5238 82.6177 38.7938 84.9258 39.1765 85.9036C39.5523 86.8566 40.132 87.7158 40.8751 88.4208C42.7777 90.2583 44.7965 90.2367 47.2443 90.2325L50.4249 90.2269L61.2258 90.2273C61.681 90.2269 64.1743 90.1687 64.456 90.2864C64.3824 90.4012 64.3036 90.5133 64.2202 90.6211C63.1318 92.0409 61.5132 92.9578 59.7357 93.1617C58.8268 93.2653 57.2757 93.2231 56.3021 93.2231L50.393 93.2245L43.961 93.2241C41.3088 93.2236 38.9721 93.5405 36.751 91.7555C35.7353 90.9544 34.9785 89.8716 34.5753 88.6425C34.2591 87.6675 34.1986 86.7262 34.0852 85.7175L33.6564 81.6652L31.9508 66.307C31.8667 66.2062 30.532 66.0366 30.0563 65.5683C29.3895 64.912 29.0651 64.522 28.9579 63.5527C28.8723 62.7361 29.1224 61.9195 29.6506 61.2909C30.2396 60.5775 30.9037 60.3375 31.7875 60.247C32.0844 60.2119 32.8358 60.2288 33.1698 60.2288L35.8069 60.2297L44.5307 60.233C45.1581 60.2423 45.7901 60.2297 46.4128 60.2409C46.6724 60.2269 47.0573 60.2995 47.2561 60.1702L47.2832 60Z" fill="#B0B0B0"/>
<path d="M47.2832 60L47.3242 60.1673C47.5335 60.2887 48.8246 60.2344 49.1719 60.233C49.4344 60.2611 49.6955 60.2377 49.9604 60.225L49.9772 60.1983C50.4258 60.2869 51.3999 60.2142 51.8996 60.2283C52.5704 60.2358 53.2407 60.2344 53.9115 60.2241L55.0477 60.2273C57.4477 60.2644 59.858 60.1945 62.2604 60.2259C64.3308 60.2536 66.4697 60.1392 68.5304 60.3023C69.0357 60.3427 69.6835 60.7467 70.0299 61.1053C71.2032 62.2898 71.2177 64.2127 70.0121 65.3827C69.5827 65.7942 69.0413 66.0698 68.4558 66.1748C68.2177 66.2189 67.9993 66.188 67.9074 66.3525L67.884 66.278C67.5816 66.1636 59.6401 66.2288 58.7968 66.2288L32.023 66.2278L31.9508 66.307C31.8667 66.2062 30.532 66.0366 30.0563 65.5683C29.3895 64.912 29.0651 64.522 28.9579 63.5527C28.8723 62.7361 29.1224 61.9195 29.6506 61.2909C30.2396 60.5775 30.9037 60.3375 31.7875 60.247C32.0844 60.2119 32.8358 60.2288 33.1698 60.2288L35.8069 60.2297L44.5307 60.233C45.1581 60.2423 45.7901 60.2297 46.4128 60.2409C46.6724 60.2269 47.0573 60.2995 47.2561 60.1702L47.2832 60Z" fill="#B0B0B0"/>
<path d="M47.2847 60L47.3257 60.1673C47.5351 60.2887 48.8262 60.2344 49.1735 60.233C49.436 60.2611 49.6971 60.2377 49.9619 60.225C49.9704 60.2925 49.9938 60.4416 50.0365 60.4861C50.8226 61.3022 52.1144 62.5448 52.9765 63.2194L40.0863 63.2217L36.7014 63.225C35.1398 63.2264 33.8852 63.4312 32.7105 62.228C32.1641 61.6678 32.053 61.1048 31.9377 60.3487C31.9282 60.2836 31.8341 60.2639 31.7891 60.247C32.086 60.2119 32.8373 60.2288 33.1714 60.2288L35.8085 60.2297L44.5323 60.233C45.1597 60.2423 45.7917 60.2297 46.4143 60.2409C46.6739 60.2269 47.0588 60.2995 47.2576 60.1702L47.2847 60Z" fill="#E3E3E3"/>
</svg>
