<svg width="20" height="20" viewBox="0 0 20 20" fill="none" xmlns="http://www.w3.org/2000/svg">
<path d="M6.25 16.6667H14.5833" stroke="#3AA000" stroke-width="1.5" stroke-linecap="round" stroke-linejoin="round"/>
<path d="M8.75 16.6666C13.3333 14.5833 9.41667 11.3333 11.25 8.33325" stroke="#3AA000" stroke-width="1.5" stroke-linecap="round" stroke-linejoin="round"/>
<path d="M8.33333 7.83325C9.25 8.49991 9.83333 9.66658 10.25 10.9166C8.58333 11.2499 7.33333 11.2499 6.25 10.6666C5.25 10.1666 4.33333 9.08325 3.75 7.16658C6.08333 6.74992 7.41667 7.16658 8.33333 7.83325Z" stroke="#3AA000" stroke-width="1.5" stroke-linecap="round" stroke-linejoin="round"/>
<path d="M12.1658 4.99992C11.5305 5.99288 11.2109 7.15504 11.2492 8.33325C12.8325 8.24992 13.9992 7.83325 14.8325 7.16659C15.6658 6.33325 16.1658 5.24992 16.2492 3.33325C13.9992 3.41659 12.9158 4.16659 12.1658 4.99992Z" stroke="#3AA000" stroke-width="1.5" stroke-linecap="round" stroke-linejoin="round"/>
</svg>
