<svg width="300" height="300" viewBox="0 0 300 300" fill="none" xmlns="http://www.w3.org/2000/svg">
<path d="M225.151 112.621C228.825 112.079 241.974 113.766 241.091 120.161C240.994 120.855 240.155 121.696 239.534 122.031C236.184 123.84 233.297 122.273 230.105 121.131C225.788 119.698 219.914 121.411 216.104 123.782C206.292 129.889 198.021 142.551 195.043 153.66C194.336 156.297 193.22 161.529 194.747 163.97C195.112 164.647 196.259 165.709 197.102 165.745C208.662 166.233 221.584 147.261 226.249 139.459C227.455 137.459 228.551 135.395 229.532 133.276C230.365 131.474 231.118 129.705 232.083 127.981C233.988 124.579 242.635 124.264 242.103 129.521C241.869 131.829 241.409 134.268 240.98 136.556C239.299 145.082 237.259 153.532 234.86 161.884C233.972 164.964 232.824 168.444 231.785 171.48C241.118 167.992 249.783 159.788 254.767 151.227C256.004 149.739 258.695 142.639 260.256 142.126C265.092 140.536 261.607 148.665 261.177 149.633C254.89 163.742 243.53 173.885 229.341 179.636C228.488 181.001 227.474 183.635 226.802 185.213C225.72 187.782 224.542 190.31 223.27 192.792C214.307 210.167 204.285 225.462 188.466 237.513C176.737 246.447 160.726 253.745 145.654 251.828C141.199 251.145 136.021 248.937 133.433 245.071C123.946 230.89 137.909 214.448 148.931 206.376C165.593 194.559 181.707 188.629 200.674 181.982C204.419 180.679 208.173 179.398 211.935 178.142C214.021 177.443 217.483 176.361 219.358 175.457C220.932 170.609 222.293 165.567 223.669 160.657C224.431 157.941 224.95 154.609 225.931 152.014C223.688 153.612 221.134 157.083 219.213 159.218C213.04 165.97 205.673 174.615 196.067 175.813C186.504 177.003 182.203 171.171 181.23 162.37C179.076 164.392 176.763 167.166 174.508 169.069C170.332 172.597 163.86 177.074 158.8 179.195C155.24 180.689 151.483 181.668 147.645 182.097C134.444 183.626 122.348 178.507 121.017 164.114C119.884 151.856 124.818 140.223 132.349 130.786C141.19 119.709 159.469 108.603 172.897 118.285C176.771 121.544 178.809 126.932 179.213 131.884C180.39 146.392 171.842 160.939 161.091 170.084C159.221 171.674 157.299 172.792 155.718 174.707C164.176 173.256 176.3 164.976 181.307 157.297C182.102 155.365 182.214 153.126 182.837 151.096C187.643 135.419 200.088 121.709 215.041 115.064C217.866 113.808 221.869 113.032 225.151 112.621ZM215.428 184.415C215.196 184.235 215.336 184.286 214.994 184.32C197.479 189.724 179.686 194.524 163.756 203.869C154.265 209.437 144.98 216.238 139.667 226.126C136.899 231.277 135.145 238.23 140.342 242.498C144.389 245.3 148.971 245.381 153.667 244.422C173.526 240.363 191.581 224.673 202.696 208.434C207.161 201.853 211.041 194.891 214.291 187.632C214.691 186.713 215.47 185.404 215.428 184.415ZM168.477 132.851C168.599 127.178 165.78 120.929 158.961 122.104C144.628 123.973 132.025 151.312 133.853 164.746C134.648 170.587 137.107 173.048 143.126 172.427C157.343 168.63 168.181 146.791 168.477 132.851Z" fill="#9FC423"/>
<path d="M128.961 47.8636C130.349 48.9497 132.888 64.6875 133.286 67.6342C136.05 87.9233 134.47 110.502 123.686 128.333C114.603 143.558 100.742 154.541 86.3066 164.368C84.9999 165.548 83.257 167.029 82.1104 168.338C72.6638 179.124 61.7792 189.401 46.9639 191.547C45.2408 191.798 37.5066 192.832 37.207 190.185C37.3333 189.691 37.5306 189.605 37.9062 189.304C38.7916 188.873 42.0207 188.106 43.1299 187.828C45.5309 187.224 46.8237 186.76 49.0889 185.768C56.315 182.642 62.8334 178.085 68.25 172.37C69.6108 170.934 71.4202 168.881 72.1465 167.019C71.3881 165.167 70.4352 163.314 69.6543 161.449C67.5865 156.61 65.9876 151.583 64.8809 146.439C60.6922 126.29 63.8316 106.282 75.3955 89.1185C81.7441 79.6959 89.9626 71.7446 99.7188 65.9125C102.794 64.039 105.958 62.314 109.199 60.7435C116.602 57.2028 124.36 54.8874 128.961 47.8636ZM121.413 64.5052C114.447 68.685 103.699 84.1583 99.4512 91.1908C99.7533 86.3276 101.623 80.081 102.95 75.3148C103.065 74.9019 103.118 74.6083 102.972 74.2328C101.715 74.7407 99.5239 79.0641 98.9658 80.3031C96.5957 85.5645 96.3378 90.9989 95.5889 96.5629C95.4956 97.2526 93.5536 100.614 93.0684 101.499C91.7037 103.938 90.39 106.404 89.1279 108.897C88.5797 109.985 86.3714 114.931 85.8545 115.468L85.6572 115.387C84.7499 112.586 86.7827 91.8234 85.9844 91.2699C84.7838 92.1757 82.7366 102.577 82.3486 104.851C81.3223 110.868 82.6109 117.918 81.8652 123.807C81.4417 127.152 79.2117 131.878 78.2607 135.313C75.6813 129.15 73.646 122.814 72.6035 116.19C72.5317 115.405 72.3281 113.006 71.9531 112.495C71.4602 113.258 71.4876 118.76 71.6836 119.749C71.8023 124.244 72.9833 129.472 74.1484 133.823C74.7371 136.02 75.7558 138.946 76.0527 141.121C76.2119 143.3 75.5741 145.77 75.333 147.872C75.0783 150.093 74.15 158.702 75.8047 160.061C77.0298 159.504 78.9969 151.673 79.5537 149.924C79.862 148.955 80.2336 148.007 80.666 147.086C85.4997 136.915 100.217 128.35 107.518 118.959L107.361 119.018L107.102 119.119C103.951 120.322 101.717 121.99 98.9209 123.688C92.7521 127.434 88.3212 131.573 83.2646 136.601C84.3253 131.931 86.78 123.524 89.4756 119.657C93.5993 113.74 108.331 108.446 115.048 104.112C117.537 102.505 119.73 100.59 121.717 98.3969C118.271 99.6842 114.545 101.56 111.061 102.913C107.153 104.431 103.108 105.838 99.375 107.736C96.9635 108.962 94.7777 110.644 92.4092 112.007C94.1325 108.091 95.8092 104.537 97.9756 100.844C98.6482 99.6976 99.6675 97.6182 100.519 96.6791C102.351 94.6578 105.383 92.7288 107.648 91.2152C112.825 87.7575 118.563 84.658 123.09 80.3549C116.975 82.085 112.379 83.5607 107.208 87.4906C106.873 87.2069 106.705 87.0347 106.404 86.724C109.643 81.5142 113.652 76.4378 117.04 71.2855C118.425 69.1791 120.284 66.7337 121.413 64.5052Z" fill="#9FC423"/>
<path d="M71.6846 119.749C71.4886 118.76 71.461 113.258 71.954 112.495C72.329 113.006 72.5327 115.406 72.6044 116.19C72.1683 115.627 72.3031 115.815 72.2131 115.008C71.4793 116.139 71.8536 118.354 71.6846 119.749Z" fill="#9FC423"/>
<path d="M104.975 89.1256C105.461 88.1858 105.821 87.6119 106.406 86.7241C106.707 87.0348 106.874 87.2065 107.21 87.4902C106.362 88.2259 105.927 88.516 104.975 89.1256Z" fill="#9FC423"/>
<path d="M84.2789 169.902C85.0361 170.468 85.8101 171.175 86.5485 171.793C95.9033 179.641 108.421 182.876 120.463 181.301C122.568 181.026 124.597 180.658 126.71 180.458C128.15 181.121 129.445 181.911 130.959 182.532C133.404 183.536 135.819 183.979 138.389 184.512C135.987 185.793 133.276 186.838 130.712 187.737C114.246 193.139 96.0071 192 82.5928 180.016C81.0902 178.673 79.4829 177.4 78.3496 175.699C80.3024 173.743 82.2791 171.809 84.2789 169.902Z" fill="#9FC423"/>
</svg>
