<svg width="249" height="249" viewBox="0 0 249 249" fill="none" xmlns="http://www.w3.org/2000/svg">
<path d="M186.876 93.4754C189.926 93.0254 200.839 94.4254 200.106 99.7332C200.026 100.309 199.33 101.008 198.814 101.286C196.033 102.787 193.638 101.487 190.989 100.539C187.406 99.3492 182.529 100.771 179.367 102.739C171.223 107.808 164.358 118.317 161.886 127.538C161.299 129.727 160.373 134.069 161.64 136.095C161.943 136.657 162.895 137.538 163.595 137.568C173.19 137.973 183.914 122.226 187.787 115.751C188.788 114.091 189.698 112.378 190.512 110.619C191.204 109.123 191.828 107.655 192.629 106.224C194.211 103.4 201.388 103.139 200.946 107.503C200.751 109.418 200.371 111.442 200.015 113.342C198.62 120.418 196.925 127.431 194.934 134.363C194.197 136.92 193.245 139.809 192.382 142.329C200.129 139.434 207.321 132.625 211.458 125.519C212.484 124.284 214.717 118.392 216.012 117.965C220.027 116.645 217.135 123.392 216.778 124.195C211.56 135.906 202.131 144.325 190.353 149.097C189.646 150.231 188.804 152.417 188.247 153.726C187.348 155.859 186.371 157.958 185.315 160.017C177.876 174.439 169.557 187.134 156.427 197.136C146.692 204.551 133.404 210.608 120.894 209.017C117.196 208.45 112.898 206.618 110.751 203.409C102.876 191.639 114.466 177.991 123.614 171.292C137.443 161.484 150.818 156.562 166.561 151.045C169.669 149.963 172.784 148.9 175.907 147.858C177.638 147.277 180.511 146.379 182.068 145.629C183.375 141.605 184.504 137.421 185.646 133.346C186.278 131.091 186.709 128.326 187.524 126.173C185.662 127.499 183.542 130.379 181.948 132.151C176.824 137.756 170.71 144.931 162.737 145.926C154.799 146.914 151.229 142.071 150.421 134.766C148.634 136.445 146.715 138.747 144.843 140.327C141.377 143.255 136.005 146.972 131.805 148.732C128.85 149.972 125.732 150.785 122.546 151.141C111.59 152.41 101.55 148.161 100.445 136.215C99.5039 126.041 103.599 116.385 109.85 108.553C117.188 99.3588 132.36 90.1404 143.505 98.1766C146.72 100.882 148.412 105.354 148.747 109.464C149.723 121.505 142.629 133.579 133.707 141.17C132.154 142.49 130.559 143.417 129.248 145.007C136.267 143.802 146.33 136.93 150.486 130.556C151.145 128.953 151.239 127.095 151.755 125.409C155.744 112.398 166.074 101.019 178.485 95.5037C180.83 94.4609 184.152 93.8168 186.876 93.4754ZM178.806 153.064C178.613 152.915 178.73 152.957 178.446 152.985C163.908 157.47 149.14 161.454 135.918 169.211C128.04 173.832 120.334 179.478 115.924 187.684C113.627 191.96 112.171 197.731 116.485 201.273C119.843 203.599 123.647 203.666 127.544 202.87C144.027 199.501 159.012 186.479 168.238 173.001C171.944 167.538 175.166 161.76 177.863 155.734C178.195 154.971 178.841 153.885 178.806 153.064ZM139.837 110.266C139.938 105.558 137.598 100.371 131.938 101.346C120.042 102.898 109.582 125.589 111.099 136.739C111.759 141.587 113.8 143.629 118.794 143.114C130.595 139.963 139.591 121.837 139.837 110.266Z" fill="#9FC423"/>
<path d="M107.039 39.7269C108.191 40.6295 110.299 53.6901 110.629 56.1361C112.923 72.976 111.61 91.7163 102.659 106.516C95.1206 119.153 83.6169 128.269 71.6357 136.425C70.5513 137.404 69.1051 138.634 68.1533 139.72C60.3126 148.673 51.2774 157.202 38.9805 158.984C37.5496 159.192 31.1307 160.05 30.8828 157.853C30.9876 157.443 31.1513 157.372 31.4629 157.122C32.1977 156.764 34.8782 156.128 35.7988 155.897C37.7915 155.396 38.8643 155.011 40.7441 154.188C46.742 151.593 52.1525 147.81 56.6484 143.067C57.7779 141.875 59.2801 140.171 59.8828 138.625C59.2533 137.089 58.4617 135.55 57.8135 134.002C56.0973 129.986 54.7711 125.814 53.8525 121.544C50.3759 104.82 52.981 88.2135 62.5791 73.9681C67.8484 66.1474 74.67 59.548 82.7676 54.7074C85.3204 53.1524 87.9467 51.7209 90.6367 50.4174C96.7808 47.4785 103.22 45.5567 107.039 39.7269ZM100.774 53.5394C94.9928 57.0085 86.0714 69.8519 82.5459 75.6888C82.7966 71.6525 84.3475 66.468 85.4492 62.5121C85.5447 62.1692 85.5897 61.9245 85.4678 61.6127C84.4248 62.0343 82.6057 65.6236 82.1426 66.6517C80.1754 71.0187 79.9614 75.5287 79.3398 80.1469C79.2629 80.7186 77.6509 83.5097 77.248 84.2445C76.1154 86.2681 75.0251 88.3153 73.9775 90.3842C73.5227 91.2871 71.69 95.3919 71.2607 95.8383L71.0957 95.7719C70.3426 93.447 72.0306 76.2147 71.3682 75.7543C70.3717 76.506 68.6716 85.1385 68.3496 87.0258C67.4977 92.0204 68.5682 97.8717 67.9492 102.76C67.5977 105.536 65.7463 109.459 64.957 112.31C62.8161 107.194 61.1269 101.936 60.2617 96.4379C60.2022 95.7871 60.033 93.7947 59.7217 93.3705C59.3126 94.0044 59.3354 98.5711 59.498 99.392C59.5965 103.122 60.5778 107.462 61.5449 111.073C62.0335 112.897 62.8786 115.326 63.125 117.131C63.2571 118.939 62.7274 120.989 62.5273 122.735C62.3159 124.579 61.5453 131.724 62.9189 132.851C63.9358 132.388 65.5681 125.889 66.0303 124.437C66.2862 123.632 66.5943 122.846 66.9531 122.081C70.9651 113.639 83.1814 106.531 89.2412 98.7367L89.1104 98.7845L88.8945 98.8685C86.2794 99.8677 84.4261 101.252 82.1055 102.661C76.9853 105.77 73.3073 109.206 69.1104 113.379C69.9907 109.503 72.0282 102.525 74.2656 99.3148C77.6884 94.4041 89.9166 90.0098 95.4912 86.4125C97.5572 85.0792 99.3761 83.4895 101.025 81.6693C98.1654 82.7378 95.0724 84.2954 92.1807 85.4183C88.9373 86.6779 85.5799 87.846 82.4814 89.4213C80.4801 90.4388 78.6659 91.8347 76.7002 92.9662C78.1306 89.7159 79.5232 86.7658 81.3213 83.7006C81.8795 82.749 82.7244 81.023 83.4307 80.2435C84.9513 78.5659 87.4689 76.9656 89.3496 75.7094C93.6463 72.8394 98.4081 70.2663 102.165 66.6947C97.0896 68.1307 93.2756 69.3548 88.9834 72.6166C88.7052 72.3812 88.566 72.2387 88.3164 71.9808C91.0048 67.6567 94.3321 63.4437 97.1445 59.1674C98.2945 57.4189 99.8375 55.3891 100.774 53.5394Z" fill="#9FC423"/>
<path d="M59.4981 99.3915C59.3355 98.5706 59.3126 94.004 59.7217 93.3705C60.033 93.7947 60.202 95.787 60.2616 96.4378C59.8996 95.9705 60.0114 96.1267 59.9368 95.4563C59.3277 96.3951 59.6384 98.2336 59.4981 99.3915Z" fill="#9FC423"/>
<path d="M87.1289 73.9742C87.5329 73.1941 87.8317 72.7179 88.3169 71.981C88.5665 72.2389 88.7057 72.3813 88.984 72.6168C88.2803 73.2275 87.9196 73.4683 87.1289 73.9742Z" fill="#9FC423"/>
<path d="M69.9525 141.018C70.581 141.488 71.2234 142.075 71.8363 142.588C79.6008 149.102 89.9902 151.787 99.9858 150.48C101.733 150.251 103.417 149.946 105.17 149.78C106.366 150.33 107.44 150.986 108.697 151.502C110.726 152.335 112.731 152.702 114.864 153.145C112.87 154.208 110.62 155.076 108.492 155.821C94.825 160.305 79.687 159.36 68.5531 149.413C67.3059 148.299 65.9719 147.242 65.0312 145.831C66.6521 144.206 68.2927 142.602 69.9525 141.018Z" fill="#9FC423"/>
</svg>
