<svg width="96" height="96" viewBox="0 0 96 96" fill="none" xmlns="http://www.w3.org/2000/svg">
<path d="M23.1804 23.9538C23.3705 23.6036 23.592 23.2715 23.8422 22.9616C27.0841 18.9414 34.6927 17.3272 38.9717 20.5671C40.5341 21.7502 41.7282 24.8597 40.3407 26.4893C40.5259 26.9363 40.5875 26.8804 41.0541 26.9185C42.8411 26.6591 44.0191 26.5989 45.5593 27.7259C47.1275 28.8733 48.1966 31.2192 48.425 33.1101C48.7655 35.9289 48.6369 37.3578 47.6003 39.8988C46.9598 40.643 46.6298 41.299 45.8965 42.0848L45.8763 42.0534C45.3395 41.2035 45.0135 39.5095 44.6576 38.5471C44.0775 36.9782 42.8623 34.1985 41.031 33.8511C40.6525 33.7793 40.5643 33.7448 40.2585 33.9145C39.9352 34.5738 41.0224 36.4255 41.2677 37.1428C41.9816 39.2307 43.4289 42.6073 43.2051 44.8282L43.244 44.8772C44.7773 46.7844 45.7508 47.1651 44.9973 50.0778C46.4903 53.3566 47.5269 56.7345 47.6384 60.3587C47.0275 60.3909 46.399 60.3455 45.7169 60.389C45.2112 58.0974 44.7028 54.2417 43.3425 52.254C39.9496 55.5667 36.8255 56.4672 32.0804 56.3099C30.2655 56.2497 28.633 56.0888 26.8485 56.5718C25.3183 56.9859 24.5652 57.6547 23.2175 58.3938C23.1949 55.409 23.3956 53.109 24.1253 50.1804L23.9748 50.0682C21.5827 50.4774 19.2981 51.1775 17.0306 52.039C17.377 48.7877 17.3018 46.2103 16.8137 42.9815C16.6436 41.8559 16.6194 39.8146 17.261 38.8337C18.5073 36.9286 21.2679 36.1434 23.3283 35.4874C24.1941 35.2122 25.0767 35.021 25.8098 34.4675C27.4834 33.0716 26.0713 32.3217 24.5665 32.3372C21.378 32.37 19.157 34.1215 17.0143 36.2464C17.1153 33.7792 18.3841 30.0421 19.7476 28.0592C22.13 25.1926 27.3504 27.0037 30.5386 26.6058C32.4312 26.3696 31.1429 24.7639 30.1656 24.2771C27.9704 23.1836 25.5025 23.3202 23.1804 23.9538ZM38.1925 40.5054C37.7524 39.3413 36.2724 35.2327 34.4535 36.7632C34.058 37.0959 34.7179 39.7907 34.8363 40.3673C35.5886 40.2209 36.069 40.117 36.8456 40.165C37.2655 40.191 37.9903 40.6076 38.1925 40.5054ZM29.6466 43.0167C29.4188 42.4669 29.1113 42.0361 28.5408 41.8236C25.9248 40.8493 25.9837 45.1888 26.0543 46.5978C27.1593 45.3148 28.3602 44.1177 29.6466 43.0167Z" fill="#3AA000"/>
<path d="M34.8373 40.367C35.5896 40.2206 36.07 40.1166 36.8466 40.1647C37.2665 40.1906 37.9912 40.6073 38.1935 40.5051C39.0141 42.6058 38.8559 46.0044 38.3124 48.1426C39.657 47.5194 40.6122 47.0193 41.7637 46.0608C42.0623 45.8122 42.959 44.9786 43.206 44.8279L43.245 44.8769C44.7783 46.7841 45.7517 47.1648 44.9982 50.0775C46.4913 53.3562 47.5278 56.7341 47.6394 60.3584C47.0285 60.3906 46.4 60.3452 45.7179 60.3887C45.2122 58.0971 44.7038 54.2413 43.3434 52.2537C39.9506 55.5663 36.8265 56.4668 32.0813 56.3096C30.2664 56.2494 28.6339 56.0885 26.8494 56.5714C25.3193 56.9855 24.5662 57.6544 23.2185 58.3935C23.1959 55.4086 23.3966 53.1086 24.1262 50.1801L23.9758 50.0679C25.5753 49.8616 26.0672 47.9736 26.0553 46.5974C27.1603 45.3145 28.3612 44.1173 29.6476 43.0163C29.7768 43.1685 29.8467 43.3333 29.8851 43.5262C30.3842 46.0325 29.3836 48.3102 28.1172 50.3692C36.9031 50.5665 36.3516 47.8983 34.8373 40.367Z" fill="#276B00"/>
<path d="M21.6738 45.0166L21.71 44.9554C23.2317 42.39 24.8907 39.7653 26.758 37.4377C28.6332 35.1002 36.7048 27.0956 39.4641 26.4292C39.7746 26.3542 40.0581 26.3209 40.3419 26.4893C40.5271 26.9363 40.5886 26.8804 41.0553 26.9186C40.7654 27.6513 36.2557 30.3678 35.0969 31.3199C31.3301 34.4145 28.1962 37.4942 24.9351 41.1148C24.1029 42.0388 22.3973 44.4217 21.6738 45.0166Z" fill="#276B00"/>
<path d="M59.6136 6.32772C61.0187 2.86903 64.6056 2.57397 67.7123 3.79519C71.9619 5.46559 75.8634 9.39851 77.7472 13.5305C77.9116 13.9023 78.3111 14.8797 78.3651 15.2429L78.2931 15.3349C77.5487 15.161 76.2623 14.3465 75.4714 13.9921C73.691 13.1945 67.1579 12.3754 66.1345 14.5623C66.2821 15.6267 69.7447 15.4606 70.6505 15.5508C73.0878 15.7935 76.9038 16.614 78.5256 18.59C79.4874 19.7621 79.3466 24.2086 79.1285 25.6156C78.3026 24.7326 77.2159 23.4934 76.2852 22.7182C74.3436 21.1011 71.1754 19.2822 68.5917 19.1226C68.1827 19.0973 67.7794 19.1386 67.4496 19.3834C67.0472 19.9463 67.5576 20.8421 68.0769 21.1705C69.1338 21.872 70.2906 22.2864 71.4448 22.8082C73.669 23.8139 75.2666 24.8551 77.0338 26.518C79.5504 28.8861 78.528 30.3878 77.1038 33.0154C76.9806 33.2429 76.6915 33.5085 76.4504 33.6183C76.1728 33.4756 76.0305 32.8318 75.8641 32.4655C74.9383 30.4269 72.1062 26.6468 69.5173 27.2313C67.7489 27.6305 70.6967 30.7019 71.3598 30.9976C73.1215 32.392 74.6754 33.9123 75.1681 36.1276C74.3202 38.2801 71.6453 40.0558 69.983 41.6215C69.473 42.1019 68.3306 43.1692 67.7585 43.5066C61.2272 39.4657 61.4257 41.5657 63.0462 33.6145C63.1154 33.275 63.013 32.8085 62.7728 32.5243C60.9108 31.4158 59.948 37.8035 59.8316 38.8872C58.9773 38.1823 57.1534 37.1982 57.1484 35.9511C57.1542 32.8159 59.4779 30.0501 60.5866 27.2531C61.1049 26.3015 60.5946 24.5452 59.2753 25.0198C57.1083 25.7993 55.8169 29.4386 55.2486 31.4962C55.0609 32.1762 54.8092 33.7032 54.1686 34.006C53.7797 33.5787 52.6312 32.5995 52.1645 32.2507C52.0389 32.03 51.7126 31.6833 51.5314 31.478C50.8065 30.8266 50.3235 30.0406 49.8548 29.1989C50.6013 25.9188 53.336 22.7827 55.8958 20.7901C56.5063 20.3149 57.9603 19.3687 57.5429 18.5298C56.7855 17.9772 55.421 18.8174 54.7366 19.2218C52.4269 20.5865 50.6376 22.5631 49.4589 24.9673C49.2561 25.3808 48.6136 26.7623 48.351 26.9789L48.1493 26.9275C47.3897 26.3265 46.4167 24.0272 46.1523 23.0389C45.816 21.999 45.0977 19.0943 45.846 18.1425C47.1427 16.4927 49.744 15.6125 51.5544 14.6022C52.2934 14.1898 54.7128 13.4298 54.6315 12.3817C54.4593 12.085 54.1066 11.9209 53.8043 11.7438C49.6355 11.4476 46.9027 15.3811 45.8715 15.325C45.5651 14.8281 45.9679 12.1207 46.2291 11.4896C46.9609 9.72095 48.1978 7.84112 49.6353 6.57618C51.1647 5.23027 53.2238 4.34653 55.2827 4.48826C57.0484 4.60708 58.0969 5.50949 59.1904 6.73571C59.4636 6.65949 59.4093 6.62743 59.6136 6.32772ZM67.7925 10.2609C68.5148 10.2735 70.4801 10.1821 71.0552 9.80417L71.1626 9.6118C70.8504 8.66696 68.4424 8.18283 67.5723 8.33415C66.5703 8.4401 65.8374 8.56023 64.9249 9.03572C64.211 9.40767 64.0007 10.1561 64.7595 10.6001C65.6343 10.7504 66.9343 10.4988 67.7925 10.2609Z" fill="#3AA000"/>
<path d="M53.8043 11.7436C49.6355 11.4474 46.9027 15.3808 45.8715 15.3248C45.5651 14.8278 45.9679 12.1204 46.2291 11.4894C46.9609 9.72072 48.1978 7.84089 49.6353 6.57595C51.1647 5.23004 53.2238 4.3463 55.2827 4.48803C57.0484 4.60686 58.0969 5.50926 59.1904 6.73548C58.5789 7.67142 60.0845 11.049 60.3244 12.2428C60.3799 12.519 60.717 13.5876 60.8277 13.8248C56.716 14.6527 52.0825 17.2841 48.9729 20.096C48.327 20.6802 46.5819 22.7494 46.1523 23.0387C45.816 21.9988 45.0977 19.0941 45.846 18.1422C47.1427 16.4925 49.744 15.6123 51.5544 14.6019C52.2934 14.1895 54.7128 13.4296 54.6315 12.3814C54.4593 12.0848 54.1066 11.9206 53.8043 11.7436Z" fill="#3AA000"/>
<path d="M60.8297 13.8247C61.2511 15.0285 61.9549 17.6073 62.2995 18.9038C58.3415 21.394 55.4522 23.8759 53.0775 28.0936C52.6841 28.7923 51.8899 31.1617 51.5334 31.4777C50.8085 30.8263 50.3255 30.0404 49.8567 29.1986C50.6032 25.9185 53.3379 22.7825 55.8977 20.7899C56.5083 20.3146 57.9622 19.3684 57.5448 18.5295C56.7874 17.977 55.4229 18.8171 54.7386 19.2215C52.4289 20.5863 50.6395 22.5628 49.4608 24.967C49.258 25.3805 48.6156 26.762 48.3529 26.9786L48.1512 26.9272C47.3917 26.3262 46.4187 24.0269 46.1543 23.0386C46.5839 22.7494 48.3289 20.6801 48.9749 20.0959C52.0844 17.284 56.7179 14.6526 60.8297 13.8247Z" fill="#3AA000"/>
<path d="M59.6151 6.32764C60.128 6.53539 60.4903 6.48674 60.6731 7.10966C63.4044 16.4164 65.9419 25.7637 66.7734 35.4685C66.789 35.6507 66.844 36.1909 66.7676 36.3291C66.5999 36.1419 66.057 33.1861 65.9478 32.7113C65.2434 29.63 64.4684 26.5654 63.6233 23.5197C63.2874 22.2817 62.7387 20.0874 62.299 18.904C61.9545 17.6075 61.2507 15.0287 60.8292 13.8249C60.7185 13.5878 60.3814 12.5192 60.3259 12.243C60.086 11.0491 58.5804 7.67157 59.1919 6.73563C59.4651 6.65941 59.4108 6.62734 59.6151 6.32764Z" fill="#276B00"/>
<path d="M57.5409 45.7713C58.079 42.4406 61.8561 41.8534 64.517 42.8352C65.8619 43.3315 66.7183 44.0322 67.7311 45.003C71.3822 49.4982 72.0578 55.0125 69.5283 60.3507C68.6402 62.2249 68.2762 61.1152 67.0334 60.2021C63.1658 57.0738 57.9925 57.5589 54.5894 53.6307C54.387 53.1567 53.8225 51.9604 53.5492 51.5817C53.5174 51.4592 53.4926 51.3351 53.475 51.2097C53.2271 49.4113 53.6852 47.4053 55.3267 46.3895C56.0528 45.9402 56.7188 45.8825 57.5409 45.7713Z" fill="#3AA000"/>
<path d="M57.543 45.7713C58.081 42.4406 61.8581 41.8534 64.519 42.8352C65.864 43.3315 66.7203 44.0322 67.7331 45.003C67.2231 45.2675 66.2381 45.125 65.5401 45.3316C64.371 45.6774 63.3349 46.3476 62.2941 46.9629C64.7506 49.1902 65.8925 50.6018 67.0447 53.8465C67.4363 54.9494 67.7621 55.9928 67.8474 57.1787C66.1298 53.4593 64.8086 50.56 61.4585 47.8659C60.5774 47.1573 59.6514 46.4915 58.5758 46.0993C58.236 45.9764 57.8914 45.867 57.543 45.7713Z" fill="#276B00"/>
<path d="M52.1662 32.251C52.6329 32.5998 53.7814 33.5789 54.1703 34.0062C53.7389 34.7725 53.5714 36.2518 53.4127 37.161L52.5891 42.0041C51.7394 47.0943 50.772 52.2365 50.3405 57.3824C50.2723 58.1957 50.3211 58.9686 50.2079 59.7934C50.5625 58.8938 50.6709 58.1655 50.9239 57.2536C51.5172 55.1148 52.2269 53.3632 53.5521 51.582C53.8254 51.9607 54.3899 53.157 54.5923 53.6309C53.4577 56.2802 52.9353 57.4639 52.35 60.3604C51.9606 60.2932 48.9045 60.3586 48.241 60.3517C48.5984 54.8251 48.0002 49.6135 46.6579 44.2523C46.4737 43.5166 46.3313 42.7149 45.8984 42.085C46.6318 41.2991 46.9618 40.6432 47.6023 39.899C48.5288 42.5094 48.8137 45.0328 49.6658 47.4341C49.7545 45.1749 50.2791 42.4979 50.6823 40.2529C51.1559 37.6161 51.616 34.8695 52.1662 32.251Z" fill="#276B00"/>
<path d="M45.3574 60L45.3984 60.1673C45.6077 60.2887 46.8988 60.2344 47.2462 60.233C47.5087 60.2611 47.7697 60.2377 48.0346 60.225L48.0515 60.1983C48.5001 60.2869 49.4741 60.2142 49.9738 60.2283C50.6446 60.2358 51.3149 60.2344 51.9857 60.2241L53.1219 60.2273C55.5219 60.2644 57.9322 60.1945 60.3346 60.2259C62.4051 60.2536 64.544 60.1392 66.6046 60.3023C67.1099 60.3427 67.7577 60.7467 68.1041 61.1053C69.2774 62.2898 69.2919 64.2127 68.0863 65.3827C67.6569 65.7942 67.1155 66.0698 66.5301 66.1748C66.2919 66.2189 66.0735 66.188 65.9816 66.3525C65.8855 67.3064 65.7833 68.2598 65.6746 69.2123L64.3747 81.172L63.9365 85.14C63.7912 86.4684 63.5558 89.3405 62.5302 90.2864C62.4566 90.4012 62.3779 90.5133 62.2944 90.6211C61.206 92.0409 59.5874 92.9578 57.8099 93.1617C56.901 93.2653 55.3499 93.2231 54.3763 93.2231L48.4672 93.2245L42.0352 93.2241C39.383 93.2236 37.0463 93.5405 34.8252 91.7555C33.8095 90.9544 33.0527 89.8716 32.6496 88.6425C32.3333 87.6675 32.2728 86.7262 32.1594 85.7175L31.7306 81.6652L30.025 66.307C29.9409 66.2062 28.6062 66.0366 28.1305 65.5683C27.4637 64.912 27.1394 64.522 27.0321 63.5527C26.9466 62.7361 27.1966 61.9195 27.7248 61.2909C28.3139 60.5775 28.9779 60.3375 29.8617 60.247C30.1587 60.2119 30.91 60.2288 31.244 60.2288L33.8812 60.2297L42.6049 60.233C43.2323 60.2423 43.8644 60.2297 44.487 60.2409C44.7466 60.2269 45.1315 60.2995 45.3303 60.1702L45.3574 60Z" fill="#E3E3E3"/>
<path d="M45.3574 60L45.3984 60.1673C45.6077 60.2887 46.8988 60.2344 47.2462 60.233C47.5087 60.2611 47.7697 60.2377 48.0346 60.225L48.0515 60.1983C48.5001 60.2869 49.4741 60.2142 49.9738 60.2283C50.6446 60.2358 51.3149 60.2344 51.9857 60.2241L53.1219 60.2273C55.5219 60.2644 57.9322 60.1945 60.3346 60.2259C62.4051 60.2536 64.544 60.1392 66.6046 60.3023C67.1099 60.3427 67.7577 60.7467 68.1041 61.1053C69.2774 62.2898 69.2919 64.2127 68.0863 65.3827C67.6569 65.7942 67.1155 66.0698 66.5301 66.1748C66.2919 66.2189 66.0735 66.188 65.9816 66.3525C65.8855 67.3064 65.7833 68.2598 65.6746 69.2123L50.113 69.2283L46.5653 69.2222C43.2147 69.2011 40.7983 69.1355 38.2209 71.737C36.7108 73.2703 35.8727 75.3417 35.8912 77.4937C35.9035 78.5156 36.242 80.4155 36.4173 81.5002C36.598 82.6177 36.868 84.9258 37.2508 85.9036C37.6265 86.8566 38.2062 87.7158 38.9493 88.4208C40.8519 90.2583 42.8707 90.2367 45.3186 90.2325L48.4991 90.2269L59.3001 90.2273C59.7552 90.2269 62.2485 90.1687 62.5302 90.2864C62.4566 90.4012 62.3779 90.5133 62.2944 90.6211C61.206 92.0409 59.5874 92.9578 57.8099 93.1617C56.901 93.2653 55.3499 93.2231 54.3763 93.2231L48.4672 93.2245L42.0352 93.2241C39.383 93.2236 37.0463 93.5405 34.8252 91.7555C33.8095 90.9544 33.0527 89.8716 32.6496 88.6425C32.3333 87.6675 32.2728 86.7262 32.1594 85.7175L31.7306 81.6652L30.025 66.307C29.9409 66.2062 28.6062 66.0366 28.1305 65.5683C27.4637 64.912 27.1394 64.522 27.0321 63.5527C26.9466 62.7361 27.1966 61.9195 27.7248 61.2909C28.3139 60.5775 28.9779 60.3375 29.8617 60.247C30.1587 60.2119 30.91 60.2288 31.244 60.2288L33.8812 60.2297L42.6049 60.233C43.2323 60.2423 43.8644 60.2297 44.487 60.2409C44.7466 60.2269 45.1315 60.2995 45.3303 60.1702L45.3574 60Z" fill="#B0B0B0"/>
<path d="M45.3574 60L45.3984 60.1673C45.6077 60.2887 46.8988 60.2344 47.2462 60.233C47.5087 60.2611 47.7697 60.2377 48.0346 60.225L48.0515 60.1983C48.5001 60.2869 49.4741 60.2142 49.9738 60.2283C50.6446 60.2358 51.3149 60.2344 51.9857 60.2241L53.1219 60.2273C55.5219 60.2644 57.9322 60.1945 60.3346 60.2259C62.4051 60.2536 64.544 60.1392 66.6046 60.3023C67.1099 60.3427 67.7577 60.7467 68.1041 61.1053C69.2774 62.2898 69.2919 64.2127 68.0863 65.3827C67.6569 65.7942 67.1155 66.0698 66.5301 66.1748C66.2919 66.2189 66.0735 66.188 65.9816 66.3525L65.9582 66.278C65.6558 66.1636 57.7143 66.2288 56.871 66.2288L30.0973 66.2278L30.025 66.307C29.9409 66.2062 28.6062 66.0366 28.1305 65.5683C27.4637 64.912 27.1394 64.522 27.0321 63.5527C26.9466 62.7361 27.1966 61.9195 27.7248 61.2909C28.3139 60.5775 28.9779 60.3375 29.8617 60.247C30.1587 60.2119 30.91 60.2288 31.244 60.2288L33.8812 60.2297L42.6049 60.233C43.2323 60.2423 43.8644 60.2297 44.487 60.2409C44.7466 60.2269 45.1315 60.2995 45.3303 60.1702L45.3574 60Z" fill="#B0B0B0"/>
<path d="M45.3589 60L45.4 60.1673C45.6093 60.2887 46.9004 60.2344 47.2477 60.233C47.5102 60.2611 47.7713 60.2377 48.0362 60.225C48.0446 60.2925 48.068 60.4416 48.1107 60.4861C48.8968 61.3022 50.1887 62.5448 51.0507 63.2194L38.1605 63.2217L34.7756 63.225C33.214 63.2264 31.9594 63.4312 30.7847 62.228C30.2383 61.6678 30.1272 61.1048 30.0119 60.3487C30.0025 60.2836 29.9083 60.2639 29.8633 60.247C30.1602 60.2119 30.9115 60.2288 31.2456 60.2288L33.8827 60.2297L42.6065 60.233C43.2339 60.2423 43.8659 60.2297 44.4886 60.2409C44.7482 60.2269 45.133 60.2995 45.3318 60.1702L45.3589 60Z" fill="#E3E3E3"/>
</svg>
