<svg width="96" height="96" viewBox="0 0 96 96" fill="none" xmlns="http://www.w3.org/2000/svg">
<path d="M45.3535 59.7744L45.3945 59.9418C45.6038 60.0632 46.8949 60.0088 47.2422 60.0074C47.5047 60.0355 47.7658 60.0121 48.0307 59.9994L48.0476 59.9727C48.4962 60.0613 49.4702 59.9886 49.9699 60.0027C50.6407 60.0102 51.311 60.0088 51.9818 59.9985L53.118 60.0018C55.518 60.0388 57.9283 59.9689 60.3307 60.0003C62.4012 60.028 64.5401 59.9136 66.6007 60.0768C67.106 60.1171 67.7538 60.5211 68.1002 60.8797C69.2735 62.0643 69.288 63.9871 68.0824 65.1571C67.653 65.5686 67.1116 65.8443 66.5261 65.9493C66.288 65.9933 66.0696 65.9624 65.9777 66.1269C65.8816 67.0808 65.7794 68.0343 65.6707 68.9868L64.3708 80.9464L63.9326 84.9144C63.7872 86.2428 63.5519 89.1149 62.5263 90.0608C62.4527 90.1757 62.374 90.2877 62.2905 90.3955C61.2021 91.8153 59.5835 92.7322 57.806 92.9361C56.8971 93.0397 55.346 92.9975 54.3724 92.9975L48.4633 92.9989L42.0313 92.9985C39.3791 92.998 37.0424 93.3149 34.8213 91.5299C33.8056 90.7288 33.0488 89.646 32.6456 88.4169C32.3294 87.4419 32.2689 86.5007 32.1555 85.4919L31.7267 81.4396L30.0211 66.0814C29.937 65.9807 28.6023 65.811 28.1266 65.3427C27.4598 64.6864 27.1354 64.2964 27.0282 63.3271C26.9426 62.5105 27.1927 61.6939 27.7209 61.0653C28.3099 60.3519 28.974 60.1119 29.8578 60.0214C30.1548 59.9863 30.9061 60.0032 31.2401 60.0032L33.8772 60.0041L42.601 60.0074C43.2284 60.0168 43.8604 60.0041 44.4831 60.0153C44.7427 60.0013 45.1276 60.0739 45.3264 59.9446L45.3535 59.7744Z" fill="#E3E3E3"/>
<path d="M45.3535 59.7739L45.3945 59.9413C45.6038 60.0627 46.8949 60.0083 47.2422 60.0069C47.5047 60.035 47.7658 60.0116 48.0307 59.9989L48.0476 59.9722C48.4962 60.0608 49.4702 59.9881 49.9699 60.0022C50.6407 60.0097 51.311 60.0083 51.9818 59.998L53.118 60.0013C55.518 60.0383 57.9283 59.9685 60.3307 59.9999C62.4012 60.0275 64.5401 59.9131 66.6007 60.0763C67.106 60.1166 67.7538 60.5206 68.1002 60.8792C69.2735 62.0638 69.288 63.9866 68.0824 65.1566C67.653 65.5681 67.1116 65.8438 66.5261 65.9488C66.288 65.9928 66.0696 65.9619 65.9777 66.1264C65.8816 67.0803 65.7794 68.0338 65.6707 68.9863L50.1091 69.0022L46.5614 68.9961C43.2108 68.975 40.7944 68.9094 38.217 71.511C36.7069 73.0442 35.8688 75.1156 35.8873 77.2677C35.8996 78.2895 36.2381 80.1894 36.4134 81.2741C36.5941 82.3916 36.8641 84.6997 37.2469 85.6775C37.6226 86.6305 38.2023 87.4897 38.9454 88.1947C40.848 90.0322 42.8668 90.0106 45.3147 90.0064L48.4952 90.0008L59.2962 90.0013C59.7513 90.0008 62.2446 89.9427 62.5263 90.0603C62.4527 90.1752 62.374 90.2872 62.2905 90.395C61.2021 91.8149 59.5835 92.7317 57.806 92.9356C56.8971 93.0392 55.346 92.997 54.3724 92.997L48.4633 92.9985L42.0313 92.998C39.3791 92.9975 37.0424 93.3144 34.8213 91.5294C33.8056 90.7283 33.0488 89.6455 32.6456 88.4164C32.3294 87.4414 32.2689 86.5002 32.1555 85.4914L31.7267 81.4391L30.0211 66.081C29.937 65.9802 28.6023 65.8105 28.1266 65.3422C27.4598 64.686 27.1354 64.296 27.0282 63.3266C26.9426 62.51 27.1927 61.6935 27.7209 61.0649C28.3099 60.3514 28.974 60.1114 29.8578 60.021C30.1548 59.9858 30.9061 60.0027 31.2401 60.0027L33.8772 60.0036L42.601 60.0069C43.2284 60.0163 43.8604 60.0036 44.4831 60.0149C44.7427 60.0008 45.1276 60.0735 45.3264 59.9441L45.3535 59.7739Z" fill="#B0B0B0"/>
<path d="M45.3535 59.7739L45.3945 59.9413C45.6038 60.0627 46.8949 60.0083 47.2422 60.0069C47.5047 60.035 47.7658 60.0116 48.0307 59.9989L48.0476 59.9722C48.4962 60.0608 49.4702 59.9881 49.9699 60.0022C50.6407 60.0097 51.311 60.0083 51.9818 59.998L53.118 60.0013C55.518 60.0383 57.9283 59.9685 60.3307 59.9999C62.4012 60.0275 64.5401 59.9131 66.6007 60.0763C67.106 60.1166 67.7538 60.5206 68.1002 60.8792C69.2735 62.0638 69.288 63.9866 68.0824 65.1566C67.653 65.5681 67.1116 65.8438 66.5261 65.9488C66.288 65.9928 66.0696 65.9619 65.9777 66.1264L65.9543 66.0519C65.6519 65.9375 57.7104 66.0027 56.8671 66.0027L30.0934 66.0017L30.0211 66.081C29.937 65.9802 28.6023 65.8105 28.1266 65.3422C27.4598 64.686 27.1354 64.296 27.0282 63.3266C26.9426 62.51 27.1927 61.6935 27.7209 61.0649C28.3099 60.3514 28.974 60.1114 29.8578 60.021C30.1548 59.9858 30.9061 60.0027 31.2401 60.0027L33.8772 60.0036L42.601 60.0069C43.2284 60.0163 43.8604 60.0036 44.4831 60.0149C44.7427 60.0008 45.1276 60.0735 45.3264 59.9441L45.3535 59.7739Z" fill="#B0B0B0"/>
<path d="M45.3531 59.7739L45.3941 59.9413C45.6034 60.0627 46.8945 60.0083 47.2419 60.0069C47.5044 60.035 47.7655 60.0116 48.0303 59.9989C48.0387 60.0664 48.0622 60.2155 48.1048 60.26C48.8909 61.0761 50.1828 62.3188 51.0448 62.9933L38.1547 62.9956L34.7698 62.9989C33.2081 63.0003 31.9536 63.2052 30.7788 62.0019C30.2324 61.4417 30.1213 60.8788 30.0061 60.1227C29.9966 60.0575 29.9025 60.0378 29.8574 60.021C30.1544 59.9858 30.9057 60.0027 31.2397 60.0027L33.8769 60.0036L42.6006 60.0069C43.228 60.0163 43.8601 60.0036 44.4827 60.0149C44.7423 60.0008 45.1272 60.0735 45.326 59.9441L45.3531 59.7739Z" fill="#E3E3E3"/>
<path d="M18.3291 10.0189C20.4981 8.5151 23.1707 7.92251 25.772 8.36862C30.0045 9.12199 32.7494 11.8911 31.4268 16.3102C31.6929 16.4555 31.9465 16.5929 32.205 16.7519C37.2586 12.1329 43.4734 16.7238 42.9727 22.8109C42.9345 23.2755 42.906 23.8311 42.7882 24.2809C42.6447 24.1699 42.1223 23.3772 42.0249 23.1674C41.668 22.3984 39.1935 20.2575 38.3839 20.6366C38.2523 20.5416 38.1179 20.4397 37.981 20.3538C36.733 20.2925 35.9667 20.8412 36.8447 22.0356L36.8976 22.0958C38.3051 23.6824 41.6965 25.4334 41.6191 28.1072C41.5915 29.0597 41.0573 30.2582 40.5039 31.0274C39.5232 32.3209 38.7414 33.1386 37.427 34.1166C38.0169 32.1979 37.6377 30.1358 36.7229 28.3361C36.2111 27.3593 34.6825 25.2518 33.3804 25.7799C33.2097 25.8491 33.0059 26.195 32.9971 26.3873C32.8704 29.1613 36.371 32.2857 35.6858 35.1005C35.426 36.1675 31.5973 37.7647 30.5045 38.176C31.2181 36.1043 31.5035 34.4249 30.9038 32.247C30.5651 31.0169 30.1114 29.1881 28.8521 28.5985C28.4944 28.431 28.0006 28.6452 27.897 29.0539C27.7149 30.1482 28.401 31.2673 28.7361 32.2873C29.3192 34.0627 29.8457 37.0212 28.6826 38.682C28.0336 39.0009 26.9787 39.2238 26.2466 39.3793C25.1087 39.612 24.2125 39.7481 23.058 39.8959C23.5651 39.1918 23.9748 38.4224 24.2759 37.6086C24.9151 35.8537 25.3007 33.4074 24.4531 31.6683C24.3394 31.4114 24.1165 31.0347 23.816 30.9686C22.5567 30.6913 22.7365 32.6977 22.8225 33.3799C23.0634 35.2905 23.0603 37.1797 22.0944 38.898C21.5516 39.8637 21.0361 40.0861 19.9548 40.0893C17.2677 40.0533 15.0955 39.3122 12.5159 40.5812C12.4234 39.8446 12.3187 39.3849 12.0798 38.7017C11.8168 37.9501 11.054 36.5346 11.0732 35.7758C11.1243 33.7553 14.1736 33.1999 15.3505 32.0744C15.5374 31.8956 15.679 31.5809 15.6589 31.317C15.6465 31.1566 15.566 31.0093 15.4379 30.9121C15.2463 30.7657 14.6675 30.7593 14.4364 30.8033C12.8287 31.1096 11.7358 31.8981 10.824 33.2049C10.6895 33.4092 10.5617 33.6679 10.4453 33.8867C10.2607 33.2019 10.0335 32.1818 9.96025 31.4901L9.94357 31.28C9.87658 30.677 9.90213 30.5492 10.0428 29.9524C10.1318 29.7283 10.2288 29.5588 10.3429 29.3481C12.2229 26.9254 15.6276 28.0195 18.0185 26.9615C19.1688 26.4525 18.7451 25.1243 17.4138 24.8999C14.7618 24.4528 12.1815 25.5954 9.96241 26.9477C9.98125 26.0379 10.0679 25.1307 10.2215 24.2337C10.3185 23.539 10.4773 22.6332 10.8177 22.0192C11.0686 21.5667 11.6619 21.3563 12.1362 21.2042C13.7872 20.6748 15.5836 20.7287 17.2967 20.8231C18.2436 20.8596 19.2383 21.0022 20.1648 20.7557C21.505 20.3991 20.9183 19.2742 19.9457 18.9126C19.4543 18.6983 18.9633 18.5521 18.4271 18.51C16.2001 18.3354 14.0139 18.8736 11.972 19.7102L11.4421 19.9354L11.8213 18.7387C11.8969 18.3858 12.4553 16.9641 12.615 16.6396L12.8029 16.2613L13.1784 15.5814L13.3999 15.2376C13.5039 15.0772 13.7669 14.6754 13.8875 14.5622C15.2171 13.3141 18.0603 14.1097 19.5231 14.6912C20.3534 14.9592 21.9376 16.0544 22.7729 15.9658C24.3346 15.8003 23.4723 14.3935 22.7456 13.8499C20.5848 12.2336 18.212 12.1761 15.674 12.4366C16.3513 11.5933 17.4462 10.6226 18.3291 10.0189Z" fill="#51934D"/>
<path d="M19.7414 29.3882C18.2257 31.3854 16.7859 33.4392 15.4253 35.5451C14.7382 36.6234 14.1218 37.72 13.4587 38.8105C13.3514 38.987 12.9374 39.4697 12.9631 39.6623C13.2783 39.354 13.7339 38.4896 14.0118 38.0942C14.751 37.0428 15.4575 35.943 16.2036 34.898C17.3602 33.2975 18.5627 31.7305 19.8095 30.1992C20.986 28.7351 22.4331 26.9836 23.7149 25.6113C24.201 26.3691 24.7611 27.7632 25.1032 28.6229C26.1892 31.3527 26.793 34.4786 26.6267 37.4177C26.5965 37.9512 26.4738 38.4584 26.3809 38.9821C26.2772 39.1717 26.2818 39.1643 26.2473 39.3792C25.1094 39.6119 24.2132 39.7479 23.0587 39.8957C23.5658 39.1916 23.9754 38.4223 24.2766 37.6085C24.9158 35.8535 25.3014 33.4072 24.4538 31.6681C24.3401 31.4112 24.1171 31.0345 23.8167 30.9684C22.5574 30.6911 22.7371 32.6975 22.8232 33.3798C23.0641 35.2904 23.061 37.1795 22.0951 38.8979C21.5523 39.8635 21.0368 40.0859 19.9554 40.0891C17.2684 40.0531 15.0962 39.312 12.5166 40.581C12.4241 39.8445 12.3194 39.3847 12.0804 38.7015C11.8175 37.9499 11.0547 36.5345 11.0739 35.7757C11.1249 33.7552 14.1743 33.1997 15.3511 32.0743C15.5381 31.8954 15.6797 31.5807 15.6596 31.3168C15.6472 31.1565 15.5667 31.0091 15.4386 30.912C15.247 30.7655 14.6682 30.7591 14.4371 30.8031C12.8294 31.1094 11.7365 31.898 10.8247 33.2047C10.6902 33.409 10.5623 33.6677 10.446 33.8865C10.2614 33.2017 10.0342 32.1817 9.96094 31.49C10.0485 31.3284 10.3159 31.2219 10.4856 31.1357L10.5601 31.1072C11.09 30.9017 11.5835 30.627 12.1784 30.4079C14.589 29.4973 17.1757 29.1486 19.7414 29.3882Z" fill="#2B633B"/>
<path d="M9.96094 31.49C10.0485 31.3285 10.3159 31.2219 10.4856 31.1357C10.4821 31.6588 10.3212 32.9831 10.8247 33.2048C10.6902 33.4091 10.5623 33.6677 10.446 33.8866C10.2614 33.2018 10.0342 32.1817 9.96094 31.49Z" fill="#295D37"/>
<path d="M19.6618 33.647C21.077 33.6497 20.5242 37.0347 19.6102 37.8692C18.6222 38.2175 18.7967 36.2782 18.7881 35.729C18.776 34.957 18.9864 34.0922 19.6618 33.647Z" fill="#2B633B"/>
<path d="M20.9043 34.3848C21.1056 34.6624 20.9777 36.37 20.9281 36.779C20.7808 36.4313 20.7808 34.8118 20.9043 34.3848Z" fill="#2B633B"/>
<path d="M24.2598 24.9831C25.4993 23.7252 26.6389 22.3441 27.9145 21.1021C33.3934 22.9728 37.6634 25.6447 40.3252 30.9726L40.43 31.0071L40.5034 31.0273C39.5227 32.3208 38.7409 33.1385 37.4264 34.1164C38.0163 32.1977 37.6372 30.1356 36.7224 28.3359C36.2106 27.3592 34.6819 25.2516 33.3798 25.7797C33.2092 25.8489 33.0053 26.1949 32.9965 26.3872C32.8699 29.1611 36.3705 32.2855 35.6852 35.1004C35.4255 36.1673 31.5968 37.7645 30.5039 38.1758C31.2175 36.1041 31.5029 34.4247 30.9032 32.2468C30.5645 31.0168 30.1108 29.1879 28.8516 28.5983C28.4939 28.4309 28.0001 28.645 27.8964 29.0538C27.7144 30.148 28.4005 31.2671 28.7355 32.2872C29.3187 34.0625 29.8452 37.021 28.6821 38.6818C28.033 39.0007 26.9782 39.2236 26.246 39.3792C26.2805 39.1643 26.276 39.1718 26.3797 38.9821L26.4262 38.9738C26.5354 38.7865 26.6721 38.1816 26.7387 37.9428C27.9491 33.6015 26.1871 28.8458 24.2598 24.9831Z" fill="#2C6E43"/>
<path d="M29.3305 23.479C29.855 23.4644 30.124 23.6158 30.4698 24.0356C30.9523 24.6214 31.411 25.4332 31.3633 26.2149C31.3453 26.5088 31.2426 26.5938 31.025 26.7724C29.9908 26.7709 29.0058 25.0439 29.0157 24.1123C29.0189 23.8099 29.123 23.6754 29.3305 23.479Z" fill="#2C6E43"/>
<path d="M18.3301 10.0189C20.4991 8.5151 23.1717 7.92251 25.773 8.36862C30.0055 9.12199 32.7504 11.8911 31.4278 16.3102C31.2891 16.5482 29.721 18.0543 29.4301 18.3392C27.1235 14.8033 24.5677 12.2988 20.5458 10.7153C20.1893 10.575 18.4406 10.1308 18.3301 10.0189Z" fill="#2C6E43"/>
<path d="M24.4502 9.88614C25.9218 9.72699 28.015 12.2418 27.0203 12.8454C26.9762 12.847 26.932 12.8477 26.8878 12.8475C25.8865 12.8394 23.4697 10.8023 24.4502 9.88614Z" fill="#2C6E43"/>
<path d="M32.2045 16.7518C37.2581 12.1328 43.4729 16.7236 42.9722 22.8107C42.934 23.2753 42.9055 23.831 42.7877 24.2808C42.6442 24.1698 42.1218 23.377 42.0244 23.1672C41.6675 22.3982 39.193 20.2573 38.3834 20.6364C38.2518 20.5415 38.1174 20.4396 37.9805 20.3536C36.7325 20.2923 35.9662 20.841 36.8442 22.0355C36.7815 22.0349 36.6486 22.0392 36.5939 22.0052C35.2717 21.1884 33.8356 20.6119 32.3852 20.0684C31.5011 19.7371 30.5511 19.595 29.6504 19.2978C29.8902 19.064 30.3332 18.6079 30.5897 18.4327L31.0023 18.4126C34.6353 18.2388 38.7466 18.6926 41.604 21.2937C41.7803 21.4542 41.9085 21.6539 42.0995 21.8275L42.1204 21.7757C41.9565 21.443 41.4252 20.8474 41.145 20.5883C38.5686 18.2045 34.7006 17.5773 31.3301 17.6313C31.6039 17.3963 32.0058 17.0492 32.2045 16.7518Z" fill="#2C6E43"/>
<path d="M38.4642 15.5469C38.5854 15.5637 38.5563 15.5597 38.6723 15.6062L38.6905 15.6799L38.5854 15.749C38.4413 15.7288 38.3739 15.715 38.2324 15.6796L38.2479 15.6288L38.4642 15.5469Z" fill="#2C6E43"/>
<path d="M10.2215 24.2334C10.8798 23.8745 11.797 23.6585 12.5323 23.4806C16.4832 22.5247 20.2192 22.9672 24.0945 24.0499C23.1334 25.1309 22.2053 26.2408 21.3115 27.3781C21.038 27.7251 20.5634 28.2937 20.3277 28.6475C17.0654 28.34 13.173 28.9553 10.4976 30.9243L10.3782 31.0156L9.94357 31.2797C9.87658 30.6767 9.90213 30.5489 10.0428 29.9521C10.1318 29.728 10.2288 29.5585 10.3429 29.3478C12.2229 26.9251 15.6276 28.0191 18.0185 26.9612C19.1688 26.4522 18.7451 25.124 17.4138 24.8996C14.7618 24.4525 12.1815 25.595 9.96241 26.9473C9.98125 26.0375 10.0679 25.1304 10.2215 24.2334Z" fill="#295D37"/>
<path d="M10.0428 29.9521C10.1431 29.976 10.2522 30.0046 10.3521 30.0252L10.5038 30.0574L10.4976 30.9244L10.3782 31.0157L9.94357 31.2797C9.87658 30.6768 9.90213 30.549 10.0428 29.9521Z" fill="#295D37"/>
<path d="M10.5033 30.0576L10.4971 30.9245L10.3776 31.0158C10.3498 30.8147 10.3549 30.2543 10.3516 30.0254L10.5033 30.0576Z" fill="#295D37"/>
<path d="M10.3431 29.3477C10.4952 29.6113 10.5022 29.7504 10.504 30.0573L10.3523 30.025C10.2524 30.0044 10.1432 29.9758 10.043 29.952C10.132 29.7279 10.229 29.5584 10.3431 29.3477Z" fill="#295D37"/>
<path d="M29.6516 19.2979C30.5523 19.5951 31.5023 19.7372 32.3864 20.0685C33.8368 20.6119 35.2729 21.1885 36.5951 22.0053C36.6498 22.0392 36.7827 22.035 36.8453 22.0355L36.8983 22.0957C38.3058 23.6823 41.6971 25.4333 41.6197 28.1071C41.5922 29.0596 41.058 30.2581 40.5046 31.0273L40.4313 31.0072C40.295 30.5689 40.0388 30.0328 39.8376 29.6119C37.6508 25.0375 33.2802 22.0108 28.5664 20.4025C28.9322 20.0349 29.2712 19.6525 29.6516 19.2979Z" fill="#295D37"/>
<path d="M13.5018 16.175C13.9291 16.204 14.5516 16.0803 14.9996 16.0592C15.6635 16.0277 16.3239 16.0004 16.9899 16.0266C20.5255 16.2085 25.0545 17.82 27.9891 19.7815L27.3095 20.4815C23.5305 18.0124 18.8392 16.5099 14.3135 16.6342C14.0176 16.6423 12.8044 16.7181 12.6152 16.6395L12.8031 16.2612C13.0388 16.2756 13.2105 16.3032 13.3905 16.1512L13.5018 16.175Z" fill="#2C6E43"/>
<path d="M11.8226 18.7383C12.0049 18.912 12.014 19.4682 11.9733 19.7097L11.4434 19.9349L11.8226 18.7383Z" fill="#51934D"/>
<path d="M12.8027 16.2609L13.1782 15.5811C13.4516 15.749 13.3446 15.8533 13.3901 16.151C13.2101 16.3029 13.0385 16.2754 12.8027 16.2609Z" fill="#438444"/>
<path d="M13.4013 15.2373C13.545 15.4775 13.5089 15.8873 13.5029 16.1749L13.3916 16.151C13.3461 15.8534 13.4531 15.7491 13.1797 15.5811L13.4013 15.2373Z" fill="#51934D"/>
<path d="M22.8724 19.1361C23.6848 19.0772 24.681 19.378 25.1347 20.1563C25.3091 20.4555 24.8571 20.6892 24.6171 20.7655C23.7295 20.7957 21.2446 19.8935 22.8724 19.1361Z" fill="#51934D"/>
<path d="M21.9743 16.299C22.2066 16.2937 23.2349 16.3032 23.394 16.3947L23.3815 16.5127C23.067 16.5853 22.1756 16.5819 21.8887 16.4546L21.8613 16.3771L21.9743 16.299Z" fill="#51934D"/>
<path d="M11.1239 22.1113C11.1655 22.2829 11.1566 22.285 11.1312 22.453L11.0834 22.4185C11.0493 22.2595 11.0683 22.2901 11.1239 22.1113Z" fill="#51934D"/>
<path d="M61.0633 11.211C60.6227 9.80637 60.2557 8.11011 60.8449 6.71511C62.6167 2.51723 68.156 2.59087 71.7157 3.95993C72.4235 4.21328 73.5021 4.7173 74.1546 5.1253C75.1075 5.65395 76.3319 6.65347 77.0303 7.50552C74.6027 7.17969 72.0499 7.46108 69.9696 8.90834C69.2782 9.38923 68.3238 10.7491 69.7633 11.0971C70.54 11.2849 72.1778 10.1709 72.9297 9.92436C74.5572 9.23323 77.8146 8.09881 79.1725 9.77037C79.6146 10.3144 79.9708 10.8967 80.3013 11.5152C80.7452 12.3979 81.1178 13.3149 81.4146 14.2573C81.4774 14.4649 81.551 14.6909 81.6039 14.8993C81.4305 14.8299 81.175 14.7371 81.0128 14.661C78.6044 13.7545 75.9611 13.1081 73.4107 13.7659L73.0366 13.8992C71.9749 14.3989 71.2994 15.3131 72.7783 15.7838C73.6685 16.0673 75.4235 15.8324 76.3816 15.7677C77.7236 15.677 81.6175 15.6776 82.2813 17.046C83.0102 18.5487 83.2085 21.2807 83.1274 22.9538C83.0861 23.8966 82.8864 24.7786 82.7978 25.6403C82.128 24.4032 81.07 23.5411 79.7196 23.1337C79.2021 22.9778 78.5078 22.8407 78.0152 23.1239C77.9036 23.1878 77.7949 23.2827 77.7555 23.4087C77.7021 23.5804 77.7696 23.7513 77.8652 23.8929C78.7732 25.2361 82.7767 25.4213 82.3525 28.0264C82.1875 29.0389 81.881 29.8959 81.8196 30.9538C81.8041 31.2198 81.8899 32.3225 81.8336 32.4578C81.7122 32.4534 81.7689 32.4688 81.663 32.4131C80.3955 32.0267 79.3586 31.9249 78.0522 32.1738C76.9042 32.3616 75.9958 32.6596 75.2566 31.521C74.3247 30.237 74.6116 28.4909 74.2132 27.1356C73.6567 25.2406 72.3757 26.4229 72.5092 28.0094C72.686 30.1161 73.1346 31.2737 74.6439 32.7202C73.503 32.9091 71.8755 33.2912 70.9511 32.5556C69.8786 31.7024 69.5707 30.5265 69.3564 29.266C69.2439 30.6723 69.5739 31.8716 70.3849 33.0401C69.3274 33.0432 66.2308 32.8389 65.2868 32.4302C64.0132 30.7624 64.413 27.6453 64.9624 25.7576C65.1607 25.0773 65.9988 23.0137 65.0177 22.6464C63.8697 22.322 63.1525 24.2332 62.9153 24.9803C62.1025 27.5403 62.3125 29.807 63.4971 32.1773C62.1536 31.7865 58.6792 30.7421 57.8796 29.5C57.5102 28.9266 57.8913 27.5098 58.0868 26.8654C58.1589 26.6429 58.2485 26.4098 58.3286 26.1887C58.7894 24.6836 60.4117 22.3785 60.1619 20.7877C60.1291 20.6171 59.9632 20.3575 59.7949 20.2941C58.54 19.8212 57.0508 21.7963 56.6008 22.6488C55.5513 24.6357 55.3535 26.6709 55.9685 28.7898C54.6517 28.0023 53.7199 27.3942 52.676 26.2359C52.0117 25.5687 51.7914 25.1717 51.3667 24.3222C50.5408 21.2537 52.8447 19.6701 54.8585 17.8945C55.3614 17.75 56.0711 16.8578 56.3655 16.4355C56.4278 16.235 56.4766 16.1183 56.4405 15.9157C56.3369 15.3241 55.7191 15.2157 55.2278 15.1523C54.7183 15.1177 53.9805 15.3777 53.5235 15.5932C51.805 16.4039 50.5 18.0528 49.7664 19.7698C49.6957 19.9265 49.6141 20.0874 49.5382 20.2426C48.7413 18.2547 48.5983 16.3104 49.3197 14.2846C50.0393 11.9737 52.7036 9.81359 55.1097 9.54889C57.3072 9.30711 58.7983 10.3676 60.4221 11.651C60.6733 11.4221 60.8711 11.3836 61.0633 11.211Z" fill="#5B9C52"/>
<path d="M64.3753 14.8638C64.8155 15.3236 65.2852 15.6733 65.7633 16.0824C66.7594 16.9344 67.8886 17.7743 68.8167 18.6902C68.3939 19.8225 67.8891 20.952 67.538 22.0854C66.4969 25.4477 66.1509 29.1351 67.6209 32.4287C67.6641 32.5246 67.7058 32.6171 67.7972 32.6692C67.8052 32.5624 67.5773 31.6687 67.5366 31.4368C67.4166 30.7706 67.3345 30.0979 67.2919 29.4223C67.1133 26.6144 67.6519 24.0212 68.6072 21.3898C68.8687 20.6695 69.1931 19.9863 69.4711 19.2812C70.1259 19.8595 70.808 20.456 71.4436 21.0533C70.7705 23.6225 70.6791 27.1171 71.7417 29.5784C71.393 27.0831 71.3292 25.2138 71.6287 22.6895C71.6625 22.4073 71.7019 21.6293 71.7923 21.4259C71.9986 21.4838 72.9595 22.4547 73.1775 22.6689C75.0047 24.4346 76.7531 26.2798 78.4186 28.1992C79.5169 29.4795 80.4478 30.7296 81.4969 32.0009C81.5695 32.1471 81.69 32.2715 81.6628 32.413C80.3953 32.0265 79.3584 31.9248 78.052 32.1736C76.9041 32.3615 75.9956 32.6595 75.2564 31.5208C74.3245 30.2369 74.6114 28.4908 74.213 27.1355C73.6566 25.2405 72.3755 26.4228 72.5091 28.0093C72.6858 30.116 73.1344 31.2735 74.6438 32.7201C73.5028 32.909 71.8753 33.291 70.9509 32.5555C69.8784 31.7023 69.5705 30.5264 69.3562 29.2659C69.2437 30.6721 69.5738 31.8714 70.3847 33.0399C69.3272 33.0431 66.2306 32.8387 65.2866 32.43C64.013 30.7623 64.4128 27.6452 64.9622 25.7575C65.1605 25.0771 65.9986 23.0136 65.0175 22.6462C63.8695 22.3219 63.1523 24.2331 62.9152 24.9802C62.1023 27.5401 62.3123 29.8069 63.4969 32.1771C62.1534 31.7864 58.6791 30.742 57.8794 29.4998C57.51 28.9265 57.8911 27.5097 58.0866 26.8653C58.1588 26.6428 58.2483 26.4097 58.3284 26.1886C58.7892 24.6834 60.4116 22.3784 60.1617 20.7876C60.1289 20.617 59.963 20.3574 59.7947 20.294C58.5398 19.8211 57.0506 21.7962 56.6006 22.6486C55.5511 24.6356 55.3533 26.6708 55.9683 28.7896C54.6516 28.0021 53.7197 27.3941 52.6758 26.2358C52.9856 25.2209 53.4019 24.5479 53.9053 23.6512C55.8136 20.2536 58.7123 17.7756 62.1202 15.955C62.745 15.6212 63.7162 15.1276 64.3753 14.8638Z" fill="#2D6E43"/>
<path d="M58.3278 26.1885C58.4797 26.3744 58.5495 26.7852 58.3972 26.9927C58.2673 26.9928 58.2017 26.9583 58.0859 26.8652C58.1581 26.6426 58.2477 26.4096 58.3278 26.1885Z" fill="#295D37"/>
<path d="M63.5387 17.3407C64.2338 17.2937 64.404 17.7516 64.2568 18.3564C64.0163 19.3437 63.3812 20.31 62.5182 20.8554C61.2085 21.2571 61.7101 18.1881 63.5387 17.3407Z" fill="#2C6E43"/>
<path d="M68.9781 23.5759C70.3422 23.5252 70.0243 26.0776 69.1558 26.9083C68.2 27.2391 68.1653 25.1035 68.3237 24.5649C68.4765 24.047 68.5281 23.8622 68.9781 23.5759Z" fill="#2C6E43"/>
<path d="M65.8734 22.5337C66.0098 22.7316 65.9493 24.4432 65.9441 24.764L65.9033 24.7288C65.8124 24.5348 65.8677 22.8859 65.8734 22.5337Z" fill="#295D37"/>
<path d="M60.6312 20.7612C60.7644 20.9019 60.6964 21.6517 60.6856 21.8576L60.6369 21.8139C60.5436 21.5242 60.6012 21.0655 60.6312 20.7612Z" fill="#295D37"/>
<path d="M62.3186 30.2202C62.4123 30.566 62.4119 30.6317 62.3701 30.9941L62.3144 30.932C62.2689 30.6896 62.3008 30.4675 62.3186 30.2202Z" fill="#295D37"/>
<path d="M64.3707 18.8765L64.4204 18.9208C64.4766 19.1103 64.4513 19.3234 64.4443 19.5256L64.3679 19.4602C64.3238 19.2839 64.3566 19.0626 64.3707 18.8765Z" fill="#295D37"/>
<path d="M80.3009 11.5151C80.7448 12.3978 81.1174 13.3149 81.4141 14.2573C81.477 14.4649 81.5505 14.6909 81.6035 14.8993C81.4301 14.8299 81.1746 14.737 81.0124 14.661C78.604 13.7545 75.9607 13.1081 73.4102 13.7659L73.0362 13.8992C71.9745 14.3989 71.299 15.3131 72.7779 15.7838C73.668 16.0673 75.423 15.8324 76.3812 15.7677C77.7232 15.677 81.6171 15.6776 82.2809 17.046C83.0098 18.5487 83.208 21.2807 83.127 22.9538C83.0857 23.8966 82.886 24.7786 82.7974 25.6403C82.1276 24.4032 81.0696 23.5411 79.7191 23.1337C79.2016 22.9778 78.5074 22.8407 78.0148 23.1239C77.9032 23.1878 77.7945 23.2827 77.7551 23.4087C77.7016 23.5803 77.7691 23.7512 77.8648 23.8929C78.7727 25.2361 82.7763 25.4213 82.3521 28.0264C82.1871 29.0388 81.8805 29.8959 81.8191 30.9538C81.8037 31.2197 81.8895 32.3225 81.8332 32.4578C81.7118 32.4534 81.7685 32.4687 81.6626 32.4131C81.6898 32.2716 81.5693 32.1472 81.4966 32.0011L81.5243 31.9412C81.4887 31.7402 80.6745 30.8192 80.5043 30.5886C77.8662 27.0209 74.944 23.6369 71.7752 20.5304C71.2165 19.9823 70.6441 19.448 70.107 18.8807C73.7051 17.9431 76.6212 17.7101 80.3276 18.3417C81.154 18.4826 82.0034 18.7976 82.728 18.9194L82.7702 18.9261C79.856 17.4215 75.6645 17.1714 72.4723 17.6401C71.4799 17.7858 70.4459 18.0441 69.483 18.3173C69.1371 18.0433 68.5629 17.4699 68.2198 17.1547C67.489 16.4853 66.7432 15.8327 65.9824 15.1973C67.0362 14.3737 68.951 13.4204 70.1923 12.9013C73.0854 11.6917 76.3807 11.3848 79.4815 11.6964C79.669 11.7152 80.0899 11.7705 80.2615 11.7285L80.2812 11.6328L80.3009 11.5151Z" fill="#2C6B41"/>
<path d="M81.4134 14.2573C81.4762 14.4649 81.5498 14.691 81.6028 14.8993C81.4294 14.8299 81.1739 14.7371 81.0117 14.6611C81.128 14.6038 81.3183 14.3699 81.4134 14.2573Z" fill="#2C6E43"/>
<path d="M73.0373 13.8992C72.9333 13.7808 72.8212 13.703 72.7031 13.582C72.9089 13.4559 73.2516 13.5608 73.4114 13.7659L73.0373 13.8992Z" fill="#295D37"/>
<path d="M76.8544 19.373C77.3832 19.321 77.9176 19.3558 78.4351 19.4764C78.9802 19.6004 81.2387 20.3708 80.9823 21.1317C80.7198 21.3807 80.4615 21.3427 80.0907 21.3617C79.0327 21.3993 77.2407 21.4183 76.3623 20.8705C75.2035 20.1483 75.7932 19.5424 76.8544 19.373Z" fill="#2C6E43"/>
<path d="M69.6498 14.1269C69.9793 14.1067 70.4916 14.1451 70.6205 14.4972C70.546 15.2655 69.503 15.5179 68.8768 15.6058C68.5196 15.6183 68.0377 15.6221 67.9004 15.2297C68.0059 14.4928 69.023 14.1999 69.6498 14.1269Z" fill="#2C6E43"/>
<path d="M78.3019 22.5171C78.6187 22.5278 79.132 22.5351 79.4306 22.6069C79.2923 22.6558 79.1672 22.6384 79.0191 22.6339C78.7683 22.6573 78.1284 22.7338 77.918 22.6042C78.0525 22.5179 78.1425 22.5279 78.3019 22.5171Z" fill="#2C6E43"/>
<path d="M77.3062 23.1924C77.4332 23.3379 77.3826 23.7921 77.369 23.9988L77.3151 23.9576C77.2678 23.7456 77.2978 23.4192 77.3062 23.1924Z" fill="#295D37"/>
<path d="M80.3053 12.3613C80.4286 12.4622 80.378 12.6138 80.3677 12.7582L80.3414 12.7549C80.265 12.632 80.3006 12.5375 80.3053 12.3613Z" fill="#295D37"/>
<path d="M74.1542 5.125C75.1072 5.65366 76.3316 6.65317 77.03 7.50522C74.6023 7.17939 72.0495 7.46078 69.9692 8.90805C69.2778 9.38894 68.3234 10.7488 69.763 11.0968C70.5397 11.2846 72.1775 10.1706 72.9294 9.92406C74.5569 9.23294 77.8142 8.09852 79.1722 9.77008C79.6142 10.3141 79.9705 10.8964 80.3009 11.5149L80.2813 11.6325C80.0141 11.4977 79.1206 11.3293 78.7813 11.2673C74.037 10.3997 69.1714 11.9252 65.2606 14.602C64.7164 14.16 64.2186 13.717 63.6523 13.2917C65.9652 9.92748 68.0384 7.77292 71.7997 6.04122C72.4405 5.74628 73.4778 5.26037 74.1542 5.125Z" fill="#295D37"/>
<path d="M71.2285 7.56876C71.4727 7.52343 71.6059 7.50131 71.8337 7.5996C71.5594 7.67948 71.4859 7.68698 71.2285 7.56876Z" fill="#204C29"/>
<path d="M61.0635 11.211C60.6229 9.80637 60.2559 8.11011 60.8451 6.71511C62.617 2.51723 68.1562 2.59087 71.7159 3.95993C71.4206 4.10034 70.9813 4.07705 70.6668 4.16371C66.771 5.23648 63.9355 8.79542 62.7459 12.539C62.4918 12.3519 61.1596 11.4139 61.0635 11.211Z" fill="#295D37"/>
<path d="M50.006 15.68C53.1621 12.8941 57.8585 12.681 61.863 12.8969C62.1471 13.0718 62.6219 13.4732 62.8736 13.7068C61.1627 14.1288 59.7635 14.6035 58.2049 15.4379C57.7844 15.663 56.7663 16.3763 56.3655 16.4353C56.4278 16.2348 56.4766 16.1181 56.4405 15.9155C56.3369 15.3238 55.7191 15.2155 55.2278 15.152C54.7183 15.1175 53.9805 15.3775 53.5235 15.593C51.805 16.4037 50.5 18.0526 49.7664 19.7696C49.6957 19.9263 49.6141 20.0871 49.5382 20.2423C48.7413 18.2544 48.5983 16.3102 49.3197 14.2843C49.5639 14.5869 49.4894 15.6057 49.4758 15.9931C49.615 15.9091 49.8283 15.7038 49.9675 15.587L50.006 15.68Z" fill="#2C6E43"/>
<path d="M49.3197 14.2842C49.5639 14.5868 49.4894 15.6055 49.4758 15.993L49.495 16.1671C49.3989 16.9223 49.368 19.1626 49.7664 19.7694C49.6957 19.9261 49.6141 20.087 49.5382 20.2422C48.7413 18.2543 48.5983 16.31 49.3197 14.2842Z" fill="#29653F"/>
<path d="M49.4766 15.9931C49.6158 15.9091 49.8291 15.7038 49.9683 15.5869L50.0067 15.68L49.4958 16.1672L49.4766 15.9931Z" fill="#438444"/>
<path d="M53.2305 15.07C53.4639 15.0335 53.7053 15.0088 53.9256 15.1C53.6514 15.1638 53.4752 15.2117 53.2305 15.07Z" fill="#295D37"/>
<path d="M49.3203 14.2844C50.0398 11.9736 52.7042 9.81345 55.1103 9.54874C57.3078 9.30696 58.7989 10.3675 60.4227 11.6509C60.6116 11.8094 60.8956 12.0174 61.0592 12.1805C57.5211 12.127 53.1828 12.4635 50.5002 15.0478C50.3197 15.2243 50.1425 15.4041 49.9681 15.587C49.8289 15.7039 49.6156 15.9092 49.4764 15.9932C49.49 15.6058 49.5645 14.587 49.3203 14.2844Z" fill="#2C6E43"/>
<path d="M70.4773 36.5323C72.6734 33.6028 77.8043 34.5531 80.0998 36.9151C78.5295 36.9531 76.6624 37.1071 75.4746 38.2622C75.282 38.4496 75.0462 38.8087 75.056 39.0804C75.1029 40.4024 77.3824 39.0085 77.9149 38.7811C79.594 38.0643 81.3068 37.4699 82.6821 39.0826C83.3234 39.8342 83.8146 40.9925 84.2454 41.9035C82.4801 41.1186 80.5409 40.9033 78.6645 41.5305C78.1188 41.7127 76.4721 42.8129 77.5432 43.3992C78.1179 43.7135 79.7749 43.0392 80.4335 42.9868C81.7371 42.7589 84.468 42.4182 85.1534 43.9276C85.4201 44.5151 85.6643 45.5339 85.7623 46.1745C85.8846 47.0962 85.9713 48.0224 86.0224 48.951C84.7212 48.0187 83.5582 47.3709 81.9738 47.0498C81.4193 46.9373 80.9984 46.826 80.4335 46.9345C79.6371 47.0873 78.9105 47.7304 79.8949 48.3056C80.6046 48.7199 81.3898 48.6403 82.1712 48.7935C83.4068 49.0228 85.6784 49.5806 85.9887 51.0374C86.269 52.3528 85.5541 54.9388 85.046 56.1332C84.6227 54.9187 83.5226 53.8392 82.3891 53.2987C81.8641 53.0484 80.6754 52.5553 80.397 53.2363C80.2235 54.1438 82.1196 55.1924 82.5987 55.4981C83.3979 56.0081 84.559 57.1715 84.168 58.154C83.4724 59.9024 82.6512 60.8868 82.2087 62.8195L81.8834 62.4735C80.6309 61.3865 79.302 61.3401 77.7527 61.2754L77.5718 61.282C77.178 61.2553 76.8705 61.1803 76.4946 61.0748L76.1632 60.8713C74.809 59.7843 75.6176 57.322 75.7132 55.8613C75.837 53.9681 74.2188 53.5963 73.6048 55.4038C72.9373 57.3684 73.2799 59.3878 74.1851 61.2192C72.7005 61.0917 71.5137 60.8596 70.1374 60.2456C69.6588 60.0318 69.1929 59.7679 69.0316 59.2378C68.4982 57.4799 69.2421 55.552 70.001 54.0215L70.3343 53.3924C70.5246 53.0029 72.5121 50.3142 70.6737 50.3915C70.0305 50.4187 69.1221 51.4392 68.779 51.9974C67.4491 54.1598 67.0643 56.3929 67.5565 58.8707C66.3785 58.041 63.1798 55.7826 63.1521 54.1785C63.1296 52.8548 64.6315 51.0482 65.5559 50.0971L65.9243 49.732C66.3588 49.2524 66.9809 48.6529 66.9523 47.9634C66.9312 47.4543 66.4174 47.2523 65.9791 47.3554C63.6279 47.9067 62.4537 50.7501 62.082 52.8271C61.9029 52.5285 61.572 52.0312 61.466 51.7237C61.2082 50.9737 60.184 48.9168 59.1237 49.4132C58.7084 50.0521 61.263 51.1471 60.7437 52.1301C60.318 52.9363 59.6604 53.5513 59.2601 54.3618L59.1996 54.3867L59.179 54.3717C59.1588 54.0412 59.1302 53.6545 59.0304 53.3385C58.4754 49.8018 57.7957 47.3371 56.4434 44.0207C57.6916 43.1192 58.8316 42.5873 60.3532 42.4186C60.4695 42.4057 60.476 42.3514 60.5173 42.2659L60.5623 42.2067C60.8857 42.2192 62.0309 42.3904 62.231 42.5702L62.4134 42.709C62.5873 42.8658 62.6126 42.9149 62.7354 43.1173C63.514 42.8369 65.2193 42.3185 65.1162 43.7479C65.1443 43.7474 65.1673 43.7251 65.1916 43.7118C65.4157 42.2901 63.6471 42.7238 62.8835 42.9525C62.7298 42.9984 62.4757 42.6733 62.3004 42.5507C62.6018 42.4223 63.762 42.0349 63.9054 41.9188C63.6457 41.9368 62.4537 42.4028 62.0679 42.5143C62.1612 42.4424 62.2559 42.3725 62.352 42.3046C64.4688 40.8188 67.6737 40.9276 70.1243 41.3612C69.852 41.0312 69.6284 40.7586 69.4296 40.379L69.9612 40.13L69.911 39.9754C69.6748 39.0672 69.6598 38.3392 69.9462 37.4547C70.1004 37.0931 70.2096 36.8314 70.4773 36.5323Z" fill="#53944F"/>
<path d="M63.9054 41.9187C65.7743 41.3149 68.8301 41.7387 70.7505 42.2282C71.0895 42.5837 71.3079 42.8692 71.5676 43.2902C68.9318 43.6322 65.0805 44.8861 63.2215 46.9962C63.1109 47.1218 63.0298 47.4129 62.9787 47.5821C63.5702 47.1237 64.4993 46.3991 65.1251 46.043C67.1355 44.8986 69.8276 44.215 72.1076 43.8952L72.6912 44.6612C71.929 45.1175 71.1265 45.5888 70.4388 46.1519C67.8021 48.3115 65.6323 51.6987 65.1804 55.1018C65.4584 54.4981 65.6796 53.8779 65.9552 53.2723C66.6584 51.7287 67.5762 50.3014 68.6224 48.9687C68.7448 48.8131 69.1362 48.2332 69.2993 48.2018C69.3921 48.1156 69.5941 47.8414 69.7034 47.7214C70.1482 47.232 70.5743 46.9006 71.1284 46.5483C71.6754 45.9861 72.5341 45.6939 73.0891 45.2304C73.7674 46.1201 74.4021 47.2334 75.0541 48.0528C72.6659 51.0406 70.7623 54.9889 71.2001 58.8987C71.2184 59.0553 71.2409 59.2118 71.268 59.3675L71.283 59.3656C71.4087 59.1664 71.1738 58.7581 71.3871 58.2523C71.6951 54.4123 73.2288 51.6973 75.4371 48.6828C76.2762 49.9957 77.0927 51.2904 77.8343 52.662C77.9712 52.9156 78.1282 53.2053 78.2791 53.4495C78.0771 53.8821 77.839 54.3767 77.696 54.8271C77.156 56.5292 76.8091 59.0914 77.486 60.8089L77.4973 60.9228C77.5287 61.0517 77.5526 61.1492 77.5718 61.2818C77.178 61.2551 76.8705 61.1801 76.4946 61.0746L76.1632 60.8712C74.809 59.7842 75.6176 57.3218 75.7132 55.8612C75.837 53.9679 74.2188 53.5962 73.6048 55.4037C72.9373 57.3682 73.2799 59.3876 74.1851 61.219C72.7005 61.0915 71.5137 60.8595 70.1374 60.2454C69.6588 60.0317 69.1929 59.7678 69.0316 59.2376C68.4982 57.4798 69.2421 55.5518 70.001 54.0214L70.3343 53.3923C70.5246 53.0028 72.5121 50.314 70.6737 50.3914C70.0305 50.4186 69.1221 51.439 68.779 51.9973C67.4491 54.1596 67.0643 56.3928 67.5565 58.8706C66.3785 58.0409 63.1798 55.7825 63.1521 54.1784C63.1296 52.8547 64.6315 51.0481 65.5559 50.097L65.9243 49.7318C66.3588 49.2523 66.9809 48.6528 66.9523 47.9632C66.9312 47.4542 66.4174 47.2521 65.9791 47.3553C63.6279 47.9065 62.4537 50.75 62.082 52.827C61.9029 52.5284 61.572 52.0311 61.466 51.7236C61.2082 50.9736 60.184 48.9167 59.1237 49.4131C58.7084 50.052 61.263 51.147 60.7437 52.13C60.318 52.9362 59.6604 53.5512 59.2601 54.3617L59.1996 54.3865L59.179 54.3715C59.1588 54.0411 59.1302 53.6543 59.0304 53.3384C58.4754 49.8017 57.7957 47.337 56.4434 44.0205C57.6916 43.119 58.8316 42.5872 60.3532 42.4185C60.4695 42.4056 60.476 42.3513 60.5173 42.2657L60.5623 42.2065C60.8857 42.2191 62.0309 42.3902 62.231 42.57L62.4134 42.7088C62.5873 42.8656 62.6126 42.9148 62.7354 43.1171C63.514 42.8368 65.2193 42.3184 65.1162 43.7478C65.1443 43.7473 65.1673 43.725 65.1916 43.7117C65.4157 42.29 63.6471 42.7236 62.8835 42.9524C62.7298 42.9983 62.4757 42.6731 62.3004 42.5505C62.6018 42.4221 63.762 42.0348 63.9054 41.9187Z" fill="#295D37"/>
<path d="M62.7361 43.1176C63.5147 42.8372 65.22 42.3188 65.1169 43.7482C64.6847 44.3266 63.2166 45.0053 62.4947 45.473C61.463 45.1942 60.5095 45.2313 59.4816 45.0345C59.3437 45.0082 59.2275 44.9108 59.1661 44.7828C59.1567 44.298 60.0984 43.8776 60.4462 44.049C60.4898 44.2145 60.4477 44.5549 60.4341 44.7405C60.668 44.5334 61.0031 44.2143 61.2628 44.0679C62.0367 44.1907 62.5345 44.4362 63.2091 44.8267C63.0858 44.0901 63.0272 43.7948 62.7361 43.1176Z" fill="#2C6E43"/>
<path d="M71.128 46.5483C71.3478 46.7981 71.4097 46.8819 71.4125 47.2907C71.4176 47.9886 70.0648 49.5646 69.3322 48.9439C69.1892 48.823 69.2361 48.4049 69.2989 48.2019C69.3917 48.1157 69.5937 47.8414 69.703 47.7214C70.1478 47.2321 70.5739 46.9007 71.128 46.5483Z" fill="#295D37"/>
<path d="M77.4968 60.9231C77.5282 61.052 77.5521 61.1495 77.5713 61.2821C77.1776 61.2554 76.8701 61.1804 76.4941 61.075C76.893 60.7492 77.0304 60.9746 77.4968 60.9231Z" fill="#295D37"/>
<path d="M76.1641 60.8715C76.4838 60.6489 77.0964 60.7548 77.4869 60.8092L77.4981 60.9231C77.0317 60.9746 76.8944 60.7492 76.4955 61.075L76.1641 60.8715Z" fill="#204C29"/>
<path d="M70.3352 53.3926C70.459 53.5773 70.4609 53.6218 70.5218 53.8426C70.4899 53.9977 70.5255 53.9307 70.4032 54.0446C70.2002 54.0873 70.151 54.0235 70.002 54.0216L70.3352 53.3926Z" fill="#295D37"/>
<path d="M71.3866 58.2524C71.3913 58.8478 71.3857 59.4857 71.4204 60.0763C71.3627 59.8598 71.2737 59.5851 71.2676 59.3676L71.2826 59.3657C71.4082 59.1665 71.1734 58.7582 71.3866 58.2524Z" fill="#438444"/>
<path d="M65.5566 50.0971L65.9251 49.7319C65.9696 49.9176 66.001 50.0183 66.0071 50.2072L65.9546 50.2701C65.7371 50.2537 65.7376 50.196 65.5566 50.0971Z" fill="#295D37"/>
<path d="M62.2308 42.5703L62.4132 42.7091C62.3958 42.9328 62.4703 43.1778 62.3386 43.3667L62.2918 43.2883L62.3541 43.3254L62.2828 43.262C62.2214 42.9628 62.2266 42.8661 62.2308 42.5703Z" fill="#204C29"/>
<path d="M59.6416 46.8783C60.0846 46.8357 60.401 46.9645 60.7896 47.1455C60.7638 47.3855 60.7479 47.6569 60.6766 47.8833L60.5937 47.8997C60.2098 47.7469 59.3909 47.5711 59.3496 47.1431C59.4091 46.9974 59.5048 46.9627 59.6416 46.8783Z" fill="#2C6E43"/>
<path d="M71.8655 50.3188C72.0568 50.4482 71.9663 51.5039 71.9583 51.7865L71.8571 51.7223C71.7455 51.5137 71.8519 50.6151 71.8655 50.3188Z" fill="#295D37"/>
<path d="M61.8262 48.1108C61.9837 48.0982 62.1248 48.064 62.2579 48.1343C62.2682 48.2941 62.2406 48.2711 62.1248 48.4408C62.0695 48.4849 62.0207 48.5135 61.9612 48.5515L61.8895 48.5149C61.8618 48.3743 61.8449 48.2524 61.8262 48.1108Z" fill="#5B9C52"/>
<path d="M74.4395 45.9707C78.1187 44.4852 82.1251 44.6759 85.7616 46.1747C85.884 47.0964 85.9707 48.0226 86.0218 48.9512C84.7205 48.0189 83.5576 47.371 81.9732 47.05C81.4187 46.9375 80.9977 46.8262 80.4329 46.9346C79.6365 47.0875 78.9099 47.7306 79.8943 48.3057C80.604 48.7201 81.3891 48.6404 82.1705 48.7937C83.4062 49.0229 85.6777 49.5807 85.988 51.0376C86.2684 52.3529 85.5535 54.939 85.0454 56.1334C84.6221 54.9189 83.522 53.8393 82.3885 53.2989C81.8635 53.0486 80.6748 52.5554 80.3963 53.2365C80.2229 54.144 82.119 55.1926 82.598 55.4982C83.3973 56.0082 84.5584 57.1717 84.1674 58.1542C83.4718 59.9026 82.6505 60.887 82.208 62.8196L81.8827 62.4737L81.9507 62.4025C81.9985 62.1789 81.9052 61.8625 81.8649 61.6112L81.6109 60.8401L81.7004 60.7918C81.4463 59.8332 81.1163 58.9684 80.7652 58.0435C79.8226 55.5742 78.7093 53.1732 77.4343 50.8576C79.8348 50.8965 82.2971 51.2443 84.354 52.5165C84.7229 52.7448 85.0937 53.0012 85.4771 53.199L85.5155 53.184C85.4668 53.0856 85.4996 53.1325 85.4284 53.0584C83.2909 50.8534 80.1076 50.1367 77.0884 50.2173C76.6163 49.4757 76.1687 48.6793 75.6882 47.9246C75.2851 47.2909 74.8201 46.6015 74.4395 45.9707Z" fill="#2C6E43"/>
<path d="M81.6113 60.8398L81.7009 60.7915C81.7909 61.0634 81.8987 61.324 81.8654 61.6109L81.6113 60.8398Z" fill="#438444"/>
<path d="M77.2621 45.6716C78.8113 45.6183 79.1465 46.5707 77.4356 46.9257C75.659 47.13 75.3876 45.8973 77.2621 45.6716Z" fill="#2C6E43"/>
<path d="M80.8327 52.5211C81.0938 52.5085 82.3519 52.4888 82.4414 52.6819L82.3416 52.7241C82.2206 52.6852 82.1273 52.6599 82.0055 52.629C81.6905 52.6102 80.4834 52.7443 80.3536 52.6988L80.3203 52.6135L80.3733 52.5511L80.8327 52.5211Z" fill="#295D37"/>
<path d="M70.4772 36.5323C72.6733 33.6028 77.8042 34.5531 80.0997 36.9151C78.5294 36.9531 76.6623 37.1071 75.4745 38.2622C75.2819 38.4496 75.0461 38.8087 75.0559 39.0804C75.1028 40.4024 77.3823 39.0085 77.9148 38.7811C79.5939 38.0643 81.3067 37.4699 82.682 39.0826C82.5006 39.1426 82.1626 39.1328 81.9531 39.1444C78.1056 39.3564 75.3039 40.6013 72.5687 43.3662C72.2692 42.9403 71.9889 42.5836 71.6659 42.1781L71.6865 42.1036C72.3015 39.9115 73.8372 37.3826 75.8059 36.1384C75.984 36.0258 76.5011 35.8442 76.6056 35.7202L76.5742 35.6767C76.3037 35.7092 76.0651 35.8476 75.8195 35.9551C73.7181 36.875 72.3742 38.8087 71.4845 40.8493C71.3889 41.0683 71.282 41.3286 71.1747 41.5423C70.7744 41.0862 70.344 40.5986 69.9611 40.13L69.9109 39.9754C69.6747 39.0672 69.6597 38.3392 69.9461 37.4547C70.1003 37.0931 70.2095 36.8314 70.4772 36.5323Z" fill="#295D37"/>
<path d="M70.4784 36.5322C70.5276 36.7068 70.5023 36.5614 70.4835 36.6622C70.4212 36.9909 70.6391 37.196 70.4024 37.5211C70.236 37.5649 70.1282 37.529 69.9473 37.4546C70.1015 37.093 70.2107 36.8313 70.4784 36.5322Z" fill="#204C29"/>
<path d="M78.6245 54.1426C79.4645 55.322 81.1647 59.446 81.6109 60.8401L81.865 61.6112C81.9053 61.8624 81.9986 62.1788 81.9508 62.4024L81.8828 62.4737C80.6303 61.3866 79.3014 61.3402 77.7522 61.2755C77.6856 61.1021 77.6875 61.0829 77.673 60.8944C77.59 60.6812 77.5539 59.9729 77.5427 59.7123C77.4461 57.497 77.8061 56.1249 78.6245 54.1426Z" fill="#295D37"/>
<path d="M77.6738 60.8941C77.8252 60.7183 78.3099 60.7694 78.512 60.8379C78.3123 60.8735 77.8632 60.9443 77.6738 60.8941Z" fill="#163F20"/>
<path d="M55.2275 15.1523C55.7188 15.2158 56.3366 15.3241 56.4402 15.9158C56.4763 16.1183 56.4275 16.2351 56.3652 16.4356C56.0708 16.8579 55.3611 17.7501 54.8582 17.8946C52.8444 19.6702 50.5405 21.2537 51.3664 24.3223C50.1074 27.2958 49.0503 30.3511 48.2033 33.4671C47.9117 34.5297 47.5349 35.9128 47.3469 36.9981C48.6233 35.3262 50.3957 33.9895 52.4516 35.4631C53.2616 36.044 53.4847 36.7276 54.0064 37.5141C54.2549 37.9858 54.3392 38.2773 54.4433 38.7966C54.455 38.8547 54.4714 38.8457 54.5347 38.8781C54.9669 39.8652 55.2899 41.3767 55.55 42.4238C55.6682 42.5073 55.6349 42.5091 55.761 42.5311C55.8857 42.7238 56.1257 43.2346 56.2396 43.4607C57.4494 42.6224 59.0282 42.0325 60.5174 42.2662C60.4761 42.3517 60.4696 42.406 60.3533 42.4189C58.8318 42.5876 57.6917 43.1195 56.4435 44.021C57.7958 47.3374 58.4755 49.8021 59.0305 53.3388C59.1303 53.6548 59.1589 54.0415 59.1791 54.372C58.5482 53.6257 57.7044 53.6524 56.9188 53.2591C56.5452 53.0721 56.7603 51.7938 56.8935 51.4596C57.035 51.1034 57.3857 50.1715 56.9928 49.9268C56.5035 49.9113 56.2789 50.5085 56.1196 50.8957C55.8121 51.6429 55.9175 52.4112 56.2358 53.1331C54.1189 52.5096 54.2014 51.7845 55.1324 49.9756C55.191 49.8645 55.2711 49.7445 55.3382 49.6366C55.4624 49.3006 55.6532 49.2663 55.7628 48.6626C55.2111 48.491 54.8249 49.1487 54.5492 49.5532C54.1096 50.5188 53.9286 51.042 53.8888 52.1102L53.1613 51.6757C53.0642 53.2034 52.9363 54.626 52.926 56.1673C52.9166 57.5177 53.0371 58.6765 53.1177 60.0016L51.9814 59.9984C51.3107 60.0087 50.6403 60.0101 49.9696 60.0026C49.4699 59.9885 48.4958 60.0612 48.0472 59.9726L48.0303 59.9993C47.7655 60.012 47.5044 60.0354 47.2419 60.0073C46.8946 60.0087 45.6035 60.0631 45.3941 59.9416L45.3531 59.7743L45.326 59.9445C45.1272 60.0738 44.7423 60.0012 44.4828 60.0152C43.8601 60.004 43.2281 60.0166 42.6007 60.0073C42.6647 56.4045 43.1805 52.7834 43.471 49.2204C43.5011 48.8102 43.3135 48.3959 43.1766 48.0077C42.3878 45.7715 40.9408 43.1895 38.313 42.9425C37.3802 42.8548 35.9892 43.1628 35.2609 43.7947C35.1953 43.8351 34.0199 44.3898 33.9758 44.3978L33.2793 44.3379L33.3251 44.2157L33.3596 44.1899C33.7402 43.9001 34.0738 43.5427 34.4635 43.2495C37.085 41.2774 40.4878 41.7687 42.46 44.3604C42.7127 44.6973 42.9402 45.0524 43.1408 45.4227C43.2656 45.6538 43.7307 46.6276 43.8616 46.7562C43.8663 46.1498 44.1171 44.8354 44.2314 44.1934C44.4913 42.722 44.7717 41.2543 45.0725 39.7907C45.152 39.4168 45.5535 37.8162 45.5124 37.5984C44.444 31.9389 42.446 24.7355 38.3842 20.6366C39.1937 20.2575 41.6682 22.3984 42.0251 23.1674C42.1225 23.3772 42.645 24.17 42.7884 24.281C43.0736 24.7023 43.5708 25.8119 43.7892 26.3087C44.8762 28.7811 45.7177 31.4936 46.4037 34.1113C46.7673 33.0339 47.0019 31.8775 47.3685 30.7959C47.4543 30.5436 47.5883 30.051 47.6891 29.8263L47.766 29.5644C49.37 24.7715 51.8577 18.9468 55.2275 15.1523Z" fill="#204C29"/>
<path d="M49.6666 43.4418C49.7491 43.4571 49.7979 43.4609 49.8813 43.4687C49.9413 43.5752 49.916 43.5467 50.0018 43.621C50.1457 43.5372 50.6374 42.5471 51.1066 42.3114C51.2524 42.2382 52.2687 41.6624 52.3226 41.6167C52.6001 41.6833 53.1279 41.5672 53.4855 41.6149C53.832 41.661 54.1741 41.8612 54.4446 41.9038C54.859 42.1419 54.9551 42.2432 55.2405 42.6254L55.5504 42.4237C55.6685 42.5071 55.6352 42.5089 55.7613 42.5309C55.886 42.7237 56.126 43.2344 56.2399 43.4605C57.4498 42.6222 59.0285 42.0323 60.5177 42.266C60.4765 42.3515 60.4699 42.4058 60.3537 42.4187C58.8321 42.5874 57.6921 43.1193 56.4438 44.0208C57.7962 47.3372 58.4759 49.8019 59.0309 53.3386C59.1307 53.6546 59.1593 54.0413 59.1795 54.3718C58.5485 53.6255 57.7048 53.6522 56.9191 53.2589C56.5455 53.0719 56.7607 51.7936 56.8938 51.4594C57.0354 51.1032 57.386 50.1713 56.9932 49.9266C56.5038 49.9111 56.2793 50.5083 56.1199 50.8955C55.8124 51.6427 55.9179 52.411 56.2362 53.1329C54.1193 52.5094 54.2018 51.7843 55.1327 49.9754C55.1913 49.8643 55.2715 49.7443 55.3385 49.6365C55.4627 49.3004 55.6535 49.2661 55.7632 48.6624C55.2115 48.4908 54.8252 49.1485 54.5496 49.553C54.1099 50.5186 53.929 51.0418 53.8891 52.11L53.1616 51.6755C53.0646 53.2032 52.9366 54.6258 52.9263 56.1671C52.917 57.5175 53.0374 58.6763 53.118 60.0015L51.9818 59.9982C51.311 60.0085 50.6407 60.0099 49.9699 60.0024C49.8382 57.5349 49.7243 55.2849 49.5007 52.8179C49.4309 52.0599 49.3502 51.3033 49.2588 50.5477C49.2101 50.1291 49.0995 49.4424 49.1248 49.0444C48.8468 48.5532 48.8477 45.9543 48.6738 45.7C48.7493 45.5735 48.9246 45.0982 48.9884 44.9347L49.2551 44.3048C49.3854 44.0107 49.5068 43.7213 49.6666 43.4418Z" fill="white"/>
<path d="M49.6666 43.4418C49.7491 43.4571 49.7979 43.4609 49.8813 43.4687C49.9413 43.5752 49.916 43.5467 50.0018 43.621C50.1457 43.5372 50.6374 42.5471 51.1066 42.3114C51.2524 42.2382 52.2687 41.6624 52.3226 41.6167C52.6001 41.6833 53.1279 41.5672 53.4855 41.6149C53.832 41.661 54.1741 41.8612 54.4446 41.9038C54.859 42.1419 54.9551 42.2432 55.2405 42.6254L55.5504 42.4237C55.6685 42.5071 55.6352 42.5089 55.7613 42.5309C55.886 42.7237 56.126 43.2344 56.2399 43.4605C57.4498 42.6222 59.0285 42.0323 60.5177 42.266C60.4765 42.3515 60.4699 42.4058 60.3537 42.4187C58.8321 42.5874 57.6921 43.1193 56.4438 44.0208C57.7962 47.3372 58.4759 49.8019 59.0309 53.3386C59.1307 53.6546 59.1593 54.0413 59.1795 54.3718C58.5485 53.6255 57.7048 53.6522 56.9191 53.2589C56.5455 53.0719 56.7607 51.7936 56.8938 51.4594C57.0354 51.1032 57.386 50.1713 56.9932 49.9266C56.5038 49.9111 56.2793 50.5083 56.1199 50.8955C55.8124 51.6427 55.9179 52.411 56.2362 53.1329C54.1193 52.5094 54.2018 51.7843 55.1327 49.9754C55.1913 49.8643 55.2715 49.7443 55.3385 49.6364C55.4627 49.3004 55.6535 49.2661 55.7632 48.6624C55.2115 48.4908 54.8252 49.1485 54.5496 49.553C54.4423 48.728 56.4176 47.2402 57.0391 46.8038C56.8113 46.2164 56.5966 45.6279 56.3149 45.0646C55.7721 45.2746 55.1346 45.4396 54.6157 45.6921C53.0979 46.4313 51.6827 47.5599 51.0898 49.1804C50.937 48.8541 51.0898 47.5505 50.8901 47.2088C51.2937 46.7369 52.2893 46.101 52.8434 45.73C53.044 45.484 53.1813 45.3118 52.9601 45.0085C51.9199 44.3356 50.4007 46.2764 49.8396 46.8943C49.5701 47.6002 49.3315 48.3174 49.1248 49.0444C48.8468 48.5532 48.8477 45.9543 48.6738 45.7C48.7493 45.5735 48.9246 45.0982 48.9884 44.9347L49.2551 44.3048C49.3854 44.0107 49.5068 43.7213 49.6666 43.4418Z" fill="#5B9C52"/>
<path d="M55.7624 48.6624C56.0516 48.2166 56.7702 47.6433 57.2263 47.3564C57.6646 48.638 58.0307 49.9538 58.4483 51.2438C58.5941 51.6938 58.754 53.0152 58.9696 53.3593L59.03 53.3386C59.1299 53.6546 59.1585 54.0413 59.1786 54.3718C58.5477 53.6255 57.704 53.6522 56.9183 53.2589C56.5447 53.0719 56.7599 51.7936 56.893 51.4594C57.0346 51.1032 57.3852 50.1713 56.9924 49.9266C56.503 49.9111 56.2785 50.5083 56.1191 50.8955C55.8116 51.6427 55.9171 52.411 56.2354 53.1329C54.1185 52.5094 54.201 51.7843 55.1319 49.9754C55.1905 49.8643 55.2707 49.7443 55.3377 49.6364C55.4619 49.3004 55.6527 49.2661 55.7624 48.6624Z" fill="#367848"/>
<path d="M55.3386 49.6362C55.5439 49.8369 55.43 50.6567 55.6348 51.2L55.5969 51.2347C55.2608 50.9281 55.5111 50.2897 55.1328 49.9751C55.1914 49.864 55.2716 49.744 55.3386 49.6362Z" fill="#2C6E43"/>
<path d="M49.6666 43.4418C49.7491 43.4571 49.7979 43.4609 49.8813 43.4687C49.9413 43.5752 49.916 43.5467 50.0018 43.621C50.1457 43.5372 50.6374 42.5471 51.1066 42.3114C51.2524 42.2382 52.2687 41.6624 52.3226 41.6167C52.6001 41.6833 53.1279 41.5672 53.4855 41.6149C53.832 41.661 54.1741 41.8612 54.4446 41.9038C54.859 42.1419 54.9551 42.2432 55.2405 42.6254C55.3315 42.8512 55.437 43.1328 55.5363 43.3492C54.0607 43.0056 50.5465 42.6735 49.7984 44.4795C49.5626 45.1953 49.5616 46.1926 49.8396 46.8943C49.5701 47.6002 49.3315 48.3174 49.1248 49.0444C48.8468 48.5532 48.8477 45.9543 48.6738 45.7C48.7493 45.5735 48.9246 45.0982 48.9884 44.9347L49.2551 44.3048C49.3854 44.0107 49.5068 43.7213 49.6666 43.4418Z" fill="#2C6E43"/>
<path d="M49.255 44.3047C49.4247 44.5033 49.5916 44.7493 49.4069 44.9807C49.2466 45.0405 49.1547 44.9876 48.9883 44.9346L49.255 44.3047Z" fill="#295D37"/>
<path d="M49.7973 44.4795C51.0526 43.7093 51.5945 43.4879 53.0884 43.5492C53.8122 43.5857 54.5303 43.6902 55.2344 43.8612C55.5719 43.9419 55.9984 44.036 56.0111 44.4486C55.9473 44.52 55.9755 44.5169 55.9037 44.5334C55.4158 44.6453 54.9062 44.8817 54.4656 45.049C54.153 45.1678 53.0833 45.7462 52.8845 45.7614L52.8423 45.7299C53.043 45.4839 53.1803 45.3117 52.9591 45.0084C51.9189 44.3355 50.3997 46.2763 49.8386 46.8942C49.5606 46.1925 49.5615 45.1952 49.7973 44.4795Z" fill="#2C6E43"/>
<path d="M51.0888 49.1802C51.6817 47.5598 53.0969 46.4311 54.6147 45.6919C55.1336 45.4395 55.7711 45.2745 56.3139 45.0645C56.5956 45.6278 56.8103 46.2163 57.0381 46.8037C56.4166 47.2401 54.4412 48.7279 54.5486 49.5529C54.1089 50.5185 53.928 51.0416 53.8881 52.1099L53.1606 51.6754C53.0636 53.203 52.9356 54.6257 52.9253 56.1669C52.9159 57.5174 53.0364 58.6762 53.117 60.0013L51.9808 59.998C51.9002 59.4163 51.8955 58.7169 51.8692 58.1273C51.7577 55.6307 52.0005 53.3779 52.352 50.9193L52.1538 50.6005C52.5297 49.5627 52.8236 48.5788 53.2347 47.5433C52.4219 48.3988 51.9409 48.9337 51.5772 50.061C51.3433 49.8346 51.2106 49.6738 51.0039 49.4202L51.0888 49.1802Z" fill="#295D37"/>
<path d="M54.5863 46.9985C54.6871 47.3815 54.3454 47.6487 54.0988 47.907L54.0801 47.8667C54.1757 47.5896 54.4115 47.2338 54.5863 46.9985Z" fill="#DDF3E0"/>
<path d="M50.8902 47.209C51.0899 47.5507 50.9371 48.8543 51.0899 49.1805L51.0051 49.4205C50.3198 48.5496 50.151 48.0635 50.8902 47.209Z" fill="#438444"/>
<path d="M33.3251 44.2157L33.3596 44.1898C33.7402 43.9001 34.0738 43.5427 34.4635 43.2495C37.085 41.2774 40.4878 41.7687 42.46 44.3604C42.7127 44.6973 42.9402 45.0524 43.1408 45.4227C43.2656 45.6538 43.7307 46.6276 43.8616 46.7562C43.9203 47.0341 44.2373 47.7968 44.3608 48.1235C44.5697 48.6893 44.7514 49.2649 44.9056 49.848C44.961 50.0589 44.9972 50.5099 45.1748 50.6252C45.1861 50.9889 45.4439 52.0371 45.5224 52.4529C45.7555 53.6866 46.0308 54.9246 46.1107 56.1804C46.507 54.1568 46.7604 52.2494 47.3464 50.2464C47.4369 50.4068 47.9014 55.2611 47.8494 55.548C47.9403 56.913 48.0589 58.615 48.0472 59.9725L48.0303 59.9993C47.7655 60.0119 47.5044 60.0354 47.2419 60.0072C46.8946 60.0086 45.6035 60.063 45.3941 59.9416L45.3531 59.7743L45.326 59.9444C45.1272 60.0738 44.7423 60.0011 44.4828 60.0152C43.8601 60.0039 43.2281 60.0166 42.6007 60.0072C42.6647 56.4044 43.1805 52.7833 43.471 49.2204C43.5011 48.8102 43.3135 48.3958 43.1766 48.0077C42.3878 45.7715 40.9408 43.1894 38.313 42.9424C37.3802 42.8548 35.9892 43.1627 35.2609 43.7946C35.1953 43.8351 34.0199 44.3897 33.9758 44.3977L33.2793 44.3379L33.3251 44.2157Z" fill="#2C6E43"/>
<path d="M43.4718 49.2202L43.573 49.1973C43.8857 49.6796 44.6359 53.9213 44.7272 54.6952C44.9577 55.088 45.296 59.0574 45.354 59.7741L45.3269 59.9443C45.1281 60.0737 44.7432 60.001 44.4836 60.0151C43.861 60.0038 43.229 60.0165 42.6016 60.0071C42.6656 56.4043 43.1814 52.7832 43.4718 49.2202Z" fill="#204C29"/>
<path d="M44.7259 54.6953C44.9565 55.0881 45.2948 59.0575 45.3528 59.7742L45.3257 59.9444C45.1269 60.0738 44.742 60.0011 44.4824 60.0152C44.4861 58.3272 44.6257 56.3894 44.7259 54.6953Z" fill="white"/>
<path d="M47.8497 55.5479C47.9406 56.9129 48.0592 58.6149 48.0475 59.9724L48.0306 59.9991C47.7658 60.0118 47.5047 60.0352 47.2422 60.0071C47.2548 59.506 47.68 55.86 47.8497 55.5479Z" fill="#FCFFFD"/>
<path d="M48.6731 45.7002C48.6117 45.4381 48.5503 45.1178 48.5128 44.8503C48.2583 43.0488 47.9016 41.2696 47.5926 39.4781C47.5064 38.9476 47.8247 38.5272 48.0103 38.0748C48.5053 36.87 49.7662 35.4314 51.2245 35.9179C52.2609 36.2637 52.7737 37.2542 53.2397 38.1771C53.3953 38.3841 53.8298 39.4293 53.8275 39.6372C54.0009 40.1724 54.3816 41.3686 54.4439 41.904C54.1734 41.8614 53.8312 41.6612 53.4848 41.6151C53.1272 41.5674 52.5994 41.6835 52.3219 41.6169C52.268 41.6626 51.2517 42.2384 51.1059 42.3116C50.6367 42.5473 50.145 43.5374 50.0011 43.6212C49.9153 43.5469 49.9406 43.5754 49.8806 43.4689C49.7972 43.4611 49.7484 43.4573 49.6659 43.442C49.5061 43.7215 49.3847 44.0109 49.2544 44.305L48.9876 44.9349C48.9239 45.0984 48.7486 45.5737 48.6731 45.7002Z" fill="white"/>
<path d="M53.2398 38.1768C53.3954 38.3838 53.8299 39.429 53.8276 39.6369C54.001 40.1721 54.3816 41.3683 54.444 41.9036C54.1735 41.8611 53.8313 41.6609 53.4849 41.6148C53.1273 41.5671 52.5994 41.6832 52.3219 41.6166C52.268 41.6623 51.2518 42.2381 51.106 42.3113C50.6368 42.547 50.1451 43.5371 50.0012 43.6209C49.9154 43.5466 49.9407 43.5751 49.8807 43.4686C49.7973 43.4608 49.7485 43.4569 49.666 43.4417C49.937 42.7811 50.3269 42.0955 50.6874 41.4788L50.8435 41.2075C51.0596 40.8106 51.706 39.9161 51.9774 39.5923C52.074 39.4659 52.1921 39.3387 52.298 39.2183C52.4715 38.969 53.0115 38.4181 53.2398 38.1768Z" fill="#2C6E43"/>
<path d="M52.3223 41.6169C52.8252 40.8989 53.2673 40.3081 53.8279 39.6372C54.0013 40.1724 54.382 41.3686 54.4443 41.9039C54.1738 41.8614 53.8316 41.6612 53.4852 41.6151C53.1276 41.5674 52.5998 41.6835 52.3223 41.6169Z" fill="white"/>
<path d="M52.2991 39.2183C52.4426 39.3448 52.4904 39.6254 52.5621 39.8335C52.3826 39.7607 52.1487 39.6742 51.9785 39.5922C52.0751 39.4658 52.1932 39.3386 52.2991 39.2183Z" fill="#295D37"/>
<path d="M50.8436 41.2075C51.0428 41.415 50.9964 41.7129 50.8703 41.9498L50.8122 41.9699L50.807 41.9064C50.7878 41.6884 50.7977 41.6554 50.6875 41.4788L50.8436 41.2075Z" fill="#204C29"/>
<path d="M45.1758 50.6248C45.2749 48.2557 45.8702 44.3107 46.3122 41.9409C46.6103 43.8249 46.9204 45.7085 47.1266 47.6051C47.2124 48.3949 47.4271 49.4871 47.3474 50.246C46.7614 52.249 46.508 54.1564 46.1116 56.1799C46.0318 54.9242 45.7564 53.6862 45.5234 52.4524C45.4449 52.0367 45.187 50.9885 45.1758 50.6248Z" fill="white"/>
<path d="M56.4395 15.9155C56.4755 16.1181 56.4268 16.2348 56.3644 16.4354C56.0701 16.8577 55.3604 17.7498 54.8574 17.8944C55.3862 17.1692 55.838 16.5804 56.4395 15.9155Z" fill="white"/>
<path d="M47.7663 29.564C47.8652 29.6176 47.9032 29.6017 47.9271 29.7092C47.989 29.9828 48.0321 30.4718 47.8859 30.7148C47.8479 30.38 47.898 30.0659 47.6955 29.8407C47.6937 29.8357 47.6913 29.8308 47.6895 29.8259L47.7663 29.564Z" fill="#163F20"/>
<path d="M45.7671 33.3164C45.9372 33.4561 45.8935 33.6675 45.8608 33.8563L45.8116 33.8457C45.7391 33.6777 45.7623 33.502 45.7671 33.3164Z" fill="#163F20"/>
<path d="M35.2613 43.7945C37.6445 43.4362 39.4684 44.6692 39.8432 47.0855C39.9299 47.6541 39.9169 48.2335 39.8048 48.7974C39.6753 49.6004 39.4973 50.0879 39.1811 50.843C38.6389 49.4485 37.6045 48.0048 35.9605 47.8229C35.3526 47.7554 35.3267 48.3999 35.5319 48.8237C35.588 48.9371 35.6475 49.0487 35.7102 49.1588C36.7714 50.2098 37.9667 51.0807 38.0916 52.606C37.8295 53.1216 37.6652 53.3227 37.2779 53.7573C36.8132 54.2593 36.2086 54.7984 35.6385 55.1846C35.521 53.7048 35.002 52.2765 33.9773 51.1698C33.7334 50.9063 33.5041 50.7343 33.1363 50.7498C32.7083 51.0502 33.1387 51.6962 33.3371 52.0444C33.9908 53.191 34.6977 54.3638 34.7102 55.7283C34.2048 56.1873 33.6094 56.5562 32.9484 56.7418C32.3734 57.0104 31.6703 57.2124 31.0509 57.3563C31.6119 56.2946 31.7898 55.0819 31.4322 53.9209C31.3076 53.5163 31.0767 53.0223 30.6922 52.809C30.5807 52.7471 30.4555 52.7223 30.3352 52.7762C30.1613 52.8544 30.0349 53.0649 29.989 53.243C29.7253 54.2677 30.8827 55.8718 30.0533 57.4759C29.654 57.5944 29.3737 57.6437 28.956 57.6948C27.6108 57.8663 26.5159 57.7487 25.3548 58.539C25.2042 58.0233 25.081 57.6765 24.8744 57.1951C24.6126 56.5843 23.9971 55.5924 23.9714 54.953C23.8977 53.4685 25.8675 53.2913 26.5903 52.5188C27.1796 51.8893 26.289 51.5551 25.651 51.7519C24.6396 52.0646 23.9366 52.6201 23.3814 53.5013C23.1166 52.8887 22.9583 52.1134 22.8453 51.459C22.7893 51.0924 22.7777 50.7151 22.7576 50.3462C22.6048 48.2424 25.5719 48.6666 26.896 48.7121C27.811 48.7435 29.0469 48.1941 27.8505 47.3612C28.0038 47.2796 28.1069 47.2576 28.2786 47.3237C28.9082 47.566 29.8746 47.7488 30.4501 48.0071C30.5808 47.8787 30.7371 47.6223 30.8342 47.4633C31.3656 46.5952 32.5844 45.0593 33.2797 44.3378L33.9762 44.3976C34.0202 44.3896 35.1957 43.8349 35.2613 43.7945Z" fill="#5B9C52"/>
<path d="M31.9385 46.8579C32.867 47.2789 33.6113 47.6239 34.4657 48.1916C34.7473 48.3791 35.5183 49.0812 35.7109 49.1586C36.7721 50.2095 37.9674 51.0805 38.0923 52.6058C37.8301 53.1214 37.6658 53.3225 37.2786 53.757C36.8139 54.259 36.2092 54.7981 35.6391 55.1844C35.5217 53.7045 35.0026 52.2762 33.978 51.1695C33.7341 50.9061 33.5048 50.7341 33.137 50.7495C32.7089 51.05 33.1393 51.6959 33.3378 52.0442C33.9915 53.1908 34.6984 54.3636 34.7109 55.7281C34.2055 56.187 33.6101 56.5559 32.949 56.7416L33.0463 56.5967C33.1762 56.457 33.1994 56.3492 33.2078 56.1617C33.3351 53.3136 32.0762 51.2253 30.3535 49.1258C30.5453 48.7606 30.8997 48.2623 31.1368 47.9075C31.407 47.5358 31.6439 47.2137 31.9385 46.8579Z" fill="#2C6E43"/>
<path d="M31.9384 46.8579C32.8668 47.2789 33.6112 47.6239 34.4656 48.1916C34.7472 48.3791 35.5182 49.0812 35.7107 49.1586C36.7719 50.2095 37.9673 51.0805 38.0922 52.6058C37.83 53.1214 37.6657 53.3225 37.2785 53.757C37.0844 53.457 36.8806 52.8969 36.7387 52.55C36.3779 51.6683 35.9493 50.9558 35.3123 50.2442C35.0953 50.0019 34.9111 49.7562 34.614 49.6297C34.2922 49.1572 33.4737 48.095 32.8443 48.5576C32.7139 48.4526 31.4325 48.028 31.1367 47.9075C31.4069 47.5358 31.6438 47.2137 31.9384 46.8579Z" fill="#295D37"/>
<path d="M32.8438 48.558C33.4731 48.0953 34.2916 49.1575 34.6135 49.63C34.6756 49.8855 34.6927 49.9 34.6452 50.1574C34.5054 50.3364 34.3584 50.2816 34.1702 50.1691C33.5443 49.7955 33.0609 49.263 32.8438 48.558Z" fill="#2C6E43"/>
<path d="M33.0566 50.1128C33.2998 50.1311 33.5965 50.1194 33.7613 50.2942C33.4433 50.3954 33.2511 50.4123 33.0566 50.1128Z" fill="#2C6E43"/>
<path d="M23.2555 51.1653C24.9846 50.4219 27.0754 50.2269 28.9292 50.4945C28.8457 50.6398 28.7873 50.7556 28.7144 50.9065C28.5535 51.1231 27.8582 52.3475 27.774 52.5926C27.7736 52.9447 27.2715 53.5147 27.3515 53.7781C27.5478 53.7045 27.3896 53.5981 27.6417 53.4987C27.8577 53.1964 28.1456 52.6123 28.3298 52.2659C29.0848 53.7964 29.6938 56.0623 28.9564 57.6945C27.6113 57.8661 26.5163 57.7484 25.3553 58.5387C25.2046 58.0231 25.0814 57.6762 24.8748 57.1948C24.613 56.584 23.9975 55.5922 23.9718 54.9528C23.8981 53.4683 25.8679 53.2911 26.5907 52.5186C27.18 51.889 26.2894 51.5548 25.6514 51.7517C24.64 52.0644 23.937 52.6198 23.3818 53.5011C23.117 52.8884 22.9587 52.1131 22.8457 51.4587C22.934 51.3537 23.1311 51.2436 23.2555 51.1653Z" fill="#295D37"/>
<path d="M27.7725 52.5928C27.7721 52.9448 27.27 53.5148 27.35 53.7782C27.5463 53.7047 27.3881 53.5982 27.6402 53.4989C27.0924 54.5432 26.5489 55.5886 26.1205 56.6887C26.0082 56.9775 25.9143 57.2446 25.741 57.5034L25.7649 57.4893L25.6992 57.4467C26.0954 56.1932 27.1285 53.7286 27.7725 52.5928Z" fill="#5B9C52"/>
<path d="M29.8154 49.0981L29.8632 49.115C30.0344 49.1736 30.0513 49.1872 30.2254 49.1797C30.5844 49.3733 31.8794 51.1747 32.0409 51.6406C31.8985 51.7339 31.8273 51.7386 31.6634 51.7756C31.3305 51.2689 30.9866 50.7692 30.6319 50.277C30.6019 50.4008 31.2847 51.3045 31.3897 51.4808C32.3121 53.03 33.0827 54.7588 33.0449 56.5967L32.9477 56.7416C32.3727 57.0102 31.6696 57.2122 31.0502 57.3561C31.6112 56.2944 31.7891 55.0817 31.4315 53.9206C31.307 53.5161 31.076 53.022 30.6915 52.8088C30.5801 52.7469 30.4549 52.722 30.3345 52.776C30.1606 52.8542 30.0342 53.0647 29.9883 53.2428C29.7246 54.2675 30.882 55.8716 30.0526 57.4756C29.6533 57.5942 29.373 57.6435 28.9553 57.6945C29.6927 56.0624 29.0837 53.7964 28.3287 52.266C28.1445 52.6124 27.8566 53.1964 27.6406 53.4988C27.3885 53.5981 27.5467 53.7045 27.3504 53.7781C27.2705 53.5147 27.7725 52.9447 27.7729 52.5927C27.8571 52.3475 28.5524 51.1231 28.7133 50.9066C28.826 50.8574 28.8367 50.8306 28.9256 50.7416C28.9927 50.338 28.6108 50.3239 28.5307 50.0122L28.6215 49.9428C28.819 49.9766 28.96 50.0792 29.1486 49.9766C29.4622 49.806 29.6455 49.3972 29.8154 49.0981Z" fill="#418249"/>
<path d="M35.2611 43.7945C37.6444 43.4362 39.4682 44.6692 39.843 47.0855C39.9297 47.6541 39.9167 48.2335 39.8046 48.7974C39.5533 48.7276 38.9538 48.0652 38.6602 47.8412C37.1378 46.6793 34.4939 46.0861 32.5859 46.0297C32.8979 45.623 33.6175 44.719 33.976 44.3976C34.0201 44.3896 35.1955 43.8349 35.2611 43.7945Z" fill="#295D37"/>
<path d="M27.8505 47.361C28.0038 47.2794 28.1069 47.2574 28.2786 47.3235C28.9082 47.5659 29.8746 47.7487 30.4501 48.0069C29.9773 48.6848 29.6494 49.2646 29.2161 49.956C27.4831 49.7184 24.898 49.9082 23.3885 50.953C23.2769 51.0304 23.2764 51.0576 23.2551 51.1654C23.1307 51.2437 22.9336 51.3538 22.8453 51.4588C22.7893 51.0923 22.7777 50.7149 22.7576 50.346C22.6048 48.2423 25.5719 48.6665 26.896 48.7119C27.811 48.7434 29.0469 48.194 27.8505 47.361Z" fill="#438444"/>
<path d="M54.0059 37.5139C57.4423 34.5269 62.1659 34.2646 66.0105 36.6631C66.701 37.094 67.353 37.5833 67.9596 38.1256C68.3782 38.4941 68.7804 38.8807 69.1652 39.2843C69.3152 39.4405 69.7423 39.953 69.9105 39.9754L69.9607 40.13L69.4291 40.3791C69.6279 40.7587 69.8515 41.0313 70.1238 41.3613C67.6732 40.9276 64.4684 40.8189 62.3515 42.3046C62.2554 42.3726 62.1607 42.4425 62.0674 42.5144C62.4532 42.4029 63.6452 41.9369 63.9049 41.9189C63.7615 42.035 62.6013 42.4224 62.2999 42.5507C62.4752 42.6733 62.7293 42.9985 62.883 42.9526C63.6466 42.7238 65.4152 42.2902 65.1912 43.7119C65.1668 43.7252 65.1438 43.7475 65.1157 43.748C65.2188 42.3186 63.5135 42.837 62.7349 43.1173C62.6121 42.915 62.5868 42.8658 62.4129 42.709L62.2305 42.5702C62.0304 42.3904 60.8852 42.2193 60.5618 42.2067L60.5168 42.2659C59.0276 42.0323 57.4488 42.6221 56.239 43.4604C56.1251 43.2344 55.8851 42.7236 55.7604 42.5309C55.6343 42.5089 55.6676 42.5071 55.5494 42.4236C55.2893 41.3764 54.9663 39.8649 54.5341 38.8779C54.4709 38.8455 54.4545 38.8545 54.4427 38.7964C54.3387 38.2771 54.2543 37.9855 54.0059 37.5139Z" fill="#2C6E43"/>
<path d="M54.5352 38.8778C57.1817 36.5275 60.4072 35.7108 63.7517 37.0127C65.1027 37.5386 66.207 38.3158 67.3058 39.2362C64.9002 38.7569 62.8836 39.4182 61.3845 41.369C60.9425 40.9856 60.553 40.7619 60.0092 40.5571C58.8106 40.1058 57.3116 40.2324 56.428 41.2411C56.1233 41.5894 55.9728 42.1149 55.7614 42.5308C55.6353 42.5088 55.6686 42.507 55.5505 42.4236C55.2903 41.3764 54.9673 39.8649 54.5352 38.8778Z" fill="white"/>
<path d="M25.3764 42.3534C25.6416 42.0792 26.0804 41.6331 26.3657 41.4078C27.3694 40.648 28.8967 40.1158 30.1651 40.3119C32.4516 40.6653 33.622 41.8669 33.3261 44.2153L33.2803 44.3376C32.585 45.0591 31.3662 46.595 30.8348 47.4632C30.7377 47.6221 30.5815 47.8785 30.4507 48.0069C29.8752 47.7486 28.9088 47.5658 28.2792 47.3235C28.1075 47.2574 28.0044 47.2794 27.8511 47.361C26.2691 46.76 24.4833 47.3118 23.0898 48.1255C23.164 47.5086 23.2827 46.8718 23.3978 46.2614C23.613 45.5078 23.8574 44.5263 24.3883 43.9161C25.2323 43.0534 26.8246 43.572 27.8451 43.839C28.2314 43.94 30.0171 44.9537 29.8435 43.7481C29.7958 43.4166 29.4969 43.1274 29.2236 42.9384C28.0196 42.1058 26.765 42.0778 25.3764 42.3534Z" fill="#295D37"/>
<path d="M23.3978 46.2616C23.9465 46.1085 24.5623 45.9385 25.1264 45.8859C26.8884 45.7216 29.346 46.4935 30.8348 47.4633C30.7377 47.6222 30.5815 47.8786 30.4507 48.0071C29.8752 47.7488 28.9088 47.566 28.2792 47.3236C28.1075 47.2576 28.0044 47.2796 27.8511 47.3611C26.2691 46.7602 24.4833 47.3119 23.0898 48.1257C23.164 47.5088 23.2827 46.872 23.3978 46.2616Z" fill="#5B9C52"/>
</svg>
