<svg width="64" height="64" viewBox="0 0 64 64" fill="none" xmlns="http://www.w3.org/2000/svg">
<path d="M18.5469 46.4946C25.3918 49.3433 38.6288 49.1727 45.5395 46.4917C45.414 46.8974 45.3251 47.2996 45.2326 47.7129C44.4516 51.1982 43.6883 54.6877 42.8837 58.1677C42.6234 59.2951 42.1092 59.5032 41.2015 60.0631L41.2646 60.1452C40.5601 60.5146 39.8021 60.7731 39.0176 60.912C38.7402 60.9584 38.6394 61.0932 38.4221 61.289C38.2872 61.3037 36.5727 61.4016 36.565 61.4051C35.8188 61.7557 34.9329 61.9867 34.0742 61.9966C32.3602 62.0166 30.3608 61.9474 28.6734 61.6654C27.5349 61.4754 26.5208 61.2052 25.3835 61.0334C25.0182 60.9683 24.6336 60.8165 24.2626 60.7303L24.2602 60.6429C21.6402 59.6123 21.2561 59.5003 20.7897 56.6487C20.7104 56.1639 20.5299 55.4762 20.4196 54.9802C19.7729 52.1568 19.1486 49.328 18.5469 46.4946Z" fill="#C8E467"/>
<path d="M24.2695 60.6433C25.3448 60.8215 26.4055 61.1973 27.5739 61.328C31.6834 61.7883 37.4107 61.7736 41.2109 60.0635L41.2739 60.1456C40.5695 60.5149 39.8114 60.7734 39.0269 60.9124C38.7495 60.9587 38.6488 61.0935 38.4314 61.2893C38.2966 61.304 36.582 61.4019 36.5743 61.4054C35.8281 61.756 34.9423 61.987 34.0835 61.997C32.3696 62.0169 30.3701 61.9477 28.6828 61.6657C27.5442 61.4758 26.5301 61.2055 25.3929 61.0337C25.0276 60.9687 24.6429 60.8168 24.2719 60.7306L24.2695 60.6433Z" fill="#FDFDFD"/>
<path d="M49.6164 2C50.0717 2.53954 50.0075 7.70928 49.9822 8.65345C49.7495 17.2227 45.1725 24.2277 36.7393 26.7633C35.9076 27.0135 34.0712 27.4442 33.4698 28.0968C31.4649 30.2734 31.5191 34.0539 32.9215 36.5373C33.15 36.9401 33.448 37.1512 33.4351 37.6131C33.1559 38.2815 31.4985 38.0435 30.9024 37.9866C28.4715 33.786 29.7338 29.556 31.8377 25.6195C32.885 23.6599 32.9327 22.6293 34.9246 21.2957C35.9453 20.6176 37.032 20.043 38.1676 19.5808C39.524 19.0181 40.9712 18.522 42.2363 17.7737C39.3992 18.2278 37.6764 18.3941 35.0577 19.9003C35.5678 19.2304 37.4691 16.5012 37.9827 16.1487C38.8573 15.5486 42.1816 14.8238 43.2883 14.4992C44.19 14.235 44.9916 13.8305 45.7874 13.3644C45.8586 13.3187 45.8722 13.2929 45.9317 13.2294C45.722 13.2016 44.8138 13.4978 44.4969 13.5396C42.4348 13.8119 41.1667 13.914 39.1795 14.6399C41.3122 12.2904 43.7824 10.0719 46.0247 7.82207C42.8919 9.66505 41.4 10.8521 38.647 13.291C39.0917 12.2419 39.3939 11.239 39.8845 10.1787C39.1371 10.9459 38.187 12.1989 37.823 13.1921C37.3536 14.4739 37.1822 14.5968 36.2811 15.6104C35.5383 16.4452 34.5223 17.614 33.9822 18.5827C34.1548 16.2017 34.7285 14.2765 35.4394 12.0361C34.2078 13.8559 33.3161 15.7543 32.9156 17.9437C32.773 18.5167 32.8661 19.6329 32.6388 20.1451C32.0633 21.4417 31.2081 22.6583 30.625 23.9703C30.067 21.3336 29.587 19.5416 30.0415 16.7812C30.9348 11.3569 34.5671 8.49387 39.4416 6.60147C41.5908 5.76692 43.753 5.19502 45.8734 4.19773C47.3193 3.51754 48.3171 2.92466 49.6164 2Z" fill="#C8E467"/>
<path d="M33.498 33.2363C36.9424 33.2158 45.3208 33.8613 47.9283 36.1582C48.2752 36.4643 48.5685 36.8506 48.5915 37.3284C48.6174 37.8725 47.5755 42.8581 47.3369 43.5651C47.2627 43.7861 47.1143 43.9772 46.9523 44.142C44.6923 46.4501 35.2644 47.0147 32.0774 47.0252C28.0203 47.0387 22.6219 46.6524 18.8175 45.1621C18.2153 44.9258 17.4705 44.6257 17.0159 44.1473C16.8253 43.9468 16.6858 43.6718 16.5984 43.4115C16.4143 42.8639 15.3516 37.8907 15.3714 37.407C15.3949 36.8295 15.665 36.4954 16.071 36.1225C18.9471 34.1298 24.4627 33.5617 27.919 33.2967C27.926 33.8624 27.9694 34.2576 28.0861 34.804C25.8115 34.8778 22.2586 35.2619 20.242 36.2837C19.8859 36.4637 19.3906 36.7639 19.2939 37.1813C19.2496 37.373 19.2846 37.5448 19.3892 37.7089C19.8871 38.4904 21.5259 38.8961 22.374 39.096C26.8949 40.1607 40.2178 40.6021 44.1151 38.1439C44.3708 37.9833 44.713 37.7458 44.7477 37.4175C44.7766 37.1543 44.6034 36.9098 44.422 36.7363C42.6998 35.0901 36.2309 34.716 33.8543 34.7166L33.498 33.2363Z" fill="#C8E467"/>
<path d="M14 11.9951C14.9618 12.2487 16.1555 12.41 17.1555 12.6126C21.1776 13.4276 24.9127 14.6702 27.284 18.2654C28.6605 20.3524 29.1612 23.0943 28.6663 25.5292C28.4997 25.2892 28.3314 24.9851 28.1755 24.7307C25.8279 20.9017 22.2131 17.9806 18.1035 16.1759C19.3086 17.2415 20.6692 18.2763 21.9367 19.3909C22.6682 20.0847 23.8904 21.3077 24.4444 22.1134C23.0707 21.7545 22.8821 21.7838 21.4686 21.7694C22.7377 22.435 23.9424 22.5157 25.142 23.152C25.3596 23.2674 25.785 23.8436 25.9563 24.1118C26.8668 25.5381 27.9102 27.2607 28.2862 28.9144C28.3175 29.0518 28.1832 29.6716 28.1498 29.8345C26.7629 27.2394 25.4776 27.4463 22.9214 26.7353C16.0146 24.8142 14.1923 18.3615 14 11.9951Z" fill="#C8E467"/>
</svg>
