<svg width="96" height="96" viewBox="0 0 96 96" fill="none" xmlns="http://www.w3.org/2000/svg">
<path d="M39.2084 26.8492C45.2321 26.4787 51.7483 27.0122 57.7844 26.8028C65.0788 26.5499 63.786 32.3863 66.7587 35.3637C67.3645 35.9632 68.1209 36.3879 68.9483 36.5929C71.0907 37.141 76.5471 36.7257 78.9022 36.8013C80.6929 36.859 82.7393 36.7421 84.168 38.1928C86.3739 40.4326 86.4434 41.7063 86.4581 44.6492L86.4522 64.2968C86.4581 67.9573 86.6103 71.7425 86.235 75.3781C86.173 76.9996 83.6568 79.8754 82.0921 80.2154C78.9776 80.8913 74.3441 80.6368 71.1454 80.6332L56.298 80.6137L32.4488 80.6083C28.7868 80.6074 16.2423 81.0379 13.6054 80.0778C12.131 79.5409 10.7543 78.2132 10.0989 76.7994C9.67231 75.8791 9.53637 75.0026 9.4557 74.0006C9.02279 68.6265 9.30633 63.056 9.30574 57.6635C9.30515 52.68 9.02753 47.4186 9.38804 42.4612C9.43443 41.825 9.52825 41.2606 9.75712 40.6622C10.3196 39.1907 11.5091 37.8235 12.9791 37.2196C15.5049 36.1818 23.7137 36.6939 26.9624 36.6793C28.1395 36.674 29.4575 36.783 30.5999 36.5008C34.5098 35.5347 34.3207 30.2816 37.152 27.9593C37.7532 27.4662 38.5032 27.1632 39.2084 26.8492Z" fill="#C8E467"/>
<path d="M47.6171 35.8613C59.347 34.8277 69.7116 43.4602 70.8153 55.1841C71.919 66.9081 63.3495 77.3234 51.6324 78.498C39.8152 79.6825 29.2913 71.0235 28.1778 59.1994C27.0643 47.3752 35.7865 36.9036 47.6171 35.8613Z" fill="#FDFDFD"/>
<path d="M47.684 39.4594C57.5395 38.3007 66.4636 45.3665 67.5953 55.2256C68.7271 65.0846 61.6366 73.9886 51.7746 75.0936C41.9502 76.1942 33.0879 69.1374 31.9604 59.3162C30.8331 49.495 37.8658 40.6134 47.684 39.4594Z" fill="#C8E467"/>
<path d="M48.6652 42.2571C48.9151 42.2324 49.1655 42.2144 49.4164 42.2029C52.5342 42.0669 59.475 44.0392 60.4827 48.0829C60.5581 48.3807 60.2138 48.6174 59.9966 48.7875C58.624 49.0081 57.4923 47.5875 56.2754 46.9666C49.1968 43.3552 40.948 46.8747 38.192 54.2084C36.8364 58.7019 37.0195 61.4328 38.5447 65.832C38.0756 65.4194 37.6217 64.9906 37.2529 64.476C31.7743 56.8344 35.6188 46.9988 43.8374 43.4265C45.6018 42.6597 46.7913 42.5121 48.6652 42.2571Z" fill="#FDFDFD"/>
<path d="M64.1414 53.0857C64.3291 53.2228 64.4576 53.4466 64.5167 53.6729C67.8248 66.2793 55.8225 76.1168 43.8948 70.4531C43.3795 70.0859 43.2072 69.9558 42.7637 69.5028L42.8364 69.3886C47.7855 70.8959 53.4681 71.1899 57.964 68.0777C61.4775 65.6462 63.5889 61.5701 63.9435 57.3617C64.0602 55.9684 63.8607 54.4568 64.1414 53.0857Z" fill="#FDFDFD"/>
<path d="M74.9839 40.7824C76.5471 40.7263 79.7799 40.4571 81.0195 41.232C82.0316 41.865 81.9858 45.2672 81.1141 46.1041C80.6014 46.5967 80.2069 46.5235 79.5657 46.5701C77.9818 46.642 75.8838 46.6395 74.3309 46.5257C72.7677 45.5227 72.7692 43.2277 73.4858 41.6541C73.7488 41.0745 74.4151 40.9407 74.9839 40.7824Z" fill="#FDFDFD"/>
<path d="M20.0129 32.3739C21.7873 32.2869 29.7503 31.8781 30.2467 33.7885C30.1495 35.0006 28.8835 35.6217 27.7801 35.5344C25.9505 35.4741 17.4896 36.3937 16.9828 34.1327C16.5834 32.3514 18.7073 32.3968 20.0129 32.3739Z" fill="#C8E467"/>
<path d="M20.5211 8.01904C21.4815 8.50957 21.3661 10.3674 22.1687 11.1587C22.6664 11.6495 25.0923 12.3255 25.2129 12.8459C24.5689 13.3447 23.0467 13.4997 22.5571 13.8258C21.4683 14.5506 21.4011 16.5011 20.5313 17.8048C20.2661 17.3209 20.3249 17.1058 20.1748 16.5928C19.8248 15.3963 19.5019 14.7811 18.7777 13.7876C17.6864 13.4277 16.342 13.1137 15.2227 12.8412C16.7389 12.2209 17.4294 12.0392 18.9844 11.293C19.9484 9.99992 19.8518 9.06216 20.5211 8.01904Z" fill="#C8E467"/>
<path d="M81.7985 19.9614C82.3777 20.5217 82.3289 21.717 82.6747 22.4622C83.3588 23.9405 85.4007 24.5968 86.7954 25.1701C85.8543 25.5354 83.7651 25.7486 83.0958 26.4494C82.552 27.0194 82.4516 28.7505 81.9921 29.5328L81.7084 29.5826C79.6428 25.7052 80.7879 26.3795 76.3613 25.1225C79.9177 24.3629 80.4377 23.0017 81.7985 19.9614Z" fill="#C8E467"/>
<path d="M80.2795 84.7544C81.1471 84.6693 81.9261 85.2868 82.0399 86.1508C82.1552 87.0148 81.5654 87.8143 80.7051 87.9587C80.1228 88.0567 79.533 87.8289 79.1664 87.3646C78.8013 86.9003 78.7186 86.2736 78.9492 85.7298C79.1812 85.1862 79.6912 84.8122 80.2795 84.7544Z" fill="#C8E467"/>
</svg>
