<svg width="96" height="96" viewBox="0 0 96 96" fill="none" xmlns="http://www.w3.org/2000/svg">
<path d="M45.2091 3.05371H47.9841H51.3392L51.3609 3.28868C57.1559 3.2586 64.4023 6.05392 68.5343 10.1536C69.1632 10.7746 69.7613 11.4261 70.3265 12.1056C70.446 12.2493 71.0732 13.0629 71.1529 13.1345C74.5938 18.021 75.42 21.171 76.5905 26.8016C76.7137 28.769 76.999 30.417 77.0389 32.5292C77.1331 42.3245 75.1378 52.0272 71.1863 60.9904C70.5835 62.3864 68.4378 66.9211 67.5357 67.9631C66.9689 68.0638 65.283 68.0321 64.6538 68.0298L59.5434 68.0048C58.3876 68.0562 56.8725 68.0117 55.694 68.0116L47.9963 68.0269C44.1977 67.943 40.2639 68.0572 36.4382 68.0116C33.9379 67.9549 30.936 68.1443 28.4882 67.9889C27.6809 67.0016 26.1027 63.7215 25.4164 62.3728C24.6092 62.4286 23.2542 62.3414 22.4217 62.294C18.079 62.0468 12.9015 61.1719 9.21515 58.7943C6.57652 57.0347 4.06625 54.5592 3.37005 51.3684C2.36415 46.7582 5.98676 41.0141 10.6508 40.1011C14.005 39.4446 16.8702 40.5813 19.6464 42.449C19.4694 41.764 19.2421 39.6684 19.1704 38.9215C18.3382 29.7904 19.4526 19.6559 25.422 12.3092C29.4806 7.31403 34.8046 4.73048 41.0558 3.61726C42.3292 3.39049 43.2845 3.39602 44.5609 3.28828C44.8441 3.21033 44.9388 3.1828 45.2091 3.05371Z" fill="#84CD80"/>
<path d="M47.9844 3.05371H51.3395L51.3612 3.28868C57.1562 3.2586 64.4026 6.05392 68.5346 10.1536C69.1635 10.7746 69.7616 11.4261 70.3268 12.1056C70.4463 12.2493 71.0736 13.0629 71.1533 13.1345C74.5941 18.021 75.4203 21.171 76.5908 26.8016C76.714 28.769 76.9994 30.417 77.0392 32.5292C77.1334 42.3245 75.1381 52.0272 71.1866 60.9904C70.5838 62.3864 68.4382 66.9211 67.536 67.9631C66.9692 68.0638 65.2833 68.0321 64.6541 68.0298L59.5438 68.0048C58.3879 68.0562 56.8728 68.0117 55.6943 68.0116L47.9966 68.0269L47.9844 3.05371Z" fill="#3AA000"/>
<path d="M51.3613 3.28784C57.1563 3.25776 64.4027 6.05308 68.5347 10.1528C69.1636 10.7738 69.7617 11.4252 70.3269 12.1047C70.4464 12.2484 71.0737 13.0621 71.1534 13.1337C74.5942 18.0202 75.4204 21.1702 76.5909 26.8007C76.7141 28.7682 76.9995 30.4161 77.0393 32.5284C77.1335 42.3236 75.1382 52.0264 71.1867 60.9896C70.5839 62.3856 68.4383 66.9202 67.5361 67.9623C66.9693 68.0629 65.2834 68.0313 64.6542 68.029L59.5439 68.004C59.6552 67.345 60.4124 65.0338 60.6245 64.2983C61.1542 62.4006 61.6193 60.4853 62.0191 58.556C64.2683 47.8523 65.3025 36.0731 64.2412 25.1595C63.4146 16.6593 60.4721 6.22784 51.4114 3.33713C51.3947 3.3207 51.378 3.30427 51.3613 3.28784Z" fill="#276B00"/>
<path d="M45.209 3.05371H47.984L47.9962 68.0269C44.1976 67.943 40.2639 68.0572 36.4382 68.0116C36.1061 66.5709 35.5873 65.1553 35.1949 63.7276C34.5807 61.492 34.0784 59.2045 33.6283 56.9296C31.1306 44.3052 29.2527 23.0804 35.5028 11.3115C37.477 7.59416 40.4762 4.63934 44.5697 3.38892L44.5608 3.28828C44.8441 3.21033 44.9387 3.1828 45.209 3.05371Z" fill="#41B300"/>
<path d="M25.4164 62.3721C24.6092 62.428 23.2542 62.3407 22.4217 62.2933C18.079 62.0461 12.9015 61.1712 9.21515 58.7936C6.57652 57.034 4.06625 54.5585 3.37005 51.3678C2.36415 46.7575 5.98676 41.0134 10.6508 40.1005C14.005 39.4439 16.8702 40.5806 19.6464 42.4483C19.9373 43.8553 20.1224 45.2597 20.406 46.6636C20.9681 49.4186 21.6905 52.1386 22.5693 54.8095C23.0235 56.1884 23.4615 57.4269 23.9909 58.7715C24.3636 59.7184 25.1877 61.4528 25.4164 62.3721Z" fill="#84CD80"/>
<path d="M59.5426 68.0042L64.653 68.0292C65.2822 68.0315 66.9681 68.0632 67.5349 67.9625L67.5981 67.9735C69.5471 68.2912 73.3934 67.2212 74.7821 69.034C75.5923 70.0915 75.1416 71.8418 74.9139 73.0958C74.4879 75.3466 74.0841 77.6014 73.7025 79.8601C72.8728 84.5704 72.5571 87.8506 68.229 90.9657C67.3372 91.6073 66.3964 92.0075 65.3726 92.4139C64.9772 92.571 63.9669 92.751 63.6953 92.9335H47.993H32.4669C32.2318 92.7756 31.1768 92.5561 30.8279 92.4341C29.3349 91.9452 28.1852 91.2606 26.964 90.3151C22.589 86.9271 22.7807 81.4165 21.7189 76.4859C21.4037 74.6139 20.9802 72.749 20.7751 70.8614C20.7132 70.2923 20.9037 69.3441 21.3144 68.9515C22.9803 67.3592 26.2273 68.1424 28.4124 67.9937L28.4874 67.9883C30.9352 68.1437 33.9371 67.9542 36.4374 68.0109C40.2631 68.0566 44.1969 67.9424 47.9955 68.0263L55.6931 68.0109C56.8717 68.011 58.3868 68.0555 59.5426 68.0042Z" fill="#B0B0B0"/>
<path d="M63.7111 92.9337C64.0168 92.8665 64.879 92.577 65.2278 92.455C66.8781 91.8778 67.8042 91.3312 69.0254 90.3857C73.4896 86.9293 73.2074 81.5602 74.2692 76.6296C74.5844 74.7577 75.0409 72.8972 75.246 71.0096C75.3079 70.4405 75.1266 69.2745 74.7159 68.8819C73.05 67.2896 69.7526 68.1426 67.5675 67.9939L67.4925 67.9885C65.0447 68.1438 62.0428 67.9544 59.5425 68.0111C55.7168 68.0567 51.783 67.9426 47.9844 68.0265L47.9869 92.9337H63.7111Z" fill="#E3E3E3"/>
<path d="M81.7127 3.05371H84.6592C87.884 4.05814 90.2289 5.58284 91.8526 8.69323C92.8962 10.708 93.0858 13.0579 92.3783 15.2139C91.1521 19.0603 87.7401 22.2156 84.2226 24.0376C81.1387 25.6349 79.5709 25.8273 76.5899 26.8016C75.4194 21.171 74.5932 18.021 71.1523 13.1345C71.5478 11.8428 72.2818 10.6165 73.0067 9.48572C75.0229 6.34079 78.058 4.05655 81.6661 3.0798C81.6816 3.07111 81.6971 3.06241 81.7127 3.05371Z" fill="#276B00"/>
</svg>
